<svg xmlns="http://www.w3.org/2000/svg" xmlns:xlink="http://www.w3.org/1999/xlink">

<symbol id="penetration" viewBox="0 0 512 256">
<defs id="defs3924"><marker id="TriangleOutS" orient="auto" overflow="visible" refX="0" refY="0"><path id="path4974" fill="#d08770" fill-opacity="1" fill-rule="evenodd" stroke="#d08770" stroke-opacity="1" stroke-width=".2pt" d="M1.154 0l-1.73 1v-2l1.73 1z"/></marker><marker id="TriangleOutM" orient="auto" overflow="visible" refX="0" refY="0"><path id="path4971" fill="#d08770" fill-opacity="1" fill-rule="evenodd" stroke="#d08770" stroke-opacity="1" stroke-width=".4pt" d="M2.308 0l-3.46 2v-4l3.46 2z"/></marker><marker id="marker5168" orient="auto" overflow="visible" refX="0" refY="0"><path id="path5166" fill="#d08770" fill-opacity="1" fill-rule="evenodd" stroke="#d08770" stroke-opacity="1" stroke-width=".2pt" d="M-1.2 0l-1 1 3.5-1-3.5-1 1 1z"/></marker><marker id="Arrow1Mend" orient="auto" overflow="visible" refX="0" refY="0"><path id="path4835" fill="#d08770" fill-opacity="1" fill-rule="evenodd" stroke="#d08770" stroke-opacity="1" stroke-width=".4pt" d="M-4 0l-2 2 7-2-7-2 2 2z"/></marker><marker id="Arrow1Send" orient="auto" overflow="visible" refX="0" refY="0"><path id="path4841" fill="#d08770" fill-opacity="1" fill-rule="evenodd" stroke="#d08770" stroke-opacity="1" stroke-width=".2pt" d="M-1.2 0l-1 1 3.5-1-3.5-1 1 1z"/></marker><marker id="Arrow2Lend" orient="auto" overflow="visible" refX="0" refY="0"><path id="path4847" fill="#d08770" fill-opacity="1" fill-rule="evenodd" stroke="#d08770" stroke-linejoin="round" stroke-opacity="1" stroke-width=".6875" d="M-10.69-4.437L1.328-.017-10.69 4.401c1.92-2.61 1.909-6.18 0-8.84z"/></marker><marker id="TriangleOutS-2" orient="auto" overflow="visible" refX="0" refY="0"><path id="path4974-7" fill="#d08770" fill-opacity="1" fill-rule="evenodd" stroke="#d08770" stroke-opacity="1" stroke-width=".2666" d="M1.154 0l-1.73 1v-2z"/></marker><marker id="TriangleOutS-2-9" orient="auto" overflow="visible" refX="0" refY="0"><path id="path4974-7-3" fill="#d08770" fill-opacity="1" fill-rule="evenodd" stroke="#d08770" stroke-opacity="1" stroke-width=".2666" d="M1.154 0l-1.73 1v-2z"/></marker></defs><path id="line3837" d="M387 51v184" class="penetration-st0"/><path id="line3839" d="M233 162h236" class="penetration-st0"/><path id="rect3841" d="M58 31h83v52H58z" class="penetration-st0"/><path id="polygon3843" fill="none" stroke="#8fbcbb" stroke-linecap="round" stroke-linejoin="round" stroke-miterlimit="10" stroke-width="4" d="M107 68l77-14-53 83z"/><path id="polyline3845" fill="none" stroke="#bf616a" stroke-linecap="round" stroke-linejoin="round" stroke-miterlimit="10" stroke-width="4" d="M245.5 156.7l81.2-88.2h81.1l24.7 56.5v51.1l-90 15.9h-97v-35.3"/><path id="path4745" fill="#fff" d="M207.209 91.801c.564.804 1.21 1.54 1.83 2.3.425.584.88 1.143 1.322 1.714.298.474.597.958.988 1.36.361.485.539.932.92 1.413.296.45.608.902.992 1.282l.997 1.365c.406.361.857.657 1.244 1.046.507.34.993.71 1.494 1.059.383.418.735.844 1.191 1.188.518.46 1.176.679 1.771 1.005.551.29 1.072.63 1.615.936.516.243 1.012.52 1.52.782.583.324 1.247.428 1.856.675.57.227 1.094.557 1.632.853.517.24 1.013.52 1.52.782.555.322 1.056.708 1.673.902.577.221 1.04.608 1.53.967.32.175.593.392.932.533l-4.778 3.15c-.343-.19-.666-.408-.994-.624-.441-.342-.903-.645-1.432-.837-.605-.264-1.135-.652-1.72-.957-.503-.276-1.021-.525-1.529-.795-.504-.294-1.02-.58-1.57-.778-.652-.206-1.301-.416-1.909-.737-.506-.276-1.027-.524-1.532-.802a31.202 31.202 0 00-1.59-.92c-.642-.316-1.293-.627-1.845-1.093-.422-.362-.783-.773-1.171-1.164-.508-.381-1.048-.719-1.535-1.127-.424-.387-.928-.684-1.299-1.126-.323-.432-.628-.878-.96-1.302a10.124 10.124 0 01-1.018-1.327c-.35-.44-.567-.932-.9-1.378a9.755 9.755 0 01-1.006-1.404c-.44-.567-.867-1.143-1.299-1.717-.61-.768-1.218-1.54-1.851-2.289l4.91-2.935z"/><path id="path4752-0" fill="none" fill-opacity="1" fill-rule="evenodd" stroke="#d08770" stroke-dasharray="none" stroke-dashoffset="0" stroke-linecap="round" stroke-linejoin="round" stroke-miterlimit="4" stroke-opacity="1" stroke-width="4" marker-end="url(#TriangleOutS-2)" d="M387.415 163.662l3.85 14.618" opacity="1" vector-effect="none"/><path id="path4752-0-6" fill="none" fill-opacity="1" fill-rule="evenodd" stroke="#d08770" stroke-dasharray="none" stroke-dashoffset="0" stroke-linecap="round" stroke-linejoin="round" stroke-miterlimit="4" stroke-opacity="1" stroke-width="4" marker-end="url(#TriangleOutS-2-9)" d="M135.364 63.578l3.85 14.618" opacity="1" vector-effect="none"/><g id="text7120" fill="#d08770" fill-opacity="1" stroke="none" stroke-linecap="butt" stroke-linejoin="miter" stroke-opacity="1" stroke-width="1" style="line-height:125%;-inkscape-font-specification:'sans-serif, Bold';font-variant-ligatures:normal;font-variant-caps:normal;font-variant-numeric:normal;font-feature-settings:normal;text-align:center" aria-label="Penetration Vector" font-family="sans-serif" font-size="26.667" font-stretch="normal" font-style="normal" font-variant="normal" font-weight="700" letter-spacing="0" text-anchor="middle" word-spacing="0" writing-mode="lr-tb"><path id="path14239" style="-inkscape-font-specification:'sans-serif, Bold';font-variant-ligatures:normal;font-variant-caps:normal;font-variant-numeric:normal;font-feature-settings:normal;text-align:center" d="M31.762 151.804h8.32q3.711 0 5.69 1.654 1.993 1.64 1.993 4.688 0 3.06-1.993 4.713-1.979 1.64-5.69 1.64h-3.307v6.746h-5.013zm5.013 3.633v5.43h2.773q1.459 0 2.253-.703.794-.716.794-2.018 0-1.303-.794-2.006-.794-.703-2.253-.703z"/><path id="path14241" style="-inkscape-font-specification:'sans-serif, Bold';font-variant-ligatures:normal;font-variant-caps:normal;font-variant-numeric:normal;font-feature-settings:normal;text-align:center" d="M65.642 163.914v1.328H54.744q.169 1.64 1.185 2.46 1.015.821 2.838.821 1.472 0 3.008-.43 1.55-.442 3.177-1.328v3.594q-1.654.625-3.307.938-1.654.325-3.308.325-3.958 0-6.158-2.005-2.188-2.018-2.188-5.651 0-3.568 2.149-5.612 2.161-2.044 5.937-2.044 3.438 0 5.495 2.07 2.07 2.07 2.07 5.534zm-4.791-1.55q0-1.328-.782-2.135-.768-.82-2.018-.82-1.354 0-2.2.768-.847.755-1.055 2.187z"/><path id="path14243" style="-inkscape-font-specification:'sans-serif, Bold';font-variant-ligatures:normal;font-variant-caps:normal;font-variant-numeric:normal;font-feature-settings:normal;text-align:center" d="M83.82 162.364v8.88h-4.688v-6.796q0-1.888-.091-2.605-.079-.716-.287-1.054-.273-.456-.742-.703-.469-.26-1.068-.26-1.458 0-2.291 1.132-.834 1.12-.834 3.112v7.175h-4.661V156.66h4.661v2.136q1.055-1.276 2.24-1.875 1.185-.612 2.617-.612 2.526 0 3.828 1.55 1.315 1.549 1.315 4.504z"/><path id="path14245" style="-inkscape-font-specification:'sans-serif, Bold';font-variant-ligatures:normal;font-variant-caps:normal;font-variant-numeric:normal;font-feature-settings:normal;text-align:center" d="M102.725 163.914v1.328H91.828q.17 1.64 1.185 2.46 1.016.821 2.839.821 1.47 0 3.007-.43 1.55-.442 3.177-1.328v3.594q-1.653.625-3.307.938-1.654.325-3.307.325-3.959 0-6.159-2.005-2.188-2.018-2.188-5.651 0-3.568 2.149-5.612 2.161-2.044 5.937-2.044 3.438 0 5.495 2.07 2.07 2.07 2.07 5.534zm-4.791-1.55q0-1.328-.781-2.135-.769-.82-2.019-.82-1.354 0-2.2.768-.847.755-1.055 2.187z"/><path id="path14247" style="-inkscape-font-specification:'sans-serif, Bold';font-variant-ligatures:normal;font-variant-caps:normal;font-variant-numeric:normal;font-feature-settings:normal;text-align:center" d="M111.332 152.52v4.141h4.805v3.334h-4.805v6.184q0 1.016.404 1.38.404.352 1.601.352h2.396v3.334h-3.997q-2.76 0-3.92-1.146-1.145-1.16-1.145-3.92v-6.184h-2.318v-3.334h2.318v-4.14z"/><path id="path14249" style="-inkscape-font-specification:'sans-serif, Bold';font-variant-ligatures:normal;font-variant-caps:normal;font-variant-numeric:normal;font-feature-settings:normal;text-align:center" d="M129.835 160.633q-.612-.287-1.224-.417-.599-.143-1.211-.143-1.797 0-2.773 1.159-.964 1.145-.964 3.294v6.719h-4.661V156.66h4.661v2.396q.898-1.432 2.057-2.083 1.172-.664 2.8-.664.234 0 .508.026.273.013.794.078z"/><path id="path14251" style="-inkscape-font-specification:'sans-serif, Bold';font-variant-ligatures:normal;font-variant-caps:normal;font-variant-numeric:normal;font-feature-settings:normal;text-align:center" d="M138.715 164.682q-1.458 0-2.2.495-.73.495-.73 1.458 0 .886.586 1.393.6.495 1.654.495 1.315 0 2.214-.937.898-.95.898-2.37v-.534zm7.122-1.758v8.32h-4.7v-2.16q-.938 1.327-2.11 1.94-1.171.598-2.851.598-2.266 0-3.685-1.315-1.406-1.328-1.406-3.437 0-2.566 1.758-3.764 1.77-1.197 5.547-1.197h2.747v-.365q0-1.107-.872-1.615-.873-.52-2.722-.52-1.497 0-2.786.3-1.29.299-2.396.898v-3.555q1.497-.365 3.008-.547 1.51-.195 3.02-.195 3.946 0 5.69 1.562 1.758 1.55 1.758 5.052z"/><path id="path14253" style="-inkscape-font-specification:'sans-serif, Bold';font-variant-ligatures:normal;font-variant-caps:normal;font-variant-numeric:normal;font-feature-settings:normal;text-align:center" d="M155.29 152.52v4.141h4.805v3.334h-4.804v6.184q0 1.016.403 1.38.404.352 1.602.352h2.396v3.334h-3.998q-2.76 0-3.919-1.146-1.146-1.16-1.146-3.92v-6.184h-2.318v-3.334h2.318v-4.14z"/><path id="path14255" style="-inkscape-font-specification:'sans-serif, Bold';font-variant-ligatures:normal;font-variant-caps:normal;font-variant-numeric:normal;font-feature-settings:normal;text-align:center" d="M162.96 156.661h4.661v14.584h-4.661zm0-5.677h4.661v3.802h-4.661z"/><path id="path14257" style="-inkscape-font-specification:'sans-serif, Bold';font-variant-ligatures:normal;font-variant-caps:normal;font-variant-numeric:normal;font-feature-settings:normal;text-align:center" d="M179.067 159.643q-1.55 0-2.37 1.12-.807 1.107-.807 3.203t.807 3.216q.82 1.107 2.37 1.107 1.523 0 2.33-1.107.808-1.12.808-3.216t-.808-3.203q-.807-1.12-2.33-1.12zm0-3.333q3.763 0 5.872 2.03 2.122 2.032 2.122 5.626 0 3.594-2.122 5.625-2.11 2.031-5.872 2.031-3.776 0-5.912-2.031-2.122-2.031-2.122-5.625t2.122-5.625q2.136-2.031 5.912-2.031z"/><path id="path14259" style="-inkscape-font-specification:'sans-serif, Bold';font-variant-ligatures:normal;font-variant-caps:normal;font-variant-numeric:normal;font-feature-settings:normal;text-align:center" d="M205.121 162.364v8.88h-4.687v-6.796q0-1.888-.091-2.605-.078-.716-.287-1.054-.273-.456-.742-.703-.469-.26-1.068-.26-1.458 0-2.291 1.132-.834 1.12-.834 3.112v7.175h-4.661V156.66h4.661v2.136q1.055-1.276 2.24-1.875 1.185-.612 2.617-.612 2.526 0 3.828 1.55 1.315 1.549 1.315 4.504z"/><path id="path14261" style="-inkscape-font-specification:'sans-serif, Bold';font-variant-ligatures:normal;font-variant-caps:normal;font-variant-numeric:normal;font-feature-settings:normal;text-align:center" d="M69.73 185.138h5.04l5.156 14.349 5.143-14.35h5.04l-7.201 19.44H76.93z"/><path id="path14263" style="-inkscape-font-specification:'sans-serif, Bold';font-variant-ligatures:normal;font-variant-caps:normal;font-variant-numeric:normal;font-feature-settings:normal;text-align:center" d="M105.564 197.247v1.328H94.666q.169 1.64 1.185 2.461 1.015.82 2.838.82 1.471 0 3.008-.43 1.55-.442 3.177-1.327v3.593q-1.654.625-3.307.938-1.654.325-3.308.325-3.958 0-6.158-2.005-2.188-2.018-2.188-5.65 0-3.568 2.148-5.613 2.162-2.044 5.938-2.044 3.437 0 5.495 2.07 2.07 2.07 2.07 5.534zm-4.792-1.55q0-1.327-.78-2.135-.77-.82-2.02-.82-1.353 0-2.2.768-.846.755-1.054 2.188z"/><path id="path14265" style="-inkscape-font-specification:'sans-serif, Bold';font-variant-ligatures:normal;font-variant-caps:normal;font-variant-numeric:normal;font-feature-settings:normal;text-align:center" d="M120.864 190.45v3.802q-.951-.65-1.915-.963-.95-.313-1.979-.313-1.953 0-3.047 1.146-1.08 1.133-1.08 3.177t1.08 3.19q1.094 1.133 3.047 1.133 1.094 0 2.07-.325.99-.326 1.824-.964v3.815q-1.094.404-2.227.6-1.12.207-2.253.207-3.945 0-6.172-2.018-2.226-2.031-2.226-5.638 0-3.607 2.226-5.625 2.227-2.031 6.172-2.031 1.146 0 2.253.208 1.12.196 2.227.6z"/><path id="path14267" style="-inkscape-font-specification:'sans-serif, Bold';font-variant-ligatures:normal;font-variant-caps:normal;font-variant-numeric:normal;font-feature-settings:normal;text-align:center" d="M130.004 185.854v4.14h4.805v3.334h-4.805v6.185q0 1.015.404 1.38.403.352 1.601.352h2.396v3.333h-3.997q-2.76 0-3.92-1.146-1.145-1.159-1.145-3.92v-6.184h-2.318v-3.333h2.318v-4.141z"/><path id="path14269" style="-inkscape-font-specification:'sans-serif, Bold';font-variant-ligatures:normal;font-variant-caps:normal;font-variant-numeric:normal;font-feature-settings:normal;text-align:center" d="M144.614 192.976q-1.55 0-2.37 1.12-.808 1.107-.808 3.203 0 2.097.808 3.216.82 1.107 2.37 1.107 1.523 0 2.33-1.107.808-1.12.808-3.216t-.808-3.203q-.807-1.12-2.33-1.12zm0-3.333q3.763 0 5.872 2.031 2.122 2.031 2.122 5.625t-2.122 5.625q-2.11 2.031-5.872 2.031-3.777 0-5.912-2.03-2.122-2.032-2.122-5.626 0-3.594 2.122-5.625 2.135-2.031 5.912-2.031z"/><path id="path14271" style="-inkscape-font-specification:'sans-serif, Bold';font-variant-ligatures:normal;font-variant-caps:normal;font-variant-numeric:normal;font-feature-settings:normal;text-align:center" d="M166.84 193.966q-.612-.287-1.224-.417-.599-.143-1.21-.143-1.798 0-2.774 1.159-.964 1.146-.964 3.294v6.719h-4.661v-14.583h4.661v2.395q.899-1.432 2.058-2.083 1.171-.664 2.799-.664.234 0 .508.026.273.013.794.078z"/></g></svg>
</symbol>

</svg>