<?xml version="1.0" encoding="UTF-8" standalone="no"?>
<!-- Generator: Adobe Illustrator 21.0.2, SVG Export Plug-In . SVG Version: 6.00 Build 0)  -->

<svg
   xmlns:dc="http://purl.org/dc/elements/1.1/"
   xmlns:cc="http://creativecommons.org/ns#"
   xmlns:rdf="http://www.w3.org/1999/02/22-rdf-syntax-ns#"
   xmlns:svg="http://www.w3.org/2000/svg"
   xmlns="http://www.w3.org/2000/svg"
   xmlns:sodipodi="http://sodipodi.sourceforge.net/DTD/sodipodi-0.dtd"
   xmlns:inkscape="http://www.inkscape.org/namespaces/inkscape"
   version="1.1"
   id="Layer_1"
   x="0px"
   y="0px"
   viewBox="0 0 512 256"
   style="enable-background:new 0 0 512 256;"
   xml:space="preserve"
   sodipodi:docname="penetration-vector-md-origin.svg"
   inkscape:version="0.92.1 r"><metadata
     id="metadata3926"><rdf:RDF><cc:Work
         rdf:about=""><dc:format>image/svg+xml</dc:format><dc:type
           rdf:resource="http://purl.org/dc/dcmitype/StillImage" /><dc:title /></cc:Work></rdf:RDF></metadata><defs
     id="defs3924"><marker
       inkscape:stockid="TriangleOutS"
       orient="auto"
       refY="0.0"
       refX="0.0"
       id="TriangleOutS"
       style="overflow:visible"
       inkscape:isstock="true"><path
         id="path4974"
         d="M 5.77,0.0 L -2.88,5.0 L -2.88,-5.0 L 5.77,0.0 z "
         style="fill-rule:evenodd;stroke:#d08770;stroke-width:1pt;stroke-opacity:1;fill:#d08770;fill-opacity:1"
         transform="scale(0.2)" /></marker><marker
       inkscape:stockid="TriangleOutM"
       orient="auto"
       refY="0.0"
       refX="0.0"
       id="TriangleOutM"
       style="overflow:visible"
       inkscape:isstock="true"><path
         id="path4971"
         d="M 5.77,0.0 L -2.88,5.0 L -2.88,-5.0 L 5.77,0.0 z "
         style="fill-rule:evenodd;stroke:#d08770;stroke-width:1pt;stroke-opacity:1;fill:#d08770;fill-opacity:1"
         transform="scale(0.4)" /></marker><marker
       inkscape:stockid="Arrow1Send"
       orient="auto"
       refY="0.0"
       refX="0.0"
       id="marker5168"
       style="overflow:visible;"
       inkscape:isstock="true"><path
         id="path5166"
         d="M 0.0,0.0 L 5.0,-5.0 L -12.5,0.0 L 5.0,5.0 L 0.0,0.0 z "
         style="fill-rule:evenodd;stroke:#d08770;stroke-width:1pt;stroke-opacity:1;fill:#d08770;fill-opacity:1"
         transform="scale(0.2) rotate(180) translate(6,0)" /></marker><marker
       inkscape:stockid="Arrow1Mend"
       orient="auto"
       refY="0.0"
       refX="0.0"
       id="Arrow1Mend"
       style="overflow:visible;"
       inkscape:isstock="true"><path
         id="path4835"
         d="M 0.0,0.0 L 5.0,-5.0 L -12.5,0.0 L 5.0,5.0 L 0.0,0.0 z "
         style="fill-rule:evenodd;stroke:#d08770;stroke-width:1pt;stroke-opacity:1;fill:#d08770;fill-opacity:1"
         transform="scale(0.4) rotate(180) translate(10,0)" /></marker><marker
       inkscape:stockid="Arrow1Send"
       orient="auto"
       refY="0.0"
       refX="0.0"
       id="Arrow1Send"
       style="overflow:visible;"
       inkscape:isstock="true"><path
         id="path4841"
         d="M 0.0,0.0 L 5.0,-5.0 L -12.5,0.0 L 5.0,5.0 L 0.0,0.0 z "
         style="fill-rule:evenodd;stroke:#d08770;stroke-width:1pt;stroke-opacity:1;fill:#d08770;fill-opacity:1"
         transform="scale(0.2) rotate(180) translate(6,0)" /></marker><marker
       inkscape:stockid="Arrow2Lend"
       orient="auto"
       refY="0.0"
       refX="0.0"
       id="Arrow2Lend"
       style="overflow:visible;"
       inkscape:isstock="true"><path
         id="path4847"
         style="fill-rule:evenodd;stroke-width:0.625;stroke-linejoin:round;stroke:#d08770;stroke-opacity:1;fill:#d08770;fill-opacity:1"
         d="M 8.7185878,4.0337352 L -2.2072895,0.016013256 L 8.7185884,-4.0017078 C 6.9730900,-1.6296469 6.9831476,1.6157441 8.7185878,4.0337352 z "
         transform="scale(1.1) rotate(180) translate(1,0)" /></marker><marker
       inkscape:stockid="TriangleOutS"
       orient="auto"
       refY="0"
       refX="0"
       id="TriangleOutS-2"
       style="overflow:visible"
       inkscape:isstock="true"><path
         inkscape:connector-curvature="0"
         id="path4974-7"
         d="M 5.77,0 -2.88,5 V -5 Z"
         style="fill:#d08770;fill-opacity:1;fill-rule:evenodd;stroke:#d08770;stroke-width:1.00000003pt;stroke-opacity:1"
         transform="scale(0.2)" /></marker><marker
       inkscape:stockid="TriangleOutS"
       orient="auto"
       refY="0"
       refX="0"
       id="TriangleOutS-2-9"
       style="overflow:visible"
       inkscape:isstock="true"><path
         inkscape:connector-curvature="0"
         id="path4974-7-3"
         d="M 5.77,0 -2.88,5 V -5 Z"
         style="fill:#d08770;fill-opacity:1;fill-rule:evenodd;stroke:#d08770;stroke-width:1.00000003pt;stroke-opacity:1"
         transform="scale(0.2)" /></marker></defs><sodipodi:namedview
     pagecolor="#ffffff"
     bordercolor="#666666"
     borderopacity="1"
     objecttolerance="10"
     gridtolerance="10"
     guidetolerance="10"
     inkscape:pageopacity="0"
     inkscape:pageshadow="2"
     inkscape:window-width="1920"
     inkscape:window-height="1016"
     id="namedview3922"
     showgrid="false"
     inkscape:zoom="2.5957031"
     inkscape:cx="163.73213"
     inkscape:cy="128"
     inkscape:window-x="0"
     inkscape:window-y="34"
     inkscape:window-maximized="1"
     inkscape:current-layer="Layer_1" /><style
     type="text/css"
     id="style3835">
	.st0{fill:none;stroke:#88c0d0;stroke-width:4;stroke-linecap:round;stroke-linejoin:round;stroke-miterlimit:10;}
	.st1{fill:none;stroke:#8fbcbb;stroke-width:4;stroke-linecap:round;stroke-linejoin:round;stroke-miterlimit:10;}
	.st2{fill:none;stroke:#bf616a;stroke-width:4;stroke-linecap:round;stroke-linejoin:round;stroke-miterlimit:10;}
	.st3{fill:#ebcb8b;}
	.st4{fill:none;stroke:#d08770;stroke-width:4;stroke-linecap:round;stroke-linejoin:round;}
	.st5{fill:#d08770;}
</style><line
     class="st0"
     x1="387"
     y1="51"
     x2="387"
     y2="235"
     id="line3837" /><line
     class="st0"
     x1="233"
     y1="162"
     x2="469"
     y2="162"
     id="line3839" /><rect
     x="58"
     y="31"
     class="st0"
     width="83"
     height="52"
     id="rect3841" /><polygon
     class="st1"
     points="107,68 184,54 131,137 "
     id="polygon3843" /><polyline
     class="st2"
     points="245.5,156.7 326.7,68.5 407.8,68.5 432.5,125 432.5,176.1 342.5,192 245.5,192 245.5,156.7 "
     id="polyline3845" /><g
     id="g3897" /><g
     id="g3899" /><g
     id="g3901" /><g
     id="g3903" /><g
     id="g3905" /><g
     id="g3907" /><g
     id="g3909" /><g
     id="g3911" /><g
     id="g3913" /><g
     id="g3915" /><g
     id="g3917" /><g
     id="g3919" /><path
     style="fill:#ffffff"
     id="path4745"
     d="m 207.20871,91.801161 c 0.5641,0.803409 1.2096,1.540767 1.82954,2.299554 0.42541,0.584165 0.88056,1.143754 1.32288,1.714457 0.2981,0.473423 0.59695,0.957497 0.98835,1.360287 0.36097,0.484624 0.53833,0.931342 0.91977,1.412764 0.29616,0.450206 0.60736,0.90192 0.99217,1.281624 0.3312,0.455503 0.66404,0.909703 0.99632,1.365273 0.40658,0.36136 0.85688,0.65639 1.24413,1.04578 0.50695,0.33982 0.9932,0.70934 1.49433,1.05895 0.38259,0.41802 0.735,0.84384 1.19094,1.18854 0.51747,0.45879 1.17626,0.67829 1.7709,1.00452 0.55108,0.29004 1.07181,0.63058 1.61517,0.93646 0.5159,0.24222 1.01217,0.5202 1.52007,0.78164 0.58266,0.3241 1.2465,0.42772 1.85561,0.67549 0.57075,0.22621 1.09441,0.5565 1.63184,0.85232 0.51733,0.23986 1.01333,0.51997 1.5211,0.78237 0.5539,0.32182 1.05564,0.70803 1.67246,0.90171 0.5771,0.22119 1.03907,0.60779 1.52916,0.96736 0.31973,0.17465 0.59326,0.39127 0.93259,0.53225 0,0 -4.77761,3.15039 -4.77761,3.15039 v 0 c -0.34373,-0.18908 -0.66675,-0.40805 -0.99429,-0.62384 -0.4413,-0.34184 -0.90323,-0.64489 -1.43237,-0.83673 -0.60443,-0.26472 -1.13486,-0.6528 -1.71929,-0.95744 -0.50397,-0.27592 -1.02197,-0.52496 -1.52909,-0.79513 -0.50431,-0.29367 -1.02084,-0.58064 -1.57079,-0.77825 -0.65209,-0.20547 -1.30069,-0.41529 -1.90822,-0.73608 -0.50624,-0.27626 -1.02696,-0.52437 -1.5325,-0.80229 -0.523,-0.3177 -1.04855,-0.63364 -1.58896,-0.9198 -0.6432,-0.31592 -1.2937,-0.62685 -1.84618,-1.09298 -0.42145,-0.36248 -0.78269,-0.77309 -1.17101,-1.16433 -0.50786,-0.38141 -1.04801,-0.71899 -1.53448,-1.12693 -0.42407,-0.38714 -0.92781,-0.68375 -1.2993,-1.12602 -0.32301,-0.43234 -0.62786,-0.878 -0.95916,-1.30229 -0.37667,-0.41227 -0.71574,-0.85836 -1.01926,-1.32698 -0.35031,-0.44026 -0.56683,-0.93157 -0.89897,-1.37781 -0.38027,-0.434272 -0.70895,-0.910023 -1.00648,-1.404296 -0.44049,-0.567043 -0.86737,-1.142792 -1.29899,-1.716261 -0.61075,-0.76795 -1.21813,-1.540165 -1.85144,-2.289027 0,0 4.91106,-2.935255 4.91106,-2.935255 z"
     inkscape:connector-curvature="0" /><path
     style="opacity:1;vector-effect:none;fill:none;fill-opacity:1;fill-rule:evenodd;stroke:#d08770;stroke-width:4;stroke-linecap:round;stroke-linejoin:round;stroke-miterlimit:4;stroke-dasharray:none;stroke-dashoffset:0;stroke-opacity:1;marker-end:url(#TriangleOutS-2)"
     d="m 387.41459,163.66193 3.85027,14.61775"
     id="path4752-0"
     inkscape:connector-curvature="0"
     sodipodi:nodetypes="cc" /><path
     style="opacity:1;vector-effect:none;fill:none;fill-opacity:1;fill-rule:evenodd;stroke:#d08770;stroke-width:4;stroke-linecap:round;stroke-linejoin:round;stroke-miterlimit:4;stroke-dasharray:none;stroke-dashoffset:0;stroke-opacity:1;marker-end:url(#TriangleOutS-2-9)"
     d="m 135.36447,63.577755 3.85027,14.61775"
     id="path4752-0-6"
     inkscape:connector-curvature="0"
     sodipodi:nodetypes="cc" /><g
     aria-label="Penetration
Vector"
     style="font-style:normal;font-variant:normal;font-weight:bold;font-stretch:normal;font-size:26.66666603px;line-height:125%;font-family:sans-serif;-inkscape-font-specification:'sans-serif, Bold';font-variant-ligatures:normal;font-variant-caps:normal;font-variant-numeric:normal;font-feature-settings:normal;text-align:center;letter-spacing:0px;word-spacing:0px;writing-mode:lr-tb;text-anchor:middle;fill:#d08770;fill-opacity:1;stroke:none;stroke-width:1px;stroke-linecap:butt;stroke-linejoin:miter;stroke-opacity:1"
     id="text7120"><path
       d="m 31.761962,151.80442 h 8.320313 q 3.710937,0 5.690104,1.65364 1.992187,1.64063 1.992187,4.6875 0,3.0599 -1.992187,4.71355 -1.979167,1.64062 -5.690104,1.64062 h -3.307292 v 6.74479 h -5.013021 z m 5.013021,3.63281 v 5.42969 h 2.773438 q 1.458333,0 2.252604,-0.70313 0.79427,-0.71614 0.79427,-2.01823 0,-1.30208 -0.79427,-2.0052 -0.794271,-0.70313 -2.252604,-0.70313 z"
       style="font-style:normal;font-variant:normal;font-weight:bold;font-stretch:normal;font-size:26.66666603px;font-family:sans-serif;-inkscape-font-specification:'sans-serif, Bold';font-variant-ligatures:normal;font-variant-caps:normal;font-variant-numeric:normal;font-feature-settings:normal;text-align:center;writing-mode:lr-tb;text-anchor:middle;fill:#d08770;fill-opacity:1"
       id="path14239" /><path
       d="m 65.64217,163.91379 v 1.32813 H 54.743733 q 0.169271,1.64062 1.184896,2.46094 1.015625,0.82031 2.838542,0.82031 1.471354,0 3.007812,-0.42969 1.549479,-0.44271 3.177083,-1.32812 v 3.59375 q -1.653646,0.625 -3.307291,0.9375 -1.653646,0.32552 -3.307292,0.32552 -3.958333,0 -6.158854,-2.00521 -2.1875,-2.01823 -2.1875,-5.65104 0,-3.56771 2.148438,-5.61198 2.161458,-2.04427 5.937499,-2.04427 3.4375,0 5.494792,2.07031 2.070312,2.07031 2.070312,5.53385 z m -4.791666,-1.54948 q 0,-1.32812 -0.78125,-2.13541 -0.768229,-0.82032 -2.018229,-0.82032 -1.354167,0 -2.200521,0.76823 -0.846354,0.75521 -1.054688,2.1875 z"
       style="font-style:normal;font-variant:normal;font-weight:bold;font-stretch:normal;font-size:26.66666603px;font-family:sans-serif;-inkscape-font-specification:'sans-serif, Bold';font-variant-ligatures:normal;font-variant-caps:normal;font-variant-numeric:normal;font-feature-settings:normal;text-align:center;writing-mode:lr-tb;text-anchor:middle;fill:#d08770;fill-opacity:1"
       id="path14241" /><path
       d="m 83.819251,162.36431 v 8.88021 h -4.6875 v -1.44531 -5.35156 q 0,-1.88802 -0.09115,-2.60417 -0.07813,-0.71615 -0.286458,-1.05469 -0.273437,-0.45573 -0.742187,-0.70312 -0.46875,-0.26042 -1.067709,-0.26042 -1.458333,0 -2.291666,1.13281 -0.833334,1.1198 -0.833334,3.11198 v 7.17448 h -4.661458 v -14.58333 h 4.661458 v 2.13542 q 1.054688,-1.27605 2.239584,-1.875 1.184896,-0.61198 2.617187,-0.61198 2.526042,0 3.828125,1.54948 1.315104,1.54947 1.315104,4.5052 z"
       style="font-style:normal;font-variant:normal;font-weight:bold;font-stretch:normal;font-size:26.66666603px;font-family:sans-serif;-inkscape-font-specification:'sans-serif, Bold';font-variant-ligatures:normal;font-variant-caps:normal;font-variant-numeric:normal;font-feature-settings:normal;text-align:center;writing-mode:lr-tb;text-anchor:middle;fill:#d08770;fill-opacity:1"
       id="path14243" /><path
       d="m 102.7255,163.91379 v 1.32813 H 91.827065 q 0.169271,1.64062 1.184896,2.46094 1.015625,0.82031 2.838542,0.82031 1.471354,0 3.007812,-0.42969 1.549475,-0.44271 3.177085,-1.32812 v 3.59375 q -1.65365,0.625 -3.307293,0.9375 -1.653646,0.32552 -3.307292,0.32552 -3.958333,0 -6.158854,-2.00521 -2.1875,-2.01823 -2.1875,-5.65104 0,-3.56771 2.148438,-5.61198 2.161458,-2.04427 5.937499,-2.04427 3.4375,0 5.494792,2.07031 2.07031,2.07031 2.07031,5.53385 z m -4.791664,-1.54948 q 0,-1.32812 -0.78125,-2.13541 -0.768229,-0.82032 -2.018229,-0.82032 -1.354167,0 -2.200521,0.76823 -0.846354,0.75521 -1.054687,2.1875 z"
       style="font-style:normal;font-variant:normal;font-weight:bold;font-stretch:normal;font-size:26.66666603px;font-family:sans-serif;-inkscape-font-specification:'sans-serif, Bold';font-variant-ligatures:normal;font-variant-caps:normal;font-variant-numeric:normal;font-feature-settings:normal;text-align:center;writing-mode:lr-tb;text-anchor:middle;fill:#d08770;fill-opacity:1"
       id="path14245" /><path
       d="m 111.33227,152.52056 v 4.14063 h 4.80469 v 3.33333 h -4.80469 v 6.1849 q 0,1.01562 0.40365,1.38021 0.40365,0.35156 1.60156,0.35156 h 2.39584 v 3.33333 h -3.9974 q -2.76042,0 -3.91927,-1.14583 -1.14583,-1.15886 -1.14583,-3.91927 v -6.1849 h -2.31771 v -3.33333 h 2.31771 v -4.14063 z"
       style="font-style:normal;font-variant:normal;font-weight:bold;font-stretch:normal;font-size:26.66666603px;font-family:sans-serif;-inkscape-font-specification:'sans-serif, Bold';font-variant-ligatures:normal;font-variant-caps:normal;font-variant-numeric:normal;font-feature-settings:normal;text-align:center;writing-mode:lr-tb;text-anchor:middle;fill:#d08770;fill-opacity:1"
       id="path14247" /><path
       d="m 129.83488,160.63254 q -0.61198,-0.28646 -1.22396,-0.41666 -0.59896,-0.14323 -1.21094,-0.14323 -1.79687,0 -2.77344,1.15885 -0.96354,1.14583 -0.96354,3.29427 v 6.71875 h -4.66146 v -14.58333 h 4.66146 v 2.39583 q 0.89844,-1.43229 2.05729,-2.08333 1.17188,-0.66406 2.79948,-0.66406 0.23438,0 0.50781,0.026 0.27344,0.013 0.79428,0.0781 z"
       style="font-style:normal;font-variant:normal;font-weight:bold;font-stretch:normal;font-size:26.66666603px;font-family:sans-serif;-inkscape-font-specification:'sans-serif, Bold';font-variant-ligatures:normal;font-variant-caps:normal;font-variant-numeric:normal;font-feature-settings:normal;text-align:center;writing-mode:lr-tb;text-anchor:middle;fill:#d08770;fill-opacity:1"
       id="path14249" /><path
       d="m 138.71509,164.68202 q -1.45834,0 -2.20052,0.49479 -0.72917,0.4948 -0.72917,1.45834 0,0.88541 0.58594,1.39323 0.59896,0.49479 1.65364,0.49479 1.31511,0 2.21354,-0.9375 0.89844,-0.95052 0.89844,-2.36979 v -0.53386 z m 7.12239,-1.75781 v 8.32031 h -4.70052 v -2.16146 q -0.9375,1.32813 -2.10937,1.94011 -1.17188,0.59896 -2.85157,0.59896 -2.26562,0 -3.68489,-1.31511 -1.40625,-1.32812 -1.40625,-3.4375 0,-2.5651 1.75781,-3.76302 1.77083,-1.19792 5.54688,-1.19792 h 2.74739 V 161.544 q 0,-1.10677 -0.87239,-1.61458 -0.8724,-0.52084 -2.72136,-0.52084 -1.49739,0 -2.78646,0.29948 -1.28906,0.29948 -2.39583,0.89844 v -3.55469 q 1.4974,-0.36458 3.00781,-0.54687 1.51042,-0.19531 3.02084,-0.19531 3.94531,0 5.6901,1.5625 1.75781,1.54948 1.75781,5.05208 z"
       style="font-style:normal;font-variant:normal;font-weight:bold;font-stretch:normal;font-size:26.66666603px;font-family:sans-serif;-inkscape-font-specification:'sans-serif, Bold';font-variant-ligatures:normal;font-variant-caps:normal;font-variant-numeric:normal;font-feature-settings:normal;text-align:center;writing-mode:lr-tb;text-anchor:middle;fill:#d08770;fill-opacity:1"
       id="path14251" /><path
       d="m 155.2906,152.52056 v 4.14063 h 4.80469 v 3.33333 h -4.80469 v 6.1849 q 0,1.01562 0.40365,1.38021 0.40364,0.35156 1.60156,0.35156 h 2.39583 v 3.33333 h -3.99739 q -2.76042,0 -3.91927,-1.14583 -1.14584,-1.15886 -1.14584,-3.91927 v -6.1849 h -2.3177 v -3.33333 h 2.3177 v -4.14063 z"
       style="font-style:normal;font-variant:normal;font-weight:bold;font-stretch:normal;font-size:26.66666603px;font-family:sans-serif;-inkscape-font-specification:'sans-serif, Bold';font-variant-ligatures:normal;font-variant-caps:normal;font-variant-numeric:normal;font-feature-settings:normal;text-align:center;writing-mode:lr-tb;text-anchor:middle;fill:#d08770;fill-opacity:1"
       id="path14253" /><path
       d="m 162.95988,156.66119 h 4.66146 v 14.58333 h -4.66146 z m 0,-5.67708 h 4.66146 v 3.80208 h -4.66146 z"
       style="font-style:normal;font-variant:normal;font-weight:bold;font-stretch:normal;font-size:26.66666603px;font-family:sans-serif;-inkscape-font-specification:'sans-serif, Bold';font-variant-ligatures:normal;font-variant-caps:normal;font-variant-numeric:normal;font-feature-settings:normal;text-align:center;writing-mode:lr-tb;text-anchor:middle;fill:#d08770;fill-opacity:1"
       id="path14255" /><path
       d="m 179.06664,159.64296 q -1.54948,0 -2.36979,1.11979 -0.80729,1.10677 -0.80729,3.20313 0,2.09635 0.80729,3.21614 0.82031,1.10677 2.36979,1.10677 1.52344,0 2.33073,-1.10677 0.80729,-1.11979 0.80729,-3.21614 0,-2.09636 -0.80729,-3.20313 -0.80729,-1.11979 -2.33073,-1.11979 z m 0,-3.33333 q 3.76302,0 5.8724,2.03125 2.12239,2.03125 2.12239,5.625 0,3.59375 -2.12239,5.625 -2.10938,2.03125 -5.8724,2.03125 -3.77604,0 -5.91146,-2.03125 -2.12239,-2.03125 -2.12239,-5.625 0,-3.59375 2.12239,-5.625 2.13542,-2.03125 5.91146,-2.03125 z"
       style="font-style:normal;font-variant:normal;font-weight:bold;font-stretch:normal;font-size:26.66666603px;font-family:sans-serif;-inkscape-font-specification:'sans-serif, Bold';font-variant-ligatures:normal;font-variant-caps:normal;font-variant-numeric:normal;font-feature-settings:normal;text-align:center;writing-mode:lr-tb;text-anchor:middle;fill:#d08770;fill-opacity:1"
       id="path14257" /><path
       d="m 205.12134,162.36431 v 8.88021 h -4.6875 v -1.44531 -5.35156 q 0,-1.88802 -0.0911,-2.60417 -0.0781,-0.71615 -0.28646,-1.05469 -0.27343,-0.45573 -0.74218,-0.70312 -0.46875,-0.26042 -1.06771,-0.26042 -1.45834,0 -2.29167,1.13281 -0.83333,1.1198 -0.83333,3.11198 v 7.17448 h -4.66146 v -14.58333 h 4.66146 v 2.13542 q 1.05468,-1.27605 2.23958,-1.875 1.1849,-0.61198 2.61719,-0.61198 2.52604,0 3.82812,1.54948 1.31511,1.54947 1.31511,4.5052 z"
       style="font-style:normal;font-variant:normal;font-weight:bold;font-stretch:normal;font-size:26.66666603px;font-family:sans-serif;-inkscape-font-specification:'sans-serif, Bold';font-variant-ligatures:normal;font-variant-caps:normal;font-variant-numeric:normal;font-feature-settings:normal;text-align:center;writing-mode:lr-tb;text-anchor:middle;fill:#d08770;fill-opacity:1"
       id="path14259" /><path
       d="m 69.730712,185.13775 h 5.039062 l 5.15625,14.34896 5.143229,-14.34896 h 5.039062 l -7.20052,19.4401 h -5.976563 z"
       style="font-style:normal;font-variant:normal;font-weight:bold;font-stretch:normal;font-size:26.66666603px;font-family:sans-serif;-inkscape-font-specification:'sans-serif, Bold';font-variant-ligatures:normal;font-variant-caps:normal;font-variant-numeric:normal;font-feature-settings:normal;text-align:center;writing-mode:lr-tb;text-anchor:middle;fill:#d08770;fill-opacity:1"
       id="path14261" /><path
       d="m 105.56404,197.24713 v 1.32812 H 94.665607 q 0.16927,1.64063 1.184895,2.46094 1.015625,0.82031 2.838542,0.82031 1.471356,0 3.007816,-0.42969 1.54948,-0.44271 3.17708,-1.32812 v 3.59375 q -1.65365,0.625 -3.30729,0.9375 -1.653648,0.32552 -3.307294,0.32552 -3.958333,0 -6.158854,-2.00521 -2.187499,-2.01823 -2.187499,-5.65104 0,-3.56771 2.148437,-5.61198 2.161458,-2.04427 5.9375,-2.04427 3.4375,0 5.49479,2.07031 2.07031,2.07031 2.07031,5.53386 z m -4.79166,-1.54948 q 0,-1.32813 -0.781253,-2.13542 -0.768229,-0.82031 -2.018229,-0.82031 -1.354166,0 -2.200521,0.76823 -0.846354,0.7552 -1.054687,2.1875 z"
       style="font-style:normal;font-variant:normal;font-weight:bold;font-stretch:normal;font-size:26.66666603px;font-family:sans-serif;-inkscape-font-specification:'sans-serif, Bold';font-variant-ligatures:normal;font-variant-caps:normal;font-variant-numeric:normal;font-feature-settings:normal;text-align:center;writing-mode:lr-tb;text-anchor:middle;fill:#d08770;fill-opacity:1"
       id="path14263" /><path
       d="m 120.86352,190.45025 v 3.80208 q -0.95052,-0.65104 -1.91406,-0.96354 -0.95052,-0.3125 -1.97917,-0.3125 -1.95312,0 -3.04687,1.14584 -1.08073,1.13281 -1.08073,3.17708 0,2.04427 1.08073,3.1901 1.09375,1.13282 3.04687,1.13282 1.09375,0 2.07032,-0.32553 0.98958,-0.32552 1.82291,-0.96354 v 3.81511 q -1.09375,0.40364 -2.22656,0.59896 -1.11979,0.20833 -2.2526,0.20833 -3.94532,0 -6.17188,-2.01823 -2.22656,-2.03125 -2.22656,-5.63802 0,-3.60677 2.22656,-5.625 2.22656,-2.03125 6.17188,-2.03125 1.14583,0 2.2526,0.20833 1.11979,0.19531 2.22656,0.59896 z"
       style="font-style:normal;font-variant:normal;font-weight:bold;font-stretch:normal;font-size:26.66666603px;font-family:sans-serif;-inkscape-font-specification:'sans-serif, Bold';font-variant-ligatures:normal;font-variant-caps:normal;font-variant-numeric:normal;font-feature-settings:normal;text-align:center;writing-mode:lr-tb;text-anchor:middle;fill:#d08770;fill-opacity:1"
       id="path14265" /><path
       d="m 130.00415,185.8539 v 4.14062 h 4.80468 v 3.33333 h -4.80468 v 6.1849 q 0,1.01563 0.40364,1.38021 0.40365,0.35156 1.60156,0.35156 h 2.39584 v 3.33333 h -3.9974 q -2.76041,0 -3.91927,-1.14583 -1.14583,-1.15885 -1.14583,-3.91927 v -6.1849 h -2.31771 v -3.33333 h 2.31771 v -4.14062 z"
       style="font-style:normal;font-variant:normal;font-weight:bold;font-stretch:normal;font-size:26.66666603px;font-family:sans-serif;-inkscape-font-specification:'sans-serif, Bold';font-variant-ligatures:normal;font-variant-caps:normal;font-variant-numeric:normal;font-feature-settings:normal;text-align:center;writing-mode:lr-tb;text-anchor:middle;fill:#d08770;fill-opacity:1"
       id="path14267" /><path
       d="m 144.61352,192.97629 q -1.54948,0 -2.36979,1.11979 -0.80729,1.10677 -0.80729,3.20313 0,2.09635 0.80729,3.21614 0.82031,1.10678 2.36979,1.10678 1.52344,0 2.33073,-1.10678 0.80729,-1.11979 0.80729,-3.21614 0,-2.09636 -0.80729,-3.20313 -0.80729,-1.11979 -2.33073,-1.11979 z m 0,-3.33333 q 3.76302,0 5.87239,2.03125 2.1224,2.03125 2.1224,5.625 0,3.59375 -2.1224,5.625 -2.10937,2.03125 -5.87239,2.03125 -3.77604,0 -5.91146,-2.03125 -2.1224,-2.03125 -2.1224,-5.625 0,-3.59375 2.1224,-5.625 2.13542,-2.03125 5.91146,-2.03125 z"
       style="font-style:normal;font-variant:normal;font-weight:bold;font-stretch:normal;font-size:26.66666603px;font-family:sans-serif;-inkscape-font-specification:'sans-serif, Bold';font-variant-ligatures:normal;font-variant-caps:normal;font-variant-numeric:normal;font-feature-settings:normal;text-align:center;writing-mode:lr-tb;text-anchor:middle;fill:#d08770;fill-opacity:1"
       id="path14269" /><path
       d="m 166.84008,193.96588 q -0.61198,-0.28646 -1.22395,-0.41667 -0.59896,-0.14323 -1.21094,-0.14323 -1.79688,0 -2.77344,1.15885 -0.96354,1.14584 -0.96354,3.29427 v 6.71875 h -4.66146 v -14.58333 h 4.66146 v 2.39583 q 0.89844,-1.43229 2.05729,-2.08333 1.17188,-0.66406 2.79948,-0.66406 0.23437,0 0.50781,0.026 0.27344,0.013 0.79427,0.0781 z"
       style="font-style:normal;font-variant:normal;font-weight:bold;font-stretch:normal;font-size:26.66666603px;font-family:sans-serif;-inkscape-font-specification:'sans-serif, Bold';font-variant-ligatures:normal;font-variant-caps:normal;font-variant-numeric:normal;font-feature-settings:normal;text-align:center;writing-mode:lr-tb;text-anchor:middle;fill:#d08770;fill-opacity:1"
       id="path14271" /></g></svg>