<?xml version="1.0" encoding="UTF-8" standalone="no"?>
<!-- Generator: Adobe Illustrator 21.0.2, SVG Export Plug-In . SVG Version: 6.00 Build 0)  -->

<svg
   xmlns:dc="http://purl.org/dc/elements/1.1/"
   xmlns:cc="http://creativecommons.org/ns#"
   xmlns:rdf="http://www.w3.org/1999/02/22-rdf-syntax-ns#"
   xmlns:svg="http://www.w3.org/2000/svg"
   xmlns="http://www.w3.org/2000/svg"
   xmlns:sodipodi="http://sodipodi.sourceforge.net/DTD/sodipodi-0.dtd"
   xmlns:inkscape="http://www.inkscape.org/namespaces/inkscape"
   version="1.1"
   id="Layer_1"
   x="0px"
   y="0px"
   viewBox="0 0 512 256"
   style="enable-background:new 0 0 512 256;"
   xml:space="preserve"
   sodipodi:docname="search-further-supports.svg"
   inkscape:version="0.92.1 r"><metadata
     id="metadata7382"><rdf:RDF><cc:Work
         rdf:about=""><dc:format>image/svg+xml</dc:format><dc:type
           rdf:resource="http://purl.org/dc/dcmitype/StillImage" /><dc:title /></cc:Work></rdf:RDF></metadata><defs
     id="defs7380"><marker
       inkscape:stockid="Arrow2Mend"
       orient="auto"
       refY="0.0"
       refX="0.0"
       id="marker9073"
       style="overflow:visible;"
       inkscape:isstock="true"><path
         id="path9071"
         style="fill-rule:evenodd;stroke-width:0.625;stroke-linejoin:round;stroke:#d08770;stroke-opacity:1;fill:#d08770;fill-opacity:1"
         d="M 8.7185878,4.0337352 L -2.2072895,0.016013256 L 8.7185884,-4.0017078 C 6.9730900,-1.6296469 6.9831476,1.6157441 8.7185878,4.0337352 z "
         transform="scale(0.6) rotate(180) translate(0,0)" /></marker><marker
       inkscape:stockid="Arrow2Mend"
       orient="auto"
       refY="0.0"
       refX="0.0"
       id="Arrow2Mend"
       style="overflow:visible;"
       inkscape:isstock="true"><path
         id="path4853"
         style="fill-rule:evenodd;stroke-width:0.625;stroke-linejoin:round;stroke:#d08770;stroke-opacity:1;fill:#d08770;fill-opacity:1"
         d="M 8.7185878,4.0337352 L -2.2072895,0.016013256 L 8.7185884,-4.0017078 C 6.9730900,-1.6296469 6.9831476,1.6157441 8.7185878,4.0337352 z "
         transform="scale(0.6) rotate(180) translate(0,0)" /></marker><marker
       inkscape:stockid="Arrow2Lend"
       orient="auto"
       refY="0.0"
       refX="0.0"
       id="Arrow2Lend"
       style="overflow:visible;"
       inkscape:isstock="true"><path
         id="path4847"
         style="fill-rule:evenodd;stroke-width:0.625;stroke-linejoin:round;stroke:#d08770;stroke-opacity:1;fill:#d08770;fill-opacity:1"
         d="M 8.7185878,4.0337352 L -2.2072895,0.016013256 L 8.7185884,-4.0017078 C 6.9730900,-1.6296469 6.9831476,1.6157441 8.7185878,4.0337352 z "
         transform="scale(1.1) rotate(180) translate(1,0)" /></marker><marker
       inkscape:stockid="Arrow1Send"
       orient="auto"
       refY="0.0"
       refX="0.0"
       id="Arrow1Send"
       style="overflow:visible;"
       inkscape:isstock="true"><path
         id="path4841"
         d="M 0.0,0.0 L 5.0,-5.0 L -12.5,0.0 L 5.0,5.0 L 0.0,0.0 z "
         style="fill-rule:evenodd;stroke:#d08770;stroke-width:1pt;stroke-opacity:1;fill:#d08770;fill-opacity:1"
         transform="scale(0.2) rotate(180) translate(6,0)" /></marker><marker
       inkscape:stockid="Arrow1Lend"
       orient="auto"
       refY="0.0"
       refX="0.0"
       id="Arrow1Lend"
       style="overflow:visible;"
       inkscape:isstock="true"><path
         id="path4829"
         d="M 0.0,0.0 L 5.0,-5.0 L -12.5,0.0 L 5.0,5.0 L 0.0,0.0 z "
         style="fill-rule:evenodd;stroke:#d08770;stroke-width:1pt;stroke-opacity:1;fill:#d08770;fill-opacity:1"
         transform="scale(0.8) rotate(180) translate(12.5,0)" /></marker><marker
       inkscape:stockid="Arrow2Mend"
       orient="auto"
       refY="0"
       refX="0"
       id="Arrow2Mend-7"
       style="overflow:visible"
       inkscape:isstock="true"><path
         inkscape:connector-curvature="0"
         id="path4853-8"
         style="fill:#8fbcbb;fill-opacity:1;fill-rule:evenodd;stroke:#8fbcbb;stroke-width:0.625;stroke-linejoin:round;stroke-opacity:1"
         d="M 8.7185878,4.0337352 -2.2072895,0.01601326 8.7185884,-4.0017078 c -1.7454984,2.3720609 -1.7354408,5.6174519 -6e-7,8.035443 z"
         transform="scale(-0.6)" /></marker><marker
       inkscape:stockid="Arrow2Mend"
       orient="auto"
       refY="0"
       refX="0"
       id="marker9073-9"
       style="overflow:visible"
       inkscape:isstock="true"><path
         inkscape:connector-curvature="0"
         id="path9071-6"
         style="fill:#8fbcbb;fill-opacity:1;fill-rule:evenodd;stroke:#8fbcbb;stroke-width:0.625;stroke-linejoin:round;stroke-opacity:1"
         d="M 8.7185878,4.0337352 -2.2072895,0.01601326 8.7185884,-4.0017078 c -1.7454984,2.3720609 -1.7354408,5.6174519 -6e-7,8.035443 z"
         transform="scale(-0.6)" /></marker></defs><sodipodi:namedview
     pagecolor="#ffffff"
     bordercolor="#666666"
     borderopacity="1"
     objecttolerance="10"
     gridtolerance="10"
     guidetolerance="10"
     inkscape:pageopacity="0"
     inkscape:pageshadow="2"
     inkscape:window-width="1920"
     inkscape:window-height="1016"
     id="namedview7378"
     showgrid="false"
     inkscape:zoom="1.5854659"
     inkscape:cx="133.22635"
     inkscape:cy="118.74877"
     inkscape:window-x="0"
     inkscape:window-y="34"
     inkscape:window-maximized="1"
     inkscape:current-layer="Layer_1" /><style
     type="text/css"
     id="style7281">
	.st0{fill:none;stroke:#88c0d0;stroke-width:4;stroke-linecap:round;stroke-linejoin:round;stroke-miterlimit:10;}
	.st1{fill:none;stroke:#8fbcbb;stroke-width:4;stroke-linecap:round;stroke-linejoin:round;stroke-miterlimit:10;}
	.st2{fill:none;stroke:#bf616a;stroke-width:4;stroke-linecap:round;stroke-linejoin:round;stroke-miterlimit:10;}
	.st3{fill:#ebcb8b;}
	.st4{fill:none;stroke:#d08770;stroke-width:4;stroke-linecap:round;stroke-linejoin:round;}
	.st5{fill:#d08770;}
	.st6{fill:none;stroke:#ebcb8b;stroke-width:4;stroke-linecap:round;stroke-linejoin:round;stroke-miterlimit:10;}
</style><line
     class="st0"
     x1="308.97855"
     y1="15.213349"
     x2="308.97855"
     y2="199.21336"
     id="line7283"
     style="fill:none;stroke:#88c0d0;stroke-width:4;stroke-linecap:round;stroke-linejoin:round;stroke-miterlimit:10" /><line
     class="st0"
     x1="154.97853"
     y1="126.21336"
     x2="390.97855"
     y2="126.21336"
     id="line7285"
     style="fill:none;stroke:#88c0d0;stroke-width:4;stroke-linecap:round;stroke-linejoin:round;stroke-miterlimit:10" /><rect
     x="7.7754545"
     y="11.411265"
     class="st0"
     width="83"
     height="52"
     id="rect7287"
     style="fill:none;stroke:#88c0d0;stroke-width:4;stroke-linecap:round;stroke-linejoin:round;stroke-miterlimit:10" /><polygon
     class="st1"
     points="110,132 86,63 163,49 "
     id="polygon7289"
     transform="translate(-29.224546,-14.588735)"
     style="fill:none;stroke:#8fbcbb;stroke-width:4;stroke-linecap:round;stroke-linejoin:round;stroke-miterlimit:10" /><polyline
     class="st2"
     points="224.5,151.7 305.7,63.5 386.8,63.5 411.5,120 411.5,171.1 321.5,187 224.5,187 224.5,151.7 "
     id="polyline7291"
     transform="translate(-57.021465,-30.786648)"
     style="fill:none;stroke:#bf616a;stroke-width:4;stroke-linecap:round;stroke-linejoin:round;stroke-miterlimit:10" /><line
     class="st6"
     x1="354.97855"
     y1="140.21336"
     x2="167.97853"
     y2="121.21336"
     id="line7345"
     style="opacity:1;vector-effect:none;fill:none;fill-opacity:1;stroke:#d08770;stroke-width:4;stroke-linecap:round;stroke-linejoin:round;stroke-miterlimit:4;stroke-dasharray:none;stroke-dashoffset:0;stroke-opacity:1" /><line
     class="st6"
     x1="167.97853"
     y1="121.21336"
     x2="328.97855"
     y2="32.213348"
     id="line7349"
     style="fill:none;stroke:#ebcb8b;stroke-width:4;stroke-linecap:round;stroke-linejoin:round;stroke-miterlimit:10" /><line
     class="st6"
     x1="354.97855"
     y1="140.21336"
     x2="328.97855"
     y2="32.213348"
     id="line7351"
     style="fill:none;stroke:#ebcb8b;stroke-width:4;stroke-linecap:round;stroke-linejoin:round;stroke-miterlimit:10" /><g
     id="g7353" /><g
     id="g7355" /><g
     id="g7357" /><g
     id="g7359" /><g
     id="g7361" /><g
     id="g7363" /><g
     id="g7365" /><g
     id="g7367" /><g
     id="g7369" /><g
     id="g7371" /><g
     id="g7373" /><g
     id="g7375" /><circle
     class="st3"
     cx="264.2756"
     cy="156.66013"
     r="6"
     id="circle8944"
     style="fill:#8fbcbb;fill-opacity:1" /><path
     style="opacity:1;vector-effect:none;fill:none;fill-opacity:1;fill-rule:evenodd;stroke:#d08770;stroke-width:2;stroke-linecap:round;stroke-linejoin:round;stroke-miterlimit:4;stroke-dasharray:none;stroke-dashoffset:0;stroke-opacity:1;marker-end:url(#marker9073)"
     d="m 246.45752,129.22339 -5.67657,44.30873"
     id="path9055"
     inkscape:connector-curvature="0"
     sodipodi:nodetypes="cc" /><g
     aria-label="Support in normal
direction that
isn't on edge"
     style="font-style:normal;font-variant:normal;font-weight:normal;font-stretch:normal;font-size:24px;line-height:125%;font-family:Coolvetica;-inkscape-font-specification:Coolvetica;letter-spacing:0px;word-spacing:0px;fill:#8fbcbb;fill-opacity:1;stroke:none;stroke-width:1px;stroke-linecap:butt;stroke-linejoin:miter;stroke-opacity:1"
     id="text9665"><path
       d="m 330.78736,167.64129 q -0.12,-1.224 -0.888,-1.824 -0.768,-0.6 -2.304,-0.6 -2.832,0 -2.832,1.944 0,0.696 0.576,1.176 0.6,0.456 1.896,0.768 1.536,0.36 2.664,0.672 1.128,0.312 2.064,0.72 0.528,0.216 0.984,0.552 0.48,0.312 0.792,0.792 0.336,0.48 0.528,1.152 0.192,0.672 0.192,1.632 0,1.152 -0.48,2.04 -0.48,0.888 -1.296,1.512 -0.816,0.6 -1.92,0.912 -1.104,0.336 -2.328,0.336 -3.48,0 -5.232,-1.344 -1.752,-1.344 -1.848,-3.984 h 3.216 q 0.024,1.224 0.984,1.944 0.984,0.696 2.448,0.696 1.584,0 2.4,-0.576 0.816,-0.576 0.816,-1.56 0,-0.384 -0.096,-0.696 -0.096,-0.336 -0.384,-0.6 -0.264,-0.264 -0.744,-0.456 -0.48,-0.216 -1.248,-0.384 -1.824,-0.384 -3.168,-0.768 -1.32,-0.408 -2.184,-0.984 -0.864,-0.6 -1.272,-1.44 -0.408,-0.84 -0.408,-2.136 0,-0.984 0.36,-1.848 0.36,-0.864 1.104,-1.488 0.744,-0.648 1.824,-1.008 1.104,-0.384 2.592,-0.384 1.44,0 2.592,0.384 1.152,0.36 1.968,1.056 0.84,0.672 1.296,1.656 0.456,0.96 0.504,2.136 z"
       style="text-align:center;text-anchor:middle;fill:#8fbcbb;fill-opacity:1"
       id="path14727" /><path
       d="m 342.92161,178.87329 v -1.656 q -1.2,1.968 -3.672,1.968 -0.888,0 -1.632,-0.312 -0.72,-0.312 -1.248,-0.888 -0.528,-0.576 -0.84,-1.368 -0.288,-0.792 -0.288,-1.776 v -7.776 h 3.12 v 7.296 q 0,2.208 1.992,2.208 1.2,0 1.8,-0.744 0.624,-0.768 0.624,-1.944 v -6.816 h 3.096 v 11.808 z"
       style="text-align:center;text-anchor:middle;fill:#8fbcbb;fill-opacity:1"
       id="path14729" /><path
       d="m 352.66899,176.52129 q 2.688,0 2.688,-3.648 0,-1.584 -0.744,-2.568 -0.744,-1.008 -1.92,-1.008 -1.128,0 -1.896,0.936 -0.744,0.936 -0.744,2.448 0,3.84 2.616,3.84 z m -5.568,7.944 v -17.4 h 3 l 0.024,1.44 q 1.08,-1.752 3.288,-1.752 1.104,0 2.04,0.432 0.96,0.432 1.632,1.248 0.672,0.816 1.056,1.992 0.384,1.176 0.384,2.664 0,1.344 -0.336,2.472 -0.312,1.104 -0.936,1.92 -0.624,0.816 -1.536,1.272 -0.888,0.432 -2.04,0.432 -2.184,0 -3.504,-1.848 v 7.128 z"
       style="text-align:center;text-anchor:middle;fill:#8fbcbb;fill-opacity:1"
       id="path14731" /><path
       d="m 365.09086,176.52129 q 2.688,0 2.688,-3.648 0,-1.584 -0.744,-2.568 -0.744,-1.008 -1.92,-1.008 -1.128,0 -1.896,0.936 -0.744,0.936 -0.744,2.448 0,3.84 2.616,3.84 z m -5.568,7.944 v -17.4 h 3 l 0.024,1.44 q 1.08,-1.752 3.288,-1.752 1.104,0 2.04,0.432 0.96,0.432 1.632,1.248 0.672,0.816 1.056,1.992 0.384,1.176 0.384,2.664 0,1.344 -0.336,2.472 -0.312,1.104 -0.936,1.92 -0.624,0.816 -1.536,1.272 -0.888,0.432 -2.04,0.432 -2.184,0 -3.504,-1.848 v 7.128 z"
       style="text-align:center;text-anchor:middle;fill:#8fbcbb;fill-opacity:1"
       id="path14733" /><path
       d="m 377.75274,176.56929 q 2.856,0 2.856,-3.6 0,-3.576 -2.856,-3.576 -2.856,0 -2.856,3.576 0,3.6 2.856,3.6 z m 0,2.616 q -1.44,0 -2.568,-0.456 -1.128,-0.456 -1.92,-1.272 -0.768,-0.816 -1.176,-1.968 -0.408,-1.152 -0.408,-2.52 0,-1.392 0.408,-2.544 0.432,-1.152 1.224,-1.968 0.792,-0.816 1.896,-1.248 1.128,-0.456 2.544,-0.456 1.392,0 2.496,0.456 1.104,0.432 1.872,1.248 0.792,0.792 1.2,1.944 0.432,1.152 0.432,2.568 0,1.416 -0.432,2.568 -0.408,1.128 -1.2,1.944 -0.768,0.816 -1.896,1.272 -1.104,0.432 -2.472,0.432 z"
       style="text-align:center;text-anchor:middle;fill:#8fbcbb;fill-opacity:1"
       id="path14735" /><path
       d="m 384.74161,178.87329 v -11.808 h 2.928 v 1.416 q 0.384,-0.6 0.792,-0.936 0.432,-0.336 0.864,-0.504 0.456,-0.192 0.912,-0.24 0.456,-0.048 0.936,-0.048 h 0.408 v 3.192 q -0.432,-0.072 -0.864,-0.072 -2.856,0 -2.856,2.856 v 6.144 z"
       style="text-align:center;text-anchor:middle;fill:#8fbcbb;fill-opacity:1"
       id="path14737" /><path
       d="m 398.98449,171.09729 h 2.904 v 3.36 q 0,0.936 -0.288,1.8 -0.264,0.84 -0.864,1.512 -0.576,0.648 -1.488,1.032 -0.888,0.384 -2.136,0.384 -1.296,0 -2.208,-0.384 -0.912,-0.384 -1.512,-1.032 -0.576,-0.648 -0.84,-1.512 -0.264,-0.864 -0.264,-1.824 v -10.56 h 3.072 v 3.192 h 6.528 v 2.208 h -6.528 v 4.848 q 0,1.128 0.408,1.752 0.432,0.6 1.392,0.6 0.936,0 1.368,-0.6 0.456,-0.6 0.456,-1.704 z"
       style="text-align:center;text-anchor:middle;fill:#8fbcbb;fill-opacity:1"
       id="path14739" /><path
       d="m 409.00111,178.87329 v -11.808 h 3.12 v 11.808 z m 0,-13.224 v -2.904 h 3.12 v 2.904 z"
       style="text-align:center;text-anchor:middle;fill:#8fbcbb;fill-opacity:1"
       id="path14741" /><path
       d="m 420.98911,178.87329 v -7.152 q 0,-1.368 -0.456,-1.848 -0.456,-0.48 -1.56,-0.48 -2.424,0 -2.424,2.712 v 6.768 h -3.12 v -11.808 h 2.976 v 1.728 q 0.552,-1.008 1.464,-1.512 0.912,-0.528 2.352,-0.528 0.84,0 1.56,0.264 0.72,0.24 1.224,0.744 0.528,0.504 0.816,1.248 0.312,0.72 0.312,1.68 v 8.184 z"
       style="text-align:center;text-anchor:middle;fill:#8fbcbb;fill-opacity:1"
       id="path14743" /><path
       d="m 438.84849,178.87329 v -7.152 q 0,-1.368 -0.456,-1.848 -0.456,-0.48 -1.56,-0.48 -2.424,0 -2.424,2.712 v 6.768 h -3.12 v -11.808 h 2.976 v 1.728 q 0.552,-1.008 1.464,-1.512 0.912,-0.528 2.352,-0.528 0.84,0 1.56,0.264 0.72,0.24 1.224,0.744 0.528,0.504 0.816,1.248 0.312,0.72 0.312,1.68 v 8.184 z"
       style="text-align:center;text-anchor:middle;fill:#8fbcbb;fill-opacity:1"
       id="path14745" /><path
       d="m 449.04961,176.56929 q 2.856,0 2.856,-3.6 0,-3.576 -2.856,-3.576 -2.856,0 -2.856,3.576 0,3.6 2.856,3.6 z m 0,2.616 q -1.44,0 -2.568,-0.456 -1.128,-0.456 -1.92,-1.272 -0.768,-0.816 -1.176,-1.968 -0.408,-1.152 -0.408,-2.52 0,-1.392 0.408,-2.544 0.432,-1.152 1.224,-1.968 0.792,-0.816 1.896,-1.248 1.128,-0.456 2.544,-0.456 1.392,0 2.496,0.456 1.104,0.432 1.872,1.248 0.792,0.792 1.2,1.944 0.432,1.152 0.432,2.568 0,1.416 -0.432,2.568 -0.408,1.128 -1.2,1.944 -0.768,0.816 -1.896,1.272 -1.104,0.432 -2.472,0.432 z"
       style="text-align:center;text-anchor:middle;fill:#8fbcbb;fill-opacity:1"
       id="path14747" /><path
       d="m 456.03849,178.87329 v -11.808 h 2.928 v 1.416 q 0.384,-0.6 0.792,-0.936 0.432,-0.336 0.864,-0.504 0.456,-0.192 0.912,-0.24 0.456,-0.048 0.936,-0.048 h 0.408 v 3.192 q -0.432,-0.072 -0.864,-0.072 -2.856,0 -2.856,2.856 v 6.144 z"
       style="text-align:center;text-anchor:middle;fill:#8fbcbb;fill-opacity:1"
       id="path14749" /><path
       d="m 477.43336,178.87329 v -7.152 q 0,-1.08 -0.504,-1.752 -0.504,-0.672 -1.344,-0.672 -0.864,0 -1.44,0.72 -0.552,0.72 -0.552,1.8 v 7.056 h -3.12 v -7.104 q 0,-0.72 -0.096,-1.176 -0.096,-0.456 -0.336,-0.72 -0.216,-0.264 -0.576,-0.36 -0.36,-0.12 -0.864,-0.12 -1.896,0 -1.896,2.304 v 7.176 h -3.12 v -11.808 h 2.928 v 1.728 q 0.6,-1.176 1.44,-1.608 0.84,-0.432 2.016,-0.432 0.6,0 1.056,0.096 0.48,0.096 0.84,0.336 0.384,0.216 0.72,0.576 0.336,0.36 0.672,0.864 0.48,-0.984 1.272,-1.416 0.792,-0.456 1.92,-0.456 0.888,0 1.632,0.312 0.744,0.288 1.272,0.84 0.528,0.528 0.816,1.248 0.312,0.72 0.312,1.536 v 8.184 z"
       style="text-align:center;text-anchor:middle;fill:#8fbcbb;fill-opacity:1"
       id="path14751" /><path
       d="m 488.90199,173.08929 q -0.24,0.24 -0.696,0.384 -0.456,0.144 -1.32,0.312 -1.344,0.264 -1.848,0.672 -0.504,0.408 -0.504,1.176 0,1.32 1.512,1.32 0.6,0 1.104,-0.192 0.528,-0.216 0.888,-0.552 0.384,-0.36 0.6,-0.816 0.24,-0.48 0.24,-1.008 z m 0.216,5.784 q -0.144,-0.456 -0.192,-1.056 -0.552,0.624 -1.464,1.008 -0.912,0.36 -2.112,0.36 -2.04,0 -3,-0.888 -0.936,-0.912 -0.936,-2.352 0,-1.272 0.408,-2.016 0.408,-0.768 1.128,-1.2 0.72,-0.432 1.704,-0.624 1.008,-0.216 2.184,-0.384 1.176,-0.168 1.584,-0.432 0.408,-0.288 0.408,-0.912 0,-0.576 -0.552,-0.888 -0.528,-0.336 -1.44,-0.336 -1.08,0 -1.56,0.48 -0.456,0.48 -0.576,1.272 h -2.904 q 0.024,-0.912 0.288,-1.68 0.288,-0.768 0.888,-1.32 0.624,-0.552 1.608,-0.84 0.984,-0.312 2.4,-0.312 1.392,0 2.352,0.312 0.984,0.312 1.56,0.912 0.6,0.576 0.864,1.464 0.264,0.864 0.264,1.968 v 7.464 z"
       style="text-align:center;text-anchor:middle;fill:#8fbcbb;fill-opacity:1"
       id="path14753" /><path
       d="m 493.25724,178.87329 v -16.128 h 3.12 v 16.128 z"
       style="text-align:center;text-anchor:middle;fill:#8fbcbb;fill-opacity:1"
       id="path14755" /><path
       d="m 346.27111,206.64129 q 1.128,0 1.872,-0.936 0.768,-0.936 0.768,-2.448 0,-3.84 -2.616,-3.84 -2.688,0 -2.688,3.648 0,1.584 0.744,2.592 0.744,0.984 1.92,0.984 z m 2.592,2.232 -0.024,-1.44 q -1.08,1.752 -3.288,1.752 -1.128,0 -2.064,-0.432 -0.936,-0.432 -1.608,-1.248 -0.672,-0.816 -1.056,-1.992 -0.384,-1.176 -0.384,-2.664 0,-1.344 0.312,-2.448 0.336,-1.128 0.96,-1.944 0.624,-0.816 1.512,-1.248 0.912,-0.456 2.064,-0.456 2.184,0 3.504,1.848 v -5.856 h 3.072 v 16.128 z"
       style="text-align:center;text-anchor:middle;fill:#8fbcbb;fill-opacity:1"
       id="path14757" /><path
       d="m 353.17299,208.87329 v -11.808 h 3.12 v 11.808 z m 0,-13.224 v -2.904 h 3.12 v 2.904 z"
       style="text-align:center;text-anchor:middle;fill:#8fbcbb;fill-opacity:1"
       id="path14759" /><path
       d="m 357.60099,208.87329 v -11.808 h 2.928 v 1.416 q 0.384,-0.6 0.792,-0.936 0.432,-0.336 0.864,-0.504 0.456,-0.192 0.912,-0.24 0.456,-0.048 0.936,-0.048 h 0.408 v 3.192 q -0.432,-0.072 -0.864,-0.072 -2.856,0 -2.856,2.856 v 6.144 z"
       style="text-align:center;text-anchor:middle;fill:#8fbcbb;fill-opacity:1"
       id="path14761" /><path
       d="m 372.31449,201.81729 q -0.024,-0.648 -0.24,-1.128 -0.192,-0.504 -0.528,-0.816 -0.336,-0.336 -0.768,-0.48 -0.432,-0.168 -0.888,-0.168 -0.936,0 -1.632,0.696 -0.672,0.672 -0.768,1.896 z m -4.92,1.968 q 0.072,1.344 0.768,2.136 0.72,0.792 1.872,0.792 0.768,0 1.344,-0.336 0.6,-0.36 0.768,-0.984 h 3.216 q -0.552,1.824 -1.92,2.808 -1.368,0.984 -3.264,0.984 -5.904,0 -5.904,-6.432 0,-1.368 0.384,-2.472 0.384,-1.104 1.104,-1.896 0.744,-0.792 1.8,-1.2 1.056,-0.432 2.424,-0.432 2.736,0 4.128,1.752 1.416,1.752 1.416,5.28 z"
       style="text-align:center;text-anchor:middle;fill:#8fbcbb;fill-opacity:1"
       id="path14763" /><path
       d="m 387.12361,204.60129 q -0.12,1.032 -0.6,1.872 -0.456,0.84 -1.176,1.44 -0.72,0.6 -1.656,0.936 -0.912,0.336 -1.992,0.336 -1.2,0 -2.208,-0.384 -0.984,-0.408 -1.704,-1.2 -0.72,-0.816 -1.128,-1.992 -0.384,-1.2 -0.384,-2.784 0,-1.584 0.384,-2.736 0.408,-1.152 1.128,-1.872 0.72,-0.744 1.728,-1.104 1.032,-0.36 2.28,-0.36 1.152,0 2.088,0.312 0.96,0.312 1.656,0.912 0.72,0.6 1.128,1.44 0.408,0.84 0.48,1.872 h -3.144 q -0.12,-0.912 -0.744,-1.416 -0.6,-0.528 -1.488,-0.528 -0.504,0 -0.936,0.168 -0.432,0.168 -0.768,0.576 -0.312,0.384 -0.504,1.056 -0.192,0.648 -0.192,1.608 0,1.944 0.696,2.88 0.696,0.936 1.608,0.936 0.912,0 1.56,-0.504 0.648,-0.504 0.744,-1.464 z"
       style="text-align:center;text-anchor:middle;fill:#8fbcbb;fill-opacity:1"
       id="path14765" /><path
       d="m 394.62511,201.09729 h 2.904 v 3.36 q 0,0.936 -0.288,1.8 -0.264,0.84 -0.864,1.512 -0.576,0.648 -1.488,1.032 -0.888,0.384 -2.136,0.384 -1.296,0 -2.208,-0.384 -0.912,-0.384 -1.512,-1.032 -0.576,-0.648 -0.84,-1.512 -0.264,-0.864 -0.264,-1.824 v -10.56 h 3.072 v 3.192 h 6.528 v 2.208 h -6.528 v 4.848 q 0,1.128 0.408,1.752 0.432,0.6 1.392,0.6 0.936,0 1.368,-0.6 0.456,-0.6 0.456,-1.704 z"
       style="text-align:center;text-anchor:middle;fill:#8fbcbb;fill-opacity:1"
       id="path14767" /><path
       d="m 398.73549,208.87329 v -11.808 h 3.12 v 11.808 z m 0,-13.224 v -2.904 h 3.12 v 2.904 z"
       style="text-align:center;text-anchor:middle;fill:#8fbcbb;fill-opacity:1"
       id="path14769" /><path
       d="m 408.97149,206.56929 q 2.856,0 2.856,-3.6 0,-3.576 -2.856,-3.576 -2.856,0 -2.856,3.576 0,3.6 2.856,3.6 z m 0,2.616 q -1.44,0 -2.568,-0.456 -1.128,-0.456 -1.92,-1.272 -0.768,-0.816 -1.176,-1.968 -0.408,-1.152 -0.408,-2.52 0,-1.392 0.408,-2.544 0.432,-1.152 1.224,-1.968 0.792,-0.816 1.896,-1.248 1.128,-0.456 2.544,-0.456 1.392,0 2.496,0.456 1.104,0.432 1.872,1.248 0.792,0.792 1.2,1.944 0.432,1.152 0.432,2.568 0,1.416 -0.432,2.568 -0.408,1.128 -1.2,1.944 -0.768,0.816 -1.896,1.272 -1.104,0.432 -2.472,0.432 z"
       style="text-align:center;text-anchor:middle;fill:#8fbcbb;fill-opacity:1"
       id="path14771" /><path
       d="m 423.52036,208.87329 v -7.152 q 0,-1.368 -0.456,-1.848 -0.456,-0.48 -1.56,-0.48 -2.424,0 -2.424,2.712 v 6.768 h -3.12 v -11.808 h 2.976 v 1.728 q 0.552,-1.008 1.464,-1.512 0.912,-0.528 2.352,-0.528 0.84,0 1.56,0.264 0.72,0.24 1.224,0.744 0.528,0.504 0.816,1.248 0.312,0.72 0.312,1.68 v 8.184 z"
       style="text-align:center;text-anchor:middle;fill:#8fbcbb;fill-opacity:1"
       id="path14773" /><path
       d="m 440.51574,201.09729 h 2.904 v 3.36 q 0,0.936 -0.288,1.8 -0.264,0.84 -0.864,1.512 -0.576,0.648 -1.488,1.032 -0.888,0.384 -2.136,0.384 -1.296,0 -2.208,-0.384 -0.912,-0.384 -1.512,-1.032 -0.576,-0.648 -0.84,-1.512 -0.264,-0.864 -0.264,-1.824 v -10.56 h 3.072 v 3.192 h 6.528 v 2.208 h -6.528 v 4.848 q 0,1.128 0.408,1.752 0.432,0.6 1.392,0.6 0.936,0 1.368,-0.6 0.456,-0.6 0.456,-1.704 z"
       style="text-align:center;text-anchor:middle;fill:#8fbcbb;fill-opacity:1"
       id="path14775" /><path
       d="m 452.11411,208.87329 v -7.32 q 0,-1.344 -0.48,-1.824 -0.456,-0.504 -1.536,-0.504 -0.576,0 -1.032,0.24 -0.456,0.216 -0.768,0.624 -0.312,0.384 -0.48,0.912 -0.144,0.504 -0.144,1.104 v 6.768 h -3.12 v -16.128 h 3.12 v 5.856 q 0.168,-0.384 0.504,-0.72 0.36,-0.36 0.816,-0.6 0.456,-0.24 1.008,-0.384 0.552,-0.144 1.152,-0.144 1.824,0 2.952,1.008 1.152,0.984 1.152,2.76 v 8.352 z"
       style="text-align:center;text-anchor:middle;fill:#8fbcbb;fill-opacity:1"
       id="path14777" /><path
       d="m 463.68324,203.08929 q -0.24,0.24 -0.696,0.384 -0.456,0.144 -1.32,0.312 -1.344,0.264 -1.848,0.672 -0.504,0.408 -0.504,1.176 0,1.32 1.512,1.32 0.6,0 1.104,-0.192 0.528,-0.216 0.888,-0.552 0.384,-0.36 0.6,-0.816 0.24,-0.48 0.24,-1.008 z m 0.216,5.784 q -0.144,-0.456 -0.192,-1.056 -0.552,0.624 -1.464,1.008 -0.912,0.36 -2.112,0.36 -2.04,0 -3,-0.888 -0.936,-0.912 -0.936,-2.352 0,-1.272 0.408,-2.016 0.408,-0.768 1.128,-1.2 0.72,-0.432 1.704,-0.624 1.008,-0.216 2.184,-0.384 1.176,-0.168 1.584,-0.432 0.408,-0.288 0.408,-0.912 0,-0.576 -0.552,-0.888 -0.528,-0.336 -1.44,-0.336 -1.08,0 -1.56,0.48 -0.456,0.48 -0.576,1.272 h -2.904 q 0.024,-0.912 0.288,-1.68 0.288,-0.768 0.888,-1.32 0.624,-0.552 1.608,-0.84 0.984,-0.312 2.4,-0.312 1.392,0 2.352,0.312 0.984,0.312 1.56,0.912 0.6,0.576 0.864,1.464 0.264,0.864 0.264,1.968 v 7.464 z"
       style="text-align:center;text-anchor:middle;fill:#8fbcbb;fill-opacity:1"
       id="path14779" /><path
       d="m 474.73449,201.09729 h 2.904 v 3.36 q 0,0.936 -0.288,1.8 -0.264,0.84 -0.864,1.512 -0.576,0.648 -1.488,1.032 -0.888,0.384 -2.136,0.384 -1.296,0 -2.208,-0.384 -0.912,-0.384 -1.512,-1.032 -0.576,-0.648 -0.84,-1.512 -0.264,-0.864 -0.264,-1.824 v -10.56 h 3.072 v 3.192 h 6.528 v 2.208 h -6.528 v 4.848 q 0,1.128 0.408,1.752 0.432,0.6 1.392,0.6 0.936,0 1.368,-0.6 0.456,-0.6 0.456,-1.704 z"
       style="text-align:center;text-anchor:middle;fill:#8fbcbb;fill-opacity:1"
       id="path14781" /><path
       d="m 346.25893,238.87329 v -11.808 h 3.12 v 11.808 z m 0,-13.224 v -2.904 h 3.12 v 2.904 z"
       style="text-align:center;text-anchor:middle;fill:#8fbcbb;fill-opacity:1"
       id="path14783" /><path
       d="m 357.79093,230.64129 q -0.12,-0.816 -0.624,-1.176 -0.48,-0.384 -1.488,-0.384 -0.96,0 -1.464,0.24 -0.48,0.216 -0.48,0.768 0,0.48 0.48,0.768 0.504,0.288 1.44,0.552 1.536,0.432 2.592,0.744 1.056,0.288 1.68,0.696 0.648,0.408 0.912,1.032 0.288,0.6 0.288,1.632 0,1.584 -1.32,2.64 -1.32,1.032 -3.912,1.032 -1.272,0 -2.304,-0.288 -1.032,-0.288 -1.776,-0.816 -0.72,-0.552 -1.128,-1.296 -0.384,-0.768 -0.408,-1.704 h 3.216 q 0,0.84 0.648,1.296 0.672,0.456 1.728,0.456 0.888,0 1.512,-0.264 0.648,-0.288 0.648,-0.864 0,-0.648 -0.48,-0.936 -0.456,-0.288 -1.416,-0.504 -1.728,-0.384 -2.784,-0.792 -1.056,-0.432 -1.656,-0.936 -0.576,-0.504 -0.792,-1.104 -0.192,-0.6 -0.192,-1.344 0,-0.672 0.264,-1.272 0.288,-0.6 0.888,-1.056 0.6,-0.456 1.56,-0.72 0.96,-0.288 2.352,-0.288 2.544,0 3.72,1.032 1.176,1.032 1.296,2.856 z"
       style="text-align:center;text-anchor:middle;fill:#8fbcbb;fill-opacity:1"
       id="path14785" /><path
       d="m 369.45005,238.87329 v -7.152 q 0,-1.368 -0.456,-1.848 -0.456,-0.48 -1.56,-0.48 -2.424,0 -2.424,2.712 v 6.768 h -3.12 v -11.808 h 2.976 v 1.728 q 0.552,-1.008 1.464,-1.512 0.912,-0.528 2.352,-0.528 0.84,0 1.56,0.264 0.72,0.24 1.224,0.744 0.528,0.504 0.816,1.248 0.312,0.72 0.312,1.68 v 8.184 z"
       style="text-align:center;text-anchor:middle;fill:#8fbcbb;fill-opacity:1"
       id="path14787" /><path
       d="m 373.77118,228.93729 v -6 h 2.136 v 6 z"
       style="text-align:center;text-anchor:middle;fill:#8fbcbb;fill-opacity:1"
       id="path14789" /><path
       d="m 383.72668,231.09729 h 2.904 v 3.36 q 0,0.936 -0.288,1.8 -0.264,0.84 -0.864,1.512 -0.576,0.648 -1.488,1.032 -0.888,0.384 -2.136,0.384 -1.296,0 -2.208,-0.384 -0.912,-0.384 -1.512,-1.032 -0.576,-0.648 -0.84,-1.512 -0.264,-0.864 -0.264,-1.824 v -10.56 h 3.072 v 3.192 h 6.528 v 2.208 h -6.528 v 4.848 q 0,1.128 0.408,1.752 0.432,0.6 1.392,0.6 0.936,0 1.368,-0.6 0.456,-0.6 0.456,-1.704 z"
       style="text-align:center;text-anchor:middle;fill:#8fbcbb;fill-opacity:1"
       id="path14791" /><path
       d="m 399.4793,236.56929 q 2.856,0 2.856,-3.6 0,-3.576 -2.856,-3.576 -2.856,0 -2.856,3.576 0,3.6 2.856,3.6 z m 0,2.616 q -1.44,0 -2.568,-0.456 -1.128,-0.456 -1.92,-1.272 -0.768,-0.816 -1.176,-1.968 -0.408,-1.152 -0.408,-2.52 0,-1.392 0.408,-2.544 0.432,-1.152 1.224,-1.968 0.792,-0.816 1.896,-1.248 1.128,-0.456 2.544,-0.456 1.392,0 2.496,0.456 1.104,0.432 1.872,1.248 0.792,0.792 1.2,1.944 0.432,1.152 0.432,2.568 0,1.416 -0.432,2.568 -0.408,1.128 -1.2,1.944 -0.768,0.816 -1.896,1.272 -1.104,0.432 -2.472,0.432 z"
       style="text-align:center;text-anchor:middle;fill:#8fbcbb;fill-opacity:1"
       id="path14793" /><path
       d="m 414.02818,238.87329 v -7.152 q 0,-1.368 -0.456,-1.848 -0.456,-0.48 -1.56,-0.48 -2.424,0 -2.424,2.712 v 6.768 h -3.12 v -11.808 h 2.976 v 1.728 q 0.552,-1.008 1.464,-1.512 0.912,-0.528 2.352,-0.528 0.84,0 1.56,0.264 0.72,0.24 1.224,0.744 0.528,0.504 0.816,1.248 0.312,0.72 0.312,1.68 v 8.184 z"
       style="text-align:center;text-anchor:middle;fill:#8fbcbb;fill-opacity:1"
       id="path14795" /><path
       d="m 432.10355,231.81729 q -0.024,-0.648 -0.24,-1.128 -0.192,-0.504 -0.528,-0.816 -0.336,-0.336 -0.768,-0.48 -0.432,-0.168 -0.888,-0.168 -0.936,0 -1.632,0.696 -0.672,0.672 -0.768,1.896 z m -4.92,1.968 q 0.072,1.344 0.768,2.136 0.72,0.792 1.872,0.792 0.768,0 1.344,-0.336 0.6,-0.36 0.768,-0.984 h 3.216 q -0.552,1.824 -1.92,2.808 -1.368,0.984 -3.264,0.984 -5.904,0 -5.904,-6.432 0,-1.368 0.384,-2.472 0.384,-1.104 1.104,-1.896 0.744,-0.792 1.8,-1.2 1.056,-0.432 2.424,-0.432 2.736,0 4.128,1.752 1.416,1.752 1.416,5.28 z"
       style="text-align:center;text-anchor:middle;fill:#8fbcbb;fill-opacity:1"
       id="path14797" /><path
       d="m 441.87268,236.64129 q 1.128,0 1.872,-0.936 0.768,-0.936 0.768,-2.448 0,-3.84 -2.616,-3.84 -2.688,0 -2.688,3.648 0,1.584 0.744,2.592 0.744,0.984 1.92,0.984 z m 2.592,2.232 -0.024,-1.44 q -1.08,1.752 -3.288,1.752 -1.128,0 -2.064,-0.432 -0.936,-0.432 -1.608,-1.248 -0.672,-0.816 -1.056,-1.992 -0.384,-1.176 -0.384,-2.664 0,-1.344 0.312,-2.448 0.336,-1.128 0.96,-1.944 0.624,-0.816 1.512,-1.248 0.912,-0.456 2.064,-0.456 2.184,0 3.504,1.848 v -5.856 h 3.072 v 16.128 z"
       style="text-align:center;text-anchor:middle;fill:#8fbcbb;fill-opacity:1"
       id="path14799" /><path
       d="m 454.36655,236.52129 q 1.152,0 1.896,-0.864 0.768,-0.888 0.768,-2.4 0,-3.792 -2.664,-3.792 -2.664,0 -2.664,3.6 0,1.584 0.744,2.52 0.768,0.936 1.92,0.936 z m 2.568,0.768 q -0.336,0.792 -1.224,1.248 -0.864,0.432 -2.016,0.432 -1.464,0 -2.472,-0.504 -0.984,-0.528 -1.608,-1.368 -0.6,-0.84 -0.888,-1.944 -0.264,-1.104 -0.264,-2.256 0,-1.368 0.408,-2.496 0.408,-1.152 1.104,-1.944 0.696,-0.816 1.632,-1.248 0.936,-0.456 2.016,-0.456 2.208,0 3.312,1.776 v -1.464 h 3.12 v 11.928 q 0,1.344 -0.456,2.352 -0.456,1.032 -1.248,1.704 -0.792,0.696 -1.872,1.056 -1.08,0.36 -2.304,0.36 -1.224,0 -2.28,-0.36 -1.056,-0.336 -1.824,-0.984 -0.744,-0.624 -1.176,-1.536 -0.432,-0.912 -0.432,-2.064 h 2.904 q 0,1.08 0.696,1.656 0.72,0.6 1.896,0.6 1.248,0 2.112,-0.696 0.864,-0.672 0.864,-1.848 z"
       style="text-align:center;text-anchor:middle;fill:#8fbcbb;fill-opacity:1"
       id="path14801" /><path
       d="m 469.08793,231.81729 q -0.024,-0.648 -0.24,-1.128 -0.192,-0.504 -0.528,-0.816 -0.336,-0.336 -0.768,-0.48 -0.432,-0.168 -0.888,-0.168 -0.936,0 -1.632,0.696 -0.672,0.672 -0.768,1.896 z m -4.92,1.968 q 0.072,1.344 0.768,2.136 0.72,0.792 1.872,0.792 0.768,0 1.344,-0.336 0.6,-0.36 0.768,-0.984 h 3.216 q -0.552,1.824 -1.92,2.808 -1.368,0.984 -3.264,0.984 -5.904,0 -5.904,-6.432 0,-1.368 0.384,-2.472 0.384,-1.104 1.104,-1.896 0.744,-0.792 1.8,-1.2 1.056,-0.432 2.424,-0.432 2.736,0 4.128,1.752 1.416,1.752 1.416,5.28 z"
       style="text-align:center;text-anchor:middle;fill:#8fbcbb;fill-opacity:1"
       id="path14803" /></g><g
     aria-label="Closest edge
normal direction"
     style="font-style:normal;font-variant:normal;font-weight:normal;font-stretch:normal;font-size:24px;line-height:125%;font-family:Coolvetica;-inkscape-font-specification:Coolvetica;letter-spacing:0px;word-spacing:0px;fill:#d08770;fill-opacity:1;stroke:none;stroke-width:1px;stroke-linecap:butt;stroke-linejoin:miter;stroke-opacity:1"
     id="text9665-2"><path
       d="m 160.60633,189.24419 q -0.264,1.368 -0.84,2.472 -0.576,1.104 -1.464,1.896 -0.864,0.792 -2.016,1.224 -1.152,0.432 -2.544,0.432 -1.56,0 -2.928,-0.528 -1.344,-0.528 -2.328,-1.584 -0.984,-1.056 -1.56,-2.592 -0.552,-1.56 -0.552,-3.624 0,-2.016 0.504,-3.624 0.528,-1.632 1.488,-2.736 0.96,-1.128 2.328,-1.728 1.392,-0.6 3.096,-0.6 1.488,0 2.688,0.456 1.224,0.432 2.088,1.224 0.888,0.768 1.392,1.824 0.528,1.056 0.648,2.256 h -3.336 q -0.336,-1.368 -1.296,-2.112 -0.96,-0.768 -2.16,-0.768 -2.088,0 -3.072,1.512 -0.984,1.488 -0.984,4.104 0,2.664 0.96,4.152 0.984,1.464 2.928,1.464 1.488,0 2.376,-0.792 0.912,-0.816 1.248,-2.328 z"
       style="text-align:center;text-anchor:middle;fill:#d08770;fill-opacity:1"
       id="path14674" /><path
       d="m 161.21645,194.71619 v -16.128 h 3.12 v 16.128 z"
       style="text-align:center;text-anchor:middle;fill:#d08770;fill-opacity:1"
       id="path14676" /><path
       d="m 171.38383,192.41219 q 2.856,0 2.856,-3.6 0,-3.576 -2.856,-3.576 -2.856,0 -2.856,3.576 0,3.6 2.856,3.6 z m 0,2.616 q -1.44,0 -2.568,-0.456 -1.128,-0.456 -1.92,-1.272 -0.768,-0.816 -1.176,-1.968 -0.408,-1.152 -0.408,-2.52 0,-1.392 0.408,-2.544 0.432,-1.152 1.224,-1.968 0.792,-0.816 1.896,-1.248 1.128,-0.456 2.544,-0.456 1.392,0 2.496,0.456 1.104,0.432 1.872,1.248 0.792,0.792 1.2,1.944 0.432,1.152 0.432,2.568 0,1.416 -0.432,2.568 -0.408,1.128 -1.2,1.944 -0.768,0.816 -1.896,1.272 -1.104,0.432 -2.472,0.432 z"
       style="text-align:center;text-anchor:middle;fill:#d08770;fill-opacity:1"
       id="path14678" /><path
       d="m 185.4767,186.48419 q -0.12,-0.816 -0.624,-1.176 -0.48,-0.384 -1.488,-0.384 -0.96,0 -1.464,0.24 -0.48,0.216 -0.48,0.768 0,0.48 0.48,0.768 0.504,0.288 1.44,0.552 1.536,0.432 2.592,0.744 1.056,0.288 1.68,0.696 0.648,0.408 0.912,1.032 0.288,0.6 0.288,1.632 0,1.584 -1.32,2.64 -1.32,1.032 -3.912,1.032 -1.272,0 -2.304,-0.288 -1.032,-0.288 -1.776,-0.816 -0.72,-0.552 -1.128,-1.296 -0.384,-0.768 -0.408,-1.704 h 3.216 q 0,0.84 0.648,1.296 0.672,0.456 1.728,0.456 0.888,0 1.512,-0.264 0.648,-0.288 0.648,-0.864 0,-0.648 -0.48,-0.936 -0.456,-0.288 -1.416,-0.504 -1.728,-0.384 -2.784,-0.792 -1.056,-0.432 -1.656,-0.936 -0.576,-0.504 -0.792,-1.104 -0.192,-0.6 -0.192,-1.344 0,-0.672 0.264,-1.272 0.288,-0.6 0.888,-1.056 0.6,-0.456 1.56,-0.72 0.96,-0.288 2.352,-0.288 2.544,0 3.72,1.032 1.176,1.032 1.296,2.856 z"
       style="text-align:center;text-anchor:middle;fill:#d08770;fill-opacity:1"
       id="path14680" /><path
       d="m 197.35183,187.66019 q -0.024,-0.648 -0.24,-1.128 -0.192,-0.504 -0.528,-0.816 -0.336,-0.336 -0.768,-0.48 -0.432,-0.168 -0.888,-0.168 -0.936,0 -1.632,0.696 -0.672,0.672 -0.768,1.896 z m -4.92,1.968 q 0.072,1.344 0.768,2.136 0.72,0.792 1.872,0.792 0.768,0 1.344,-0.336 0.6,-0.36 0.768,-0.984 h 3.216 q -0.552,1.824 -1.92,2.808 -1.368,0.984 -3.264,0.984 -5.904,0 -5.904,-6.432 0,-1.368 0.384,-2.472 0.384,-1.104 1.104,-1.896 0.744,-0.792 1.8,-1.2 1.056,-0.432 2.424,-0.432 2.736,0 4.128,1.752 1.416,1.752 1.416,5.28 z"
       style="text-align:center;text-anchor:middle;fill:#d08770;fill-opacity:1"
       id="path14682" /><path
       d="m 208.63295,186.48419 q -0.12,-0.816 -0.624,-1.176 -0.48,-0.384 -1.488,-0.384 -0.96,0 -1.464,0.24 -0.48,0.216 -0.48,0.768 0,0.48 0.48,0.768 0.504,0.288 1.44,0.552 1.536,0.432 2.592,0.744 1.056,0.288 1.68,0.696 0.648,0.408 0.912,1.032 0.288,0.6 0.288,1.632 0,1.584 -1.32,2.64 -1.32,1.032 -3.912,1.032 -1.272,0 -2.304,-0.288 -1.032,-0.288 -1.776,-0.816 -0.72,-0.552 -1.128,-1.296 -0.384,-0.768 -0.408,-1.704 h 3.216 q 0,0.84 0.648,1.296 0.672,0.456 1.728,0.456 0.888,0 1.512,-0.264 0.648,-0.288 0.648,-0.864 0,-0.648 -0.48,-0.936 -0.456,-0.288 -1.416,-0.504 -1.728,-0.384 -2.784,-0.792 -1.056,-0.432 -1.656,-0.936 -0.576,-0.504 -0.792,-1.104 -0.192,-0.6 -0.192,-1.344 0,-0.672 0.264,-1.272 0.288,-0.6 0.888,-1.056 0.6,-0.456 1.56,-0.72 0.96,-0.288 2.352,-0.288 2.544,0 3.72,1.032 1.176,1.032 1.296,2.856 z"
       style="text-align:center;text-anchor:middle;fill:#d08770;fill-opacity:1"
       id="path14684" /><path
       d="m 219.42808,186.94019 h 2.904 v 3.36 q 0,0.936 -0.288,1.8 -0.264,0.84 -0.864,1.512 -0.576,0.648 -1.488,1.032 -0.888,0.384 -2.136,0.384 -1.296,0 -2.208,-0.384 -0.912,-0.384 -1.512,-1.032 -0.576,-0.648 -0.84,-1.512 -0.264,-0.864 -0.264,-1.824 v -10.56 h 3.072 v 3.192 h 6.528 v 2.208 h -6.528 v 4.848 q 0,1.128 0.408,1.752 0.432,0.6 1.392,0.6 0.936,0 1.368,-0.6 0.456,-0.6 0.456,-1.704 z"
       style="text-align:center;text-anchor:middle;fill:#d08770;fill-opacity:1"
       id="path14686" /><path
       d="m 237.1487,187.66019 q -0.024,-0.648 -0.24,-1.128 -0.192,-0.504 -0.528,-0.816 -0.336,-0.336 -0.768,-0.48 -0.432,-0.168 -0.888,-0.168 -0.936,0 -1.632,0.696 -0.672,0.672 -0.768,1.896 z m -4.92,1.968 q 0.072,1.344 0.768,2.136 0.72,0.792 1.872,0.792 0.768,0 1.344,-0.336 0.6,-0.36 0.768,-0.984 h 3.216 q -0.552,1.824 -1.92,2.808 -1.368,0.984 -3.264,0.984 -5.904,0 -5.904,-6.432 0,-1.368 0.384,-2.472 0.384,-1.104 1.104,-1.896 0.744,-0.792 1.8,-1.2 1.056,-0.432 2.424,-0.432 2.736,0 4.128,1.752 1.416,1.752 1.416,5.28 z"
       style="text-align:center;text-anchor:middle;fill:#d08770;fill-opacity:1"
       id="path14688" /><path
       d="m 246.91783,192.48419 q 1.128,0 1.872,-0.936 0.768,-0.936 0.768,-2.448 0,-3.84 -2.616,-3.84 -2.688,0 -2.688,3.648 0,1.584 0.744,2.592 0.744,0.984 1.92,0.984 z m 2.592,2.232 -0.024,-1.44 q -1.08,1.752 -3.288,1.752 -1.128,0 -2.064,-0.432 -0.936,-0.432 -1.608,-1.248 -0.672,-0.816 -1.056,-1.992 -0.384,-1.176 -0.384,-2.664 0,-1.344 0.312,-2.448 0.336,-1.128 0.96,-1.944 0.624,-0.816 1.512,-1.248 0.912,-0.456 2.064,-0.456 2.184,0 3.504,1.848 v -5.856 h 3.072 v 16.128 z"
       style="text-align:center;text-anchor:middle;fill:#d08770;fill-opacity:1"
       id="path14690" /><path
       d="m 259.4117,192.36419 q 1.152,0 1.896,-0.864 0.768,-0.888 0.768,-2.4 0,-3.792 -2.664,-3.792 -2.664,0 -2.664,3.6 0,1.584 0.744,2.52 0.768,0.936 1.92,0.936 z m 2.568,0.768 q -0.336,0.792 -1.224,1.248 -0.864,0.432 -2.016,0.432 -1.464,0 -2.472,-0.504 -0.984,-0.528 -1.608,-1.368 -0.6,-0.84 -0.888,-1.944 -0.264,-1.104 -0.264,-2.256 0,-1.368 0.408,-2.496 0.408,-1.152 1.104,-1.944 0.696,-0.816 1.632,-1.248 0.936,-0.456 2.016,-0.456 2.208,0 3.312,1.776 v -1.464 h 3.12 v 11.928 q 0,1.344 -0.456,2.352 -0.456,1.032 -1.248,1.704 -0.792,0.696 -1.872,1.056 -1.08,0.36 -2.304,0.36 -1.224,0 -2.28,-0.36 -1.056,-0.336 -1.824,-0.984 -0.744,-0.624 -1.176,-1.536 -0.432,-0.912 -0.432,-2.064 h 2.904 q 0,1.08 0.696,1.656 0.72,0.6 1.896,0.6 1.248,0 2.112,-0.696 0.864,-0.672 0.864,-1.848 z"
       style="text-align:center;text-anchor:middle;fill:#d08770;fill-opacity:1"
       id="path14692" /><path
       d="m 274.13308,187.66019 q -0.024,-0.648 -0.24,-1.128 -0.192,-0.504 -0.528,-0.816 -0.336,-0.336 -0.768,-0.48 -0.432,-0.168 -0.888,-0.168 -0.936,0 -1.632,0.696 -0.672,0.672 -0.768,1.896 z m -4.92,1.968 q 0.072,1.344 0.768,2.136 0.72,0.792 1.872,0.792 0.768,0 1.344,-0.336 0.6,-0.36 0.768,-0.984 h 3.216 q -0.552,1.824 -1.92,2.808 -1.368,0.984 -3.264,0.984 -5.904,0 -5.904,-6.432 0,-1.368 0.384,-2.472 0.384,-1.104 1.104,-1.896 0.744,-0.792 1.8,-1.2 1.056,-0.432 2.424,-0.432 2.736,0 4.128,1.752 1.416,1.752 1.416,5.28 z"
       style="text-align:center;text-anchor:middle;fill:#d08770;fill-opacity:1"
       id="path14694" /><path
       d="m 140.29989,224.71619 v -7.152 q 0,-1.368 -0.456,-1.848 -0.456,-0.48 -1.56,-0.48 -2.424,0 -2.424,2.712 v 6.768 h -3.12 v -11.808 h 2.976 v 1.728 q 0.552,-1.008 1.464,-1.512 0.912,-0.528 2.352,-0.528 0.84,0 1.56,0.264 0.72,0.24 1.224,0.744 0.528,0.504 0.816,1.248 0.312,0.72 0.312,1.68 v 8.184 z"
       style="text-align:center;text-anchor:middle;fill:#d08770;fill-opacity:1"
       id="path14696" /><path
       d="m 150.50102,222.41219 q 2.856,0 2.856,-3.6 0,-3.576 -2.856,-3.576 -2.856,0 -2.856,3.576 0,3.6 2.856,3.6 z m 0,2.616 q -1.44,0 -2.568,-0.456 -1.128,-0.456 -1.92,-1.272 -0.768,-0.816 -1.176,-1.968 -0.408,-1.152 -0.408,-2.52 0,-1.392 0.408,-2.544 0.432,-1.152 1.224,-1.968 0.792,-0.816 1.896,-1.248 1.128,-0.456 2.544,-0.456 1.392,0 2.496,0.456 1.104,0.432 1.872,1.248 0.792,0.792 1.2,1.944 0.432,1.152 0.432,2.568 0,1.416 -0.432,2.568 -0.408,1.128 -1.2,1.944 -0.768,0.816 -1.896,1.272 -1.104,0.432 -2.472,0.432 z"
       style="text-align:center;text-anchor:middle;fill:#d08770;fill-opacity:1"
       id="path14698" /><path
       d="m 157.48989,224.71619 v -11.808 h 2.928 v 1.416 q 0.384,-0.6 0.792,-0.936 0.432,-0.336 0.864,-0.504 0.456,-0.192 0.912,-0.24 0.456,-0.048 0.936,-0.048 h 0.408 v 3.192 q -0.432,-0.072 -0.864,-0.072 -2.856,0 -2.856,2.856 v 6.144 z"
       style="text-align:center;text-anchor:middle;fill:#d08770;fill-opacity:1"
       id="path14700" /><path
       d="m 178.88477,224.71619 v -7.152 q 0,-1.08 -0.504,-1.752 -0.504,-0.672 -1.344,-0.672 -0.864,0 -1.44,0.72 -0.552,0.72 -0.552,1.8 v 7.056 h -3.12 v -7.104 q 0,-0.72 -0.096,-1.176 -0.096,-0.456 -0.336,-0.72 -0.216,-0.264 -0.576,-0.36 -0.36,-0.12 -0.864,-0.12 -1.896,0 -1.896,2.304 v 7.176 h -3.12 v -11.808 h 2.928 v 1.728 q 0.6,-1.176 1.44,-1.608 0.84,-0.432 2.016,-0.432 0.6,0 1.056,0.096 0.48,0.096 0.84,0.336 0.384,0.216 0.72,0.576 0.336,0.36 0.672,0.864 0.48,-0.984 1.272,-1.416 0.792,-0.456 1.92,-0.456 0.888,0 1.632,0.312 0.744,0.288 1.272,0.84 0.528,0.528 0.816,1.248 0.312,0.72 0.312,1.536 v 8.184 z"
       style="text-align:center;text-anchor:middle;fill:#d08770;fill-opacity:1"
       id="path14702" /><path
       d="m 190.35339,218.93219 q -0.24,0.24 -0.696,0.384 -0.456,0.144 -1.32,0.312 -1.344,0.264 -1.848,0.672 -0.504,0.408 -0.504,1.176 0,1.32 1.512,1.32 0.6,0 1.104,-0.192 0.528,-0.216 0.888,-0.552 0.384,-0.36 0.6,-0.816 0.24,-0.48 0.24,-1.008 z m 0.216,5.784 q -0.144,-0.456 -0.192,-1.056 -0.552,0.624 -1.464,1.008 -0.912,0.36 -2.112,0.36 -2.04,0 -3,-0.888 -0.936,-0.912 -0.936,-2.352 0,-1.272 0.408,-2.016 0.408,-0.768 1.128,-1.2 0.72,-0.432 1.704,-0.624 1.008,-0.216 2.184,-0.384 1.176,-0.168 1.584,-0.432 0.408,-0.288 0.408,-0.912 0,-0.576 -0.552,-0.888 -0.528,-0.336 -1.44,-0.336 -1.08,0 -1.56,0.48 -0.456,0.48 -0.576,1.272 h -2.904 q 0.024,-0.912 0.288,-1.68 0.288,-0.768 0.888,-1.32 0.624,-0.552 1.608,-0.84 0.984,-0.312 2.4,-0.312 1.392,0 2.352,0.312 0.984,0.312 1.56,0.912 0.6,0.576 0.864,1.464 0.264,0.864 0.264,1.968 v 7.464 z"
       style="text-align:center;text-anchor:middle;fill:#d08770;fill-opacity:1"
       id="path14704" /><path
       d="m 194.70864,224.71619 v -16.128 h 3.12 v 16.128 z"
       style="text-align:center;text-anchor:middle;fill:#d08770;fill-opacity:1"
       id="path14706" /><path
       d="m 210.56627,222.48419 q 1.128,0 1.872,-0.936 0.768,-0.936 0.768,-2.448 0,-3.84 -2.616,-3.84 -2.688,0 -2.688,3.648 0,1.584 0.744,2.592 0.744,0.984 1.92,0.984 z m 2.592,2.232 -0.024,-1.44 q -1.08,1.752 -3.288,1.752 -1.128,0 -2.064,-0.432 -0.936,-0.432 -1.608,-1.248 -0.672,-0.816 -1.056,-1.992 -0.384,-1.176 -0.384,-2.664 0,-1.344 0.312,-2.448 0.336,-1.128 0.96,-1.944 0.624,-0.816 1.512,-1.248 0.912,-0.456 2.064,-0.456 2.184,0 3.504,1.848 v -5.856 h 3.072 v 16.128 z"
       style="text-align:center;text-anchor:middle;fill:#d08770;fill-opacity:1"
       id="path14708" /><path
       d="m 217.46814,224.71619 v -11.808 h 3.12 v 11.808 z m 0,-13.224 v -2.904 h 3.12 v 2.904 z"
       style="text-align:center;text-anchor:middle;fill:#d08770;fill-opacity:1"
       id="path14710" /><path
       d="m 221.89614,224.71619 v -11.808 h 2.928 v 1.416 q 0.384,-0.6 0.792,-0.936 0.432,-0.336 0.864,-0.504 0.456,-0.192 0.912,-0.24 0.456,-0.048 0.936,-0.048 h 0.408 v 3.192 q -0.432,-0.072 -0.864,-0.072 -2.856,0 -2.856,2.856 v 6.144 z"
       style="text-align:center;text-anchor:middle;fill:#d08770;fill-opacity:1"
       id="path14712" /><path
       d="m 236.60964,217.66019 q -0.024,-0.648 -0.24,-1.128 -0.192,-0.504 -0.528,-0.816 -0.336,-0.336 -0.768,-0.48 -0.432,-0.168 -0.888,-0.168 -0.936,0 -1.632,0.696 -0.672,0.672 -0.768,1.896 z m -4.92,1.968 q 0.072,1.344 0.768,2.136 0.72,0.792 1.872,0.792 0.768,0 1.344,-0.336 0.6,-0.36 0.768,-0.984 h 3.216 q -0.552,1.824 -1.92,2.808 -1.368,0.984 -3.264,0.984 -5.904,0 -5.904,-6.432 0,-1.368 0.384,-2.472 0.384,-1.104 1.104,-1.896 0.744,-0.792 1.8,-1.2 1.056,-0.432 2.424,-0.432 2.736,0 4.128,1.752 1.416,1.752 1.416,5.28 z"
       style="text-align:center;text-anchor:middle;fill:#d08770;fill-opacity:1"
       id="path14714" /><path
       d="m 251.41877,220.44419 q -0.12,1.032 -0.6,1.872 -0.456,0.84 -1.176,1.44 -0.72,0.6 -1.656,0.936 -0.912,0.336 -1.992,0.336 -1.2,0 -2.208,-0.384 -0.984,-0.408 -1.704,-1.2 -0.72,-0.816 -1.128,-1.992 -0.384,-1.2 -0.384,-2.784 0,-1.584 0.384,-2.736 0.408,-1.152 1.128,-1.872 0.72,-0.744 1.728,-1.104 1.032,-0.36 2.28,-0.36 1.152,0 2.088,0.312 0.96,0.312 1.656,0.912 0.72,0.6 1.128,1.44 0.408,0.84 0.48,1.872 h -3.144 q -0.12,-0.912 -0.744,-1.416 -0.6,-0.528 -1.488,-0.528 -0.504,0 -0.936,0.168 -0.432,0.168 -0.768,0.576 -0.312,0.384 -0.504,1.056 -0.192,0.648 -0.192,1.608 0,1.944 0.696,2.88 0.696,0.936 1.608,0.936 0.912,0 1.56,-0.504 0.648,-0.504 0.744,-1.464 z"
       style="text-align:center;text-anchor:middle;fill:#d08770;fill-opacity:1"
       id="path14716" /><path
       d="m 258.92027,216.94019 h 2.904 v 3.36 q 0,0.936 -0.288,1.8 -0.264,0.84 -0.864,1.512 -0.576,0.648 -1.488,1.032 -0.888,0.384 -2.136,0.384 -1.296,0 -2.208,-0.384 -0.912,-0.384 -1.512,-1.032 -0.576,-0.648 -0.84,-1.512 -0.264,-0.864 -0.264,-1.824 v -10.56 h 3.072 v 3.192 h 6.528 v 2.208 h -6.528 v 4.848 q 0,1.128 0.408,1.752 0.432,0.6 1.392,0.6 0.936,0 1.368,-0.6 0.456,-0.6 0.456,-1.704 z"
       style="text-align:center;text-anchor:middle;fill:#d08770;fill-opacity:1"
       id="path14718" /><path
       d="m 263.03064,224.71619 v -11.808 h 3.12 v 11.808 z m 0,-13.224 v -2.904 h 3.12 v 2.904 z"
       style="text-align:center;text-anchor:middle;fill:#d08770;fill-opacity:1"
       id="path14720" /><path
       d="m 273.26664,222.41219 q 2.856,0 2.856,-3.6 0,-3.576 -2.856,-3.576 -2.856,0 -2.856,3.576 0,3.6 2.856,3.6 z m 0,2.616 q -1.44,0 -2.568,-0.456 -1.128,-0.456 -1.92,-1.272 -0.768,-0.816 -1.176,-1.968 -0.408,-1.152 -0.408,-2.52 0,-1.392 0.408,-2.544 0.432,-1.152 1.224,-1.968 0.792,-0.816 1.896,-1.248 1.128,-0.456 2.544,-0.456 1.392,0 2.496,0.456 1.104,0.432 1.872,1.248 0.792,0.792 1.2,1.944 0.432,1.152 0.432,2.568 0,1.416 -0.432,2.568 -0.408,1.128 -1.2,1.944 -0.768,0.816 -1.896,1.272 -1.104,0.432 -2.472,0.432 z"
       style="text-align:center;text-anchor:middle;fill:#d08770;fill-opacity:1"
       id="path14722" /><path
       d="m 287.81552,224.71619 v -7.152 q 0,-1.368 -0.456,-1.848 -0.456,-0.48 -1.56,-0.48 -2.424,0 -2.424,2.712 v 6.768 h -3.12 v -11.808 h 2.976 v 1.728 q 0.552,-1.008 1.464,-1.512 0.912,-0.528 2.352,-0.528 0.84,0 1.56,0.264 0.72,0.24 1.224,0.744 0.528,0.504 0.816,1.248 0.312,0.72 0.312,1.68 v 8.184 z"
       style="text-align:center;text-anchor:middle;fill:#d08770;fill-opacity:1"
       id="path14724" /></g><path
     style="opacity:1;vector-effect:none;fill:none;fill-opacity:1;fill-rule:evenodd;stroke:#8fbcbb;stroke-width:2;stroke-linecap:round;stroke-linejoin:round;stroke-miterlimit:4;stroke-dasharray:none;stroke-dashoffset:0;stroke-opacity:1;marker-end:url(#marker9073-9)"
     d="M 328.47857,200.29289 273.74277,162.5389"
     id="path9055-2"
     inkscape:connector-curvature="0"
     sodipodi:nodetypes="cc" /></svg>