<?xml version="1.0" encoding="utf-8"?>
<!-- Generator: Adobe Illustrator 21.0.2, SVG Export Plug-In . SVG Version: 6.00 Build 0)  -->
<svg version="1.1" id="Layer_1" xmlns="http://www.w3.org/2000/svg" xmlns:xlink="http://www.w3.org/1999/xlink" x="0px" y="0px"
	 viewBox="0 0 512 256" style="enable-background:new 0 0 512 256;" xml:space="preserve">
<style type="text/css">
	.st0{fill:none;stroke:#DE5B49;stroke-width:4;stroke-linecap:round;stroke-linejoin:round;stroke-miterlimit:10;}
	.st1{fill:none;stroke:#46B39D;stroke-width:4;stroke-linecap:round;stroke-linejoin:round;}
	.st2{fill:#46B39D;}
	.st3{fill:#F0CA4D;}
</style>
<line class="st0" x1="62" y1="224" x2="186.5" y2="123.5"/>
<circle class="st0" cx="80.5" cy="75.5" r="50.5"/>
<polyline class="st0" points="253,105.1 314.7,38 376.5,38 395.3,81 395.3,119.9 326.8,132 253,132 253,105.1 "/>
<path class="st0" d="M456.5,200.4l11.8-51c3.3-14.1-5.5-28.1-19.6-31.4c-14.1-3.3-28.1,5.5-31.4,19.6l-11.8,51
	c-3.3,14.1,5.5,28.1,19.6,31.4C439.2,223.3,453.2,214.5,456.5,200.4z"/>
<g>
	<g>
		<line class="st1" x1="174" y1="219" x2="329.9" y2="219"/>
		<g>
			<path class="st2" d="M354,219c-11.4,4.2-25.5,11.4-34.2,19l6.9-19l-6.9-19C328.5,207.6,342.6,214.8,354,219z"/>
		</g>
	</g>
</g>
<g>
	<path class="st2" d="M185.2,183.3c-0.1-0.8-0.4-1.4-0.9-1.8c-0.5-0.4-1.3-0.6-2.3-0.6c-1.9,0-2.8,0.6-2.8,1.9
		c0,0.5,0.2,0.9,0.6,1.2c0.4,0.3,1,0.6,1.9,0.8c1,0.2,1.9,0.5,2.7,0.7c0.8,0.2,1.4,0.4,2.1,0.7c0.4,0.1,0.7,0.3,1,0.5
		s0.6,0.5,0.8,0.8c0.2,0.3,0.4,0.7,0.5,1.2c0.1,0.4,0.2,1,0.2,1.6c0,0.8-0.2,1.4-0.5,2c-0.3,0.6-0.8,1.1-1.3,1.5
		c-0.5,0.4-1.2,0.7-1.9,0.9c-0.7,0.2-1.5,0.3-2.3,0.3c-2.3,0-4.1-0.4-5.2-1.3c-1.2-0.9-1.8-2.2-1.8-4h3.2c0,0.8,0.3,1.5,1,1.9
		s1.5,0.7,2.4,0.7c1.1,0,1.9-0.2,2.4-0.6s0.8-0.9,0.8-1.6c0-0.3,0-0.5-0.1-0.7c-0.1-0.2-0.2-0.4-0.4-0.6c-0.2-0.2-0.4-0.3-0.8-0.5
		c-0.3-0.1-0.7-0.3-1.2-0.4c-1.2-0.3-2.3-0.5-3.2-0.8c-0.9-0.3-1.6-0.6-2.2-1c-0.6-0.4-1-0.9-1.3-1.4c-0.3-0.6-0.4-1.3-0.4-2.1
		c0-0.7,0.1-1.3,0.4-1.8c0.2-0.6,0.6-1.1,1.1-1.5s1.1-0.8,1.8-1c0.7-0.2,1.6-0.4,2.6-0.4c1,0,1.8,0.1,2.6,0.4s1.4,0.6,2,1.1
		c0.6,0.5,1,1,1.3,1.7c0.3,0.6,0.5,1.4,0.5,2.1H185.2z"/>
	<path class="st2" d="M197.3,194.6v-1.7c-0.8,1.3-2,2-3.7,2c-0.6,0-1.1-0.1-1.6-0.3c-0.5-0.2-0.9-0.5-1.3-0.9
		c-0.4-0.4-0.6-0.8-0.8-1.4s-0.3-1.1-0.3-1.8v-7.8h3.1v7.3c0,1.5,0.7,2.2,2,2.2c0.8,0,1.4-0.3,1.8-0.8c0.4-0.5,0.6-1.1,0.6-1.9v-6.8
		h3.1v11.8H197.3z"/>
	<path class="st2" d="M201.5,200.2v-17.4h3l0,1.4c0.7-1.2,1.8-1.8,3.3-1.8c0.7,0,1.4,0.1,2.1,0.4c0.6,0.3,1.2,0.7,1.6,1.2
		c0.4,0.5,0.8,1.2,1.1,2c0.3,0.8,0.4,1.7,0.4,2.7c0,0.9-0.1,1.7-0.3,2.5c-0.2,0.7-0.5,1.4-0.9,1.9s-0.9,1-1.5,1.3s-1.3,0.4-2.1,0.4
		c-1.5,0-2.6-0.6-3.5-1.8v7.1H201.5z M207.1,192.2c1.8,0,2.7-1.2,2.7-3.6c0-1.1-0.2-1.9-0.7-2.6c-0.5-0.7-1.1-1-1.9-1
		c-0.8,0-1.4,0.3-1.9,0.9s-0.8,1.4-0.8,2.4C204.5,190.9,205.3,192.2,207.1,192.2z"/>
	<path class="st2" d="M213.9,200.2v-17.4h3l0,1.4c0.7-1.2,1.8-1.8,3.3-1.8c0.7,0,1.4,0.1,2.1,0.4c0.6,0.3,1.2,0.7,1.6,1.2
		c0.4,0.5,0.8,1.2,1.1,2c0.3,0.8,0.4,1.7,0.4,2.7c0,0.9-0.1,1.7-0.3,2.5c-0.2,0.7-0.5,1.4-0.9,1.9s-0.9,1-1.5,1.3s-1.3,0.4-2.1,0.4
		c-1.5,0-2.6-0.6-3.5-1.8v7.1H213.9z M219.5,192.2c1.8,0,2.7-1.2,2.7-3.6c0-1.1-0.2-1.9-0.7-2.6c-0.5-0.7-1.1-1-1.9-1
		c-0.8,0-1.4,0.3-1.9,0.9s-0.8,1.4-0.8,2.4C216.9,190.9,217.8,192.2,219.5,192.2z"/>
	<path class="st2" d="M232.2,194.9c-1,0-1.8-0.2-2.6-0.5s-1.4-0.7-1.9-1.3c-0.5-0.5-0.9-1.2-1.2-2c-0.3-0.8-0.4-1.6-0.4-2.5
		c0-0.9,0.1-1.8,0.4-2.5c0.3-0.8,0.7-1.4,1.2-2c0.5-0.5,1.2-1,1.9-1.3s1.6-0.4,2.5-0.4c0.9,0,1.8,0.1,2.5,0.4
		c0.7,0.3,1.4,0.7,1.9,1.2c0.5,0.5,0.9,1.2,1.2,2c0.3,0.8,0.4,1.6,0.4,2.6c0,0.9-0.1,1.8-0.4,2.6s-0.7,1.4-1.2,2
		c-0.5,0.5-1.2,1-1.9,1.3S233.1,194.9,232.2,194.9z M232.2,192.3c1.9,0,2.9-1.2,2.9-3.6c0-2.4-1-3.6-2.9-3.6c-1.9,0-2.9,1.2-2.9,3.6
		C229.3,191.1,230.3,192.3,232.2,192.3z"/>
	<path class="st2" d="M239.2,194.6v-11.8h2.9v1.4c0.3-0.4,0.5-0.7,0.8-0.9c0.3-0.2,0.6-0.4,0.9-0.5s0.6-0.2,0.9-0.2
		c0.3,0,0.6,0,0.9,0h0.4v3.2c-0.3,0-0.6-0.1-0.9-0.1c-1.9,0-2.9,1-2.9,2.9v6.1H239.2z"/>
	<path class="st2" d="M253.4,186.8h2.9v3.4c0,0.6-0.1,1.2-0.3,1.8c-0.2,0.6-0.5,1.1-0.9,1.5c-0.4,0.4-0.9,0.8-1.5,1
		c-0.6,0.3-1.3,0.4-2.1,0.4c-0.9,0-1.6-0.1-2.2-0.4c-0.6-0.3-1.1-0.6-1.5-1c-0.4-0.4-0.7-0.9-0.9-1.5s-0.3-1.2-0.3-1.8v-10.6h3.1
		v3.2h6.5v2.2h-6.5v4.8c0,0.8,0.1,1.3,0.4,1.7c0.3,0.4,0.7,0.6,1.4,0.6c0.6,0,1.1-0.2,1.4-0.6c0.3-0.4,0.4-1,0.4-1.7V186.8z"/>
	<path class="st2" d="M263.3,194.6v-15.9h6.2c1.1,0,2.1,0.2,3,0.5c0.9,0.4,1.7,0.9,2.3,1.5c0.6,0.7,1.2,1.5,1.5,2.4s0.6,2,0.6,3.3
		s-0.2,2.3-0.5,3.3c-0.3,1-0.8,1.9-1.4,2.6s-1.3,1.3-2.2,1.7c-0.8,0.4-1.8,0.6-2.8,0.6H263.3z M269.3,191.9c1.5,0,2.5-0.5,3.2-1.4
		c0.7-0.9,1-2.3,1-4.1c0-0.9-0.1-1.7-0.2-2.3c-0.2-0.6-0.4-1.2-0.8-1.6c-0.4-0.4-0.8-0.7-1.4-0.9c-0.6-0.2-1.2-0.3-2-0.3h-2.5v10.5
		H269.3z"/>
	<path class="st2" d="M277.9,181.4v-2.9h3.1v2.9H277.9z M277.9,194.6v-11.8h3.1v11.8H277.9z"/>
	<path class="st2" d="M282.4,194.6v-11.8h2.9v1.4c0.3-0.4,0.5-0.7,0.8-0.9c0.3-0.2,0.6-0.4,0.9-0.5s0.6-0.2,0.9-0.2
		c0.3,0,0.6,0,0.9,0h0.4v3.2c-0.3,0-0.6-0.1-0.9-0.1c-1.9,0-2.9,1-2.9,2.9v6.1H282.4z"/>
	<path class="st2" d="M292.2,189.5c0,0.9,0.3,1.6,0.8,2.1s1.1,0.8,1.9,0.8c0.5,0,1-0.1,1.4-0.3c0.4-0.2,0.6-0.6,0.8-1h3.2
		c-0.4,1.2-1,2.2-1.9,2.8s-2,1-3.3,1c-3.9,0-5.9-2.1-5.9-6.4c0-0.9,0.1-1.7,0.4-2.5s0.6-1.4,1.1-1.9c0.5-0.5,1.1-0.9,1.8-1.2
		c0.7-0.3,1.5-0.4,2.4-0.4c1.8,0,3.2,0.6,4.1,1.8c0.9,1.2,1.4,2.9,1.4,5.3H292.2z M297.1,187.5c0-0.4-0.1-0.8-0.2-1.1
		c-0.1-0.3-0.3-0.6-0.5-0.8s-0.5-0.4-0.8-0.5c-0.3-0.1-0.6-0.2-0.9-0.2c-0.6,0-1.2,0.2-1.6,0.7c-0.5,0.5-0.7,1.1-0.8,1.9H297.1z"/>
	<path class="st2" d="M311.9,190.3c-0.1,0.7-0.3,1.3-0.6,1.9c-0.3,0.6-0.7,1-1.2,1.4c-0.5,0.4-1,0.7-1.6,0.9c-0.6,0.2-1.3,0.3-2,0.3
		c-0.8,0-1.5-0.1-2.2-0.4s-1.2-0.7-1.7-1.2c-0.5-0.5-0.9-1.2-1.1-2c-0.3-0.8-0.4-1.7-0.4-2.8s0.1-2,0.4-2.7c0.3-0.8,0.6-1.4,1.1-1.9
		c0.5-0.5,1.1-0.9,1.7-1.1c0.7-0.2,1.4-0.4,2.3-0.4c0.8,0,1.5,0.1,2.1,0.3c0.6,0.2,1.2,0.5,1.7,0.9c0.5,0.4,0.8,0.9,1.1,1.4
		c0.3,0.6,0.4,1.2,0.5,1.9h-3.1c-0.1-0.6-0.3-1.1-0.7-1.4c-0.4-0.3-0.9-0.5-1.5-0.5c-0.3,0-0.6,0.1-0.9,0.2
		c-0.3,0.1-0.5,0.3-0.8,0.6s-0.4,0.6-0.5,1.1c-0.1,0.4-0.2,1-0.2,1.6c0,1.3,0.2,2.3,0.7,2.9c0.5,0.6,1,0.9,1.6,0.9
		c0.6,0,1.1-0.2,1.6-0.5c0.4-0.3,0.7-0.8,0.7-1.5H311.9z"/>
	<path class="st2" d="M319.4,186.8h2.9v3.4c0,0.6-0.1,1.2-0.3,1.8c-0.2,0.6-0.5,1.1-0.9,1.5c-0.4,0.4-0.9,0.8-1.5,1
		c-0.6,0.3-1.3,0.4-2.1,0.4c-0.9,0-1.6-0.1-2.2-0.4c-0.6-0.3-1.1-0.6-1.5-1c-0.4-0.4-0.7-0.9-0.9-1.5s-0.3-1.2-0.3-1.8v-10.6h3.1
		v3.2h6.5v2.2h-6.5v4.8c0,0.8,0.1,1.3,0.4,1.7c0.3,0.4,0.7,0.6,1.4,0.6c0.6,0,1.1-0.2,1.4-0.6c0.3-0.4,0.4-1,0.4-1.7V186.8z"/>
	<path class="st2" d="M323.5,181.4v-2.9h3.1v2.9H323.5z M323.5,194.6v-11.8h3.1v11.8H323.5z"/>
	<path class="st2" d="M333.7,194.9c-1,0-1.8-0.2-2.6-0.5c-0.8-0.3-1.4-0.7-1.9-1.3c-0.5-0.5-0.9-1.2-1.2-2c-0.3-0.8-0.4-1.6-0.4-2.5
		c0-0.9,0.1-1.8,0.4-2.5c0.3-0.8,0.7-1.4,1.2-2c0.5-0.5,1.2-1,1.9-1.3c0.7-0.3,1.6-0.4,2.5-0.4c0.9,0,1.8,0.1,2.5,0.4
		s1.4,0.7,1.9,1.2c0.5,0.5,0.9,1.2,1.2,2c0.3,0.8,0.4,1.6,0.4,2.6c0,0.9-0.1,1.8-0.4,2.6s-0.7,1.4-1.2,2c-0.5,0.5-1.2,1-1.9,1.3
		S334.6,194.9,333.7,194.9z M333.7,192.3c1.9,0,2.9-1.2,2.9-3.6c0-2.4-1-3.6-2.9-3.6s-2.9,1.2-2.9,3.6
		C330.9,191.1,331.8,192.3,333.7,192.3z"/>
	<path class="st2" d="M348.3,194.6v-7.2c0-0.9-0.2-1.5-0.5-1.8c-0.3-0.3-0.8-0.5-1.6-0.5c-1.6,0-2.4,0.9-2.4,2.7v6.8h-3.1v-11.8h3
		v1.7c0.4-0.7,0.9-1.2,1.5-1.5c0.6-0.3,1.4-0.5,2.4-0.5c0.6,0,1.1,0.1,1.6,0.3c0.5,0.2,0.9,0.4,1.2,0.8s0.6,0.7,0.8,1.2
		c0.2,0.5,0.3,1.1,0.3,1.7v8.2H348.3z"/>
</g>
<circle class="st3" cx="187" cy="123" r="6"/>
<circle class="st3" cx="132" cy="76" r="6"/>
<circle class="st3" cx="395" cy="81" r="6"/>
<circle class="st3" cx="469" cy="144" r="6"/>
<g>
	<path class="st3" d="M141.2,19.3c-0.1-0.8-0.4-1.4-0.9-1.8c-0.5-0.4-1.3-0.6-2.3-0.6c-1.9,0-2.8,0.6-2.8,1.9c0,0.5,0.2,0.9,0.6,1.2
		c0.4,0.3,1,0.6,1.9,0.8c1,0.2,1.9,0.5,2.7,0.7c0.8,0.2,1.4,0.4,2.1,0.7c0.4,0.1,0.7,0.3,1,0.5s0.6,0.5,0.8,0.8
		c0.2,0.3,0.4,0.7,0.5,1.2c0.1,0.4,0.2,1,0.2,1.6c0,0.8-0.2,1.4-0.5,2c-0.3,0.6-0.8,1.1-1.3,1.5c-0.5,0.4-1.2,0.7-1.9,0.9
		c-0.7,0.2-1.5,0.3-2.3,0.3c-2.3,0-4.1-0.4-5.2-1.3c-1.2-0.9-1.8-2.2-1.8-4h3.2c0,0.8,0.3,1.5,1,1.9s1.5,0.7,2.4,0.7
		c1.1,0,1.9-0.2,2.4-0.6s0.8-0.9,0.8-1.6c0-0.3,0-0.5-0.1-0.7c-0.1-0.2-0.2-0.4-0.4-0.6c-0.2-0.2-0.4-0.3-0.8-0.5
		c-0.3-0.1-0.7-0.3-1.2-0.4c-1.2-0.3-2.3-0.5-3.2-0.8c-0.9-0.3-1.6-0.6-2.2-1c-0.6-0.4-1-0.9-1.3-1.4c-0.3-0.6-0.4-1.3-0.4-2.1
		c0-0.7,0.1-1.3,0.4-1.8c0.2-0.6,0.6-1.1,1.1-1.5s1.1-0.8,1.8-1c0.7-0.2,1.6-0.4,2.6-0.4c1,0,1.8,0.1,2.6,0.4s1.4,0.6,2,1.1
		c0.6,0.5,1,1,1.3,1.7c0.3,0.6,0.5,1.4,0.5,2.1H141.2z"/>
	<path class="st3" d="M153.3,30.6v-1.7c-0.8,1.3-2,2-3.7,2c-0.6,0-1.1-0.1-1.6-0.3c-0.5-0.2-0.9-0.5-1.3-0.9
		c-0.4-0.4-0.6-0.8-0.8-1.4s-0.3-1.1-0.3-1.8v-7.8h3.1v7.3c0,1.5,0.7,2.2,2,2.2c0.8,0,1.4-0.3,1.8-0.8c0.4-0.5,0.6-1.1,0.6-1.9v-6.8
		h3.1v11.8H153.3z"/>
	<path class="st3" d="M157.5,36.2V18.8h3l0,1.4c0.7-1.2,1.8-1.8,3.3-1.8c0.7,0,1.4,0.1,2.1,0.4c0.6,0.3,1.2,0.7,1.6,1.2
		c0.4,0.5,0.8,1.2,1.1,2c0.3,0.8,0.4,1.7,0.4,2.7c0,0.9-0.1,1.7-0.3,2.5c-0.2,0.7-0.5,1.4-0.9,1.9s-0.9,1-1.5,1.3s-1.3,0.4-2.1,0.4
		c-1.5,0-2.6-0.6-3.5-1.8v7.1H157.5z M163.1,28.2c1.8,0,2.7-1.2,2.7-3.6c0-1.1-0.2-1.9-0.7-2.6c-0.5-0.7-1.1-1-1.9-1
		c-0.8,0-1.4,0.3-1.9,0.9s-0.8,1.4-0.8,2.4C160.5,26.9,161.3,28.2,163.1,28.2z"/>
	<path class="st3" d="M169.9,36.2V18.8h3l0,1.4c0.7-1.2,1.8-1.8,3.3-1.8c0.7,0,1.4,0.1,2.1,0.4c0.6,0.3,1.2,0.7,1.6,1.2
		c0.4,0.5,0.8,1.2,1.1,2c0.3,0.8,0.4,1.7,0.4,2.7c0,0.9-0.1,1.7-0.3,2.5c-0.2,0.7-0.5,1.4-0.9,1.9s-0.9,1-1.5,1.3s-1.3,0.4-2.1,0.4
		c-1.5,0-2.6-0.6-3.5-1.8v7.1H169.9z M175.5,28.2c1.8,0,2.7-1.2,2.7-3.6c0-1.1-0.2-1.9-0.7-2.6c-0.5-0.7-1.1-1-1.9-1
		c-0.8,0-1.4,0.3-1.9,0.9s-0.8,1.4-0.8,2.4C172.9,26.9,173.8,28.2,175.5,28.2z"/>
	<path class="st3" d="M188.2,30.9c-1,0-1.8-0.2-2.6-0.5s-1.4-0.7-1.9-1.3c-0.5-0.5-0.9-1.2-1.2-2c-0.3-0.8-0.4-1.6-0.4-2.5
		c0-0.9,0.1-1.8,0.4-2.5c0.3-0.8,0.7-1.4,1.2-2c0.5-0.5,1.2-1,1.9-1.3s1.6-0.4,2.5-0.4c0.9,0,1.8,0.1,2.5,0.4
		c0.7,0.3,1.4,0.7,1.9,1.2c0.5,0.5,0.9,1.2,1.2,2c0.3,0.8,0.4,1.6,0.4,2.6c0,0.9-0.1,1.8-0.4,2.6s-0.7,1.4-1.2,2
		c-0.5,0.5-1.2,1-1.9,1.3S189.1,30.9,188.2,30.9z M188.2,28.3c1.9,0,2.9-1.2,2.9-3.6c0-2.4-1-3.6-2.9-3.6c-1.9,0-2.9,1.2-2.9,3.6
		C185.3,27.1,186.3,28.3,188.2,28.3z"/>
	<path class="st3" d="M195.2,30.6V18.8h2.9v1.4c0.3-0.4,0.5-0.7,0.8-0.9c0.3-0.2,0.6-0.4,0.9-0.5s0.6-0.2,0.9-0.2c0.3,0,0.6,0,0.9,0
		h0.4v3.2c-0.3,0-0.6-0.1-0.9-0.1c-1.9,0-2.9,1-2.9,2.9v6.1H195.2z"/>
	<path class="st3" d="M209.4,22.8h2.9v3.4c0,0.6-0.1,1.2-0.3,1.8c-0.2,0.6-0.5,1.1-0.9,1.5c-0.4,0.4-0.9,0.8-1.5,1
		c-0.6,0.3-1.3,0.4-2.1,0.4c-0.9,0-1.6-0.1-2.2-0.4c-0.6-0.3-1.1-0.6-1.5-1c-0.4-0.4-0.7-0.9-0.9-1.5s-0.3-1.2-0.3-1.8V15.6h3.1v3.2
		h6.5V21h-6.5v4.8c0,0.8,0.1,1.3,0.4,1.7c0.3,0.4,0.7,0.6,1.4,0.6c0.6,0,1.1-0.2,1.4-0.6c0.3-0.4,0.4-1,0.4-1.7V22.8z"/>
	<path class="st3" d="M219.3,30.6V14.6h7c0.8,0,1.5,0.1,2.1,0.4s1.2,0.6,1.6,1.1c0.4,0.5,0.8,1,1,1.6s0.4,1.3,0.4,2
		c0,0.7-0.1,1.4-0.4,2c-0.2,0.6-0.6,1.1-1,1.6c-0.4,0.4-1,0.8-1.6,1s-1.3,0.4-2.1,0.4h-3.7v5.8H219.3z M225.8,22.1
		c1,0,1.7-0.2,2.1-0.7c0.4-0.4,0.6-1,0.6-1.7c0-0.7-0.2-1.2-0.6-1.7c-0.4-0.4-1.1-0.6-2.1-0.6h-3.2v4.7H225.8z"/>
	<path class="st3" d="M237.9,30.9c-1,0-1.8-0.2-2.6-0.5c-0.8-0.3-1.4-0.7-1.9-1.3c-0.5-0.5-0.9-1.2-1.2-2c-0.3-0.8-0.4-1.6-0.4-2.5
		c0-0.9,0.1-1.8,0.4-2.5c0.3-0.8,0.7-1.4,1.2-2c0.5-0.5,1.2-1,1.9-1.3c0.7-0.3,1.6-0.4,2.5-0.4c0.9,0,1.8,0.1,2.5,0.4
		s1.4,0.7,1.9,1.2c0.5,0.5,0.9,1.2,1.2,2c0.3,0.8,0.4,1.6,0.4,2.6c0,0.9-0.1,1.8-0.4,2.6s-0.7,1.4-1.2,2c-0.5,0.5-1.2,1-1.9,1.3
		S238.8,30.9,237.9,30.9z M237.9,28.3c1.9,0,2.9-1.2,2.9-3.6c0-2.4-1-3.6-2.9-3.6s-2.9,1.2-2.9,3.6C235,27.1,236,28.3,237.9,28.3z"
		/>
	<path class="st3" d="M245,17.4v-2.9h3.1v2.9H245z M245,30.6V18.8h3.1v11.8H245z"/>
	<path class="st3" d="M257,30.6v-7.2c0-0.9-0.2-1.5-0.5-1.8c-0.3-0.3-0.8-0.5-1.6-0.5c-1.6,0-2.4,0.9-2.4,2.7v6.8h-3.1V18.8h3v1.7
		c0.4-0.7,0.9-1.2,1.5-1.5c0.6-0.3,1.4-0.5,2.4-0.5c0.6,0,1.1,0.1,1.6,0.3c0.5,0.2,0.9,0.4,1.2,0.8s0.6,0.7,0.8,1.2
		c0.2,0.5,0.3,1.1,0.3,1.7v8.2H257z"/>
	<path class="st3" d="M268.1,22.8h2.9v3.4c0,0.6-0.1,1.2-0.3,1.8c-0.2,0.6-0.5,1.1-0.9,1.5c-0.4,0.4-0.9,0.8-1.5,1
		c-0.6,0.3-1.3,0.4-2.1,0.4c-0.9,0-1.6-0.1-2.2-0.4c-0.6-0.3-1.1-0.6-1.5-1c-0.4-0.4-0.7-0.9-0.9-1.5s-0.3-1.2-0.3-1.8V15.6h3.1v3.2
		h6.5V21h-6.5v4.8c0,0.8,0.1,1.3,0.4,1.7c0.3,0.4,0.7,0.6,1.4,0.6c0.6,0,1.1-0.2,1.4-0.6c0.3-0.4,0.4-1,0.4-1.7V22.8z"/>
	<path class="st3" d="M279.2,22.3c-0.1-0.5-0.3-0.9-0.6-1.2c-0.3-0.2-0.8-0.4-1.5-0.4c-0.6,0-1.1,0.1-1.5,0.2
		c-0.3,0.2-0.5,0.4-0.5,0.8c0,0.3,0.2,0.6,0.5,0.8c0.3,0.2,0.8,0.4,1.4,0.6c1,0.3,1.9,0.5,2.6,0.7c0.7,0.2,1.3,0.4,1.7,0.7
		c0.4,0.3,0.7,0.6,0.9,1c0.2,0.4,0.3,1,0.3,1.6c0,1.1-0.4,1.9-1.3,2.6c-0.9,0.7-2.2,1-3.9,1c-0.8,0-1.6-0.1-2.3-0.3
		c-0.7-0.2-1.3-0.5-1.8-0.8c-0.5-0.4-0.9-0.8-1.1-1.3c-0.3-0.5-0.4-1.1-0.4-1.7h3.2c0,0.6,0.2,1,0.7,1.3c0.4,0.3,1,0.5,1.7,0.5
		c0.6,0,1.1-0.1,1.5-0.3c0.4-0.2,0.6-0.5,0.6-0.9c0-0.4-0.2-0.7-0.5-0.9c-0.3-0.2-0.8-0.4-1.4-0.5c-1.2-0.3-2.1-0.5-2.8-0.8
		c-0.7-0.3-1.3-0.6-1.6-0.9c-0.4-0.3-0.7-0.7-0.8-1.1c-0.1-0.4-0.2-0.8-0.2-1.3c0-0.4,0.1-0.9,0.3-1.3c0.2-0.4,0.5-0.8,0.9-1.1
		c0.4-0.3,0.9-0.5,1.6-0.7c0.6-0.2,1.4-0.3,2.4-0.3c1.7,0,2.9,0.3,3.7,1c0.8,0.7,1.2,1.6,1.3,2.9H279.2z"/>
</g>
<circle class="st3" cx="395" cy="119" r="6"/>
<g>
</g>
<g>
</g>
<g>
</g>
<g>
</g>
<g>
</g>
<g>
</g>
<g>
</g>
<g>
</g>
<g>
</g>
<g>
</g>
<g>
</g>
<g>
</g>
</svg>
