<?xml version="1.0" encoding="utf-8"?>
<!-- Generator: Adobe Illustrator 21.0.2, SVG Export Plug-In . SVG Version: 6.00 Build 0)  -->
<svg version="1.1" id="Layer_1" xmlns="http://www.w3.org/2000/svg" xmlns:xlink="http://www.w3.org/1999/xlink" x="0px" y="0px"
	 viewBox="0 0 512 256" style="enable-background:new 0 0 512 256;" xml:space="preserve">
<style type="text/css">
	.st0{fill:none;stroke:#F0CA4D;stroke-width:4;stroke-linecap:round;stroke-linejoin:round;}
	.st1{fill:#F0CA4D;}
	.st2{fill:none;stroke:#DE5B49;stroke-width:4;stroke-linecap:round;stroke-linejoin:round;stroke-miterlimit:10;}
	.st3{fill:none;stroke:#46B39D;stroke-width:4;stroke-linecap:round;stroke-linejoin:round;}
	.st4{fill:#46B39D;}
	.st5{fill:#324D5C;}
</style>
<g>
	<g>
		<line class="st0" x1="217.6" y1="102.7" x2="224.3" y2="114.9"/>
		<g>
			<path class="st1" d="M236,136c-9.2-7.9-22.3-16.8-33.2-20.7l20-3.2l13.3-15.2C233.7,108.2,234.2,124,236,136z"/>
		</g>
	</g>
</g>
<g>
	<g>
		<line class="st0" x1="380" y1="120" x2="355.4" y2="126.1"/>
		<g>
			<path class="st1" d="M332,132c10-6.9,21.9-17.3,28.5-26.8l-2,20.1l11.3,16.8C359.5,136.9,344,133.3,332,132z"/>
		</g>
	</g>
</g>
<g>
	<g>
		<line class="st0" x1="242.3" y1="177" x2="240" y2="197"/>
		<g>
			<path class="st1" d="M245,153c-5.5,10.8-14.2,24-22.8,31.8l19.7-4.7l18.1,9C253.5,179.6,247.9,164.8,245,153z"/>
		</g>
	</g>
</g>
<line class="st2" x1="402" y1="212.9" x2="78.3" y2="180.1"/>
<line class="st2" x1="78.3" y1="180.1" x2="357" y2="26"/>
<line class="st2" x1="402" y1="212.9" x2="357" y2="26"/>
<g>
	<g>
		<line class="st3" x1="218" y1="103" x2="203.2" y2="75.9"/>
		<g>
			<path class="st4" d="M191.6,54.7c9.1,8,22.2,16.9,33.1,20.9l-20,3.1l-13.4,15.2C193.8,82.5,193.4,66.7,191.6,54.7z"/>
		</g>
	</g>
</g>
<g>
	<g>
		<line class="st3" x1="381" y1="119" x2="405.6" y2="112.8"/>
		<g>
			<path class="st4" d="M429,107c-10,6.9-21.9,17.3-28.5,26.8l2-20.1l-11.3-16.8C401.5,102.1,416.9,105.6,429,107z"/>
		</g>
	</g>
</g>
<g>
	<g>
		<line class="st3" x1="237.7" y1="217" x2="240" y2="197"/>
		<g>
			<path class="st4" d="M235,241c5.5-10.8,14.2-24,22.8-31.8l-19.7,4.7l-18.1-9C226.5,214.4,232.1,229.2,235,241z"/>
		</g>
	</g>
</g>
<g>
	<path class="st1" d="M244.6,145v-23.9h5V145H244.6z"/>
	<path class="st1" d="M262.7,145v-10.7c0-1.4-0.2-2.3-0.7-2.8s-1.2-0.7-2.3-0.7c-2.4,0-3.6,1.4-3.6,4.1V145h-4.7v-17.7h4.5v2.6
		c0.6-1,1.3-1.8,2.2-2.3s2.1-0.8,3.5-0.8c0.8,0,1.6,0.1,2.3,0.4c0.7,0.3,1.3,0.6,1.9,1.1c0.5,0.5,0.9,1.1,1.2,1.9
		c0.3,0.7,0.5,1.6,0.5,2.5V145H262.7z"/>
	<path class="st1" d="M279.9,132.7c-0.1-0.8-0.4-1.4-0.9-1.8s-1.2-0.6-2.3-0.6c-1,0-1.7,0.1-2.2,0.3c-0.5,0.2-0.7,0.6-0.7,1.2
		c0,0.5,0.2,0.9,0.7,1.2c0.5,0.3,1.2,0.6,2.1,0.8c1.5,0.4,2.8,0.8,3.9,1.1c1.1,0.3,1.9,0.7,2.5,1.1c0.6,0.4,1.1,0.9,1.4,1.5
		c0.3,0.6,0.4,1.4,0.4,2.5c0,1.6-0.7,2.9-2,3.9c-1.3,1-3.3,1.6-5.9,1.6c-1.3,0-2.4-0.1-3.5-0.4c-1-0.3-1.9-0.7-2.6-1.2
		c-0.7-0.5-1.3-1.2-1.7-1.9c-0.4-0.8-0.6-1.6-0.6-2.5h4.8c0,0.8,0.3,1.5,1,1.9c0.7,0.5,1.5,0.7,2.6,0.7c0.9,0,1.6-0.1,2.3-0.4
		c0.6-0.3,1-0.7,1-1.3c0-0.6-0.2-1.1-0.7-1.4s-1.2-0.5-2.1-0.8c-1.7-0.4-3.1-0.8-4.2-1.2c-1.1-0.4-1.9-0.9-2.5-1.4s-1-1.1-1.2-1.7
		c-0.2-0.6-0.3-1.3-0.3-2c0-0.7,0.1-1.3,0.4-1.9s0.7-1.1,1.3-1.6c0.6-0.5,1.4-0.8,2.3-1.1c1-0.3,2.1-0.4,3.5-0.4
		c2.5,0,4.4,0.5,5.6,1.5c1.2,1,1.8,2.5,1.9,4.3H279.9z"/>
	<path class="st1" d="M286.2,125.2v-4.4h4.7v4.4H286.2z M286.2,145v-17.7h4.7V145H286.2z"/>
	<path class="st1" d="M305.1,145l0-2.2c-1.1,1.8-2.7,2.6-4.9,2.6c-1.1,0-2.2-0.2-3.1-0.6c-0.9-0.4-1.7-1.1-2.4-1.9
		c-0.7-0.8-1.2-1.8-1.6-3c-0.4-1.2-0.6-2.5-0.6-4c0-1.3,0.2-2.6,0.5-3.7c0.3-1.1,0.8-2.1,1.4-2.9c0.6-0.8,1.4-1.4,2.3-1.9
		c0.9-0.4,1.9-0.7,3.1-0.7c2.2,0,3.9,0.9,5.3,2.8v-8.8h4.6V145H305.1z M301.2,141.7c1.1,0,2.1-0.5,2.8-1.4c0.8-0.9,1.1-2.2,1.1-3.7
		c0-3.8-1.3-5.8-3.9-5.8c-2.7,0-4,1.8-4,5.5c0,1.6,0.4,2.9,1.1,3.9C299.1,141.2,300.1,141.7,301.2,141.7z"/>
	<path class="st1" d="M315.8,137.4c0.1,1.3,0.5,2.4,1.2,3.2s1.6,1.2,2.8,1.2c0.8,0,1.4-0.2,2-0.5s1-0.8,1.1-1.5h4.8
		c-0.6,1.8-1.5,3.2-2.9,4.2s-3,1.5-4.9,1.5c-5.9,0-8.9-3.2-8.9-9.6c0-1.4,0.2-2.6,0.6-3.7c0.4-1.1,0.9-2.1,1.7-2.8
		c0.7-0.8,1.6-1.4,2.7-1.8s2.3-0.6,3.6-0.6c2.7,0,4.8,0.9,6.2,2.6c1.4,1.8,2.1,4.4,2.1,7.9H315.8z M323.2,134.4
		c0-0.6-0.1-1.2-0.3-1.7c-0.2-0.5-0.5-0.9-0.8-1.2c-0.3-0.3-0.7-0.6-1.2-0.7s-0.9-0.2-1.3-0.2c-0.9,0-1.7,0.3-2.4,1
		c-0.7,0.7-1.1,1.6-1.2,2.9H323.2z"/>
</g>
<g>
	<path class="st4" d="M71.8,72.8c-3.7,0-6.5-1.1-8.5-3.2c-2-2.2-3-5.3-3-9.3c0-2,0.3-3.8,0.8-5.4s1.2-3,2.2-4.1c1-1.1,2.2-2,3.6-2.6
		c1.4-0.6,3-0.9,4.9-0.9c1.8,0,3.4,0.3,4.9,0.9c1.4,0.6,2.6,1.4,3.6,2.6c1,1.1,1.7,2.5,2.2,4.1c0.5,1.6,0.8,3.5,0.8,5.5
		c0,4.1-1,7.2-2.9,9.3S75.5,72.8,71.8,72.8z M71.8,68.5c0.9,0,1.7-0.2,2.5-0.5c0.8-0.3,1.5-0.8,2.1-1.5c0.6-0.7,1-1.5,1.4-2.5
		c0.3-1,0.5-2.3,0.5-3.7c0-2.8-0.6-5-1.7-6.4s-2.7-2.2-4.8-2.2c-2.1,0-3.7,0.7-4.9,2.2c-1.1,1.5-1.7,3.6-1.7,6.4
		c0,2.8,0.6,4.9,1.7,6.2C68.1,67.9,69.7,68.5,71.8,68.5z"/>
	<path class="st4" d="M96.2,72v-2.5c-1.2,2-3,3-5.5,3c-0.9,0-1.7-0.2-2.4-0.5s-1.4-0.8-1.9-1.3c-0.5-0.6-0.9-1.3-1.2-2.1
		s-0.5-1.7-0.5-2.7V54.3h4.7v10.9c0,2.2,1,3.3,3,3.3c1.2,0,2.1-0.4,2.7-1.1c0.6-0.8,0.9-1.7,0.9-2.9V54.3h4.6V72H96.2z"/>
	<path class="st4" d="M112.6,60.3h4.4v5c0,0.9-0.1,1.8-0.4,2.7c-0.3,0.9-0.7,1.6-1.3,2.3s-1.3,1.2-2.2,1.6c-0.9,0.4-2,0.6-3.2,0.6
		c-1.3,0-2.4-0.2-3.3-0.6c-0.9-0.4-1.7-0.9-2.3-1.5c-0.6-0.6-1-1.4-1.3-2.3c-0.3-0.9-0.4-1.8-0.4-2.7V49.5h4.6v4.8h9.8v3.3h-9.8v7.3
		c0,1.1,0.2,2,0.6,2.6c0.4,0.6,1.1,0.9,2.1,0.9c0.9,0,1.6-0.3,2.1-0.9c0.4-0.6,0.7-1.5,0.7-2.6V60.3z"/>
	<path class="st4" d="M129.3,59.7c-0.1-0.8-0.4-1.4-0.9-1.8s-1.2-0.6-2.3-0.6c-1,0-1.7,0.1-2.2,0.3c-0.5,0.2-0.7,0.6-0.7,1.2
		c0,0.5,0.2,0.9,0.7,1.2c0.5,0.3,1.2,0.6,2.1,0.8c1.5,0.4,2.8,0.8,3.9,1.1c1.1,0.3,1.9,0.7,2.5,1.1c0.6,0.4,1.1,0.9,1.4,1.5
		c0.3,0.6,0.4,1.4,0.4,2.5c0,1.6-0.7,2.9-2,3.9c-1.3,1-3.3,1.6-5.9,1.6c-1.3,0-2.4-0.1-3.5-0.4c-1-0.3-1.9-0.7-2.6-1.2
		c-0.7-0.5-1.3-1.2-1.7-1.9c-0.4-0.8-0.6-1.6-0.6-2.5h4.8c0,0.8,0.3,1.5,1,1.9c0.7,0.5,1.5,0.7,2.6,0.7c0.9,0,1.6-0.1,2.3-0.4
		c0.6-0.3,1-0.7,1-1.3c0-0.6-0.2-1.1-0.7-1.4s-1.2-0.5-2.1-0.8c-1.7-0.4-3.1-0.8-4.2-1.2c-1.1-0.4-1.9-0.9-2.5-1.4s-1-1.1-1.2-1.7
		c-0.2-0.6-0.3-1.3-0.3-2c0-0.7,0.1-1.3,0.4-1.9c0.3-0.6,0.7-1.1,1.3-1.6c0.6-0.5,1.4-0.8,2.3-1.1c1-0.3,2.1-0.4,3.5-0.4
		c2.5,0,4.4,0.5,5.6,1.5c1.2,1,1.8,2.5,1.9,4.3H129.3z"/>
	<path class="st4" d="M135.5,52.2v-4.4h4.7v4.4H135.5z M135.5,72V54.3h4.7V72H135.5z"/>
	<path class="st4" d="M154.5,72l0-2.2c-1.1,1.8-2.7,2.6-4.9,2.6c-1.1,0-2.2-0.2-3.1-0.6c-0.9-0.4-1.7-1.1-2.4-1.9
		c-0.7-0.8-1.2-1.8-1.6-3c-0.4-1.2-0.6-2.5-0.6-4c0-1.3,0.2-2.6,0.5-3.7c0.3-1.1,0.8-2.1,1.4-2.9c0.6-0.8,1.4-1.4,2.3-1.9
		c0.9-0.4,1.9-0.7,3.1-0.7c2.2,0,3.9,0.9,5.3,2.8v-8.8h4.6V72H154.5z M150.6,68.7c1.1,0,2.1-0.5,2.8-1.4c0.8-0.9,1.1-2.2,1.1-3.7
		c0-3.8-1.3-5.8-3.9-5.8c-2.7,0-4,1.8-4,5.5c0,1.6,0.4,2.9,1.1,3.9C148.4,68.2,149.4,68.7,150.6,68.7z"/>
	<path class="st4" d="M165.1,64.4c0.1,1.3,0.5,2.4,1.2,3.2s1.6,1.2,2.8,1.2c0.8,0,1.4-0.2,2-0.5s1-0.8,1.1-1.5h4.8
		c-0.6,1.8-1.5,3.2-2.9,4.2s-3,1.5-4.9,1.5c-5.9,0-8.9-3.2-8.9-9.6c0-1.4,0.2-2.6,0.6-3.7c0.4-1.1,0.9-2.1,1.7-2.8
		c0.7-0.8,1.6-1.4,2.7-1.8s2.3-0.6,3.6-0.6c2.7,0,4.8,0.9,6.2,2.6c1.4,1.8,2.1,4.4,2.1,7.9H165.1z M172.5,61.4
		c0-0.6-0.1-1.2-0.3-1.7c-0.2-0.5-0.5-0.9-0.8-1.2c-0.3-0.3-0.7-0.6-1.2-0.7s-0.9-0.2-1.3-0.2c-0.9,0-1.7,0.3-2.4,1
		c-0.7,0.7-1.1,1.6-1.2,2.9H172.5z"/>
</g>
<g>
	<path class="st5" d="M397.4,243.6l-6.3-17.7h5.2l3.7,11.7l3.7-11.7h4.9l-6.4,17.7H397.4z"/>
	<path class="st5" d="M417.5,244.4c-1.3,0-2.4-0.3-3.5-0.8s-1.9-1.3-2.6-2.3c-0.7-1-1.2-2.4-1.6-4c-0.4-1.6-0.5-3.6-0.5-5.8
		c0-2.2,0.2-4.1,0.5-5.7c0.4-1.6,0.9-2.9,1.6-3.9c0.7-1,1.5-1.8,2.6-2.3c1-0.5,2.2-0.7,3.5-0.7s2.5,0.2,3.5,0.7
		c1,0.5,1.9,1.2,2.6,2.2c0.7,1,1.3,2.3,1.6,3.9c0.4,1.6,0.6,3.5,0.6,5.7c0,4.4-0.7,7.7-2.2,9.8C422.1,243.4,420.1,244.4,417.5,244.4
		z M417.7,240.6c0.6,0,1.1-0.2,1.5-0.5c0.4-0.3,0.8-0.8,1-1.5c0.3-0.7,0.5-1.6,0.6-2.8c0.1-1.1,0.2-2.5,0.2-4.2
		c0-1.7-0.1-3.1-0.2-4.2c-0.1-1.2-0.4-2.1-0.6-2.8c-0.3-0.7-0.6-1.2-1-1.5s-0.9-0.5-1.5-0.5c-0.6,0-1.1,0.2-1.5,0.5
		c-0.4,0.3-0.8,0.8-1.1,1.5s-0.5,1.6-0.6,2.8c-0.1,1.1-0.2,2.5-0.2,4.2c0,1.7,0.1,3.1,0.2,4.2c0.1,1.2,0.4,2.1,0.6,2.8
		c0.3,0.7,0.6,1.2,1.1,1.5C416.6,240.5,417.1,240.6,417.7,240.6z"/>
	<path class="st5" d="M437.7,248.3v-30.6h8.2v3.2h-4.1v24.2h4.1v3.1H437.7z"/>
	<path class="st5" d="M463.3,237.2c-0.1,1-0.4,2-0.9,2.8s-1.1,1.6-1.8,2.2c-0.7,0.6-1.5,1.1-2.5,1.4s-1.9,0.5-3,0.5
		c-1.2,0-2.3-0.2-3.3-0.6c-1-0.4-1.9-1-2.6-1.8s-1.3-1.8-1.7-3c-0.4-1.2-0.6-2.6-0.6-4.2s0.2-3,0.6-4.1c0.4-1.2,1-2.1,1.7-2.8
		c0.7-0.7,1.6-1.3,2.6-1.6c1-0.4,2.2-0.5,3.4-0.5c1.2,0,2.2,0.2,3.2,0.5c0.9,0.3,1.8,0.8,2.5,1.4c0.7,0.6,1.3,1.3,1.7,2.2
		c0.4,0.8,0.6,1.8,0.7,2.8h-4.7c-0.1-0.9-0.5-1.6-1.1-2.1c-0.6-0.5-1.4-0.8-2.3-0.8c-0.5,0-1,0.1-1.4,0.3c-0.4,0.2-0.8,0.5-1.1,0.8
		c-0.3,0.4-0.6,0.9-0.8,1.6c-0.2,0.7-0.3,1.5-0.3,2.4c0,1.9,0.3,3.4,1,4.3c0.7,0.9,1.5,1.4,2.4,1.4s1.7-0.3,2.3-0.8
		c0.6-0.5,1-1.2,1.1-2.2H463.3z"/>
	<path class="st5" d="M463.9,248.3v-3.1h4.1v-24.2h-4.1v-3.2h8.3v30.6H463.9z"/>
</g>
<g>
	<path class="st5" d="M39.4,216.6L33,198.9h5.2l3.7,11.7l3.7-11.7h4.9l-6.4,17.7H39.4z"/>
	<path class="st5" d="M55.8,216.6v-16.5h-4.9v-3.2c1,0,1.9-0.1,2.6-0.3c0.7-0.2,1.3-0.4,1.7-0.8c0.4-0.3,0.8-0.8,1-1.3
		c0.2-0.5,0.4-1.1,0.5-1.8h3.8v23.9H55.8z"/>
	<path class="st5" d="M72.8,221.3v-30.6H81v3.2H77v24.2H81v3.1H72.8z"/>
	<path class="st5" d="M82.5,216.6v-24.2h4.6v8.8c1.3-1.8,3.1-2.8,5.3-2.8c1.2,0,2.2,0.2,3.1,0.7s1.7,1.1,2.3,1.9
		c0.6,0.8,1.1,1.8,1.4,2.9c0.3,1.1,0.5,2.3,0.5,3.7c0,1.5-0.2,2.8-0.6,4c-0.4,1.2-0.9,2.2-1.6,3c-0.7,0.8-1.5,1.4-2.4,1.9
		c-0.9,0.4-2,0.6-3.1,0.6c-2.2,0-3.9-0.9-4.9-2.6l0,2.2H82.5z M90.9,213.2c1.2,0,2.1-0.5,2.9-1.5c0.7-1,1.1-2.3,1.1-3.9
		c0-3.6-1.3-5.5-4-5.5c-2.6,0-3.9,1.9-3.9,5.8c0,1.5,0.4,2.7,1.1,3.7C88.8,212.8,89.7,213.2,90.9,213.2z"/>
	<path class="st5" d="M100.6,221.3v-3.1h4.1v-24.2h-4.1v-3.2h8.3v30.6H100.6z"/>
</g>
<g>
	<path class="st5" d="M370.4,29.6L364,11.9h5.2l3.7,11.7l3.7-11.7h4.9l-6.4,17.7H370.4z"/>
	<path class="st5" d="M381.9,29.6c0-1.1,0.1-2.1,0.3-3.1s0.5-1.9,1-2.8c0.5-0.9,1.2-1.9,2.2-2.8c0.9-1,2.2-2,3.7-3.1
		c0.9-0.6,1.6-1.1,2.1-1.6c0.6-0.5,1-0.9,1.3-1.4c0.3-0.4,0.6-0.9,0.7-1.3c0.1-0.4,0.2-0.9,0.2-1.4c0-0.6-0.1-1.1-0.3-1.5
		s-0.4-0.7-0.7-1c-0.3-0.2-0.7-0.4-1.1-0.5s-0.8-0.1-1.3-0.1c-1.1,0-1.9,0.3-2.6,0.9c-0.6,0.6-0.9,1.7-0.9,3.3h-4.5
		c0-2.6,0.7-4.6,2-6.1c1.4-1.5,3.3-2.2,5.7-2.2c1.2,0,2.3,0.1,3.3,0.4c1,0.3,1.8,0.7,2.6,1.3s1.3,1.3,1.7,2.2s0.6,1.9,0.6,3.1
		c0,0.9-0.1,1.7-0.4,2.5c-0.2,0.7-0.6,1.5-1.2,2.2c-0.5,0.7-1.3,1.5-2.1,2.2s-2,1.6-3.2,2.5c-0.9,0.7-1.7,1.4-2.3,2.2s-1,1.5-1,2.1
		h10.3v4.1H381.9z"/>
	<path class="st5" d="M409.8,34.3V3.7h8.2v3.2H414v24.2h4.1v3.1H409.8z"/>
	<path class="st5" d="M430.6,29.6c-0.1-0.5-0.2-1-0.3-1.6c-0.6,0.6-1.3,1.1-2.2,1.5s-2,0.6-3.2,0.6c-2,0-3.5-0.5-4.5-1.3
		c-0.9-0.9-1.4-2.1-1.4-3.5c0-1.3,0.2-2.3,0.6-3c0.4-0.8,1-1.4,1.7-1.8c0.7-0.4,1.6-0.8,2.6-1s2.1-0.4,3.3-0.6s2-0.4,2.4-0.7
		c0.4-0.3,0.6-0.7,0.6-1.4c0-0.6-0.3-1-0.8-1.3s-1.3-0.5-2.2-0.5c-1.1,0-1.9,0.2-2.3,0.7c-0.5,0.5-0.8,1.1-0.9,1.9h-4.4
		c0-0.9,0.2-1.8,0.5-2.5c0.3-0.8,0.7-1.4,1.3-2c0.6-0.6,1.4-1,2.4-1.3c1-0.3,2.2-0.4,3.6-0.4c1.4,0,2.6,0.2,3.5,0.5
		c1,0.3,1.8,0.8,2.3,1.3c0.6,0.6,1,1.3,1.3,2.2c0.3,0.9,0.4,1.9,0.4,3v11.2H430.6z M430.3,20.9c-0.2,0.2-0.6,0.4-1,0.6
		c-0.5,0.1-1.1,0.3-2,0.5c-1.3,0.3-2.3,0.6-2.8,1s-0.8,1-0.8,1.8c0,1.3,0.8,2,2.3,2c0.6,0,1.2-0.1,1.7-0.3c0.5-0.2,1-0.5,1.3-0.8
		s0.7-0.8,0.9-1.2c0.2-0.5,0.3-1,0.3-1.5L430.3,20.9z"/>
	<path class="st5" d="M436.2,34.3v-3.1h4.1V6.9h-4.1V3.7h8.3v30.6H436.2z"/>
</g>
<circle class="st5" cx="402" cy="213" r="6"/>
<circle class="st5" cx="78" cy="180" r="6"/>
<circle class="st5" cx="356" cy="27" r="6"/>
<circle class="st5" cx="308" cy="186" r="6"/>
<g>
	<path class="st5" d="M327.7,193.4c-1.3,0-2.4-0.3-3.5-0.8s-1.9-1.3-2.6-2.3c-0.7-1-1.2-2.4-1.6-4c-0.4-1.6-0.5-3.6-0.5-5.8
		c0-2.2,0.2-4.1,0.5-5.7c0.4-1.6,0.9-2.9,1.6-3.9c0.7-1,1.5-1.8,2.6-2.3c1-0.5,2.2-0.7,3.5-0.7s2.5,0.2,3.5,0.7
		c1,0.5,1.9,1.2,2.6,2.2c0.7,1,1.3,2.3,1.6,3.9c0.4,1.6,0.6,3.5,0.6,5.7c0,4.4-0.7,7.7-2.2,9.8C332.3,192.4,330.3,193.4,327.7,193.4
		z M327.8,189.6c0.6,0,1.1-0.2,1.5-0.5c0.4-0.3,0.8-0.8,1-1.5c0.3-0.7,0.5-1.6,0.6-2.8c0.1-1.1,0.2-2.5,0.2-4.2
		c0-1.7-0.1-3.1-0.2-4.2c-0.1-1.2-0.4-2.1-0.6-2.8c-0.3-0.7-0.6-1.2-1-1.5s-0.9-0.5-1.5-0.5c-0.6,0-1.1,0.2-1.5,0.5
		c-0.4,0.3-0.8,0.8-1.1,1.5s-0.5,1.6-0.6,2.8c-0.1,1.1-0.2,2.5-0.2,4.2c0,1.7,0.1,3.1,0.2,4.2c0.1,1.2,0.4,2.1,0.6,2.8
		c0.3,0.7,0.6,1.2,1.1,1.5C326.8,189.5,327.3,189.6,327.8,189.6z"/>
	<path class="st5" d="M335.9,196.4c0.9-0.2,1.6-0.6,2.1-1.2s0.7-1.4,0.7-2.6h-2.8v-4.9h5v3.7c0,1-0.1,1.9-0.3,2.7
		c-0.2,0.8-0.4,1.4-0.8,2c-0.4,0.5-0.9,1-1.5,1.3s-1.4,0.6-2.4,0.8V196.4z"/>
	<path class="st5" d="M349,193.4c-1.3,0-2.4-0.3-3.5-0.8s-1.9-1.3-2.6-2.3c-0.7-1-1.2-2.4-1.6-4c-0.4-1.6-0.5-3.6-0.5-5.8
		c0-2.2,0.2-4.1,0.5-5.7c0.4-1.6,0.9-2.9,1.6-3.9c0.7-1,1.5-1.8,2.6-2.3c1-0.5,2.2-0.7,3.5-0.7s2.5,0.2,3.5,0.7
		c1,0.5,1.9,1.2,2.6,2.2c0.7,1,1.3,2.3,1.6,3.9c0.4,1.6,0.6,3.5,0.6,5.7c0,4.4-0.7,7.7-2.2,9.8C353.6,192.4,351.6,193.4,349,193.4z
		 M349.2,189.6c0.6,0,1.1-0.2,1.5-0.5c0.4-0.3,0.8-0.8,1-1.5c0.3-0.7,0.5-1.6,0.6-2.8c0.1-1.1,0.2-2.5,0.2-4.2
		c0-1.7-0.1-3.1-0.2-4.2c-0.1-1.2-0.4-2.1-0.6-2.8c-0.3-0.7-0.6-1.2-1-1.5s-0.9-0.5-1.5-0.5c-0.6,0-1.1,0.2-1.5,0.5
		c-0.4,0.3-0.8,0.8-1.1,1.5s-0.5,1.6-0.6,2.8c-0.1,1.1-0.2,2.5-0.2,4.2c0,1.7,0.1,3.1,0.2,4.2c0.1,1.2,0.4,2.1,0.6,2.8
		c0.3,0.7,0.6,1.2,1.1,1.5C348.1,189.5,348.6,189.6,349.2,189.6z"/>
</g>
<g>
</g>
<g>
</g>
<g>
</g>
<g>
</g>
<g>
</g>
<g>
</g>
<g>
</g>
<g>
</g>
<g>
</g>
<g>
</g>
<g>
</g>
<g>
</g>
</svg>
