<?xml version="1.0" encoding="utf-8"?>
<!-- Generator: Adobe Illustrator 21.0.2, SVG Export Plug-In . SVG Version: 6.00 Build 0)  -->
<svg version="1.1" id="Layer_1" xmlns="http://www.w3.org/2000/svg" xmlns:xlink="http://www.w3.org/1999/xlink" x="0px" y="0px"
	 viewBox="0 0 512 256" style="enable-background:new 0 0 512 256;" xml:space="preserve">
<style type="text/css">
	.st0{fill:none;stroke:#324D5C;stroke-width:3;stroke-linecap:round;stroke-linejoin:round;stroke-miterlimit:10;}
	.st1{fill:none;stroke:#DE5B49;stroke-width:3;stroke-linecap:round;stroke-linejoin:round;stroke-miterlimit:10;}
	.st2{fill:none;stroke:#F0CA4D;stroke-width:3;stroke-linecap:round;stroke-linejoin:round;stroke-miterlimit:10;}
	.st3{fill:#324D5C;}
	.st4{fill:#DE5B49;}
	.st5{fill:none;stroke:#000000;stroke-width:3;stroke-linecap:round;stroke-linejoin:round;}
</style>
<rect x="70.5" y="16.5" class="st0" width="54" height="54"/>
<rect x="104.5" y="47.5" class="st1" width="70" height="58"/>
<rect x="47.5" y="148.5" class="st2" width="146" height="87"/>
<g>
	<path class="st3" d="M92.2,36l-0.8-2.5H87L86.2,36h-2.6l4.3-12h2.9l4.2,12H92.2z M89.2,26.7L89.2,26.7l-1.5,4.8h3L89.2,26.7z"/>
</g>
<g>
	<path class="st4" d="M136.7,80.8v-12h5.9c1.2,0,2.1,0.3,2.7,0.9c0.6,0.6,0.9,1.4,0.9,2.4c0,0.5-0.1,1-0.4,1.4s-0.6,0.7-1,0.9
		c0.3,0.1,0.5,0.2,0.7,0.4s0.4,0.3,0.6,0.6s0.3,0.5,0.4,0.8c0.1,0.3,0.1,0.7,0.1,1.1c0,1.1-0.4,2-1.1,2.6c-0.7,0.6-1.9,1-3.4,1
		H136.7z M139.1,70.9v2.6h3.1c1,0,1.5-0.4,1.5-1.3c0-0.5-0.1-0.8-0.4-1c-0.3-0.2-0.7-0.3-1.3-0.3H139.1z M142.2,78.7
		c0.6,0,1-0.2,1.4-0.5c0.3-0.3,0.5-0.7,0.5-1.2c0-0.5-0.2-0.9-0.5-1.2c-0.3-0.2-0.8-0.4-1.3-0.4h-3.2v3.2H142.2z"/>
</g>
<g>
	<path class="st3" d="M111.5,197l-0.8-2.5h-4.4l-0.8,2.5h-2.6l4.3-12h2.9l4.2,12H111.5z M108.5,187.7L108.5,187.7l-1.5,4.8h3
		L108.5,187.7z"/>
	<path d="M118.9,192.4v-1.8h4.5v1.8H118.9z"/>
	<path class="st4" d="M128.5,197v-12h5.9c1.2,0,2.1,0.3,2.7,0.9c0.6,0.6,0.9,1.4,0.9,2.4c0,0.5-0.1,1-0.4,1.4
		c-0.3,0.4-0.6,0.7-1,0.9c0.3,0.1,0.5,0.2,0.7,0.4s0.4,0.3,0.6,0.6c0.2,0.2,0.3,0.5,0.4,0.8c0.1,0.3,0.1,0.7,0.1,1.1
		c0,1.1-0.4,2-1.1,2.6c-0.7,0.6-1.9,1-3.4,1H128.5z M130.9,187.1v2.6h3.1c1,0,1.5-0.4,1.5-1.3c0-0.5-0.1-0.8-0.4-1
		c-0.3-0.2-0.7-0.3-1.3-0.3H130.9z M134.1,195c0.6,0,1-0.2,1.4-0.5c0.3-0.3,0.5-0.7,0.5-1.2c0-0.5-0.2-0.9-0.5-1.2
		c-0.3-0.2-0.8-0.4-1.3-0.4h-3.2v3.2H134.1z"/>
</g>
<rect x="294.5" y="16.5" class="st0" width="83" height="52"/>
<polygon class="st1" points="343.5,53.5 420.5,39.5 367.5,122.5 "/>
<polyline class="st2" points="313.5,205.4 372.3,141.5 431.1,141.5 449,182.4 449,219.5 383.8,231 313.5,231 313.5,205.4 "/>
<g>
	<path class="st3" d="M319.2,39l-0.8-2.5H314l-0.8,2.5h-2.6l4.3-12h2.9l4.2,12H319.2z M316.2,29.7L316.2,29.7l-1.5,4.8h3L316.2,29.7
		z"/>
</g>
<g>
	<path class="st4" d="M368.7,86.8v-12h5.9c1.2,0,2.1,0.3,2.7,0.9c0.6,0.6,0.9,1.4,0.9,2.4c0,0.5-0.1,1-0.4,1.4
		c-0.3,0.4-0.6,0.7-1,0.9c0.3,0.1,0.5,0.2,0.7,0.4c0.2,0.1,0.4,0.3,0.6,0.6s0.3,0.5,0.4,0.8c0.1,0.3,0.1,0.7,0.1,1.1
		c0,1.1-0.4,2-1.1,2.6s-1.9,1-3.4,1H368.7z M371.1,76.9v2.6h3.2c1,0,1.5-0.4,1.5-1.3c0-0.5-0.1-0.8-0.4-1c-0.3-0.2-0.7-0.3-1.3-0.3
		H371.1z M374.2,84.7c0.6,0,1-0.2,1.3-0.5s0.5-0.7,0.5-1.2c0-0.5-0.2-0.9-0.5-1.2c-0.3-0.2-0.8-0.4-1.3-0.4h-3.2v3.2H374.2z"/>
</g>
<g>
	<path class="st3" d="M376.5,197l-0.8-2.5h-4.4l-0.8,2.5h-2.6l4.3-12h2.9l4.2,12H376.5z M373.5,187.7L373.5,187.7l-1.5,4.8h3
		L373.5,187.7z"/>
	<path d="M383.9,192.4v-1.8h4.5v1.8H383.9z"/>
	<path class="st4" d="M393.5,197v-12h5.9c1.2,0,2.1,0.3,2.7,0.9c0.6,0.6,0.9,1.4,0.9,2.4c0,0.5-0.1,1-0.4,1.4
		c-0.3,0.4-0.6,0.7-1,0.9c0.3,0.1,0.5,0.2,0.7,0.4s0.4,0.3,0.6,0.6c0.2,0.2,0.3,0.5,0.4,0.8c0.1,0.3,0.1,0.7,0.1,1.1
		c0,1.1-0.4,2-1.1,2.6s-1.9,1-3.4,1H393.5z M395.9,187.1v2.6h3.2c1,0,1.5-0.4,1.5-1.3c0-0.5-0.1-0.8-0.4-1s-0.7-0.3-1.3-0.3H395.9z
		 M399.1,195c0.6,0,1-0.2,1.4-0.5c0.3-0.3,0.5-0.7,0.5-1.2c0-0.5-0.2-0.9-0.5-1.2c-0.3-0.2-0.8-0.4-1.3-0.4h-3.2v3.2H399.1z"/>
</g>
<g>
	<g>
		<path class="st5" d="M77.8,85c-14.1,11.9-17.6,31.7-9.6,47.4"/>
		<g>
			<path d="M73.2,140c-3.6-2.7-8.8-5.7-12.9-6.9l7.4-1.7l4.6-6C71.6,129.6,72.2,135.5,73.2,140z"/>
		</g>
	</g>
</g>
<g>
	<g>
		<path class="st5" d="M325.5,86.5c-21.9,12.7-23,52.8,1.1,70.5"/>
		<g>
			<path d="M334.5,161.5c-4.5-0.8-10.4-1.2-14.7-0.4l5.8-4.8l1.4-7.5C328.4,153,331.6,158,334.5,161.5z"/>
		</g>
	</g>
</g>
<g>
</g>
<g>
</g>
<g>
</g>
<g>
</g>
<g>
</g>
<g>
</g>
<g>
</g>
<g>
</g>
<g>
</g>
<g>
</g>
<g>
</g>
<g>
</g>
</svg>
