<?xml version="1.0" encoding="utf-8"?>
<!-- Generator: Adobe Illustrator 21.0.2, SVG Export Plug-In . SVG Version: 6.00 Build 0)  -->
<svg version="1.1" id="Layer_1" xmlns="http://www.w3.org/2000/svg" xmlns:xlink="http://www.w3.org/1999/xlink" x="0px" y="0px"
	 viewBox="0 0 512 256" style="enable-background:new 0 0 512 256;" xml:space="preserve">
<style type="text/css">
	.st0{fill:none;stroke:#88c0d0;stroke-width:4;stroke-linecap:round;stroke-linejoin:round;stroke-miterlimit:10;}
	.st1{fill:none;stroke:#bf616a;stroke-width:4;stroke-linecap:round;stroke-linejoin:round;stroke-miterlimit:10;}
	.st2{fill:none;stroke:#ebcb8b;stroke-width:4;stroke-linecap:round;stroke-linejoin:round;stroke-miterlimit:10;}
	.st3{fill:none;stroke:#ebcb8b;stroke-width:4;stroke-linecap:round;stroke-linejoin:round;}
	.st4{fill:none;stroke:#ebcb8b;stroke-width:4;stroke-linecap:round;stroke-linejoin:round;stroke-dasharray:5.8103,5.8103;}
	
		.st5{fill:none;stroke:#ebcb8b;stroke-width:4;stroke-linecap:round;stroke-linejoin:round;stroke-miterlimit:10;stroke-dasharray:6;}
	.st6{fill:#8fbcbb;}
	.st7{fill:#ebcb8b;}
	.st8{fill:none;stroke:#8fbcbb;stroke-width:4;stroke-linecap:round;stroke-linejoin:round;}
	.st9{fill:#88c0d0;}
	.st10{fill:none;stroke:#8fbcbb;stroke-width:2;stroke-miterlimit:10;}
</style>
<line class="st0" x1="123" y1="11" x2="123" y2="195"/>
<line class="st0" x1="5" y1="103" x2="181" y2="103"/>
<polyline class="st1" points="32.5,113.6 88.7,52.5 144.9,52.5 162,91.6 162,127 99.7,138 32.5,138 32.5,113.6 "/>
<path class="st2" d="M32,113"/>
<path class="st2" d="M162,126"/>
<path class="st2" d="M162,126"/>
<line class="st2" x1="162" y1="127" x2="33" y2="114"/>
<g>
	<g>
		<line class="st3" x1="145" y1="52" x2="142.4" y2="53.5"/>
		<line class="st4" x1="137.3" y1="56.3" x2="38.2" y2="111.1"/>
		<line class="st3" x1="35.6" y1="112.5" x2="33" y2="114"/>
	</g>
</g>
<line class="st5" x1="162" y1="127" x2="145" y2="52"/>
<circle class="st6" cx="145" cy="52" r="6"/>
<circle class="st7" cx="162" cy="128" r="6"/>
<circle class="st7" cx="33" cy="114" r="6"/>
<line class="st0" x1="450" y1="11" x2="450" y2="195"/>
<line class="st0" x1="332" y1="103" x2="508" y2="103"/>
<polyline class="st1" points="300.5,176.6 356.7,115.5 412.9,115.5 430,154.6 430,190 367.7,201 300.5,201 300.5,176.6 "/>
<path class="st2" d="M359,113"/>
<path class="st2" d="M489,126"/>
<path class="st2" d="M489,126"/>
<line class="st2" x1="430" y1="190" x2="301" y2="177"/>
<g>
	<g>
		<line class="st3" x1="413" y1="115" x2="410.4" y2="116.5"/>
		<line class="st4" x1="405.3" y1="119.3" x2="306.2" y2="174.1"/>
		<line class="st3" x1="303.6" y1="175.5" x2="301" y2="177"/>
	</g>
</g>
<line class="st5" x1="430" y1="190" x2="413" y2="115"/>
<circle class="st6" cx="413" cy="115" r="6"/>
<circle class="st7" cx="430" cy="191" r="6"/>
<circle class="st7" cx="360" cy="114" r="6"/>
<g>
	<g>
		<line class="st8" x1="249.5" y1="158" x2="260.1" y2="53"/>
		<g>
			<path class="st6" d="M262.5,29c3.1,11.7,8.8,26.5,15.5,35.9l-18.2-8.8l-19.6,4.9C248.6,53.2,257.2,39.9,262.5,29z"/>
		</g>
	</g>
</g>
<g>
	<path class="st6" d="M219.9,23.1V7.2h6.2c1.1,0,2.1,0.2,3,0.5c0.9,0.4,1.7,0.9,2.3,1.5c0.6,0.7,1.2,1.5,1.5,2.4
		c0.4,1,0.6,2,0.6,3.3c0,1.2-0.2,2.3-0.5,3.3c-0.3,1-0.8,1.9-1.4,2.6c-0.6,0.7-1.3,1.3-2.2,1.7c-0.8,0.4-1.8,0.6-2.8,0.6H219.9z
		 M225.9,20.4c1.5,0,2.5-0.5,3.2-1.4c0.7-0.9,1-2.3,1-4.1c0-0.9-0.1-1.7-0.2-2.3c-0.2-0.6-0.4-1.2-0.8-1.6c-0.4-0.4-0.8-0.7-1.4-0.9
		c-0.6-0.2-1.2-0.3-2-0.3h-2.5v10.5H225.9z"/>
	<path class="st6" d="M234.5,9.9V7h3.1v2.9H234.5z M234.5,23.1V11.3h3.1v11.8H234.5z"/>
	<path class="st6" d="M238.9,23.1V11.3h2.9v1.4c0.3-0.4,0.5-0.7,0.8-0.9c0.3-0.2,0.6-0.4,0.9-0.5c0.3-0.1,0.6-0.2,0.9-0.2
		c0.3,0,0.6,0,0.9,0h0.4v3.2c-0.3,0-0.6-0.1-0.9-0.1c-1.9,0-2.9,1-2.9,2.9v6.1H238.9z"/>
	<path class="st6" d="M248.7,18.1c0,0.9,0.3,1.6,0.8,2.1c0.5,0.5,1.1,0.8,1.9,0.8c0.5,0,1-0.1,1.4-0.3c0.4-0.2,0.6-0.6,0.8-1h3.2
		c-0.4,1.2-1,2.2-1.9,2.8c-0.9,0.7-2,1-3.3,1c-3.9,0-5.9-2.1-5.9-6.4c0-0.9,0.1-1.7,0.4-2.5c0.3-0.7,0.6-1.4,1.1-1.9
		c0.5-0.5,1.1-0.9,1.8-1.2c0.7-0.3,1.5-0.4,2.4-0.4c1.8,0,3.2,0.6,4.1,1.8c0.9,1.2,1.4,2.9,1.4,5.3H248.7z M253.7,16.1
		c0-0.4-0.1-0.8-0.2-1.1c-0.1-0.3-0.3-0.6-0.5-0.8c-0.2-0.2-0.5-0.4-0.8-0.5c-0.3-0.1-0.6-0.2-0.9-0.2c-0.6,0-1.2,0.2-1.6,0.7
		s-0.7,1.1-0.8,1.9H253.7z"/>
	<path class="st6" d="M268.5,18.9c-0.1,0.7-0.3,1.3-0.6,1.9s-0.7,1-1.2,1.4c-0.5,0.4-1,0.7-1.6,0.9c-0.6,0.2-1.3,0.3-2,0.3
		c-0.8,0-1.5-0.1-2.2-0.4s-1.2-0.7-1.7-1.2c-0.5-0.5-0.9-1.2-1.1-2s-0.4-1.7-0.4-2.8c0-1.1,0.1-2,0.4-2.7c0.3-0.8,0.6-1.4,1.1-1.9
		c0.5-0.5,1.1-0.9,1.7-1.1c0.7-0.2,1.4-0.4,2.3-0.4c0.8,0,1.5,0.1,2.1,0.3c0.6,0.2,1.2,0.5,1.7,0.9c0.5,0.4,0.8,0.9,1.1,1.4
		c0.3,0.6,0.4,1.2,0.5,1.9h-3.1c-0.1-0.6-0.3-1.1-0.7-1.4c-0.4-0.3-0.9-0.5-1.5-0.5c-0.3,0-0.6,0.1-0.9,0.2
		c-0.3,0.1-0.5,0.3-0.8,0.6c-0.2,0.3-0.4,0.6-0.5,1.1c-0.1,0.4-0.2,1-0.2,1.6c0,1.3,0.2,2.3,0.7,2.9c0.5,0.6,1,0.9,1.6,0.9
		c0.6,0,1.1-0.2,1.6-0.5s0.7-0.8,0.7-1.5H268.5z"/>
	<path class="st6" d="M276,15.4h2.9v3.4c0,0.6-0.1,1.2-0.3,1.8s-0.5,1.1-0.9,1.5c-0.4,0.4-0.9,0.8-1.5,1c-0.6,0.3-1.3,0.4-2.1,0.4
		c-0.9,0-1.6-0.1-2.2-0.4c-0.6-0.3-1.1-0.6-1.5-1c-0.4-0.4-0.7-0.9-0.9-1.5c-0.2-0.6-0.3-1.2-0.3-1.8V8.1h3.1v3.2h6.5v2.2h-6.5v4.8
		c0,0.8,0.1,1.3,0.4,1.7c0.3,0.4,0.7,0.6,1.4,0.6c0.6,0,1.1-0.2,1.4-0.6c0.3-0.4,0.4-1,0.4-1.7V15.4z"/>
	<path class="st6" d="M280.1,9.9V7h3.1v2.9H280.1z M280.1,23.1V11.3h3.1v11.8H280.1z"/>
	<path class="st6" d="M290.3,23.5c-1,0-1.8-0.2-2.6-0.5c-0.8-0.3-1.4-0.7-1.9-1.3c-0.5-0.5-0.9-1.2-1.2-2c-0.3-0.8-0.4-1.6-0.4-2.5
		c0-0.9,0.1-1.8,0.4-2.5c0.3-0.8,0.7-1.4,1.2-2s1.2-1,1.9-1.3s1.6-0.4,2.5-0.4c0.9,0,1.8,0.1,2.5,0.4s1.4,0.7,1.9,1.2
		c0.5,0.5,0.9,1.2,1.2,2c0.3,0.8,0.4,1.6,0.4,2.6s-0.1,1.8-0.4,2.6c-0.3,0.8-0.7,1.4-1.2,2c-0.5,0.5-1.2,1-1.9,1.3
		S291.2,23.5,290.3,23.5z M290.3,20.8c1.9,0,2.9-1.2,2.9-3.6c0-2.4-1-3.6-2.9-3.6s-2.9,1.2-2.9,3.6
		C287.4,19.6,288.4,20.8,290.3,20.8z"/>
	<path class="st6" d="M304.9,23.1V16c0-0.9-0.2-1.5-0.5-1.8c-0.3-0.3-0.8-0.5-1.6-0.5c-1.6,0-2.4,0.9-2.4,2.7v6.8h-3.1V11.3h3v1.7
		c0.4-0.7,0.9-1.2,1.5-1.5c0.6-0.3,1.4-0.5,2.4-0.5c0.6,0,1.1,0.1,1.6,0.3c0.5,0.2,0.9,0.4,1.2,0.8c0.3,0.3,0.6,0.7,0.8,1.2
		c0.2,0.5,0.3,1.1,0.3,1.7v8.2H304.9z"/>
</g>
<g>
	<path class="st9" d="M40.6,231.4c-0.1-0.3-0.2-0.7-0.2-1.1c-0.4,0.4-0.9,0.7-1.5,1c-0.6,0.2-1.3,0.4-2.1,0.4c-1.4,0-2.4-0.3-3-0.9
		c-0.6-0.6-0.9-1.4-0.9-2.3c0-0.8,0.1-1.5,0.4-2c0.3-0.5,0.6-0.9,1.1-1.2c0.5-0.3,1.1-0.5,1.7-0.6c0.7-0.1,1.4-0.3,2.2-0.4
		c0.8-0.1,1.3-0.3,1.6-0.4s0.4-0.5,0.4-0.9c0-0.4-0.2-0.7-0.5-0.9c-0.4-0.2-0.8-0.3-1.5-0.3c-0.7,0-1.2,0.2-1.5,0.5
		c-0.3,0.3-0.5,0.7-0.6,1.3h-2.9c0-0.6,0.1-1.2,0.3-1.7c0.2-0.5,0.5-1,0.9-1.3c0.4-0.4,0.9-0.7,1.6-0.9c0.7-0.2,1.5-0.3,2.4-0.3
		c0.9,0,1.7,0.1,2.4,0.3s1.2,0.5,1.6,0.9c0.4,0.4,0.7,0.9,0.9,1.5c0.2,0.6,0.3,1.2,0.3,2v7.5H40.6z M40.4,225.6
		c-0.2,0.2-0.4,0.3-0.7,0.4c-0.3,0.1-0.7,0.2-1.3,0.3c-0.9,0.2-1.5,0.4-1.8,0.7c-0.3,0.3-0.5,0.7-0.5,1.2c0,0.9,0.5,1.3,1.5,1.3
		c0.4,0,0.8-0.1,1.1-0.2c0.3-0.1,0.6-0.3,0.9-0.6c0.2-0.2,0.4-0.5,0.6-0.8c0.2-0.3,0.2-0.6,0.2-1L40.4,225.6z"/>
	<path class="st9" d="M50.6,225v-3.2H54v3.2H50.6z"/>
	<path class="st9" d="M61,231.4v-15.9h6.2c1.1,0,2.1,0.2,3,0.5c0.9,0.4,1.7,0.9,2.3,1.5s1.2,1.5,1.5,2.4c0.4,1,0.6,2,0.6,3.3
		s-0.2,2.3-0.5,3.3c-0.3,1-0.8,1.9-1.4,2.6s-1.3,1.3-2.2,1.7c-0.8,0.4-1.8,0.6-2.8,0.6H61z M67,228.7c1.5,0,2.5-0.5,3.2-1.4
		c0.7-0.9,1-2.3,1-4.1c0-0.9-0.1-1.7-0.2-2.3c-0.2-0.6-0.4-1.2-0.8-1.6s-0.8-0.7-1.4-0.9c-0.6-0.2-1.2-0.3-2-0.3h-2.5v10.5H67z"/>
	<path class="st9" d="M75.6,218.2v-2.9h3.1v2.9H75.6z M75.6,231.4v-11.8h3.1v11.8H75.6z"/>
	<path class="st9" d="M80,231.4v-11.8h2.9v1.4c0.3-0.4,0.5-0.7,0.8-0.9c0.3-0.2,0.6-0.4,0.9-0.5c0.3-0.1,0.6-0.2,0.9-0.2
		c0.3,0,0.6,0,0.9,0h0.4v3.2c-0.3,0-0.6-0.1-0.9-0.1c-1.9,0-2.9,1-2.9,2.9v6.1H80z"/>
	<path class="st9" d="M89.8,226.3c0,0.9,0.3,1.6,0.8,2.1c0.5,0.5,1.1,0.8,1.9,0.8c0.5,0,1-0.1,1.4-0.3c0.4-0.2,0.6-0.6,0.8-1h3.2
		c-0.4,1.2-1,2.2-1.9,2.8c-0.9,0.7-2,1-3.3,1c-3.9,0-5.9-2.1-5.9-6.4c0-0.9,0.1-1.7,0.4-2.5c0.3-0.7,0.6-1.4,1.1-1.9
		c0.5-0.5,1.1-0.9,1.8-1.2c0.7-0.3,1.5-0.4,2.4-0.4c1.8,0,3.2,0.6,4.1,1.8s1.4,2.9,1.4,5.3H89.8z M94.7,224.3c0-0.4-0.1-0.8-0.2-1.1
		c-0.1-0.3-0.3-0.6-0.5-0.8s-0.5-0.4-0.8-0.5c-0.3-0.1-0.6-0.2-0.9-0.2c-0.6,0-1.2,0.2-1.6,0.7s-0.7,1.1-0.8,1.9H94.7z"/>
	<path class="st9" d="M109.5,227.1c-0.1,0.7-0.3,1.3-0.6,1.9c-0.3,0.6-0.7,1-1.2,1.4c-0.5,0.4-1,0.7-1.6,0.9c-0.6,0.2-1.3,0.3-2,0.3
		c-0.8,0-1.5-0.1-2.2-0.4c-0.7-0.3-1.2-0.7-1.7-1.2s-0.9-1.2-1.1-2c-0.3-0.8-0.4-1.7-0.4-2.8s0.1-2,0.4-2.7c0.3-0.8,0.6-1.4,1.1-1.9
		s1.1-0.9,1.7-1.1c0.7-0.2,1.4-0.4,2.3-0.4c0.8,0,1.5,0.1,2.1,0.3c0.6,0.2,1.2,0.5,1.7,0.9c0.5,0.4,0.8,0.9,1.1,1.4
		c0.3,0.6,0.4,1.2,0.5,1.9h-3.1c-0.1-0.6-0.3-1.1-0.7-1.4c-0.4-0.3-0.9-0.5-1.5-0.5c-0.3,0-0.6,0.1-0.9,0.2
		c-0.3,0.1-0.5,0.3-0.8,0.6c-0.2,0.3-0.4,0.6-0.5,1.1c-0.1,0.4-0.2,1-0.2,1.6c0,1.3,0.2,2.3,0.7,2.9c0.5,0.6,1,0.9,1.6,0.9
		c0.6,0,1.1-0.2,1.6-0.5c0.4-0.3,0.7-0.8,0.7-1.5H109.5z"/>
	<path class="st9" d="M117,223.6h2.9v3.4c0,0.6-0.1,1.2-0.3,1.8c-0.2,0.6-0.5,1.1-0.9,1.5c-0.4,0.4-0.9,0.8-1.5,1
		c-0.6,0.3-1.3,0.4-2.1,0.4c-0.9,0-1.6-0.1-2.2-0.4c-0.6-0.3-1.1-0.6-1.5-1c-0.4-0.4-0.7-0.9-0.9-1.5c-0.2-0.6-0.3-1.2-0.3-1.8
		v-10.6h3.1v3.2h6.5v2.2h-6.5v4.8c0,0.8,0.1,1.3,0.4,1.7c0.3,0.4,0.7,0.6,1.4,0.6c0.6,0,1.1-0.2,1.4-0.6c0.3-0.4,0.4-1,0.4-1.7
		V223.6z"/>
	<path class="st9" d="M121.1,218.2v-2.9h3.1v2.9H121.1z M121.1,231.4v-11.8h3.1v11.8H121.1z"/>
	<path class="st9" d="M131.4,231.7c-1,0-1.8-0.2-2.6-0.5s-1.4-0.7-1.9-1.3c-0.5-0.5-0.9-1.2-1.2-2c-0.3-0.8-0.4-1.6-0.4-2.5
		c0-0.9,0.1-1.8,0.4-2.5c0.3-0.8,0.7-1.4,1.2-2c0.5-0.5,1.2-1,1.9-1.3s1.6-0.4,2.5-0.4c0.9,0,1.8,0.1,2.5,0.4
		c0.7,0.3,1.4,0.7,1.9,1.2c0.5,0.5,0.9,1.2,1.2,2c0.3,0.8,0.4,1.6,0.4,2.6c0,0.9-0.1,1.8-0.4,2.6c-0.3,0.8-0.7,1.4-1.2,2
		c-0.5,0.5-1.2,1-1.9,1.3S132.3,231.7,131.4,231.7z M131.4,229.1c1.9,0,2.9-1.2,2.9-3.6c0-2.4-1-3.6-2.9-3.6c-1.9,0-2.9,1.2-2.9,3.6
		C128.5,227.9,129.5,229.1,131.4,229.1z"/>
	<path class="st9" d="M145.9,231.4v-7.2c0-0.9-0.2-1.5-0.5-1.8c-0.3-0.3-0.8-0.5-1.6-0.5c-1.6,0-2.4,0.9-2.4,2.7v6.8h-3.1v-11.8h3
		v1.7c0.4-0.7,0.9-1.2,1.5-1.5c0.6-0.3,1.4-0.5,2.4-0.5c0.6,0,1.1,0.1,1.6,0.3s0.9,0.4,1.2,0.8c0.3,0.3,0.6,0.7,0.8,1.2
		s0.3,1.1,0.3,1.7v8.2H145.9z"/>
	<path class="st9" d="M156.2,229.1v-2.5l8.8-3.4l-8.8-3.4v-2.5l11.3,4.8v2.3L156.2,229.1z"/>
	<path class="st9" d="M179.8,231.9c-0.9,0-1.6-0.2-2.3-0.5c-0.7-0.3-1.2-0.9-1.7-1.5c-0.5-0.7-0.8-1.6-1.1-2.7
		c-0.2-1.1-0.4-2.4-0.4-3.9c0-1.5,0.1-2.8,0.4-3.8c0.2-1.1,0.6-1.9,1.1-2.6c0.5-0.7,1-1.2,1.7-1.5c0.7-0.3,1.4-0.5,2.3-0.5
		c0.9,0,1.6,0.2,2.3,0.5c0.7,0.3,1.3,0.8,1.7,1.5c0.5,0.7,0.8,1.5,1.1,2.6c0.3,1.1,0.4,2.3,0.4,3.8c0,3-0.5,5.1-1.5,6.5
		S181.5,231.9,179.8,231.9z M179.9,229.4c0.4,0,0.7-0.1,1-0.3s0.5-0.6,0.7-1c0.2-0.5,0.3-1.1,0.4-1.8s0.1-1.7,0.1-2.8
		c0-1.1,0-2-0.1-2.8s-0.2-1.4-0.4-1.9c-0.2-0.5-0.4-0.8-0.7-1c-0.3-0.2-0.6-0.3-1-0.3c-0.4,0-0.7,0.1-1,0.3c-0.3,0.2-0.5,0.5-0.7,1
		s-0.3,1.1-0.4,1.8s-0.1,1.7-0.1,2.8c0,1.1,0,2,0.1,2.8c0.1,0.8,0.2,1.4,0.4,1.9c0.2,0.5,0.4,0.8,0.7,1
		C179.2,229.3,179.5,229.4,179.9,229.4z"/>
</g>
<g>
	<g>
		<line class="st10" x1="123.5" y1="102.5" x2="138.1" y2="70"/>
		<g>
			<path class="st6" d="M143,59c-0.4,6,0,13.9,1.7,19.5l-7.3-7l-10.1-0.8C132.6,68.3,138.8,63.3,143,59z"/>
		</g>
	</g>
</g>
<g>
	<g>
		<line class="st10" x1="450" y1="103" x2="431.5" y2="109.2"/>
		<g>
			<path class="st6" d="M420,113c4.7-3.8,10.3-9.4,13.2-14.4l-0.3,10.1l6.3,7.9C433.9,114.4,426.1,113.2,420,113z"/>
		</g>
	</g>
</g>
<g>
	<path class="st9" d="M330.6,231.4c-0.1-0.3-0.2-0.7-0.2-1.1c-0.4,0.4-0.9,0.7-1.5,1c-0.6,0.2-1.3,0.4-2.1,0.4c-1.4,0-2.4-0.3-3-0.9
		c-0.6-0.6-0.9-1.4-0.9-2.3c0-0.8,0.1-1.5,0.4-2c0.3-0.5,0.6-0.9,1.1-1.2c0.5-0.3,1.1-0.5,1.7-0.6c0.7-0.1,1.4-0.3,2.2-0.4
		c0.8-0.1,1.3-0.3,1.6-0.4s0.4-0.5,0.4-0.9c0-0.4-0.2-0.7-0.5-0.9c-0.4-0.2-0.8-0.3-1.5-0.3c-0.7,0-1.2,0.2-1.5,0.5
		c-0.3,0.3-0.5,0.7-0.6,1.3h-2.9c0-0.6,0.1-1.2,0.3-1.7c0.2-0.5,0.5-1,0.9-1.3c0.4-0.4,0.9-0.7,1.6-0.9c0.7-0.2,1.5-0.3,2.4-0.3
		c0.9,0,1.7,0.1,2.4,0.3c0.6,0.2,1.2,0.5,1.6,0.9c0.4,0.4,0.7,0.9,0.9,1.5c0.2,0.6,0.3,1.2,0.3,2v7.5H330.6z M330.4,225.6
		c-0.2,0.2-0.4,0.3-0.7,0.4c-0.3,0.1-0.7,0.2-1.3,0.3c-0.9,0.2-1.5,0.4-1.8,0.7c-0.3,0.3-0.5,0.7-0.5,1.2c0,0.9,0.5,1.3,1.5,1.3
		c0.4,0,0.8-0.1,1.1-0.2c0.3-0.1,0.6-0.3,0.9-0.6c0.2-0.2,0.4-0.5,0.6-0.8c0.2-0.3,0.2-0.6,0.2-1L330.4,225.6z"/>
	<path class="st9" d="M340.6,225v-3.2h3.3v3.2H340.6z"/>
	<path class="st9" d="M351,231.4v-15.9h6.2c1.1,0,2.1,0.2,3,0.5c0.9,0.4,1.7,0.9,2.3,1.5s1.2,1.5,1.5,2.4c0.4,1,0.6,2,0.6,3.3
		s-0.2,2.3-0.5,3.3c-0.3,1-0.8,1.9-1.4,2.6s-1.3,1.3-2.2,1.7c-0.8,0.4-1.8,0.6-2.8,0.6H351z M357,228.7c1.5,0,2.5-0.5,3.2-1.4
		c0.7-0.9,1-2.3,1-4.1c0-0.9-0.1-1.7-0.2-2.3c-0.2-0.6-0.4-1.2-0.8-1.6c-0.4-0.4-0.8-0.7-1.4-0.9c-0.6-0.2-1.2-0.3-2-0.3h-2.5v10.5
		H357z"/>
	<path class="st9" d="M365.6,218.2v-2.9h3.1v2.9H365.6z M365.6,231.4v-11.8h3.1v11.8H365.6z"/>
	<path class="st9" d="M370,231.4v-11.8h2.9v1.4c0.3-0.4,0.5-0.7,0.8-0.9c0.3-0.2,0.6-0.4,0.9-0.5c0.3-0.1,0.6-0.2,0.9-0.2
		c0.3,0,0.6,0,0.9,0h0.4v3.2c-0.3,0-0.6-0.1-0.9-0.1c-1.9,0-2.9,1-2.9,2.9v6.1H370z"/>
	<path class="st9" d="M379.8,226.3c0,0.9,0.3,1.6,0.8,2.1s1.1,0.8,1.9,0.8c0.5,0,1-0.1,1.4-0.3c0.4-0.2,0.6-0.6,0.8-1h3.2
		c-0.4,1.2-1,2.2-1.9,2.8s-2,1-3.3,1c-3.9,0-5.9-2.1-5.9-6.4c0-0.9,0.1-1.7,0.4-2.5c0.3-0.7,0.6-1.4,1.1-1.9
		c0.5-0.5,1.1-0.9,1.8-1.2c0.7-0.3,1.5-0.4,2.4-0.4c1.8,0,3.2,0.6,4.1,1.8s1.4,2.9,1.4,5.3H379.8z M384.7,224.3
		c0-0.4-0.1-0.8-0.2-1.1c-0.1-0.3-0.3-0.6-0.5-0.8s-0.5-0.4-0.8-0.5c-0.3-0.1-0.6-0.2-0.9-0.2c-0.6,0-1.2,0.2-1.6,0.7
		c-0.5,0.5-0.7,1.1-0.8,1.9H384.7z"/>
	<path class="st9" d="M399.5,227.1c-0.1,0.7-0.3,1.3-0.6,1.9c-0.3,0.6-0.7,1-1.2,1.4c-0.5,0.4-1,0.7-1.6,0.9c-0.6,0.2-1.3,0.3-2,0.3
		c-0.8,0-1.5-0.1-2.2-0.4c-0.7-0.3-1.2-0.7-1.7-1.2s-0.9-1.2-1.1-2c-0.3-0.8-0.4-1.7-0.4-2.8s0.1-2,0.4-2.7c0.3-0.8,0.6-1.4,1.1-1.9
		s1.1-0.9,1.7-1.1s1.4-0.4,2.3-0.4c0.8,0,1.5,0.1,2.1,0.3c0.6,0.2,1.2,0.5,1.7,0.9c0.5,0.4,0.8,0.9,1.1,1.4c0.3,0.6,0.4,1.2,0.5,1.9
		h-3.1c-0.1-0.6-0.3-1.1-0.7-1.4s-0.9-0.5-1.5-0.5c-0.3,0-0.6,0.1-0.9,0.2c-0.3,0.1-0.5,0.3-0.8,0.6s-0.4,0.6-0.5,1.1
		c-0.1,0.4-0.2,1-0.2,1.6c0,1.3,0.2,2.3,0.7,2.9s1,0.9,1.6,0.9c0.6,0,1.1-0.2,1.6-0.5c0.4-0.3,0.7-0.8,0.7-1.5H399.5z"/>
	<path class="st9" d="M407,223.6h2.9v3.4c0,0.6-0.1,1.2-0.3,1.8c-0.2,0.6-0.5,1.1-0.9,1.5c-0.4,0.4-0.9,0.8-1.5,1s-1.3,0.4-2.1,0.4
		c-0.9,0-1.6-0.1-2.2-0.4c-0.6-0.3-1.1-0.6-1.5-1c-0.4-0.4-0.7-0.9-0.9-1.5c-0.2-0.6-0.3-1.2-0.3-1.8v-10.6h3.1v3.2h6.5v2.2h-6.5
		v4.8c0,0.8,0.1,1.3,0.4,1.7c0.3,0.4,0.7,0.6,1.4,0.6c0.6,0,1.1-0.2,1.4-0.6c0.3-0.4,0.4-1,0.4-1.7V223.6z"/>
	<path class="st9" d="M411.1,218.2v-2.9h3.1v2.9H411.1z M411.1,231.4v-11.8h3.1v11.8H411.1z"/>
	<path class="st9" d="M421.4,231.7c-1,0-1.8-0.2-2.6-0.5s-1.4-0.7-1.9-1.3s-0.9-1.2-1.2-2c-0.3-0.8-0.4-1.6-0.4-2.5
		c0-0.9,0.1-1.8,0.4-2.5c0.3-0.8,0.7-1.4,1.2-2s1.2-1,1.9-1.3s1.6-0.4,2.5-0.4c0.9,0,1.8,0.1,2.5,0.4c0.7,0.3,1.4,0.7,1.9,1.2
		s0.9,1.2,1.2,2c0.3,0.8,0.4,1.6,0.4,2.6c0,0.9-0.1,1.8-0.4,2.6c-0.3,0.8-0.7,1.4-1.2,2s-1.2,1-1.9,1.3S422.3,231.7,421.4,231.7z
		 M421.4,229.1c1.9,0,2.9-1.2,2.9-3.6c0-2.4-1-3.6-2.9-3.6c-1.9,0-2.9,1.2-2.9,3.6C418.5,227.9,419.5,229.1,421.4,229.1z"/>
	<path class="st9" d="M435.9,231.4v-7.2c0-0.9-0.2-1.5-0.5-1.8c-0.3-0.3-0.8-0.5-1.6-0.5c-1.6,0-2.4,0.9-2.4,2.7v6.8h-3.1v-11.8h3
		v1.7c0.4-0.7,0.9-1.2,1.5-1.5c0.6-0.3,1.4-0.5,2.4-0.5c0.6,0,1.1,0.1,1.6,0.3s0.9,0.4,1.2,0.8c0.3,0.3,0.6,0.7,0.8,1.2
		s0.3,1.1,0.3,1.7v8.2H435.9z"/>
	<path class="st9" d="M446.2,224.3V222l11.3-4.8v2.5l-8.8,3.4l8.8,3.4v2.5L446.2,224.3z"/>
	<path class="st9" d="M469.8,231.9c-0.9,0-1.6-0.2-2.3-0.5s-1.2-0.9-1.7-1.5c-0.5-0.7-0.8-1.6-1.1-2.7s-0.4-2.4-0.4-3.9
		c0-1.5,0.1-2.8,0.4-3.8c0.2-1.1,0.6-1.9,1.1-2.6c0.5-0.7,1-1.2,1.7-1.5c0.7-0.3,1.4-0.5,2.3-0.5c0.9,0,1.6,0.2,2.3,0.5
		c0.7,0.3,1.3,0.8,1.7,1.5c0.5,0.7,0.8,1.5,1.1,2.6c0.3,1.1,0.4,2.3,0.4,3.8c0,3-0.5,5.1-1.5,6.5
		C472.9,231.2,471.5,231.9,469.8,231.9z M469.9,229.4c0.4,0,0.7-0.1,1-0.3c0.3-0.2,0.5-0.6,0.7-1c0.2-0.5,0.3-1.1,0.4-1.8
		c0.1-0.8,0.1-1.7,0.1-2.8c0-1.1,0-2-0.1-2.8c-0.1-0.8-0.2-1.4-0.4-1.9c-0.2-0.5-0.4-0.8-0.7-1c-0.3-0.2-0.6-0.3-1-0.3
		c-0.4,0-0.7,0.1-1,0.3c-0.3,0.2-0.5,0.5-0.7,1s-0.3,1.1-0.4,1.8c-0.1,0.8-0.1,1.7-0.1,2.8c0,1.1,0,2,0.1,2.8
		c0.1,0.8,0.2,1.4,0.4,1.9c0.2,0.5,0.4,0.8,0.7,1C469.2,229.3,469.5,229.4,469.9,229.4z"/>
</g>
<g>
	<path class="st6" d="M160.7,49.7c-0.1-0.2-0.1-0.5-0.1-0.8c-0.3,0.3-0.6,0.6-1.1,0.7s-1,0.3-1.6,0.3c-1,0-1.8-0.2-2.2-0.7
		c-0.5-0.5-0.7-1-0.7-1.8c0-0.6,0.1-1.1,0.3-1.5c0.2-0.4,0.5-0.7,0.8-0.9c0.4-0.2,0.8-0.4,1.3-0.5s1-0.2,1.6-0.3s1-0.2,1.2-0.3
		c0.2-0.1,0.3-0.4,0.3-0.7c0-0.3-0.1-0.5-0.4-0.7s-0.6-0.2-1.1-0.2c-0.5,0-0.9,0.1-1.2,0.4c-0.2,0.2-0.4,0.6-0.4,1h-2.2
		c0-0.5,0.1-0.9,0.2-1.3c0.1-0.4,0.4-0.7,0.7-1c0.3-0.3,0.7-0.5,1.2-0.6c0.5-0.1,1.1-0.2,1.8-0.2c0.7,0,1.3,0.1,1.8,0.2
		c0.5,0.2,0.9,0.4,1.2,0.7c0.3,0.3,0.5,0.7,0.6,1.1c0.1,0.4,0.2,0.9,0.2,1.5v5.6H160.7z M160.5,45.4c-0.1,0.1-0.3,0.2-0.5,0.3
		c-0.2,0.1-0.6,0.1-1,0.2c-0.7,0.1-1.1,0.3-1.4,0.5s-0.4,0.5-0.4,0.9c0,0.7,0.4,1,1.1,1c0.3,0,0.6-0.1,0.8-0.2
		c0.3-0.1,0.5-0.2,0.7-0.4s0.3-0.4,0.5-0.6c0.1-0.2,0.2-0.5,0.2-0.7L160.5,45.4z"/>
</g>
<g>
	<path class="st7" d="M177.1,140.5c-0.1,0.5-0.2,1-0.4,1.4s-0.5,0.8-0.9,1.1c-0.4,0.3-0.8,0.5-1.2,0.7s-1,0.3-1.5,0.3
		c-0.6,0-1.1-0.1-1.6-0.3c-0.5-0.2-0.9-0.5-1.3-0.9c-0.4-0.4-0.6-0.9-0.8-1.5c-0.2-0.6-0.3-1.3-0.3-2.1c0-0.8,0.1-1.5,0.3-2.1
		c0.2-0.6,0.5-1,0.8-1.4c0.4-0.4,0.8-0.6,1.3-0.8c0.5-0.2,1.1-0.3,1.7-0.3c0.6,0,1.1,0.1,1.6,0.2c0.5,0.2,0.9,0.4,1.2,0.7
		c0.4,0.3,0.6,0.7,0.8,1.1c0.2,0.4,0.3,0.9,0.4,1.4h-2.4c-0.1-0.5-0.2-0.8-0.5-1.1c-0.3-0.3-0.7-0.4-1.1-0.4c-0.3,0-0.5,0-0.7,0.1
		c-0.2,0.1-0.4,0.2-0.6,0.4c-0.2,0.2-0.3,0.5-0.4,0.8c-0.1,0.3-0.1,0.7-0.1,1.2c0,1,0.2,1.7,0.5,2.2s0.8,0.7,1.2,0.7
		s0.8-0.1,1.2-0.4c0.3-0.3,0.5-0.6,0.6-1.1H177.1z"/>
</g>
<g>
	<path class="st7" d="M13.1,120.7v-12.1h2.3v4.4c0.7-0.9,1.5-1.4,2.6-1.4c0.6,0,1.1,0.1,1.5,0.3s0.8,0.5,1.1,0.9
		c0.3,0.4,0.5,0.9,0.7,1.4c0.2,0.6,0.2,1.2,0.2,1.8c0,0.7-0.1,1.4-0.3,2c-0.2,0.6-0.5,1.1-0.8,1.5c-0.3,0.4-0.7,0.7-1.2,0.9
		c-0.5,0.2-1,0.3-1.5,0.3c-1.1,0-1.9-0.4-2.5-1.3l0,1.1H13.1z M17.3,119.1c0.6,0,1.1-0.2,1.4-0.7c0.4-0.5,0.6-1.1,0.6-1.9
		c0-1.8-0.7-2.7-2-2.7c-1.3,0-2,1-2,2.9c0,0.8,0.2,1.4,0.6,1.8C16.3,118.8,16.8,119.1,17.3,119.1z"/>
</g>
<g>
	<path class="st6" d="M429.7,126.7c-0.1-0.2-0.1-0.5-0.1-0.8c-0.3,0.3-0.6,0.6-1.1,0.7s-1,0.3-1.6,0.3c-1,0-1.8-0.2-2.2-0.7
		c-0.5-0.5-0.7-1-0.7-1.8c0-0.6,0.1-1.1,0.3-1.5c0.2-0.4,0.5-0.7,0.8-0.9c0.4-0.2,0.8-0.4,1.3-0.5s1-0.2,1.6-0.3s1-0.2,1.2-0.3
		c0.2-0.1,0.3-0.4,0.3-0.7c0-0.3-0.1-0.5-0.4-0.7s-0.6-0.2-1.1-0.2c-0.5,0-0.9,0.1-1.2,0.4c-0.2,0.2-0.4,0.6-0.4,1h-2.2
		c0-0.5,0.1-0.9,0.2-1.3c0.1-0.4,0.4-0.7,0.7-1c0.3-0.3,0.7-0.5,1.2-0.6c0.5-0.1,1.1-0.2,1.8-0.2c0.7,0,1.3,0.1,1.8,0.2
		c0.5,0.2,0.9,0.4,1.2,0.7c0.3,0.3,0.5,0.7,0.6,1.1c0.1,0.4,0.2,0.9,0.2,1.5v5.6H429.7z M429.5,122.4c-0.1,0.1-0.3,0.2-0.5,0.3
		c-0.2,0.1-0.6,0.1-1,0.2c-0.7,0.1-1.1,0.3-1.4,0.5s-0.4,0.5-0.4,0.9c0,0.7,0.4,1,1.1,1c0.3,0,0.6-0.1,0.8-0.2s0.5-0.2,0.7-0.4
		c0.2-0.2,0.3-0.4,0.5-0.6c0.1-0.2,0.2-0.5,0.2-0.7L429.5,122.4z"/>
</g>
<g>
	<path class="st7" d="M446.1,203.5c-0.1,0.5-0.2,1-0.4,1.4c-0.2,0.4-0.5,0.8-0.9,1.1c-0.4,0.3-0.8,0.5-1.2,0.7
		c-0.5,0.2-1,0.3-1.5,0.3c-0.6,0-1.2-0.1-1.6-0.3c-0.5-0.2-0.9-0.5-1.3-0.9c-0.4-0.4-0.6-0.9-0.8-1.5c-0.2-0.6-0.3-1.3-0.3-2.1
		c0-0.8,0.1-1.5,0.3-2.1c0.2-0.6,0.5-1,0.8-1.4c0.4-0.4,0.8-0.6,1.3-0.8c0.5-0.2,1.1-0.3,1.7-0.3c0.6,0,1.1,0.1,1.6,0.2
		c0.5,0.2,0.9,0.4,1.2,0.7c0.4,0.3,0.6,0.7,0.8,1.1s0.3,0.9,0.4,1.4h-2.4c-0.1-0.5-0.2-0.8-0.5-1.1s-0.7-0.4-1.1-0.4
		c-0.3,0-0.5,0-0.7,0.1c-0.2,0.1-0.4,0.2-0.6,0.4c-0.2,0.2-0.3,0.5-0.4,0.8c-0.1,0.3-0.1,0.7-0.1,1.2c0,1,0.2,1.7,0.5,2.2
		s0.8,0.7,1.2,0.7s0.8-0.1,1.2-0.4c0.3-0.3,0.5-0.6,0.6-1.1H446.1z"/>
</g>
<g>
	<path class="st7" d="M282.2,183.7v-12.1h2.3v4.4c0.7-0.9,1.5-1.4,2.6-1.4c0.6,0,1.1,0.1,1.5,0.3c0.5,0.2,0.8,0.5,1.1,0.9
		c0.3,0.4,0.5,0.9,0.7,1.4c0.2,0.6,0.2,1.2,0.2,1.8c0,0.7-0.1,1.4-0.3,2c-0.2,0.6-0.5,1.1-0.8,1.5c-0.3,0.4-0.7,0.7-1.2,0.9
		c-0.5,0.2-1,0.3-1.5,0.3c-1.1,0-1.9-0.4-2.5-1.3l0,1.1H282.2z M286.3,182.1c0.6,0,1.1-0.3,1.4-0.7s0.6-1.1,0.6-1.9
		c0-1.8-0.7-2.7-2-2.7c-1.3,0-2,1-2,2.9c0,0.8,0.2,1.4,0.6,1.8C285.3,181.8,285.8,182.1,286.3,182.1z"/>
</g>
<g>
</g>
<g>
</g>
<g>
</g>
<g>
</g>
<g>
</g>
<g>
</g>
<g>
</g>
<g>
</g>
<g>
</g>
<g>
</g>
<g>
</g>
<g>
</g>
</svg>
