<?xml version="1.0" encoding="utf-8"?>
<!-- Generator: Adobe Illustrator 21.0.2, SVG Export Plug-In . SVG Version: 6.00 Build 0)  -->
<svg version="1.1" id="Layer_1" xmlns="http://www.w3.org/2000/svg" xmlns:xlink="http://www.w3.org/1999/xlink" x="0px" y="0px"
	 viewBox="0 0 512 256" style="enable-background:new 0 0 512 256;" xml:space="preserve">
<style type="text/css">
	.st0{fill:none;stroke:#324D5C;stroke-width:4;stroke-linecap:round;stroke-linejoin:round;stroke-miterlimit:10;}
	.st1{fill:#46B39D;}
	.st2{fill:#DE5B49;}
</style>
<polygon class="st0" points="117.6,22.1 208.1,179.9 26.1,179.4 "/>
<circle class="st1" cx="27" cy="179" r="6"/>
<circle class="st1" cx="207" cy="179" r="6"/>
<circle class="st1" cx="117" cy="22" r="6"/>
<polygon class="st0" points="285,169 390,25 446,189 "/>
<polyline class="st0" points="285,169 394,131 390,25 "/>
<line class="st0" x1="446" y1="189" x2="394" y2="131"/>
<circle class="st1" cx="285" cy="169" r="6"/>
<circle class="st1" cx="446" cy="189" r="6"/>
<circle class="st1" cx="394" cy="131" r="6"/>
<circle class="st1" cx="390" cy="25" r="6"/>
<g>
	<path class="st2" d="M60.4,229.6c0-0.7,0.1-1.4,0.2-2.1c0.1-0.6,0.4-1.3,0.7-1.9c0.3-0.6,0.8-1.3,1.5-1.9c0.6-0.6,1.4-1.3,2.5-2.1
		c0.6-0.4,1.1-0.8,1.4-1.1c0.4-0.3,0.7-0.6,0.9-0.9c0.2-0.3,0.4-0.6,0.5-0.9c0.1-0.3,0.1-0.6,0.1-0.9c0-0.4-0.1-0.7-0.2-1
		c-0.1-0.3-0.3-0.5-0.5-0.6c-0.2-0.2-0.4-0.3-0.7-0.3c-0.3-0.1-0.6-0.1-0.9-0.1c-0.7,0-1.3,0.2-1.7,0.6c-0.4,0.4-0.6,1.1-0.6,2.2h-3
		c0-1.7,0.5-3.1,1.4-4c0.9-1,2.2-1.5,3.8-1.5c0.8,0,1.5,0.1,2.2,0.3c0.7,0.2,1.2,0.5,1.7,0.9c0.5,0.4,0.8,0.9,1.1,1.5
		c0.3,0.6,0.4,1.3,0.4,2.1c0,0.6-0.1,1.2-0.2,1.7c-0.2,0.5-0.4,1-0.8,1.5c-0.4,0.5-0.8,1-1.4,1.5c-0.6,0.5-1.3,1-2.2,1.7
		c-0.6,0.4-1.1,0.9-1.5,1.5c-0.4,0.5-0.6,1-0.7,1.4h6.9v2.7H60.4z"/>
	<path class="st2" d="M71.9,229.6v-15.9h6.2c1.1,0,2.1,0.2,3,0.5c0.9,0.4,1.7,0.9,2.3,1.5s1.2,1.5,1.5,2.4c0.4,1,0.6,2,0.6,3.3
		s-0.2,2.3-0.5,3.3c-0.3,1-0.8,1.9-1.4,2.6s-1.3,1.3-2.2,1.7c-0.8,0.4-1.8,0.6-2.8,0.6H71.9z M77.9,226.9c1.5,0,2.5-0.5,3.2-1.4
		c0.7-0.9,1-2.3,1-4.1c0-0.9-0.1-1.7-0.2-2.3c-0.2-0.6-0.4-1.2-0.8-1.6s-0.8-0.7-1.4-0.9c-0.6-0.2-1.2-0.3-2-0.3h-2.5v10.5H77.9z"/>
	<path class="st2" d="M86.1,221.5v-3.2h3.3v3.2H86.1z M86.1,229.6v-3.2h3.3v3.2H86.1z"/>
	<path class="st2" d="M100.6,229.6v-13.2h-4.8v-2.8h13v2.8H104v13.2H100.6z"/>
	<path class="st2" d="M109,229.6v-11.8h2.9v1.4c0.3-0.4,0.5-0.7,0.8-0.9c0.3-0.2,0.6-0.4,0.9-0.5c0.3-0.1,0.6-0.2,0.9-0.2
		c0.3,0,0.6,0,0.9,0h0.4v3.2c-0.3,0-0.6-0.1-0.9-0.1c-1.9,0-2.9,1-2.9,2.9v6.1H109z"/>
	<path class="st2" d="M116.6,216.4v-2.9h3.1v2.9H116.6z M116.6,229.6v-11.8h3.1v11.8H116.6z"/>
	<path class="st2" d="M128.5,229.6c-0.1-0.3-0.2-0.7-0.2-1.1c-0.4,0.4-0.9,0.7-1.5,1c-0.6,0.2-1.3,0.4-2.1,0.4c-1.4,0-2.4-0.3-3-0.9
		c-0.6-0.6-0.9-1.4-0.9-2.3c0-0.8,0.1-1.5,0.4-2c0.3-0.5,0.6-0.9,1.1-1.2c0.5-0.3,1.1-0.5,1.7-0.6c0.7-0.1,1.4-0.3,2.2-0.4
		c0.8-0.1,1.3-0.3,1.6-0.4s0.4-0.5,0.4-0.9c0-0.4-0.2-0.7-0.5-0.9c-0.4-0.2-0.8-0.3-1.5-0.3c-0.7,0-1.2,0.2-1.5,0.5
		c-0.3,0.3-0.5,0.7-0.6,1.3h-2.9c0-0.6,0.1-1.2,0.3-1.7c0.2-0.5,0.5-1,0.9-1.3c0.4-0.4,0.9-0.7,1.6-0.9c0.7-0.2,1.5-0.3,2.4-0.3
		c0.9,0,1.7,0.1,2.4,0.3s1.2,0.5,1.6,0.9c0.4,0.4,0.7,0.9,0.9,1.5c0.2,0.6,0.3,1.2,0.3,2v7.5H128.5z M128.2,223.8
		c-0.2,0.2-0.4,0.3-0.7,0.4c-0.3,0.1-0.7,0.2-1.3,0.3c-0.9,0.2-1.5,0.4-1.8,0.7c-0.3,0.3-0.5,0.7-0.5,1.2c0,0.9,0.5,1.3,1.5,1.3
		c0.4,0,0.8-0.1,1.1-0.2c0.3-0.1,0.6-0.3,0.9-0.6c0.2-0.2,0.4-0.5,0.6-0.8c0.2-0.3,0.2-0.6,0.2-1L128.2,223.8z"/>
	<path class="st2" d="M140.2,229.6v-7.2c0-0.9-0.2-1.5-0.5-1.8c-0.3-0.3-0.8-0.5-1.6-0.5c-1.6,0-2.4,0.9-2.4,2.7v6.8h-3.1v-11.8h3
		v1.7c0.4-0.7,0.9-1.2,1.5-1.5c0.6-0.3,1.4-0.5,2.4-0.5c0.6,0,1.1,0.1,1.6,0.3s0.9,0.4,1.2,0.8c0.3,0.3,0.6,0.7,0.8,1.2
		s0.3,1.1,0.3,1.7v8.2H140.2z"/>
	<path class="st2" d="M152.8,228c-0.2,0.5-0.6,0.9-1.2,1.2c-0.6,0.3-1.3,0.4-2,0.4c-1,0-1.8-0.2-2.5-0.5s-1.2-0.8-1.6-1.4
		c-0.4-0.6-0.7-1.2-0.9-1.9c-0.2-0.7-0.3-1.5-0.3-2.3c0-0.9,0.1-1.7,0.4-2.5c0.3-0.8,0.6-1.4,1.1-1.9c0.5-0.5,1-1,1.6-1.2
		s1.3-0.4,2-0.4c1.5,0,2.6,0.6,3.3,1.8v-1.5h3.1v11.9c0,0.9-0.2,1.7-0.5,2.4c-0.3,0.7-0.7,1.2-1.2,1.7c-0.5,0.5-1.2,0.8-1.9,1
		c-0.7,0.2-1.5,0.4-2.3,0.4c-0.8,0-1.6-0.1-2.3-0.3c-0.7-0.2-1.3-0.6-1.8-1s-0.9-0.9-1.2-1.5s-0.4-1.3-0.4-2.1h2.9
		c0,0.7,0.2,1.3,0.7,1.7c0.5,0.4,1.1,0.6,1.9,0.6c0.8,0,1.5-0.2,2.1-0.7c0.6-0.5,0.9-1.1,0.9-1.9V228z M150.2,227.3
		c0.8,0,1.4-0.3,1.9-0.9c0.5-0.6,0.8-1.4,0.8-2.4c0-2.5-0.9-3.8-2.7-3.8s-2.7,1.2-2.7,3.6c0,1.1,0.3,1.9,0.8,2.5
		S149.4,227.3,150.2,227.3z"/>
	<path class="st2" d="M157.2,229.6v-16.1h3.1v16.1H157.2z"/>
	<path class="st2" d="M164.4,224.5c0,0.9,0.3,1.6,0.8,2.1c0.5,0.5,1.1,0.8,1.9,0.8c0.5,0,1-0.1,1.4-0.3c0.4-0.2,0.6-0.6,0.8-1h3.2
		c-0.4,1.2-1,2.2-1.9,2.8c-0.9,0.7-2,1-3.3,1c-3.9,0-5.9-2.1-5.9-6.4c0-0.9,0.1-1.7,0.4-2.5c0.3-0.7,0.6-1.4,1.1-1.9
		c0.5-0.5,1.1-0.9,1.8-1.2c0.7-0.3,1.5-0.4,2.4-0.4c1.8,0,3.2,0.6,4.1,1.8s1.4,2.9,1.4,5.3H164.4z M169.3,222.6
		c0-0.4-0.1-0.8-0.2-1.1c-0.1-0.3-0.3-0.6-0.5-0.8s-0.5-0.4-0.8-0.5c-0.3-0.1-0.6-0.2-0.9-0.2c-0.6,0-1.2,0.2-1.6,0.7
		s-0.7,1.1-0.8,1.9H169.3z"/>
</g>
<g>
	<path class="st2" d="M294.7,220.3c0.7,0,1.2-0.1,1.6-0.2c0.4-0.1,0.8-0.3,1-0.5c0.2-0.2,0.4-0.4,0.5-0.7c0.1-0.3,0.1-0.5,0.1-0.8
		c0-0.8-0.2-1.4-0.5-1.8s-0.9-0.6-1.6-0.6c-0.6,0-1.1,0.2-1.5,0.7s-0.6,1.1-0.6,1.9h-2.9c0-0.8,0.1-1.5,0.4-2.1
		c0.2-0.6,0.6-1.2,1.1-1.6c0.5-0.4,1-0.8,1.6-1c0.6-0.2,1.3-0.4,2.1-0.4c0.7,0,1.3,0.1,1.9,0.3c0.6,0.2,1.1,0.5,1.6,0.9
		c0.4,0.4,0.8,0.8,1.1,1.4s0.4,1.1,0.4,1.8c0,0.7-0.2,1.4-0.5,2.1c-0.3,0.6-0.8,1.2-1.4,1.5c0.8,0.3,1.4,0.8,1.8,1.5
		c0.4,0.6,0.6,1.5,0.6,2.5c0,0.8-0.1,1.5-0.4,2.2c-0.3,0.6-0.7,1.2-1.2,1.6c-0.5,0.4-1.1,0.8-1.8,1c-0.7,0.2-1.4,0.4-2.3,0.4
		c-1.7,0-3-0.5-3.9-1.4c-0.9-0.9-1.4-2.2-1.4-3.8h3c0,0.9,0.2,1.6,0.6,2c0.4,0.4,1,0.6,1.8,0.6c0.7,0,1.2-0.2,1.6-0.7s0.6-1.1,0.6-2
		c0-0.9-0.3-1.6-0.8-1.9c-0.5-0.4-1.5-0.6-2.7-0.6V220.3z"/>
	<path class="st2" d="M302.2,229.6v-15.9h6.2c1.1,0,2.1,0.2,3,0.5c0.9,0.4,1.7,0.9,2.3,1.5c0.6,0.7,1.2,1.5,1.5,2.4s0.6,2,0.6,3.3
		s-0.2,2.3-0.5,3.3s-0.8,1.9-1.4,2.6c-0.6,0.7-1.3,1.3-2.2,1.7c-0.8,0.4-1.8,0.6-2.8,0.6H302.2z M308.2,226.9c1.5,0,2.5-0.5,3.2-1.4
		c0.7-0.9,1-2.3,1-4.1c0-0.9-0.1-1.7-0.2-2.3c-0.2-0.6-0.4-1.2-0.8-1.6s-0.8-0.7-1.4-0.9c-0.6-0.2-1.2-0.3-2-0.3h-2.5v10.5H308.2z"
		/>
	<path class="st2" d="M316.5,221.5v-3.2h3.3v3.2H316.5z M316.5,229.6v-3.2h3.3v3.2H316.5z"/>
	<path class="st2" d="M331,229.6v-13.2h-4.8v-2.8h13v2.8h-4.8v13.2H331z"/>
	<path class="st2" d="M339.9,224.5c0,0.9,0.3,1.6,0.8,2.1c0.5,0.5,1.1,0.8,1.9,0.8c0.5,0,1-0.1,1.4-0.3c0.4-0.2,0.6-0.6,0.8-1h3.2
		c-0.4,1.2-1,2.2-1.9,2.8c-0.9,0.7-2,1-3.3,1c-3.9,0-5.9-2.1-5.9-6.4c0-0.9,0.1-1.7,0.4-2.5s0.6-1.4,1.1-1.9
		c0.5-0.5,1.1-0.9,1.8-1.2c0.7-0.3,1.5-0.4,2.4-0.4c1.8,0,3.2,0.6,4.1,1.8s1.4,2.9,1.4,5.3H339.9z M344.9,222.6
		c0-0.4-0.1-0.8-0.2-1.1c-0.1-0.3-0.3-0.6-0.5-0.8s-0.5-0.4-0.8-0.5c-0.3-0.1-0.6-0.2-0.9-0.2c-0.6,0-1.2,0.2-1.6,0.7
		c-0.5,0.5-0.7,1.1-0.8,1.9H344.9z"/>
	<path class="st2" d="M355.7,221.9h2.9v3.4c0,0.6-0.1,1.2-0.3,1.8c-0.2,0.6-0.5,1.1-0.9,1.5c-0.4,0.4-0.9,0.8-1.5,1
		c-0.6,0.3-1.3,0.4-2.1,0.4c-0.9,0-1.6-0.1-2.2-0.4c-0.6-0.3-1.1-0.6-1.5-1c-0.4-0.4-0.7-0.9-0.9-1.5s-0.3-1.2-0.3-1.8v-10.6h3.1
		v3.2h6.5v2.2h-6.5v4.8c0,0.8,0.1,1.3,0.4,1.7c0.3,0.4,0.7,0.6,1.4,0.6c0.6,0,1.1-0.2,1.4-0.6c0.3-0.4,0.4-1,0.4-1.7V221.9z"/>
	<path class="st2" d="M359.8,229.6v-11.8h2.9v1.4c0.3-0.4,0.5-0.7,0.8-0.9c0.3-0.2,0.6-0.4,0.9-0.5c0.3-0.1,0.6-0.2,0.9-0.2
		c0.3,0,0.6,0,0.9,0h0.4v3.2c-0.3,0-0.6-0.1-0.9-0.1c-1.9,0-2.9,1-2.9,2.9v6.1H359.8z"/>
	<path class="st2" d="M374.3,229.6c-0.1-0.3-0.2-0.7-0.2-1.1c-0.4,0.4-0.9,0.7-1.5,1c-0.6,0.2-1.3,0.4-2.1,0.4c-1.4,0-2.4-0.3-3-0.9
		c-0.6-0.6-0.9-1.4-0.9-2.3c0-0.8,0.1-1.5,0.4-2s0.6-0.9,1.1-1.2c0.5-0.3,1.1-0.5,1.7-0.6c0.7-0.1,1.4-0.3,2.2-0.4
		c0.8-0.1,1.3-0.3,1.6-0.4c0.3-0.2,0.4-0.5,0.4-0.9c0-0.4-0.2-0.7-0.5-0.9c-0.4-0.2-0.8-0.3-1.5-0.3c-0.7,0-1.2,0.2-1.5,0.5
		c-0.3,0.3-0.5,0.7-0.6,1.3H367c0-0.6,0.1-1.2,0.3-1.7c0.2-0.5,0.5-1,0.9-1.3s0.9-0.7,1.6-0.9c0.7-0.2,1.5-0.3,2.4-0.3
		c0.9,0,1.7,0.1,2.4,0.3s1.2,0.5,1.6,0.9c0.4,0.4,0.7,0.9,0.9,1.5c0.2,0.6,0.3,1.2,0.3,2v7.5H374.3z M374.1,223.8
		c-0.2,0.2-0.4,0.3-0.7,0.4c-0.3,0.1-0.7,0.2-1.3,0.3c-0.9,0.2-1.5,0.4-1.8,0.7c-0.3,0.3-0.5,0.7-0.5,1.2c0,0.9,0.5,1.3,1.5,1.3
		c0.4,0,0.8-0.1,1.1-0.2s0.6-0.3,0.9-0.6c0.2-0.2,0.4-0.5,0.6-0.8c0.2-0.3,0.2-0.6,0.2-1L374.1,223.8z"/>
	<path class="st2" d="M386,229.6v-7.3c0-0.9-0.2-1.5-0.5-1.8c-0.3-0.3-0.8-0.5-1.5-0.5c-0.4,0-0.7,0.1-1,0.2
		c-0.3,0.2-0.6,0.4-0.8,0.6s-0.4,0.6-0.5,0.9c-0.1,0.3-0.2,0.7-0.2,1.1v6.8h-3.1v-16.1h3.1v5.9c0.1-0.3,0.3-0.5,0.5-0.7
		c0.2-0.2,0.5-0.4,0.8-0.6c0.3-0.2,0.6-0.3,1-0.4c0.4-0.1,0.8-0.1,1.2-0.1c1.2,0,2.2,0.3,3,1s1.1,1.6,1.1,2.8v8.4H386z"/>
	<path class="st2" d="M393.3,224.5c0,0.9,0.3,1.6,0.8,2.1c0.5,0.5,1.1,0.8,1.9,0.8c0.5,0,1-0.1,1.4-0.3c0.4-0.2,0.6-0.6,0.8-1h3.2
		c-0.4,1.2-1,2.2-1.9,2.8c-0.9,0.7-2,1-3.3,1c-3.9,0-5.9-2.1-5.9-6.4c0-0.9,0.1-1.7,0.4-2.5s0.6-1.4,1.1-1.9
		c0.5-0.5,1.1-0.9,1.8-1.2c0.7-0.3,1.5-0.4,2.4-0.4c1.8,0,3.2,0.6,4.1,1.8s1.4,2.9,1.4,5.3H393.3z M398.2,222.6
		c0-0.4-0.1-0.8-0.2-1.1c-0.1-0.3-0.3-0.6-0.5-0.8s-0.5-0.4-0.8-0.5c-0.3-0.1-0.6-0.2-0.9-0.2c-0.6,0-1.2,0.2-1.6,0.7
		c-0.5,0.5-0.7,1.1-0.8,1.9H398.2z"/>
	<path class="st2" d="M410.5,229.6l0-1.4c-0.7,1.2-1.8,1.8-3.3,1.8c-0.8,0-1.4-0.1-2.1-0.4c-0.6-0.3-1.2-0.7-1.6-1.2s-0.8-1.2-1.1-2
		c-0.3-0.8-0.4-1.7-0.4-2.7c0-0.9,0.1-1.7,0.3-2.5c0.2-0.7,0.5-1.4,0.9-1.9s0.9-1,1.5-1.3c0.6-0.3,1.3-0.4,2.1-0.4
		c1.5,0,2.6,0.6,3.5,1.8v-5.9h3.1v16.1H410.5z M407.9,227.4c0.8,0,1.4-0.3,1.9-0.9s0.8-1.4,0.8-2.4c0-2.6-0.9-3.8-2.6-3.8
		c-1.8,0-2.7,1.2-2.7,3.6c0,1.1,0.2,1.9,0.7,2.6S407.2,227.4,407.9,227.4z"/>
	<path class="st2" d="M414.8,229.6v-11.8h2.9v1.4c0.3-0.4,0.5-0.7,0.8-0.9c0.3-0.2,0.6-0.4,0.9-0.5c0.3-0.1,0.6-0.2,0.9-0.2
		c0.3,0,0.6,0,0.9,0h0.4v3.2c-0.3,0-0.6-0.1-0.9-0.1c-1.9,0-2.9,1-2.9,2.9v6.1H414.8z"/>
	<path class="st2" d="M427.5,229.9c-1,0-1.8-0.2-2.6-0.5s-1.4-0.7-1.9-1.3s-0.9-1.2-1.2-2c-0.3-0.8-0.4-1.6-0.4-2.5
		c0-0.9,0.1-1.8,0.4-2.5c0.3-0.8,0.7-1.4,1.2-2c0.5-0.5,1.2-1,1.9-1.3s1.6-0.4,2.5-0.4c0.9,0,1.8,0.1,2.5,0.4
		c0.7,0.3,1.4,0.7,1.9,1.2c0.5,0.5,0.9,1.2,1.2,2c0.3,0.8,0.4,1.6,0.4,2.6c0,0.9-0.1,1.8-0.4,2.6c-0.3,0.8-0.7,1.4-1.2,2
		c-0.5,0.5-1.2,1-1.9,1.3S428.4,229.9,427.5,229.9z M427.5,227.3c1.9,0,2.9-1.2,2.9-3.6c0-2.4-1-3.6-2.9-3.6s-2.9,1.2-2.9,3.6
		C424.7,226.1,425.6,227.3,427.5,227.3z"/>
	<path class="st2" d="M442.1,229.6v-7.2c0-0.9-0.2-1.5-0.5-1.8c-0.3-0.3-0.8-0.5-1.6-0.5c-1.6,0-2.4,0.9-2.4,2.7v6.8h-3.1v-11.8h3
		v1.7c0.4-0.7,0.9-1.2,1.5-1.5c0.6-0.3,1.4-0.5,2.4-0.5c0.6,0,1.1,0.1,1.6,0.3c0.5,0.2,0.9,0.4,1.2,0.8s0.6,0.7,0.8,1.2
		c0.2,0.5,0.3,1.1,0.3,1.7v8.2H442.1z"/>
</g>
</svg>
