<?xml version="1.0" encoding="utf-8"?>
<!-- Generator: Adobe Illustrator 21.0.2, SVG Export Plug-In . SVG Version: 6.00 Build 0)  -->
<svg version="1.1" id="Layer_1" xmlns="http://www.w3.org/2000/svg" xmlns:xlink="http://www.w3.org/1999/xlink" x="0px" y="0px"
	 viewBox="0 0 512 256" style="enable-background:new 0 0 512 256;" xml:space="preserve">
<style type="text/css">
	.st0{fill:none;stroke:#88c0d0;stroke-width:4;stroke-linecap:round;stroke-linejoin:round;stroke-miterlimit:10;}
	.st1{fill:none;stroke:#8fbcbb;stroke-width:4;stroke-linecap:round;stroke-linejoin:round;stroke-miterlimit:10;}
	.st2{fill:none;stroke:#bf616a;stroke-width:4;stroke-linecap:round;stroke-linejoin:round;stroke-miterlimit:10;}
	.st3{fill:#ebcb8b;}
	.st4{fill:none;stroke:#d08770;stroke-width:4;stroke-linecap:round;stroke-linejoin:round;}
	.st5{fill:#d08770;}
	.st6{fill:none;stroke:#ebcb8b;stroke-width:4;stroke-linecap:round;stroke-linejoin:round;stroke-miterlimit:10;}
</style>
<line class="st0" x1="366" y1="46" x2="366" y2="230"/>
<line class="st0" x1="212" y1="157" x2="448" y2="157"/>
<rect x="37" y="26" class="st0" width="83" height="52"/>
<polygon class="st1" points="86,63 163,49 110,132 "/>
<polyline class="st2" points="224.5,151.7 305.7,63.5 386.8,63.5 411.5,120 411.5,171.1 321.5,187 224.5,187 224.5,151.7 "/>
<g>
	<line class="st3" x1="152" y1="126" x2="108" y2="207"/>
	<g>
		<line class="st4" x1="140.5" y1="147.2" x2="108" y2="207"/>
		<g>
			<path class="st5" d="M152,126c-9.1,8-22.2,16.9-33,21l20,3l13.4,15.1C149.9,153.8,150.3,138,152,126z"/>
		</g>
	</g>
</g>
<g>
	<path class="st5" d="M84.3,237.1v-15.9h6.2c1.1,0,2.1,0.2,3,0.5c0.9,0.4,1.7,0.9,2.3,1.5s1.2,1.5,1.5,2.4c0.4,1,0.6,2,0.6,3.3
		s-0.2,2.3-0.5,3.3c-0.3,1-0.8,1.9-1.4,2.6s-1.3,1.3-2.2,1.7c-0.8,0.4-1.8,0.6-2.8,0.6H84.3z M90.3,234.4c1.5,0,2.5-0.5,3.2-1.4
		c0.7-0.9,1-2.3,1-4.1c0-0.9-0.1-1.7-0.2-2.3c-0.2-0.6-0.4-1.2-0.8-1.6s-0.8-0.7-1.4-0.9c-0.6-0.2-1.2-0.3-2-0.3h-2.5v10.5H90.3z"/>
	<path class="st5" d="M98.9,223.9V221h3.1v2.9H98.9z M98.9,237.1v-11.8h3.1v11.8H98.9z"/>
	<path class="st5" d="M103.4,237.1v-11.8h2.9v1.4c0.3-0.4,0.5-0.7,0.8-0.9c0.3-0.2,0.6-0.4,0.9-0.5c0.3-0.1,0.6-0.2,0.9-0.2
		c0.3,0,0.6,0,0.9,0h0.4v3.2c-0.3,0-0.6-0.1-0.9-0.1c-1.9,0-2.9,1-2.9,2.9v6.1H103.4z"/>
	<path class="st5" d="M113.2,232c0,0.9,0.3,1.6,0.8,2.1c0.5,0.5,1.1,0.8,1.9,0.8c0.5,0,1-0.1,1.4-0.3c0.4-0.2,0.6-0.6,0.8-1h3.2
		c-0.4,1.2-1,2.2-1.9,2.8c-0.9,0.7-2,1-3.3,1c-3.9,0-5.9-2.1-5.9-6.4c0-0.9,0.1-1.7,0.4-2.5c0.3-0.7,0.6-1.4,1.1-1.9
		c0.5-0.5,1.1-0.9,1.8-1.2c0.7-0.3,1.5-0.4,2.4-0.4c1.8,0,3.2,0.6,4.1,1.8s1.4,2.9,1.4,5.3H113.2z M118.1,230.1
		c0-0.4-0.1-0.8-0.2-1.1c-0.1-0.3-0.3-0.6-0.5-0.8s-0.5-0.4-0.8-0.5c-0.3-0.1-0.6-0.2-0.9-0.2c-0.6,0-1.2,0.2-1.6,0.7
		s-0.7,1.1-0.8,1.9H118.1z"/>
	<path class="st5" d="M132.9,232.9c-0.1,0.7-0.3,1.3-0.6,1.9c-0.3,0.6-0.7,1-1.2,1.4c-0.5,0.4-1,0.7-1.6,0.9c-0.6,0.2-1.3,0.3-2,0.3
		c-0.8,0-1.5-0.1-2.2-0.4c-0.7-0.3-1.2-0.7-1.7-1.2s-0.9-1.2-1.1-2c-0.3-0.8-0.4-1.7-0.4-2.8s0.1-2,0.4-2.7c0.3-0.8,0.6-1.4,1.1-1.9
		s1.1-0.9,1.7-1.1c0.7-0.2,1.4-0.4,2.3-0.4c0.8,0,1.5,0.1,2.1,0.3c0.6,0.2,1.2,0.5,1.7,0.9c0.5,0.4,0.8,0.9,1.1,1.4
		c0.3,0.6,0.4,1.2,0.5,1.9h-3.1c-0.1-0.6-0.3-1.1-0.7-1.4c-0.4-0.3-0.9-0.5-1.5-0.5c-0.3,0-0.6,0.1-0.9,0.2
		c-0.3,0.1-0.5,0.3-0.8,0.6c-0.2,0.3-0.4,0.6-0.5,1.1c-0.1,0.4-0.2,1-0.2,1.6c0,1.3,0.2,2.3,0.7,2.9c0.5,0.6,1,0.9,1.6,0.9
		c0.6,0,1.1-0.2,1.6-0.5c0.4-0.3,0.7-0.8,0.7-1.5H132.9z"/>
	<path class="st5" d="M140.4,229.4h2.9v3.4c0,0.6-0.1,1.2-0.3,1.8c-0.2,0.6-0.5,1.1-0.9,1.5c-0.4,0.4-0.9,0.8-1.5,1
		c-0.6,0.3-1.3,0.4-2.1,0.4c-0.9,0-1.6-0.1-2.2-0.4c-0.6-0.3-1.1-0.6-1.5-1c-0.4-0.4-0.7-0.9-0.9-1.5c-0.2-0.6-0.3-1.2-0.3-1.8
		v-10.6h3.1v3.2h6.5v2.2h-6.5v4.8c0,0.8,0.1,1.3,0.4,1.7c0.3,0.4,0.7,0.6,1.4,0.6c0.6,0,1.1-0.2,1.4-0.6c0.3-0.4,0.4-1,0.4-1.7
		V229.4z"/>
	<path class="st5" d="M144.5,223.9V221h3.1v2.9H144.5z M144.5,237.1v-11.8h3.1v11.8H144.5z"/>
	<path class="st5" d="M154.7,237.4c-1,0-1.8-0.2-2.6-0.5s-1.4-0.7-1.9-1.3c-0.5-0.5-0.9-1.2-1.2-2c-0.3-0.8-0.4-1.6-0.4-2.5
		c0-0.9,0.1-1.8,0.4-2.5c0.3-0.8,0.7-1.4,1.2-2c0.5-0.5,1.2-1,1.9-1.3s1.6-0.4,2.5-0.4c0.9,0,1.8,0.1,2.5,0.4
		c0.7,0.3,1.4,0.7,1.9,1.2c0.5,0.5,0.9,1.2,1.2,2c0.3,0.8,0.4,1.6,0.4,2.6c0,0.9-0.1,1.8-0.4,2.6c-0.3,0.8-0.7,1.4-1.2,2
		c-0.5,0.5-1.2,1-1.9,1.3S155.6,237.4,154.7,237.4z M154.7,234.8c1.9,0,2.9-1.2,2.9-3.6c0-2.4-1-3.6-2.9-3.6c-1.9,0-2.9,1.2-2.9,3.6
		C151.9,233.6,152.8,234.8,154.7,234.8z"/>
	<path class="st5" d="M169.3,237.1V230c0-0.9-0.2-1.5-0.5-1.8c-0.3-0.3-0.8-0.5-1.6-0.5c-1.6,0-2.4,0.9-2.4,2.7v6.8h-3.1v-11.8h3
		v1.7c0.4-0.7,0.9-1.2,1.5-1.5c0.6-0.3,1.4-0.5,2.4-0.5c0.6,0,1.1,0.1,1.6,0.3s0.9,0.4,1.2,0.8c0.3,0.3,0.6,0.7,0.8,1.2
		s0.3,1.1,0.3,1.7v8.2H169.3z"/>
</g>
<circle class="st3" cx="412" cy="171" r="6"/>
<g>
	<path class="st3" d="M397.4,201.9c-0.1-0.8-0.4-1.4-0.9-1.8c-0.5-0.4-1.3-0.6-2.3-0.6c-1.9,0-2.8,0.6-2.8,1.9
		c0,0.5,0.2,0.9,0.6,1.2c0.4,0.3,1,0.6,1.9,0.8c1,0.2,1.9,0.5,2.7,0.7c0.8,0.2,1.4,0.4,2.1,0.7c0.4,0.1,0.7,0.3,1,0.5
		c0.3,0.2,0.6,0.5,0.8,0.8c0.2,0.3,0.4,0.7,0.5,1.2c0.1,0.4,0.2,1,0.2,1.6c0,0.8-0.2,1.4-0.5,2c-0.3,0.6-0.8,1.1-1.3,1.5
		c-0.5,0.4-1.2,0.7-1.9,0.9c-0.7,0.2-1.5,0.3-2.3,0.3c-2.3,0-4.1-0.4-5.2-1.3s-1.8-2.2-1.8-4h3.2c0,0.8,0.3,1.5,1,1.9
		s1.5,0.7,2.4,0.7c1.1,0,1.9-0.2,2.4-0.6s0.8-0.9,0.8-1.6c0-0.3,0-0.5-0.1-0.7c-0.1-0.2-0.2-0.4-0.4-0.6c-0.2-0.2-0.4-0.3-0.8-0.5
		c-0.3-0.1-0.7-0.3-1.2-0.4c-1.2-0.3-2.3-0.5-3.2-0.8c-0.9-0.3-1.6-0.6-2.2-1c-0.6-0.4-1-0.9-1.3-1.4c-0.3-0.6-0.4-1.3-0.4-2.1
		c0-0.7,0.1-1.3,0.4-1.8c0.2-0.6,0.6-1.1,1.1-1.5s1.1-0.8,1.8-1c0.7-0.2,1.6-0.4,2.6-0.4c1,0,1.8,0.1,2.6,0.4s1.4,0.6,2,1.1
		c0.6,0.5,1,1,1.3,1.7c0.3,0.6,0.5,1.4,0.5,2.1H397.4z"/>
	<path class="st3" d="M401.9,199.9V197h3.1v2.9H401.9z M401.9,213.1v-11.8h3.1v11.8H401.9z"/>
	<path class="st3" d="M420.2,213.1V206c0-0.7-0.2-1.3-0.5-1.8c-0.3-0.4-0.8-0.7-1.3-0.7c-0.6,0-1.1,0.2-1.4,0.7
		c-0.4,0.5-0.6,1.1-0.6,1.8v7.1h-3.1V206c0-0.5,0-0.9-0.1-1.2c-0.1-0.3-0.2-0.5-0.3-0.7s-0.3-0.3-0.6-0.4s-0.5-0.1-0.9-0.1
		c-1.3,0-1.9,0.8-1.9,2.3v7.2h-3.1v-11.8h2.9v1.7c0.4-0.8,0.9-1.3,1.4-1.6c0.6-0.3,1.2-0.4,2-0.4c0.4,0,0.8,0,1.1,0.1
		c0.3,0.1,0.6,0.2,0.8,0.3c0.2,0.2,0.5,0.3,0.7,0.6c0.2,0.2,0.4,0.5,0.7,0.9c0.3-0.7,0.7-1.1,1.3-1.4c0.5-0.3,1.2-0.4,1.9-0.4
		c0.6,0,1.1,0.1,1.6,0.3c0.5,0.2,0.9,0.5,1.3,0.8c0.4,0.4,0.6,0.8,0.8,1.3c0.2,0.5,0.3,1,0.3,1.5v8.2H420.2z"/>
	<path class="st3" d="M424.5,218.7v-17.4h3l0,1.4c0.7-1.2,1.8-1.8,3.3-1.8c0.7,0,1.4,0.1,2.1,0.4c0.6,0.3,1.2,0.7,1.6,1.2
		c0.4,0.5,0.8,1.2,1.1,2c0.3,0.8,0.4,1.7,0.4,2.7c0,0.9-0.1,1.7-0.3,2.5c-0.2,0.7-0.5,1.4-0.9,1.9s-0.9,1-1.5,1.3s-1.3,0.4-2.1,0.4
		c-1.5,0-2.6-0.6-3.5-1.8v7.1H424.5z M430,210.8c1.8,0,2.7-1.2,2.7-3.6c0-1.1-0.2-1.9-0.7-2.6s-1.1-1-1.9-1c-0.8,0-1.4,0.3-1.9,0.9
		s-0.8,1.4-0.8,2.4C427.4,209.5,428.3,210.8,430,210.8z"/>
	<path class="st3" d="M436.9,213.1V197h3.1v16.1H436.9z"/>
	<path class="st3" d="M444.1,208c0,0.9,0.3,1.6,0.8,2.1c0.5,0.5,1.1,0.8,1.9,0.8c0.5,0,1-0.1,1.4-0.3s0.6-0.6,0.8-1h3.2
		c-0.4,1.2-1,2.2-1.9,2.8s-2,1-3.3,1c-3.9,0-5.9-2.1-5.9-6.4c0-0.9,0.1-1.7,0.4-2.5c0.3-0.7,0.6-1.4,1.1-1.9
		c0.5-0.5,1.1-0.9,1.8-1.2c0.7-0.3,1.5-0.4,2.4-0.4c1.8,0,3.2,0.6,4.1,1.8c0.9,1.2,1.4,2.9,1.4,5.3H444.1z M449,206.1
		c0-0.4-0.1-0.8-0.2-1.1c-0.1-0.3-0.3-0.6-0.5-0.8c-0.2-0.2-0.5-0.4-0.8-0.5c-0.3-0.1-0.6-0.2-0.9-0.2c-0.6,0-1.2,0.2-1.6,0.7
		s-0.7,1.1-0.8,1.9H449z"/>
	<path class="st3" d="M459.4,213.1l-2.1-3.6l-2,3.6h-3.7l4-6l-3.8-5.8h3.8l2,3.4l2-3.4h3.6l-3.9,5.8l4,6H459.4z"/>
</g>
<circle class="st3" cx="225" cy="152" r="6"/>
<line class="st6" x1="412" y1="171" x2="225" y2="152"/>
<circle class="st3" cx="386" cy="63" r="6"/>
<line class="st6" x1="225" y1="152" x2="386" y2="63"/>
<line class="st6" x1="412" y1="171" x2="386" y2="63"/>
<g>
</g>
<g>
</g>
<g>
</g>
<g>
</g>
<g>
</g>
<g>
</g>
<g>
</g>
<g>
</g>
<g>
</g>
<g>
</g>
<g>
</g>
<g>
</g>
</svg>
