<?xml version="1.0" encoding="utf-8"?>
<!-- Generator: Adobe Illustrator 21.0.2, SVG Export Plug-In . SVG Version: 6.00 Build 0)  -->
<svg version="1.1" id="Layer_1" xmlns="http://www.w3.org/2000/svg" xmlns:xlink="http://www.w3.org/1999/xlink" x="0px" y="0px"
	 viewBox="0 0 512 256" style="enable-background:new 0 0 512 256;" xml:space="preserve">
<style type="text/css">
	.st0{fill:none;stroke:#324D5C;stroke-width:4;stroke-linecap:round;stroke-linejoin:round;stroke-miterlimit:10;}
	.st1{fill:none;stroke:#DE5B49;stroke-width:4;stroke-linecap:round;stroke-linejoin:round;stroke-miterlimit:10;}
	.st2{fill:none;stroke:#46B39D;stroke-width:4;stroke-linecap:round;stroke-linejoin:round;stroke-miterlimit:10;}
	.st3{fill:#DE5B49;}
	.st4{fill:#46B39D;}
	.st5{fill:#324D5C;}
</style>
<line class="st0" x1="185" y1="18.5" x2="185" y2="237.5"/>
<line class="st0" x1="38" y1="128" x2="294" y2="128"/>
<polyline class="st1" points="15,134.7 112.2,29 209.4,29 239,96.7 239,158 131.2,177 15,177 15,134.7 "/>
<polygon class="st2" points="131,177 209,29 239,158 "/>
<g>
	<path d="M265.9,64.6l-0.1-1.4c-0.3,0.6-0.9,1-1.6,1.4c-0.7,0.3-1.6,0.5-2.6,0.5s-1.8-0.2-2.6-0.6c-0.8-0.4-1.4-1-2-1.7
		s-1-1.5-1.3-2.4s-0.4-1.8-0.4-2.8c0-1,0.1-2,0.4-2.9c0.3-0.9,0.7-1.7,1.3-2.4c0.6-0.7,1.3-1.2,2.1-1.6c0.9-0.4,1.8-0.6,3-0.6
		c0.8,0,1.6,0.1,2.3,0.4c0.7,0.2,1.4,0.6,1.9,1s1,0.9,1.3,1.5c0.3,0.6,0.5,1.2,0.6,1.9h-2.9c0-0.3-0.2-0.6-0.3-0.9
		c-0.2-0.3-0.4-0.5-0.7-0.7s-0.6-0.4-1-0.5c-0.4-0.1-0.8-0.2-1.1-0.2c-1.2,0-2.1,0.4-2.8,1.3c-0.7,0.9-1.1,2.1-1.1,3.8
		c0,0.6,0.1,1.2,0.2,1.7c0.1,0.6,0.4,1.1,0.7,1.6c0.3,0.5,0.7,0.9,1.2,1.1s1.1,0.4,1.7,0.4c0.5,0,0.9-0.1,1.3-0.3s0.8-0.4,1.1-0.7
		c0.3-0.3,0.5-0.6,0.7-1c0.2-0.4,0.3-0.8,0.3-1.2h-3.1v-2.3h5.8v7.5H265.9z"/>
	<path d="M271.9,60.2c0,0.8,0.3,1.4,0.7,1.9s1,0.7,1.6,0.7c0.4,0,0.8-0.1,1.2-0.3c0.3-0.2,0.6-0.5,0.7-0.9h2.8
		c-0.3,1.1-0.9,1.9-1.7,2.5s-1.8,0.9-2.9,0.9c-3.4,0-5.2-1.9-5.2-5.6c0-0.8,0.1-1.5,0.3-2.2c0.2-0.6,0.5-1.2,1-1.7
		c0.4-0.5,0.9-0.8,1.6-1.1c0.6-0.2,1.3-0.4,2.1-0.4c1.6,0,2.8,0.5,3.6,1.5s1.2,2.6,1.2,4.6H271.9z M276.2,58.4c0-0.4-0.1-0.7-0.2-1
		s-0.3-0.5-0.5-0.7c-0.2-0.2-0.4-0.3-0.7-0.4c-0.3-0.1-0.5-0.1-0.8-0.1c-0.5,0-1,0.2-1.4,0.6c-0.4,0.4-0.6,1-0.7,1.7H276.2z"/>
	<path d="M286.5,64.6v-6.3c0-0.8-0.1-1.3-0.4-1.6c-0.3-0.3-0.7-0.4-1.4-0.4c-1.4,0-2.1,0.8-2.1,2.4v5.9h-2.7V54.3h2.6v1.5
		c0.3-0.6,0.7-1,1.3-1.3s1.2-0.5,2.1-0.5c0.5,0,0.9,0.1,1.4,0.2c0.4,0.1,0.8,0.4,1.1,0.7s0.5,0.7,0.7,1.1c0.2,0.4,0.3,0.9,0.3,1.5
		v7.2H286.5z"/>
	<path d="M292.8,60.2c0,0.8,0.3,1.4,0.7,1.9s1,0.7,1.6,0.7c0.4,0,0.8-0.1,1.2-0.3c0.3-0.2,0.6-0.5,0.7-0.9h2.8
		c-0.3,1.1-0.9,1.9-1.7,2.5s-1.8,0.9-2.9,0.9c-3.4,0-5.2-1.9-5.2-5.6c0-0.8,0.1-1.5,0.3-2.2c0.2-0.6,0.5-1.2,1-1.7
		c0.4-0.5,0.9-0.8,1.6-1.1c0.6-0.2,1.3-0.4,2.1-0.4c1.6,0,2.8,0.5,3.6,1.5s1.2,2.6,1.2,4.6H292.8z M297.1,58.4c0-0.4-0.1-0.7-0.2-1
		s-0.3-0.5-0.5-0.7c-0.2-0.2-0.4-0.3-0.7-0.4c-0.3-0.1-0.5-0.1-0.8-0.1c-0.5,0-1,0.2-1.4,0.6c-0.4,0.4-0.6,1-0.7,1.7H297.1z"/>
	<path d="M300.8,64.6V54.3h2.6v1.2c0.2-0.4,0.5-0.6,0.7-0.8c0.2-0.2,0.5-0.3,0.8-0.5s0.5-0.2,0.8-0.2c0.3,0,0.5,0,0.8,0h0.4v2.8
		c-0.3,0-0.5-0.1-0.8-0.1c-1.7,0-2.5,0.8-2.5,2.5v5.4H300.8z"/>
	<path d="M307.4,53v-2.5h2.7V53H307.4z M307.4,64.6V54.3h2.7v10.3H307.4z"/>
	<path d="M320.6,60.9c-0.1,0.6-0.2,1.1-0.5,1.6c-0.3,0.5-0.6,0.9-1,1.3s-0.9,0.6-1.4,0.8s-1.1,0.3-1.8,0.3c-0.7,0-1.3-0.1-1.9-0.3
		c-0.6-0.2-1.1-0.6-1.5-1c-0.4-0.5-0.7-1-1-1.7c-0.2-0.7-0.3-1.5-0.3-2.4s0.1-1.7,0.3-2.4c0.2-0.7,0.6-1.2,1-1.6
		c0.4-0.4,0.9-0.7,1.5-1c0.6-0.2,1.3-0.3,2-0.3c0.7,0,1.3,0.1,1.8,0.3c0.6,0.2,1,0.4,1.4,0.8c0.4,0.4,0.7,0.8,1,1.3
		c0.2,0.5,0.4,1,0.4,1.6h-2.8c-0.1-0.5-0.3-0.9-0.6-1.2c-0.4-0.3-0.8-0.5-1.3-0.5c-0.3,0-0.6,0-0.8,0.1c-0.3,0.1-0.5,0.3-0.7,0.5
		c-0.2,0.2-0.3,0.5-0.5,0.9c-0.1,0.4-0.2,0.9-0.2,1.4c0,1.1,0.2,2,0.6,2.5s0.9,0.8,1.4,0.8s1-0.1,1.4-0.4s0.6-0.7,0.7-1.3H320.6z"/>
	<path d="M335.8,60.9c-0.1,0.6-0.2,1.1-0.5,1.6c-0.3,0.5-0.6,0.9-1,1.3s-0.9,0.6-1.4,0.8s-1.1,0.3-1.8,0.3c-0.7,0-1.3-0.1-1.9-0.3
		c-0.6-0.2-1.1-0.6-1.5-1c-0.4-0.5-0.7-1-1-1.7c-0.2-0.7-0.3-1.5-0.3-2.4s0.1-1.7,0.3-2.4c0.2-0.7,0.6-1.2,1-1.6
		c0.4-0.4,0.9-0.7,1.5-1c0.6-0.2,1.3-0.3,2-0.3c0.7,0,1.3,0.1,1.8,0.3c0.6,0.2,1,0.4,1.4,0.8c0.4,0.4,0.7,0.8,1,1.3
		c0.2,0.5,0.4,1,0.4,1.6h-2.8c-0.1-0.5-0.3-0.9-0.6-1.2c-0.4-0.3-0.8-0.5-1.3-0.5c-0.3,0-0.6,0-0.8,0.1c-0.3,0.1-0.5,0.3-0.7,0.5
		c-0.2,0.2-0.3,0.5-0.5,0.9c-0.1,0.4-0.2,0.9-0.2,1.4c0,1.1,0.2,2,0.6,2.5s0.9,0.8,1.4,0.8s1-0.1,1.4-0.4s0.6-0.7,0.7-1.3H335.8z"/>
	<path d="M341.6,64.9c-0.8,0-1.6-0.1-2.2-0.4s-1.2-0.6-1.7-1.1c-0.5-0.5-0.8-1.1-1-1.7s-0.4-1.4-0.4-2.2c0-0.8,0.1-1.6,0.4-2.2
		s0.6-1.2,1.1-1.7s1-0.8,1.7-1.1c0.7-0.3,1.4-0.4,2.2-0.4c0.8,0,1.5,0.1,2.2,0.4c0.6,0.3,1.2,0.6,1.6,1.1c0.5,0.5,0.8,1,1,1.7
		c0.2,0.7,0.4,1.4,0.4,2.2c0,0.8-0.1,1.6-0.4,2.2c-0.2,0.7-0.6,1.2-1,1.7c-0.5,0.5-1,0.8-1.7,1.1C343.1,64.8,342.4,64.9,341.6,64.9z
		 M341.6,62.6c1.7,0,2.5-1,2.5-3.1c0-2.1-0.8-3.1-2.5-3.1s-2.5,1-2.5,3.1C339.1,61.5,339.9,62.6,341.6,62.6z"/>
	<path d="M354.3,64.6v-6.3c0-0.8-0.1-1.3-0.4-1.6c-0.3-0.3-0.7-0.4-1.4-0.4c-1.4,0-2.1,0.8-2.1,2.4v5.9h-2.7V54.3h2.6v1.5
		c0.3-0.6,0.7-1,1.3-1.3s1.2-0.5,2.1-0.5c0.5,0,0.9,0.1,1.4,0.2c0.4,0.1,0.8,0.4,1.1,0.7s0.5,0.7,0.7,1.1c0.2,0.4,0.3,0.9,0.3,1.5
		v7.2H354.3z"/>
	<path d="M360.9,64.6l-3.7-10.3h3l2.2,6.8l2.2-6.8h2.9l-3.7,10.3H360.9z"/>
	<path d="M370,60.2c0,0.8,0.3,1.4,0.7,1.9s1,0.7,1.6,0.7c0.4,0,0.8-0.1,1.2-0.3c0.3-0.2,0.6-0.5,0.7-0.9h2.8
		c-0.3,1.1-0.9,1.9-1.7,2.5s-1.8,0.9-2.9,0.9c-3.4,0-5.2-1.9-5.2-5.6c0-0.8,0.1-1.5,0.3-2.2c0.2-0.6,0.5-1.2,1-1.7
		c0.4-0.5,0.9-0.8,1.6-1.1c0.6-0.2,1.3-0.4,2.1-0.4c1.6,0,2.8,0.5,3.6,1.5s1.2,2.6,1.2,4.6H370z M374.3,58.4c0-0.4-0.1-0.7-0.2-1
		s-0.3-0.5-0.5-0.7c-0.2-0.2-0.4-0.3-0.7-0.4c-0.3-0.1-0.5-0.1-0.8-0.1c-0.5,0-1,0.2-1.4,0.6c-0.4,0.4-0.6,1-0.7,1.7H374.3z"/>
	<path d="M383.3,64.6l-1.8-3.1l-1.8,3.1h-3.3l3.5-5.3l-3.4-5.1h3.3l1.7,3l1.8-3h3.2l-3.4,5.1l3.5,5.3H383.3z"/>
	<path class="st3" d="M392.5,69.5V54.3h2.6l0,1.3c0.6-1,1.6-1.5,2.9-1.5c0.6,0,1.2,0.1,1.8,0.4s1,0.6,1.4,1.1
		c0.4,0.5,0.7,1.1,0.9,1.7c0.2,0.7,0.3,1.5,0.3,2.3c0,0.8-0.1,1.5-0.3,2.2c-0.2,0.7-0.5,1.2-0.8,1.7s-0.8,0.8-1.3,1.1
		c-0.5,0.3-1.1,0.4-1.8,0.4c-1.3,0-2.3-0.5-3.1-1.6v6.2H392.5z M397.4,62.6c1.6,0,2.4-1.1,2.4-3.2c0-0.9-0.2-1.7-0.7-2.3
		c-0.4-0.6-1-0.9-1.7-0.9c-0.7,0-1.2,0.3-1.6,0.8c-0.4,0.5-0.7,1.3-0.7,2.1C395.1,61.4,395.8,62.6,397.4,62.6z"/>
	<path class="st3" d="M408.4,64.9c-0.8,0-1.6-0.1-2.2-0.4s-1.2-0.6-1.7-1.1c-0.5-0.5-0.8-1.1-1-1.7s-0.4-1.4-0.4-2.2
		c0-0.8,0.1-1.6,0.4-2.2s0.6-1.2,1.1-1.7s1-0.8,1.7-1.1c0.7-0.3,1.4-0.4,2.2-0.4c0.8,0,1.5,0.1,2.2,0.4c0.6,0.3,1.2,0.6,1.6,1.1
		c0.5,0.5,0.8,1,1,1.7c0.2,0.7,0.4,1.4,0.4,2.2c0,0.8-0.1,1.6-0.4,2.2c-0.2,0.7-0.6,1.2-1,1.7c-0.5,0.5-1,0.8-1.7,1.1
		C410,64.8,409.2,64.9,408.4,64.9z M408.4,62.6c1.7,0,2.5-1,2.5-3.1c0-2.1-0.8-3.1-2.5-3.1s-2.5,1-2.5,3.1
		C405.9,61.5,406.8,62.6,408.4,62.6z"/>
	<path class="st3" d="M414.6,64.6V50.5h2.7v14.1H414.6z"/>
	<path class="st3" d="M425,63.2c-0.2,0.5-0.5,0.8-1.1,1.1c-0.5,0.3-1.1,0.4-1.7,0.4c-0.5,0-1-0.1-1.5-0.3c-0.5-0.2-0.9-0.4-1.2-0.8
		c-0.3-0.3-0.6-0.7-0.8-1.2c-0.2-0.5-0.3-1-0.3-1.5v-6.7h2.7v6.3c0,1.3,0.6,1.9,1.7,1.9c0.6,0,1.1-0.2,1.5-0.5
		c0.4-0.4,0.6-0.8,0.6-1.4v-6.3h2.7v10.6c0,0.7-0.1,1.4-0.4,2c-0.2,0.6-0.6,1.1-1,1.4c-0.4,0.4-0.9,0.7-1.5,0.9
		c-0.6,0.2-1.2,0.3-1.9,0.3c-1.5,0-2.7-0.4-3.4-1.2s-1.1-1.8-1.1-3.2h2.5c0,0.6,0.2,1.1,0.5,1.4c0.4,0.3,0.9,0.5,1.6,0.5
		c0.3,0,0.5-0.1,0.7-0.2c0.2-0.1,0.4-0.3,0.6-0.4c0.2-0.2,0.3-0.4,0.4-0.7c0.1-0.3,0.2-0.6,0.2-0.9V63.2z"/>
	<path class="st3" d="M436,63.2c-0.2,0.5-0.5,0.8-1.1,1.1c-0.5,0.3-1.1,0.4-1.8,0.4c-0.9,0-1.6-0.2-2.2-0.5c-0.6-0.3-1-0.7-1.4-1.2
		c-0.4-0.5-0.6-1.1-0.8-1.7s-0.2-1.3-0.2-2c0-0.8,0.1-1.5,0.4-2.2c0.2-0.7,0.6-1.2,1-1.7c0.4-0.5,0.9-0.8,1.4-1.1
		c0.5-0.3,1.1-0.4,1.8-0.4c1.3,0,2.3,0.5,2.9,1.6v-1.3h2.7v10.4c0,0.8-0.1,1.5-0.4,2.1c-0.3,0.6-0.6,1.1-1.1,1.5s-1,0.7-1.6,0.9
		c-0.6,0.2-1.3,0.3-2,0.3s-1.4-0.1-2-0.3s-1.1-0.5-1.6-0.9c-0.4-0.4-0.8-0.8-1-1.4c-0.3-0.5-0.4-1.1-0.4-1.8h2.5
		c0,0.6,0.2,1.1,0.6,1.5s1,0.5,1.6,0.5c0.7,0,1.3-0.2,1.8-0.6s0.8-0.9,0.8-1.6V63.2z M433.7,62.6c0.7,0,1.2-0.3,1.7-0.8
		c0.4-0.5,0.7-1.2,0.7-2.1c0-2.2-0.8-3.3-2.3-3.3s-2.3,1-2.3,3.1c0,0.9,0.2,1.7,0.7,2.2C432.5,62.3,433.1,62.6,433.7,62.6z"/>
	<path class="st3" d="M444.9,64.9c-0.8,0-1.6-0.1-2.2-0.4s-1.2-0.6-1.7-1.1c-0.5-0.5-0.8-1.1-1-1.7s-0.4-1.4-0.4-2.2
		c0-0.8,0.1-1.6,0.4-2.2s0.6-1.2,1.1-1.7s1-0.8,1.7-1.1c0.7-0.3,1.4-0.4,2.2-0.4c0.8,0,1.5,0.1,2.2,0.4c0.6,0.3,1.2,0.6,1.6,1.1
		c0.5,0.5,0.8,1,1,1.7c0.2,0.7,0.4,1.4,0.4,2.2c0,0.8-0.1,1.6-0.4,2.2c-0.2,0.7-0.6,1.2-1,1.7c-0.5,0.5-1,0.8-1.7,1.1
		C446.4,64.8,445.7,64.9,444.9,64.9z M444.9,62.6c1.7,0,2.5-1,2.5-3.1c0-2.1-0.8-3.1-2.5-3.1s-2.5,1-2.5,3.1
		C442.4,61.5,443.2,62.6,444.9,62.6z"/>
	<path class="st3" d="M457.6,64.6v-6.3c0-0.8-0.1-1.3-0.4-1.6c-0.3-0.3-0.7-0.4-1.4-0.4c-1.4,0-2.1,0.8-2.1,2.4v5.9H451V54.3h2.6
		v1.5c0.3-0.6,0.7-1,1.3-1.3s1.2-0.5,2.1-0.5c0.5,0,0.9,0.1,1.4,0.2c0.4,0.1,0.8,0.4,1.1,0.7s0.5,0.7,0.7,1.1
		c0.2,0.4,0.3,0.9,0.3,1.5v7.2H457.6z"/>
	<path class="st4" d="M259.3,89.8V78.3h-4.2v-2.4h11.3v2.4h-4.2v11.5H259.3z"/>
	<path class="st4" d="M266.6,89.8V79.5h2.6v1.2c0.2-0.4,0.5-0.6,0.7-0.8c0.2-0.2,0.5-0.3,0.8-0.5s0.5-0.2,0.8-0.2c0.3,0,0.5,0,0.8,0
		h0.4V82c-0.3,0-0.5-0.1-0.8-0.1c-1.7,0-2.5,0.8-2.5,2.5v5.4H266.6z"/>
	<path class="st4" d="M273.3,78.2v-2.5h2.7v2.5H273.3z M273.3,89.8V79.5h2.7v10.3H273.3z"/>
	<path class="st4" d="M283.6,89.8c-0.1-0.3-0.1-0.6-0.2-0.9c-0.3,0.4-0.7,0.7-1.3,0.9c-0.5,0.2-1.1,0.3-1.8,0.3
		c-1.2,0-2.1-0.3-2.6-0.8c-0.6-0.5-0.8-1.2-0.8-2c0-0.7,0.1-1.3,0.4-1.8s0.6-0.8,1-1s0.9-0.4,1.5-0.6c0.6-0.1,1.2-0.2,1.9-0.3
		c0.7-0.1,1.1-0.2,1.4-0.4c0.2-0.2,0.4-0.4,0.4-0.8c0-0.3-0.2-0.6-0.5-0.8c-0.3-0.2-0.7-0.3-1.3-0.3c-0.6,0-1.1,0.1-1.4,0.4
		c-0.3,0.3-0.4,0.7-0.5,1.1h-2.5c0-0.5,0.1-1,0.3-1.5c0.2-0.4,0.4-0.8,0.8-1.2c0.4-0.3,0.8-0.6,1.4-0.7c0.6-0.2,1.3-0.3,2.1-0.3
		c0.8,0,1.5,0.1,2.1,0.3c0.6,0.2,1,0.4,1.4,0.8c0.3,0.3,0.6,0.8,0.7,1.3c0.2,0.5,0.2,1.1,0.2,1.7v6.5H283.6z M283.4,84.7
		c-0.1,0.1-0.3,0.3-0.6,0.3s-0.7,0.2-1.2,0.3c-0.8,0.2-1.3,0.4-1.6,0.6c-0.3,0.2-0.4,0.6-0.4,1c0,0.8,0.4,1.2,1.3,1.2
		c0.3,0,0.7-0.1,1-0.2c0.3-0.1,0.6-0.3,0.8-0.5c0.2-0.2,0.4-0.4,0.5-0.7s0.2-0.6,0.2-0.9L283.4,84.7z"/>
	<path class="st4" d="M293.9,89.8v-6.3c0-0.8-0.1-1.3-0.4-1.6c-0.3-0.3-0.7-0.4-1.4-0.4c-1.4,0-2.1,0.8-2.1,2.4v5.9h-2.7V79.5h2.6
		V81c0.3-0.6,0.7-1,1.3-1.3s1.2-0.5,2.1-0.5c0.5,0,0.9,0.1,1.4,0.2c0.4,0.1,0.8,0.4,1.1,0.7s0.5,0.7,0.7,1.1
		c0.2,0.4,0.3,0.9,0.3,1.5v7.2H293.9z"/>
	<path class="st4" d="M304.9,88.4c-0.2,0.5-0.5,0.8-1.1,1.1c-0.5,0.3-1.1,0.4-1.8,0.4c-0.9,0-1.6-0.2-2.2-0.5
		c-0.6-0.3-1-0.7-1.4-1.2c-0.4-0.5-0.6-1.1-0.8-1.7s-0.2-1.3-0.2-2c0-0.8,0.1-1.5,0.4-2.2c0.2-0.7,0.6-1.2,1-1.7
		c0.4-0.5,0.9-0.8,1.4-1.1c0.5-0.3,1.1-0.4,1.8-0.4c1.3,0,2.3,0.5,2.9,1.6v-1.3h2.7v10.4c0,0.8-0.1,1.5-0.4,2.1
		c-0.3,0.6-0.6,1.1-1.1,1.5s-1,0.7-1.6,0.9c-0.6,0.2-1.3,0.3-2,0.3s-1.4-0.1-2-0.3s-1.1-0.5-1.6-0.9c-0.4-0.4-0.8-0.8-1-1.4
		c-0.3-0.5-0.4-1.1-0.4-1.8h2.5c0,0.6,0.2,1.1,0.6,1.5s1,0.5,1.6,0.5c0.7,0,1.3-0.2,1.8-0.6s0.8-0.9,0.8-1.6V88.4z M302.7,87.8
		c0.7,0,1.2-0.3,1.7-0.8c0.4-0.5,0.7-1.2,0.7-2.1c0-2.2-0.8-3.3-2.3-3.3s-2.3,1-2.3,3.1c0,0.9,0.2,1.7,0.7,2.2
		C301.4,87.5,302,87.8,302.7,87.8z"/>
	<path class="st4" d="M308.7,89.8V75.7h2.7v14.1H308.7z"/>
	<path class="st4" d="M315,85.4c0,0.8,0.3,1.4,0.7,1.9s1,0.7,1.6,0.7c0.4,0,0.8-0.1,1.2-0.3c0.3-0.2,0.6-0.5,0.7-0.9h2.8
		c-0.3,1.1-0.9,1.9-1.7,2.5s-1.8,0.9-2.9,0.9c-3.4,0-5.2-1.9-5.2-5.6c0-0.8,0.1-1.5,0.3-2.2c0.2-0.6,0.5-1.2,1-1.7
		c0.4-0.5,0.9-0.8,1.6-1.1c0.6-0.2,1.3-0.4,2.1-0.4c1.6,0,2.8,0.5,3.6,1.5s1.2,2.6,1.2,4.6H315z M319.3,83.6c0-0.4-0.1-0.7-0.2-1
		s-0.3-0.5-0.5-0.7c-0.2-0.2-0.4-0.3-0.7-0.4c-0.3-0.1-0.5-0.1-0.8-0.1c-0.5,0-1,0.2-1.4,0.6c-0.4,0.4-0.6,1-0.7,1.7H319.3z"/>
	<path d="M336.7,89.8l-1.6-6l-1.6,6h-2.8l-2.9-10.3h2.9l1.7,6.6l1.4-6.6h2.8l1.6,6.6l1.6-6.6h2.8l-3,10.3H336.7z"/>
	<path d="M343.2,78.2v-2.5h2.7v2.5H343.2z M343.2,89.8V79.5h2.7v10.3H343.2z"/>
	<path d="M352.9,83h2.5v2.9c0,0.5-0.1,1.1-0.2,1.6s-0.4,0.9-0.8,1.3c-0.3,0.4-0.8,0.7-1.3,0.9s-1.2,0.3-1.9,0.3
		c-0.8,0-1.4-0.1-1.9-0.3s-1-0.5-1.3-0.9c-0.3-0.4-0.6-0.8-0.7-1.3c-0.2-0.5-0.2-1-0.2-1.6v-9.2h2.7v2.8h5.7v1.9h-5.7v4.2
		c0,0.7,0.1,1.2,0.4,1.5c0.2,0.4,0.6,0.5,1.2,0.5c0.5,0,0.9-0.2,1.2-0.5c0.3-0.3,0.4-0.8,0.4-1.5V83z"/>
	<path d="M363,89.8v-6.4c0-0.8-0.1-1.3-0.4-1.6c-0.3-0.3-0.7-0.4-1.4-0.4c-0.3,0-0.6,0.1-0.9,0.2c-0.3,0.1-0.5,0.3-0.7,0.5
		c-0.2,0.2-0.3,0.5-0.4,0.8c-0.1,0.3-0.1,0.6-0.1,1v5.9h-2.7V75.7h2.7v5.1c0.1-0.2,0.2-0.4,0.5-0.6c0.2-0.2,0.4-0.4,0.7-0.5
		c0.3-0.1,0.6-0.3,0.9-0.3c0.3-0.1,0.7-0.1,1-0.1c1.1,0,1.9,0.3,2.6,0.9s1,1.4,1,2.4v7.3H363z"/>
	<path d="M366.9,78.2v-2.5h2.7v2.5H366.9z M366.9,89.8V79.5h2.7v10.3H366.9z"/>
	<path d="M377.4,89.8v-6.3c0-0.8-0.1-1.3-0.4-1.6c-0.3-0.3-0.7-0.4-1.4-0.4c-1.4,0-2.1,0.8-2.1,2.4v5.9h-2.7V79.5h2.6V81
		c0.3-0.6,0.7-1,1.3-1.3s1.2-0.5,2.1-0.5c0.5,0,0.9,0.1,1.4,0.2c0.4,0.1,0.8,0.4,1.1,0.7s0.5,0.7,0.7,1.1c0.2,0.4,0.3,0.9,0.3,1.5
		v7.2H377.4z"/>
	<path class="st3" d="M386.5,94.7V79.5h2.6l0,1.3c0.6-1,1.6-1.5,2.9-1.5c0.6,0,1.2,0.1,1.8,0.4s1,0.6,1.4,1.1
		c0.4,0.5,0.7,1.1,0.9,1.7c0.2,0.7,0.3,1.5,0.3,2.3c0,0.8-0.1,1.5-0.3,2.2c-0.2,0.7-0.5,1.2-0.8,1.7s-0.8,0.8-1.3,1.1
		c-0.5,0.3-1.1,0.4-1.8,0.4c-1.3,0-2.3-0.5-3.1-1.6v6.2H386.5z M391.3,87.8c1.6,0,2.4-1.1,2.4-3.2c0-0.9-0.2-1.7-0.7-2.3
		c-0.4-0.6-1-0.9-1.7-0.9c-0.7,0-1.2,0.3-1.6,0.8c-0.4,0.5-0.7,1.3-0.7,2.1C389.1,86.6,389.8,87.8,391.3,87.8z"/>
	<path class="st3" d="M402.4,90.1c-0.8,0-1.6-0.1-2.2-0.4s-1.2-0.6-1.7-1.1c-0.5-0.5-0.8-1.1-1-1.7s-0.4-1.4-0.4-2.2
		c0-0.8,0.1-1.6,0.4-2.2s0.6-1.2,1.1-1.7s1-0.8,1.7-1.1c0.7-0.3,1.4-0.4,2.2-0.4c0.8,0,1.5,0.1,2.2,0.4c0.6,0.3,1.2,0.6,1.6,1.1
		c0.5,0.5,0.8,1,1,1.7c0.2,0.7,0.4,1.4,0.4,2.2c0,0.8-0.1,1.6-0.4,2.2c-0.2,0.7-0.6,1.2-1,1.7c-0.5,0.5-1,0.8-1.7,1.1
		C404,90,403.2,90.1,402.4,90.1z M402.4,87.8c1.7,0,2.5-1,2.5-3.1c0-2.1-0.8-3.1-2.5-3.1s-2.5,1-2.5,3.1
		C399.9,86.7,400.8,87.8,402.4,87.8z"/>
	<path class="st3" d="M408.6,89.8V75.7h2.7v14.1H408.6z"/>
	<path class="st3" d="M418.9,88.4c-0.2,0.5-0.5,0.8-1.1,1.1c-0.5,0.3-1.1,0.4-1.7,0.4c-0.5,0-1-0.1-1.5-0.3
		c-0.5-0.2-0.9-0.4-1.2-0.8c-0.3-0.3-0.6-0.7-0.8-1.2c-0.2-0.5-0.3-1-0.3-1.5v-6.7h2.7v6.3c0,1.3,0.6,1.9,1.7,1.9
		c0.6,0,1.1-0.2,1.5-0.5c0.4-0.4,0.6-0.8,0.6-1.4v-6.3h2.7v10.6c0,0.7-0.1,1.4-0.4,2c-0.2,0.6-0.6,1.1-1,1.4
		c-0.4,0.4-0.9,0.7-1.5,0.9c-0.6,0.2-1.2,0.3-1.9,0.3c-1.5,0-2.7-0.4-3.4-1.2s-1.1-1.8-1.1-3.2h2.5c0,0.6,0.2,1.1,0.5,1.4
		c0.4,0.3,0.9,0.5,1.6,0.5c0.3,0,0.5-0.1,0.7-0.2c0.2-0.1,0.4-0.3,0.6-0.4c0.2-0.2,0.3-0.4,0.4-0.7c0.1-0.3,0.2-0.6,0.2-0.9V88.4z"
		/>
	<path class="st3" d="M430,88.4c-0.2,0.5-0.5,0.8-1.1,1.1c-0.5,0.3-1.1,0.4-1.8,0.4c-0.9,0-1.6-0.2-2.2-0.5c-0.6-0.3-1-0.7-1.4-1.2
		c-0.4-0.5-0.6-1.1-0.8-1.7s-0.2-1.3-0.2-2c0-0.8,0.1-1.5,0.4-2.2c0.2-0.7,0.6-1.2,1-1.7c0.4-0.5,0.9-0.8,1.4-1.1
		c0.5-0.3,1.1-0.4,1.8-0.4c1.3,0,2.3,0.5,2.9,1.6v-1.3h2.7v10.4c0,0.8-0.1,1.5-0.4,2.1c-0.3,0.6-0.6,1.1-1.1,1.5s-1,0.7-1.6,0.9
		c-0.6,0.2-1.3,0.3-2,0.3s-1.4-0.1-2-0.3s-1.1-0.5-1.6-0.9c-0.4-0.4-0.8-0.8-1-1.4c-0.3-0.5-0.4-1.1-0.4-1.8h2.5
		c0,0.6,0.2,1.1,0.6,1.5s1,0.5,1.6,0.5c0.7,0,1.3-0.2,1.8-0.6s0.8-0.9,0.8-1.6V88.4z M427.7,87.8c0.7,0,1.2-0.3,1.7-0.8
		c0.4-0.5,0.7-1.2,0.7-2.1c0-2.2-0.8-3.3-2.3-3.3s-2.3,1-2.3,3.1c0,0.9,0.2,1.7,0.7,2.2C426.5,87.5,427,87.8,427.7,87.8z"/>
	<path class="st3" d="M438.9,90.1c-0.8,0-1.6-0.1-2.2-0.4s-1.2-0.6-1.7-1.1c-0.5-0.5-0.8-1.1-1-1.7s-0.4-1.4-0.4-2.2
		c0-0.8,0.1-1.6,0.4-2.2s0.6-1.2,1.1-1.7s1-0.8,1.7-1.1c0.7-0.3,1.4-0.4,2.2-0.4c0.8,0,1.5,0.1,2.2,0.4c0.6,0.3,1.2,0.6,1.6,1.1
		c0.5,0.5,0.8,1,1,1.7c0.2,0.7,0.4,1.4,0.4,2.2c0,0.8-0.1,1.6-0.4,2.2c-0.2,0.7-0.6,1.2-1,1.7c-0.5,0.5-1,0.8-1.7,1.1
		C440.4,90,439.7,90.1,438.9,90.1z M438.9,87.8c1.7,0,2.5-1,2.5-3.1c0-2.1-0.8-3.1-2.5-3.1s-2.5,1-2.5,3.1
		C436.4,86.7,437.2,87.8,438.9,87.8z"/>
	<path class="st3" d="M451.6,89.8v-6.3c0-0.8-0.1-1.3-0.4-1.6c-0.3-0.3-0.7-0.4-1.4-0.4c-1.4,0-2.1,0.8-2.1,2.4v5.9H445V79.5h2.6V81
		c0.3-0.6,0.7-1,1.3-1.3s1.2-0.5,2.1-0.5c0.5,0,0.9,0.1,1.4,0.2c0.4,0.1,0.8,0.4,1.1,0.7s0.5,0.7,0.7,1.1c0.2,0.4,0.3,0.9,0.3,1.5
		v7.2H451.6z"/>
	<path class="st4" d="M259.3,165.4v-11.5h-4.2v-2.4h11.3v2.4h-4.2v11.5H259.3z"/>
	<path class="st4" d="M266.6,165.4v-10.3h2.6v1.2c0.2-0.3,0.5-0.6,0.7-0.8c0.2-0.2,0.5-0.3,0.8-0.5c0.3-0.1,0.5-0.2,0.8-0.2
		c0.3,0,0.5,0,0.8,0h0.4v2.8c-0.3,0-0.5-0.1-0.8-0.1c-1.7,0-2.5,0.8-2.5,2.5v5.4H266.6z"/>
	<path class="st4" d="M273.3,153.8v-2.5h2.7v2.5H273.3z M273.3,165.4v-10.3h2.7v10.3H273.3z"/>
	<path class="st4" d="M283.6,165.4c-0.1-0.3-0.1-0.6-0.2-0.9c-0.3,0.4-0.7,0.7-1.3,0.9c-0.5,0.2-1.1,0.3-1.8,0.3
		c-1.2,0-2.1-0.3-2.6-0.8c-0.6-0.5-0.8-1.2-0.8-2c0-0.7,0.1-1.3,0.4-1.8c0.2-0.4,0.6-0.8,1-1s0.9-0.4,1.5-0.6s1.2-0.2,1.9-0.3
		c0.7-0.1,1.1-0.2,1.4-0.4c0.2-0.2,0.4-0.4,0.4-0.8c0-0.3-0.2-0.6-0.5-0.8c-0.3-0.2-0.7-0.3-1.3-0.3c-0.6,0-1.1,0.1-1.4,0.4
		c-0.3,0.3-0.4,0.7-0.5,1.1h-2.5c0-0.5,0.1-1,0.3-1.5c0.2-0.4,0.4-0.8,0.8-1.2s0.8-0.6,1.4-0.7c0.6-0.2,1.3-0.3,2.1-0.3
		c0.8,0,1.5,0.1,2.1,0.3c0.6,0.2,1,0.4,1.4,0.8c0.3,0.3,0.6,0.8,0.7,1.3c0.2,0.5,0.2,1.1,0.2,1.7v6.5H283.6z M283.4,160.3
		c-0.1,0.1-0.3,0.3-0.6,0.3s-0.7,0.2-1.2,0.3c-0.8,0.2-1.3,0.4-1.6,0.6c-0.3,0.2-0.4,0.6-0.4,1c0,0.8,0.4,1.2,1.3,1.2
		c0.3,0,0.7-0.1,1-0.2c0.3-0.1,0.6-0.3,0.8-0.5c0.2-0.2,0.4-0.4,0.5-0.7c0.1-0.3,0.2-0.6,0.2-0.9L283.4,160.3z"/>
	<path class="st4" d="M293.9,165.4v-6.3c0-0.8-0.1-1.3-0.4-1.6s-0.7-0.4-1.4-0.4c-1.4,0-2.1,0.8-2.1,2.4v5.9h-2.7v-10.3h2.6v1.5
		c0.3-0.6,0.7-1,1.3-1.3s1.2-0.5,2.1-0.5c0.5,0,0.9,0.1,1.4,0.2c0.4,0.1,0.8,0.4,1.1,0.7s0.5,0.7,0.7,1.1c0.2,0.4,0.3,0.9,0.3,1.5
		v7.2H293.9z"/>
	<path class="st4" d="M304.9,164c-0.2,0.5-0.5,0.8-1.1,1.1c-0.5,0.3-1.1,0.4-1.8,0.4c-0.9,0-1.6-0.2-2.2-0.5c-0.6-0.3-1-0.7-1.4-1.2
		s-0.6-1.1-0.8-1.7s-0.2-1.3-0.2-2c0-0.8,0.1-1.5,0.4-2.2c0.2-0.7,0.6-1.2,1-1.7c0.4-0.5,0.9-0.8,1.4-1.1c0.5-0.3,1.1-0.4,1.8-0.4
		c1.3,0,2.3,0.5,2.9,1.6v-1.3h2.7v10.4c0,0.8-0.1,1.5-0.4,2.1c-0.3,0.6-0.6,1.1-1.1,1.5c-0.5,0.4-1,0.7-1.6,0.9
		c-0.6,0.2-1.3,0.3-2,0.3s-1.4-0.1-2-0.3c-0.6-0.2-1.1-0.5-1.6-0.9c-0.4-0.4-0.8-0.8-1-1.4s-0.4-1.1-0.4-1.8h2.5
		c0,0.6,0.2,1.1,0.6,1.5s1,0.5,1.6,0.5c0.7,0,1.3-0.2,1.8-0.6c0.5-0.4,0.8-0.9,0.8-1.6V164z M302.7,163.4c0.7,0,1.2-0.3,1.7-0.8
		c0.4-0.5,0.7-1.2,0.7-2.1c0-2.2-0.8-3.3-2.3-3.3s-2.3,1.1-2.3,3.2c0,0.9,0.2,1.7,0.7,2.2C301.4,163.1,302,163.4,302.7,163.4z"/>
	<path class="st4" d="M308.7,165.4v-14.1h2.7v14.1H308.7z"/>
	<path class="st4" d="M315,161c0,0.8,0.3,1.4,0.7,1.9s1,0.7,1.6,0.7c0.4,0,0.8-0.1,1.2-0.3c0.3-0.2,0.6-0.5,0.7-0.9h2.8
		c-0.3,1.1-0.9,1.9-1.7,2.5s-1.8,0.9-2.9,0.9c-3.4,0-5.2-1.9-5.2-5.6c0-0.8,0.1-1.5,0.3-2.2c0.2-0.6,0.5-1.2,1-1.7
		c0.4-0.5,0.9-0.8,1.6-1.1c0.6-0.2,1.3-0.4,2.1-0.4c1.6,0,2.8,0.5,3.6,1.5c0.8,1,1.2,2.6,1.2,4.6H315z M319.3,159.2
		c0-0.4-0.1-0.7-0.2-1c-0.1-0.3-0.3-0.5-0.5-0.7c-0.2-0.2-0.4-0.3-0.7-0.4c-0.3-0.1-0.5-0.1-0.8-0.1c-0.5,0-1,0.2-1.4,0.6
		c-0.4,0.4-0.6,1-0.7,1.7H319.3z"/>
	<path d="M337.5,161.7c-0.1,0.6-0.2,1.1-0.5,1.6c-0.3,0.5-0.6,0.9-1,1.3s-0.9,0.6-1.4,0.8c-0.5,0.2-1.1,0.3-1.8,0.3
		c-0.7,0-1.3-0.1-1.9-0.3c-0.6-0.2-1.1-0.6-1.5-1c-0.4-0.5-0.7-1.1-1-1.7c-0.2-0.7-0.3-1.5-0.3-2.4s0.1-1.7,0.3-2.4
		c0.2-0.7,0.6-1.2,1-1.6c0.4-0.4,0.9-0.7,1.5-1c0.6-0.2,1.3-0.3,2-0.3c0.7,0,1.3,0.1,1.8,0.3c0.6,0.2,1,0.4,1.4,0.8
		c0.4,0.4,0.7,0.8,1,1.3c0.2,0.5,0.4,1,0.4,1.6h-2.8c-0.1-0.5-0.3-0.9-0.6-1.3c-0.4-0.3-0.8-0.5-1.3-0.5c-0.3,0-0.6,0-0.8,0.1
		c-0.3,0.1-0.5,0.3-0.7,0.5c-0.2,0.2-0.3,0.5-0.5,0.9c-0.1,0.4-0.2,0.9-0.2,1.4c0,1.1,0.2,2,0.6,2.5s0.9,0.8,1.4,0.8s1-0.1,1.4-0.4
		s0.6-0.7,0.7-1.3H337.5z"/>
	<path d="M343.3,165.7c-0.8,0-1.6-0.1-2.2-0.4s-1.2-0.6-1.7-1.1c-0.5-0.5-0.8-1-1-1.7s-0.4-1.4-0.4-2.2c0-0.8,0.1-1.6,0.4-2.2
		c0.2-0.7,0.6-1.2,1.1-1.7c0.5-0.5,1-0.8,1.7-1.1c0.7-0.3,1.4-0.4,2.2-0.4c0.8,0,1.5,0.1,2.2,0.4c0.6,0.3,1.2,0.6,1.6,1.1
		c0.5,0.5,0.8,1,1,1.7c0.2,0.7,0.4,1.4,0.4,2.2s-0.1,1.6-0.4,2.2c-0.2,0.7-0.6,1.2-1,1.7c-0.5,0.5-1,0.8-1.7,1.1
		C344.8,165.6,344.1,165.7,343.3,165.7z M343.3,163.4c1.7,0,2.5-1.1,2.5-3.2c0-2.1-0.8-3.1-2.5-3.1s-2.5,1-2.5,3.1
		C340.8,162.3,341.6,163.4,343.3,163.4z"/>
	<path d="M356,165.4v-6.3c0-0.8-0.1-1.3-0.4-1.6s-0.7-0.4-1.4-0.4c-1.4,0-2.1,0.8-2.1,2.4v5.9h-2.7v-10.3h2.6v1.5
		c0.3-0.6,0.7-1,1.3-1.3s1.2-0.5,2.1-0.5c0.5,0,0.9,0.1,1.4,0.2c0.4,0.1,0.8,0.4,1.1,0.7s0.5,0.7,0.7,1.1c0.2,0.4,0.3,0.9,0.3,1.5
		v7.2H356z"/>
	<path d="M365.7,158.6h2.5v2.9c0,0.5-0.1,1.1-0.2,1.6c-0.2,0.5-0.4,0.9-0.8,1.3c-0.3,0.4-0.8,0.7-1.3,0.9c-0.5,0.2-1.2,0.3-1.9,0.3
		c-0.8,0-1.4-0.1-1.9-0.3c-0.5-0.2-1-0.5-1.3-0.9s-0.6-0.8-0.7-1.3c-0.2-0.5-0.2-1-0.2-1.6v-9.2h2.7v2.8h5.7v1.9h-5.7v4.2
		c0,0.7,0.1,1.2,0.4,1.5c0.2,0.4,0.6,0.5,1.2,0.5c0.5,0,0.9-0.2,1.2-0.5c0.3-0.3,0.4-0.8,0.4-1.5V158.6z"/>
	<path d="M375.7,165.4c-0.1-0.3-0.1-0.6-0.2-0.9c-0.3,0.4-0.7,0.7-1.3,0.9c-0.5,0.2-1.1,0.3-1.8,0.3c-1.2,0-2.1-0.3-2.6-0.8
		c-0.6-0.5-0.8-1.2-0.8-2c0-0.7,0.1-1.3,0.4-1.8c0.2-0.4,0.6-0.8,1-1s0.9-0.4,1.5-0.6s1.2-0.2,1.9-0.3c0.7-0.1,1.1-0.2,1.4-0.4
		c0.2-0.2,0.4-0.4,0.4-0.8c0-0.3-0.2-0.6-0.5-0.8c-0.3-0.2-0.7-0.3-1.3-0.3c-0.6,0-1.1,0.1-1.4,0.4c-0.3,0.3-0.4,0.7-0.5,1.1h-2.5
		c0-0.5,0.1-1,0.3-1.5c0.2-0.4,0.4-0.8,0.8-1.2s0.8-0.6,1.4-0.7c0.6-0.2,1.3-0.3,2.1-0.3c0.8,0,1.5,0.1,2.1,0.3
		c0.6,0.2,1,0.4,1.4,0.8c0.3,0.3,0.6,0.8,0.7,1.3c0.2,0.5,0.2,1.1,0.2,1.7v6.5H375.7z M375.5,160.3c-0.1,0.1-0.3,0.3-0.6,0.3
		s-0.7,0.2-1.2,0.3c-0.8,0.2-1.3,0.4-1.6,0.6c-0.3,0.2-0.4,0.6-0.4,1c0,0.8,0.4,1.2,1.3,1.2c0.3,0,0.7-0.1,1-0.2
		c0.3-0.1,0.6-0.3,0.8-0.5c0.2-0.2,0.4-0.4,0.5-0.7c0.1-0.3,0.2-0.6,0.2-0.9L375.5,160.3z"/>
	<path d="M379.4,153.8v-2.5h2.7v2.5H379.4z M379.4,165.4v-10.3h2.7v10.3H379.4z"/>
	<path d="M389.9,165.4v-6.3c0-0.8-0.1-1.3-0.4-1.6s-0.7-0.4-1.4-0.4c-1.4,0-2.1,0.8-2.1,2.4v5.9h-2.7v-10.3h2.6v1.5
		c0.3-0.6,0.7-1,1.3-1.3s1.2-0.5,2.1-0.5c0.5,0,0.9,0.1,1.4,0.2c0.4,0.1,0.8,0.4,1.1,0.7s0.5,0.7,0.7,1.1c0.2,0.4,0.3,0.9,0.3,1.5
		v7.2H389.9z"/>
	<path d="M400,158.2c-0.1-0.5-0.2-0.8-0.5-1s-0.7-0.3-1.3-0.3c-0.6,0-1,0.1-1.3,0.2s-0.4,0.4-0.4,0.7c0,0.3,0.1,0.5,0.4,0.7
		s0.7,0.3,1.2,0.5c0.9,0.3,1.7,0.5,2.3,0.6c0.6,0.2,1.1,0.4,1.5,0.6c0.4,0.2,0.6,0.5,0.8,0.9c0.2,0.4,0.2,0.8,0.2,1.4
		c0,0.9-0.4,1.7-1.2,2.3c-0.8,0.6-1.9,0.9-3.4,0.9c-0.7,0-1.4-0.1-2-0.3c-0.6-0.2-1.1-0.4-1.5-0.7c-0.4-0.3-0.8-0.7-1-1.1
		c-0.2-0.4-0.4-0.9-0.4-1.5h2.8c0,0.5,0.2,0.9,0.6,1.1c0.4,0.3,0.9,0.4,1.5,0.4c0.5,0,1-0.1,1.3-0.2s0.6-0.4,0.6-0.7
		c0-0.4-0.1-0.7-0.4-0.8s-0.7-0.3-1.2-0.4c-1-0.2-1.8-0.5-2.4-0.7s-1.1-0.5-1.4-0.8s-0.6-0.6-0.7-1s-0.2-0.7-0.2-1.2
		c0-0.4,0.1-0.8,0.2-1.1s0.4-0.7,0.8-0.9c0.3-0.3,0.8-0.5,1.4-0.6c0.6-0.2,1.2-0.2,2.1-0.2c1.5,0,2.6,0.3,3.3,0.9
		c0.7,0.6,1.1,1.4,1.1,2.5H400z"/>
	<path class="st5" d="M413.8,165.7c-0.8,0-1.6-0.1-2.2-0.4s-1.2-0.6-1.7-1.1c-0.5-0.5-0.8-1-1-1.7s-0.4-1.4-0.4-2.2
		c0-0.8,0.1-1.6,0.4-2.2c0.2-0.7,0.6-1.2,1.1-1.7c0.5-0.5,1-0.8,1.7-1.1c0.7-0.3,1.4-0.4,2.2-0.4c0.8,0,1.5,0.1,2.2,0.4
		c0.6,0.3,1.2,0.6,1.6,1.1c0.5,0.5,0.8,1,1,1.7c0.2,0.7,0.4,1.4,0.4,2.2s-0.1,1.6-0.4,2.2c-0.2,0.7-0.6,1.2-1,1.7
		c-0.5,0.5-1,0.8-1.7,1.1C415.3,165.6,414.6,165.7,413.8,165.7z M413.8,163.4c1.7,0,2.5-1.1,2.5-3.2c0-2.1-0.8-3.1-2.5-3.1
		s-2.5,1-2.5,3.1C411.3,162.3,412.2,163.4,413.8,163.4z"/>
	<path class="st5" d="M420,165.4v-10.3h2.6v1.2c0.2-0.3,0.5-0.6,0.7-0.8c0.2-0.2,0.5-0.3,0.8-0.5c0.3-0.1,0.5-0.2,0.8-0.2
		c0.3,0,0.5,0,0.8,0h0.4v2.8c-0.3,0-0.5-0.1-0.8-0.1c-1.7,0-2.5,0.8-2.5,2.5v5.4H420z"/>
	<path class="st5" d="M426.6,153.8v-2.5h2.7v2.5H426.6z M426.6,165.4v-10.3h2.7v10.3H426.6z"/>
	<path class="st5" d="M437.7,164c-0.2,0.5-0.5,0.8-1.1,1.1c-0.5,0.3-1.1,0.4-1.8,0.4c-0.9,0-1.6-0.2-2.2-0.5c-0.6-0.3-1-0.7-1.4-1.2
		s-0.6-1.1-0.8-1.7s-0.2-1.3-0.2-2c0-0.8,0.1-1.5,0.4-2.2c0.2-0.7,0.6-1.2,1-1.7c0.4-0.5,0.9-0.8,1.4-1.1c0.5-0.3,1.1-0.4,1.8-0.4
		c1.3,0,2.3,0.5,2.9,1.6v-1.3h2.7v10.4c0,0.8-0.1,1.5-0.4,2.1c-0.3,0.6-0.6,1.1-1.1,1.5c-0.5,0.4-1,0.7-1.6,0.9
		c-0.6,0.2-1.3,0.3-2,0.3s-1.4-0.1-2-0.3c-0.6-0.2-1.1-0.5-1.6-0.9c-0.4-0.4-0.8-0.8-1-1.4s-0.4-1.1-0.4-1.8h2.5
		c0,0.6,0.2,1.1,0.6,1.5s1,0.5,1.6,0.5c0.7,0,1.3-0.2,1.8-0.6c0.5-0.4,0.8-0.9,0.8-1.6V164z M435.5,163.4c0.7,0,1.2-0.3,1.7-0.8
		c0.4-0.5,0.7-1.2,0.7-2.1c0-2.2-0.8-3.3-2.3-3.3s-2.3,1.1-2.3,3.2c0,0.9,0.2,1.7,0.7,2.2C434.2,163.1,434.8,163.4,435.5,163.4z"/>
	<path class="st5" d="M441.6,153.8v-2.5h2.7v2.5H441.6z M441.6,165.4v-10.3h2.7v10.3H441.6z"/>
	<path class="st5" d="M452.1,165.4v-6.3c0-0.8-0.1-1.3-0.4-1.6s-0.7-0.4-1.4-0.4c-1.4,0-2.1,0.8-2.1,2.4v5.9h-2.7v-10.3h2.6v1.5
		c0.3-0.6,0.7-1,1.3-1.3s1.2-0.5,2.1-0.5c0.5,0,0.9,0.1,1.4,0.2c0.4,0.1,0.8,0.4,1.1,0.7s0.5,0.7,0.7,1.1c0.2,0.4,0.3,0.9,0.3,1.5
		v7.2H452.1z"/>
	<path d="M259.3,190.6v-11.5h-4.2v-2.4h11.3v2.4h-4.2v11.5H259.3z"/>
	<path d="M273.7,190.6v-6.4c0-0.8-0.1-1.3-0.4-1.6c-0.3-0.3-0.7-0.4-1.4-0.4c-0.3,0-0.6,0.1-0.9,0.2c-0.3,0.1-0.5,0.3-0.7,0.5
		c-0.2,0.2-0.3,0.5-0.4,0.8s-0.1,0.6-0.1,1v5.9h-2.7v-14.1h2.7v5.1c0.1-0.2,0.2-0.4,0.5-0.6c0.2-0.2,0.4-0.4,0.7-0.5
		c0.3-0.1,0.6-0.3,0.9-0.3c0.3-0.1,0.7-0.1,1-0.1c1.1,0,1.9,0.3,2.6,0.9s1,1.4,1,2.4v7.3H273.7z"/>
	<path d="M284.3,190.6v-1.4c-0.7,1.1-1.8,1.7-3.2,1.7c-0.5,0-1-0.1-1.4-0.3c-0.4-0.2-0.8-0.4-1.1-0.8c-0.3-0.3-0.5-0.7-0.7-1.2
		c-0.2-0.5-0.3-1-0.3-1.6v-6.8h2.7v6.4c0,1.3,0.6,1.9,1.7,1.9c0.7,0,1.2-0.2,1.6-0.7c0.4-0.4,0.5-1,0.5-1.7v-6h2.7v10.3H284.3z"/>
	<path d="M294.1,183.4c-0.1-0.5-0.2-0.8-0.5-1s-0.7-0.3-1.3-0.3c-0.6,0-1,0.1-1.3,0.2s-0.4,0.4-0.4,0.7c0,0.3,0.1,0.5,0.4,0.7
		s0.7,0.3,1.2,0.5c0.9,0.3,1.7,0.5,2.3,0.6c0.6,0.2,1.1,0.4,1.5,0.6c0.4,0.2,0.6,0.5,0.8,0.9c0.2,0.4,0.2,0.8,0.2,1.4
		c0,0.9-0.4,1.7-1.2,2.3c-0.8,0.6-1.9,0.9-3.4,0.9c-0.7,0-1.4-0.1-2-0.3c-0.6-0.2-1.1-0.4-1.5-0.7c-0.4-0.3-0.8-0.7-1-1.1
		c-0.2-0.4-0.4-0.9-0.4-1.5h2.8c0,0.5,0.2,0.9,0.6,1.1c0.4,0.3,0.9,0.4,1.5,0.4c0.5,0,1-0.1,1.3-0.2s0.6-0.4,0.6-0.7
		c0-0.4-0.1-0.7-0.4-0.8s-0.7-0.3-1.2-0.4c-1-0.2-1.8-0.5-2.4-0.7s-1.1-0.5-1.4-0.8s-0.6-0.6-0.7-1s-0.2-0.7-0.2-1.2
		c0-0.4,0.1-0.8,0.2-1.1s0.4-0.7,0.8-0.9c0.3-0.3,0.8-0.5,1.4-0.6c0.6-0.2,1.2-0.2,2.1-0.2c1.5,0,2.6,0.3,3.3,0.9
		c0.7,0.6,1.1,1.4,1.1,2.5H294.1z"/>
	<path class="st3" d="M302.9,195.5v-15.2h2.6l0,1.3c0.6-1,1.6-1.5,2.9-1.5c0.6,0,1.2,0.1,1.8,0.4s1,0.6,1.4,1.1
		c0.4,0.5,0.7,1.1,0.9,1.7c0.2,0.7,0.3,1.5,0.3,2.3c0,0.8-0.1,1.5-0.3,2.2c-0.2,0.7-0.5,1.2-0.8,1.7s-0.8,0.8-1.3,1.1
		c-0.5,0.3-1.1,0.4-1.8,0.4c-1.3,0-2.3-0.5-3.1-1.6v6.2H302.9z M307.8,188.6c1.6,0,2.4-1.1,2.4-3.2c0-0.9-0.2-1.7-0.7-2.3
		c-0.4-0.6-1-0.9-1.7-0.9c-0.7,0-1.2,0.3-1.6,0.8c-0.4,0.5-0.7,1.3-0.7,2.1C305.5,187.4,306.3,188.6,307.8,188.6z"/>
	<path class="st3" d="M318.9,190.9c-0.8,0-1.6-0.1-2.2-0.4s-1.2-0.6-1.7-1.1c-0.5-0.5-0.8-1-1-1.7s-0.4-1.4-0.4-2.2
		c0-0.8,0.1-1.6,0.4-2.2c0.2-0.7,0.6-1.2,1.1-1.7c0.5-0.5,1-0.8,1.7-1.1c0.7-0.3,1.4-0.4,2.2-0.4c0.8,0,1.5,0.1,2.2,0.4
		c0.6,0.3,1.2,0.6,1.6,1.1c0.5,0.5,0.8,1,1,1.7c0.2,0.7,0.4,1.4,0.4,2.2s-0.1,1.6-0.4,2.2c-0.2,0.7-0.6,1.2-1,1.7
		c-0.5,0.5-1,0.8-1.7,1.1C320.4,190.8,319.7,190.9,318.9,190.9z M318.9,188.6c1.7,0,2.5-1.1,2.5-3.2c0-2.1-0.8-3.1-2.5-3.1
		s-2.5,1-2.5,3.1C316.4,187.5,317.2,188.6,318.9,188.6z"/>
	<path class="st3" d="M325,190.6v-14.1h2.7v14.1H325z"/>
	<path class="st3" d="M335.4,189.2c-0.2,0.5-0.5,0.8-1.1,1.1c-0.5,0.3-1.1,0.4-1.7,0.4c-0.5,0-1-0.1-1.5-0.3
		c-0.5-0.2-0.9-0.4-1.2-0.8s-0.6-0.7-0.8-1.2c-0.2-0.5-0.3-1-0.3-1.5v-6.7h2.7v6.3c0,1.3,0.6,1.9,1.7,1.9c0.6,0,1.1-0.2,1.5-0.5
		c0.4-0.4,0.6-0.8,0.6-1.4v-6.3h2.7v10.6c0,0.7-0.1,1.4-0.4,2s-0.6,1.1-1,1.4c-0.4,0.4-0.9,0.7-1.5,0.9c-0.6,0.2-1.2,0.3-1.9,0.3
		c-1.5,0-2.7-0.4-3.4-1.2c-0.8-0.8-1.1-1.8-1.1-3.2h2.5c0,0.6,0.2,1.1,0.5,1.4c0.4,0.4,0.9,0.5,1.6,0.5c0.3,0,0.5-0.1,0.7-0.2
		c0.2-0.1,0.4-0.3,0.6-0.4c0.2-0.2,0.3-0.4,0.4-0.7c0.1-0.3,0.2-0.6,0.2-0.9V189.2z"/>
	<path class="st3" d="M346.4,189.2c-0.2,0.5-0.5,0.8-1.1,1.1c-0.5,0.3-1.1,0.4-1.8,0.4c-0.9,0-1.6-0.2-2.2-0.5
		c-0.6-0.3-1-0.7-1.4-1.2s-0.6-1.1-0.8-1.7s-0.2-1.3-0.2-2c0-0.8,0.1-1.5,0.4-2.2c0.2-0.7,0.6-1.2,1-1.7c0.4-0.5,0.9-0.8,1.4-1.1
		c0.5-0.3,1.1-0.4,1.8-0.4c1.3,0,2.3,0.5,2.9,1.6v-1.3h2.7v10.4c0,0.8-0.1,1.5-0.4,2.1c-0.3,0.6-0.6,1.1-1.1,1.5
		c-0.5,0.4-1,0.7-1.6,0.9c-0.6,0.2-1.3,0.3-2,0.3s-1.4-0.1-2-0.3c-0.6-0.2-1.1-0.5-1.6-0.9c-0.4-0.4-0.8-0.8-1-1.4s-0.4-1.1-0.4-1.8
		h2.5c0,0.6,0.2,1.1,0.6,1.5s1,0.5,1.6,0.5c0.7,0,1.3-0.2,1.8-0.6c0.5-0.4,0.8-0.9,0.8-1.6V189.2z M344.2,188.6
		c0.7,0,1.2-0.3,1.7-0.8c0.4-0.5,0.7-1.2,0.7-2.1c0-2.2-0.8-3.3-2.3-3.3s-2.3,1.1-2.3,3.2c0,0.9,0.2,1.7,0.7,2.2
		C342.9,188.3,343.5,188.6,344.2,188.6z"/>
	<path class="st3" d="M355.3,190.9c-0.8,0-1.6-0.1-2.2-0.4s-1.2-0.6-1.7-1.1c-0.5-0.5-0.8-1-1-1.7s-0.4-1.4-0.4-2.2
		c0-0.8,0.1-1.6,0.4-2.2c0.2-0.7,0.6-1.2,1.1-1.7c0.5-0.5,1-0.8,1.7-1.1c0.7-0.3,1.4-0.4,2.2-0.4c0.8,0,1.5,0.1,2.2,0.4
		c0.6,0.3,1.2,0.6,1.6,1.1c0.5,0.5,0.8,1,1,1.7c0.2,0.7,0.4,1.4,0.4,2.2s-0.1,1.6-0.4,2.2c-0.2,0.7-0.6,1.2-1,1.7
		c-0.5,0.5-1,0.8-1.7,1.1C356.8,190.8,356.1,190.9,355.3,190.9z M355.3,188.6c1.7,0,2.5-1.1,2.5-3.2c0-2.1-0.8-3.1-2.5-3.1
		s-2.5,1-2.5,3.1C352.8,187.5,353.6,188.6,355.3,188.6z"/>
	<path class="st3" d="M368.1,190.6v-6.3c0-0.8-0.1-1.3-0.4-1.6s-0.7-0.4-1.4-0.4c-1.4,0-2.1,0.8-2.1,2.4v5.9h-2.7v-10.3h2.6v1.5
		c0.3-0.6,0.7-1,1.3-1.3s1.2-0.5,2.1-0.5c0.5,0,0.9,0.1,1.4,0.2c0.4,0.1,0.8,0.4,1.1,0.7s0.5,0.7,0.7,1.1c0.2,0.4,0.3,0.9,0.3,1.5
		v7.2H368.1z"/>
	<path d="M386.4,186.9c-0.1,0.6-0.2,1.1-0.5,1.6c-0.3,0.5-0.6,0.9-1,1.3s-0.9,0.6-1.4,0.8c-0.5,0.2-1.1,0.3-1.8,0.3
		c-0.7,0-1.3-0.1-1.9-0.3c-0.6-0.2-1.1-0.6-1.5-1c-0.4-0.5-0.7-1.1-1-1.7c-0.2-0.7-0.3-1.5-0.3-2.4s0.1-1.7,0.3-2.4
		c0.2-0.7,0.6-1.2,1-1.6c0.4-0.4,0.9-0.7,1.5-1c0.6-0.2,1.3-0.3,2-0.3c0.7,0,1.3,0.1,1.8,0.3c0.6,0.2,1,0.4,1.4,0.8
		c0.4,0.4,0.7,0.8,1,1.3c0.2,0.5,0.4,1,0.4,1.6h-2.8c-0.1-0.5-0.3-0.9-0.6-1.3c-0.4-0.3-0.8-0.5-1.3-0.5c-0.3,0-0.6,0-0.8,0.1
		c-0.3,0.1-0.5,0.3-0.7,0.5c-0.2,0.2-0.3,0.5-0.5,0.9c-0.1,0.4-0.2,0.9-0.2,1.4c0,1.1,0.2,2,0.6,2.5s0.9,0.8,1.4,0.8s1-0.1,1.4-0.4
		s0.6-0.7,0.7-1.3H386.4z"/>
	<path d="M392.2,190.9c-0.8,0-1.6-0.1-2.2-0.4s-1.2-0.6-1.7-1.1c-0.5-0.5-0.8-1-1-1.7s-0.4-1.4-0.4-2.2c0-0.8,0.1-1.6,0.4-2.2
		c0.2-0.7,0.6-1.2,1.1-1.7c0.5-0.5,1-0.8,1.7-1.1c0.7-0.3,1.4-0.4,2.2-0.4c0.8,0,1.5,0.1,2.2,0.4c0.6,0.3,1.2,0.6,1.6,1.1
		c0.5,0.5,0.8,1,1,1.7c0.2,0.7,0.4,1.4,0.4,2.2s-0.1,1.6-0.4,2.2c-0.2,0.7-0.6,1.2-1,1.7c-0.5,0.5-1,0.8-1.7,1.1
		C393.7,190.8,393,190.9,392.2,190.9z M392.2,188.6c1.7,0,2.5-1.1,2.5-3.2c0-2.1-0.8-3.1-2.5-3.1s-2.5,1-2.5,3.1
		C389.7,187.5,390.5,188.6,392.2,188.6z"/>
	<path d="M404.9,190.6v-6.3c0-0.8-0.1-1.3-0.4-1.6s-0.7-0.4-1.4-0.4c-1.4,0-2.1,0.8-2.1,2.4v5.9h-2.7v-10.3h2.6v1.5
		c0.3-0.6,0.7-1,1.3-1.3s1.2-0.5,2.1-0.5c0.5,0,0.9,0.1,1.4,0.2c0.4,0.1,0.8,0.4,1.1,0.7s0.5,0.7,0.7,1.1c0.2,0.4,0.3,0.9,0.3,1.5
		v7.2H404.9z"/>
	<path d="M414.6,183.8h2.5v2.9c0,0.5-0.1,1.1-0.2,1.6c-0.2,0.5-0.4,0.9-0.8,1.3c-0.3,0.4-0.8,0.7-1.3,0.9c-0.5,0.2-1.2,0.3-1.9,0.3
		c-0.8,0-1.4-0.1-1.9-0.3c-0.5-0.2-1-0.5-1.3-0.9s-0.6-0.8-0.7-1.3c-0.2-0.5-0.2-1-0.2-1.6v-9.2h2.7v2.8h5.7v1.9h-5.7v4.2
		c0,0.7,0.1,1.2,0.4,1.5c0.2,0.4,0.6,0.5,1.2,0.5c0.5,0,0.9-0.2,1.2-0.5c0.3-0.3,0.4-0.8,0.4-1.5V183.8z"/>
	<path d="M424.6,190.6c-0.1-0.3-0.1-0.6-0.2-0.9c-0.3,0.4-0.7,0.7-1.3,0.9c-0.5,0.2-1.1,0.3-1.8,0.3c-1.2,0-2.1-0.3-2.6-0.8
		c-0.6-0.5-0.8-1.2-0.8-2c0-0.7,0.1-1.3,0.4-1.8c0.2-0.4,0.6-0.8,1-1s0.9-0.4,1.5-0.6s1.2-0.2,1.9-0.3c0.7-0.1,1.1-0.2,1.4-0.4
		c0.2-0.2,0.4-0.4,0.4-0.8c0-0.3-0.2-0.6-0.5-0.8c-0.3-0.2-0.7-0.3-1.3-0.3c-0.6,0-1.1,0.1-1.4,0.4c-0.3,0.3-0.4,0.7-0.5,1.1h-2.5
		c0-0.5,0.1-1,0.3-1.5c0.2-0.4,0.4-0.8,0.8-1.2s0.8-0.6,1.4-0.7c0.6-0.2,1.3-0.3,2.1-0.3c0.8,0,1.5,0.1,2.1,0.3
		c0.6,0.2,1,0.4,1.4,0.8c0.3,0.3,0.6,0.8,0.7,1.3c0.2,0.5,0.2,1.1,0.2,1.7v6.5H424.6z M424.4,185.5c-0.1,0.1-0.3,0.3-0.6,0.3
		s-0.7,0.2-1.2,0.3c-0.8,0.2-1.3,0.4-1.6,0.6c-0.3,0.2-0.4,0.6-0.4,1c0,0.8,0.4,1.2,1.3,1.2c0.3,0,0.7-0.1,1-0.2
		c0.3-0.1,0.6-0.3,0.8-0.5c0.2-0.2,0.4-0.4,0.5-0.7c0.1-0.3,0.2-0.6,0.2-0.9L424.4,185.5z"/>
	<path d="M428.3,179v-2.5h2.7v2.5H428.3z M428.3,190.6v-10.3h2.7v10.3H428.3z"/>
	<path d="M438.8,190.6v-6.3c0-0.8-0.1-1.3-0.4-1.6s-0.7-0.4-1.4-0.4c-1.4,0-2.1,0.8-2.1,2.4v5.9h-2.7v-10.3h2.6v1.5
		c0.3-0.6,0.7-1,1.3-1.3s1.2-0.5,2.1-0.5c0.5,0,0.9,0.1,1.4,0.2c0.4,0.1,0.8,0.4,1.1,0.7s0.5,0.7,0.7,1.1c0.2,0.4,0.3,0.9,0.3,1.5
		v7.2H438.8z"/>
	<path d="M448.9,183.4c-0.1-0.5-0.2-0.8-0.5-1s-0.7-0.3-1.3-0.3c-0.6,0-1,0.1-1.3,0.2s-0.4,0.4-0.4,0.7c0,0.3,0.1,0.5,0.4,0.7
		s0.7,0.3,1.2,0.5c0.9,0.3,1.7,0.5,2.3,0.6c0.6,0.2,1.1,0.4,1.5,0.6c0.4,0.2,0.6,0.5,0.8,0.9c0.2,0.4,0.2,0.8,0.2,1.4
		c0,0.9-0.4,1.7-1.2,2.3c-0.8,0.6-1.9,0.9-3.4,0.9c-0.7,0-1.4-0.1-2-0.3c-0.6-0.2-1.1-0.4-1.5-0.7c-0.4-0.3-0.8-0.7-1-1.1
		c-0.2-0.4-0.4-0.9-0.4-1.5h2.8c0,0.5,0.2,0.9,0.6,1.1c0.4,0.3,0.9,0.4,1.5,0.4c0.5,0,1-0.1,1.3-0.2s0.6-0.4,0.6-0.7
		c0-0.4-0.1-0.7-0.4-0.8s-0.7-0.3-1.2-0.4c-1-0.2-1.8-0.5-2.4-0.7s-1.1-0.5-1.4-0.8s-0.6-0.6-0.7-1s-0.2-0.7-0.2-1.2
		c0-0.4,0.1-0.8,0.2-1.1s0.4-0.7,0.8-0.9c0.3-0.3,0.8-0.5,1.4-0.6c0.6-0.2,1.2-0.2,2.1-0.2c1.5,0,2.6,0.3,3.3,0.9
		c0.7,0.6,1.1,1.4,1.1,2.5H448.9z"/>
	<path class="st5" d="M462.7,190.9c-0.8,0-1.6-0.1-2.2-0.4s-1.2-0.6-1.7-1.1c-0.5-0.5-0.8-1-1-1.7s-0.4-1.4-0.4-2.2
		c0-0.8,0.1-1.6,0.4-2.2c0.2-0.7,0.6-1.2,1.1-1.7c0.5-0.5,1-0.8,1.7-1.1c0.7-0.3,1.4-0.4,2.2-0.4c0.8,0,1.5,0.1,2.2,0.4
		c0.6,0.3,1.2,0.6,1.6,1.1c0.5,0.5,0.8,1,1,1.7c0.2,0.7,0.4,1.4,0.4,2.2s-0.1,1.6-0.4,2.2c-0.2,0.7-0.6,1.2-1,1.7
		c-0.5,0.5-1,0.8-1.7,1.1C464.3,190.8,463.5,190.9,462.7,190.9z M462.7,188.6c1.7,0,2.5-1.1,2.5-3.2c0-2.1-0.8-3.1-2.5-3.1
		s-2.5,1-2.5,3.1C460.2,187.5,461.1,188.6,462.7,188.6z"/>
	<path class="st5" d="M468.9,190.6v-10.3h2.6v1.2c0.2-0.3,0.5-0.6,0.7-0.8c0.2-0.2,0.5-0.3,0.8-0.5c0.3-0.1,0.5-0.2,0.8-0.2
		c0.3,0,0.5,0,0.8,0h0.4v2.8c-0.3,0-0.5-0.1-0.8-0.1c-1.7,0-2.5,0.8-2.5,2.5v5.4H468.9z"/>
	<path class="st5" d="M475.5,179v-2.5h2.7v2.5H475.5z M475.5,190.6v-10.3h2.7v10.3H475.5z"/>
	<path class="st5" d="M486.6,189.2c-0.2,0.5-0.5,0.8-1.1,1.1c-0.5,0.3-1.1,0.4-1.8,0.4c-0.9,0-1.6-0.2-2.2-0.5
		c-0.6-0.3-1-0.7-1.4-1.2s-0.6-1.1-0.8-1.7s-0.2-1.3-0.2-2c0-0.8,0.1-1.5,0.4-2.2c0.2-0.7,0.6-1.2,1-1.7c0.4-0.5,0.9-0.8,1.4-1.1
		c0.5-0.3,1.1-0.4,1.8-0.4c1.3,0,2.3,0.5,2.9,1.6v-1.3h2.7v10.4c0,0.8-0.1,1.5-0.4,2.1c-0.3,0.6-0.6,1.1-1.1,1.5
		c-0.5,0.4-1,0.7-1.6,0.9c-0.6,0.2-1.3,0.3-2,0.3s-1.4-0.1-2-0.3c-0.6-0.2-1.1-0.5-1.6-0.9c-0.4-0.4-0.8-0.8-1-1.4s-0.4-1.1-0.4-1.8
		h2.5c0,0.6,0.2,1.1,0.6,1.5s1,0.5,1.6,0.5c0.7,0,1.3-0.2,1.8-0.6c0.5-0.4,0.8-0.9,0.8-1.6V189.2z M484.4,188.6
		c0.7,0,1.2-0.3,1.7-0.8c0.4-0.5,0.7-1.2,0.7-2.1c0-2.2-0.8-3.3-2.3-3.3s-2.3,1.1-2.3,3.2c0,0.9,0.2,1.7,0.7,2.2
		C483.2,188.3,483.7,188.6,484.4,188.6z"/>
	<path class="st5" d="M490.5,179v-2.5h2.7v2.5H490.5z M490.5,190.6v-10.3h2.7v10.3H490.5z"/>
	<path class="st5" d="M501,190.6v-6.3c0-0.8-0.1-1.3-0.4-1.6s-0.7-0.4-1.4-0.4c-1.4,0-2.1,0.8-2.1,2.4v5.9h-2.7v-10.3h2.6v1.5
		c0.3-0.6,0.7-1,1.3-1.3s1.2-0.5,2.1-0.5c0.5,0,0.9,0.1,1.4,0.2c0.4,0.1,0.8,0.4,1.1,0.7s0.5,0.7,0.7,1.1c0.2,0.4,0.3,0.9,0.3,1.5
		v7.2H501z"/>
</g>
<g>
</g>
<g>
</g>
<g>
</g>
<g>
</g>
<g>
</g>
<g>
</g>
<g>
</g>
<g>
</g>
<g>
</g>
<g>
</g>
<g>
</g>
</svg>
