<?xml version="1.0" encoding="utf-8"?>
<!-- Generator: Adobe Illustrator 21.0.2, SVG Export Plug-In . SVG Version: 6.00 Build 0)  -->
<svg version="1.1" id="Layer_1" xmlns="http://www.w3.org/2000/svg" xmlns:xlink="http://www.w3.org/1999/xlink" x="0px" y="0px"
	 viewBox="0 0 1024 512" style="enable-background:new 0 0 1024 512;" xml:space="preserve">
<style type="text/css">
	.st0{fill:#88c0d0;}
	.st1{fill:none;stroke:#bf616a;stroke-width:4;stroke-linecap:round;stroke-linejoin:round;stroke-miterlimit:10;}
	.st2{fill:none;stroke:#d08770;stroke-width:4;stroke-linecap:round;stroke-linejoin:round;stroke-miterlimit:10;}
	.st3{fill:#8fbcbb;}
</style>
<g>
	<path class="st0" d="M841.1,200.4v-23.9h11.8c2.4,0,4.1,0.6,5.4,1.7c1.2,1.2,1.8,2.8,1.8,4.8c0,1-0.3,2-0.8,2.8
		c-0.6,0.8-1.2,1.4-2.1,1.7c0.5,0.2,1,0.4,1.4,0.7c0.4,0.3,0.8,0.7,1.2,1.2c0.3,0.5,0.6,1,0.8,1.7c0.2,0.6,0.3,1.4,0.3,2.3
		c0,2.2-0.7,3.9-2.2,5.2c-1.5,1.3-3.7,1.9-6.7,1.9H841.1z M845.9,180.6v5.2h6.3c2,0,3-0.9,3-2.6c0-0.9-0.3-1.6-0.8-2
		c-0.5-0.4-1.4-0.6-2.5-0.6H845.9z M852.3,196.3c1.2,0,2.1-0.3,2.7-1s1-1.5,1-2.4c0-1.1-0.3-1.8-1-2.3c-0.6-0.5-1.5-0.7-2.6-0.7
		h-6.4v6.4H852.3z"/>
	<path class="st0" d="M882.7,192.2c-0.3,1.4-0.7,2.6-1.3,3.7c-0.6,1.1-1.3,2.1-2.2,2.8c-0.9,0.8-1.9,1.4-3,1.8
		c-1.2,0.4-2.4,0.6-3.8,0.6c-1.6,0-3-0.3-4.4-0.8c-1.4-0.5-2.5-1.3-3.5-2.4c-1-1.1-1.8-2.4-2.3-3.9c-0.6-1.5-0.8-3.4-0.8-5.4
		c0-2,0.3-3.8,0.8-5.5c0.5-1.6,1.3-3,2.2-4.1c1-1.1,2.1-2,3.5-2.6c1.4-0.6,2.9-0.9,4.6-0.9c1.5,0,2.8,0.2,4.1,0.7
		c1.2,0.4,2.3,1.1,3.1,1.8c0.9,0.8,1.6,1.7,2.1,2.8c0.5,1.1,0.8,2.2,1,3.4h-5c-0.3-1.4-1-2.4-1.9-3.2c-1-0.8-2-1.1-3.2-1.1
		c-2.1,0-3.6,0.8-4.6,2.3c-1,1.5-1.5,3.6-1.5,6.2c0,2.7,0.5,4.7,1.5,6.2c1,1.5,2.4,2.2,4.4,2.2c1.5,0,2.7-0.4,3.6-1.2
		c0.9-0.8,1.5-2,1.9-3.5H882.7z"/>
	<path class="st0" d="M883.5,200.4v-23.9h9.3c1.6,0,3.1,0.3,4.5,0.8c1.4,0.5,2.5,1.3,3.5,2.3s1.7,2.2,2.3,3.7
		c0.6,1.4,0.8,3.1,0.8,4.9c0,1.8-0.2,3.5-0.7,5c-0.5,1.5-1.2,2.8-2.1,3.9c-0.9,1.1-2,1.9-3.3,2.5c-1.3,0.6-2.7,0.9-4.2,0.9H883.5z
		 M892.5,196.3c2.2,0,3.8-0.7,4.8-2c1-1.4,1.5-3.4,1.5-6.1c0-1.3-0.1-2.5-0.4-3.5c-0.2-1-0.6-1.7-1.2-2.4c-0.5-0.6-1.2-1.1-2.1-1.3
		c-0.8-0.3-1.9-0.4-3.1-0.4h-3.7v15.7H892.5z"/>
</g>
<g>
	<path class="st0" d="M841.7,407.4l-1.5-4.9h-8.8l-1.7,4.9h-5.3l8.5-23.9h5.8l8.4,23.9H841.7z M835.8,388.9L835.8,388.9l-3.1,9.5
		h6.1L835.8,388.9z"/>
	<path class="st0" d="M848.1,407.4v-23.9h11.8c2.4,0,4.1,0.6,5.4,1.7c1.2,1.2,1.8,2.8,1.8,4.8c0,1-0.3,2-0.8,2.8s-1.2,1.4-2.1,1.7
		c0.5,0.2,1,0.4,1.4,0.7c0.4,0.3,0.8,0.7,1.2,1.2s0.6,1,0.8,1.7c0.2,0.6,0.3,1.4,0.3,2.3c0,2.2-0.7,3.9-2.2,5.2
		c-1.5,1.3-3.7,1.9-6.7,1.9H848.1z M852.9,387.6v5.2h6.3c2,0,3-0.9,3-2.6c0-0.9-0.3-1.6-0.8-2c-0.5-0.4-1.4-0.6-2.5-0.6H852.9z
		 M859.2,403.3c1.2,0,2.1-0.3,2.7-1c0.6-0.6,1-1.5,1-2.4c0-1.1-0.3-1.8-1-2.3c-0.6-0.5-1.5-0.7-2.6-0.7h-6.4v6.4H859.2z"/>
	<path class="st0" d="M889.7,399.2c-0.3,1.4-0.7,2.6-1.3,3.7s-1.3,2.1-2.2,2.8c-0.9,0.8-1.9,1.4-3,1.8c-1.2,0.4-2.4,0.6-3.8,0.6
		c-1.6,0-3-0.3-4.4-0.8c-1.4-0.5-2.5-1.3-3.5-2.4s-1.8-2.4-2.3-3.9c-0.6-1.5-0.8-3.4-0.8-5.4c0-2,0.3-3.8,0.8-5.5
		c0.5-1.6,1.3-3,2.2-4.1c1-1.1,2.1-2,3.5-2.6c1.4-0.6,2.9-0.9,4.6-0.9c1.5,0,2.8,0.2,4,0.7c1.2,0.4,2.3,1.1,3.1,1.8
		c0.9,0.8,1.6,1.7,2.1,2.8c0.5,1.1,0.8,2.2,1,3.4h-5c-0.3-1.4-1-2.4-1.9-3.2c-1-0.8-2-1.1-3.2-1.1c-2.1,0-3.6,0.8-4.6,2.3
		c-1,1.5-1.5,3.6-1.5,6.2c0,2.7,0.5,4.7,1.5,6.2c1,1.5,2.4,2.2,4.4,2.2c1.5,0,2.7-0.4,3.6-1.2c0.9-0.8,1.5-2,1.9-3.5H889.7z"/>
</g>
<g>
	<path class="st0" d="M638.2,457.2c-0.3,1.4-0.7,2.6-1.3,3.7s-1.3,2.1-2.2,2.8c-0.9,0.8-1.9,1.4-3,1.8s-2.4,0.6-3.8,0.6
		c-1.6,0-3-0.3-4.4-0.8c-1.4-0.5-2.5-1.3-3.5-2.4c-1-1.1-1.8-2.4-2.3-3.9c-0.6-1.5-0.8-3.4-0.8-5.4c0-2,0.3-3.8,0.8-5.5
		s1.3-3,2.2-4.1c1-1.1,2.1-2,3.5-2.6c1.4-0.6,2.9-0.9,4.6-0.9c1.5,0,2.8,0.2,4.1,0.7c1.2,0.4,2.3,1.1,3.1,1.8
		c0.9,0.8,1.6,1.7,2.1,2.8c0.5,1.1,0.8,2.2,1,3.4h-5c-0.3-1.4-1-2.4-1.9-3.2s-2-1.1-3.2-1.1c-2.1,0-3.6,0.8-4.6,2.3
		c-1,1.5-1.5,3.6-1.5,6.2c0,2.7,0.5,4.7,1.5,6.2c1,1.5,2.4,2.2,4.4,2.2c1.5,0,2.7-0.4,3.6-1.2c0.9-0.8,1.5-2,1.9-3.5H638.2z"/>
	<path class="st0" d="M654,465.4l-1.5-4.9h-8.8l-1.7,4.9h-5.3l8.5-23.9h5.8l8.4,23.9H654z M648.1,446.9L648.1,446.9l-3.1,9.5h6.1
		L648.1,446.9z"/>
	<path class="st0" d="M660.4,465.4v-23.9h9.3c1.6,0,3.1,0.3,4.5,0.8c1.4,0.5,2.5,1.3,3.5,2.3c1,1,1.7,2.2,2.3,3.7
		c0.6,1.4,0.8,3.1,0.8,4.9c0,1.8-0.2,3.5-0.7,5c-0.5,1.5-1.2,2.8-2.1,3.9c-0.9,1.1-2,1.9-3.3,2.5c-1.3,0.6-2.7,0.9-4.2,0.9H660.4z
		 M669.4,461.3c2.2,0,3.8-0.7,4.8-2s1.5-3.4,1.5-6.1c0-1.3-0.1-2.5-0.4-3.5c-0.2-1-0.6-1.7-1.2-2.4c-0.5-0.6-1.2-1.1-2.1-1.3
		c-0.8-0.3-1.9-0.4-3.1-0.4h-3.7v15.7H669.4z"/>
</g>
<g>
	<path class="st0" d="M700.7,139.4l-1.5-4.9h-8.8l-1.7,4.9h-5.3l8.5-23.9h5.8l8.4,23.9H700.7z M694.8,120.9L694.8,120.9l-3.1,9.5
		h6.1L694.8,120.9z"/>
	<path class="st0" d="M707.1,139.4v-23.9h11.8c2.4,0,4.1,0.6,5.4,1.7c1.2,1.2,1.8,2.8,1.8,4.8c0,1-0.3,2-0.8,2.8s-1.2,1.4-2.1,1.7
		c0.5,0.2,1,0.4,1.4,0.7c0.4,0.3,0.8,0.7,1.2,1.2c0.3,0.5,0.6,1,0.8,1.7c0.2,0.6,0.3,1.4,0.3,2.3c0,2.2-0.7,3.9-2.2,5.2
		c-1.5,1.3-3.7,1.9-6.7,1.9H707.1z M711.9,119.6v5.2h6.3c2,0,3-0.9,3-2.6c0-0.9-0.3-1.6-0.8-2c-0.5-0.4-1.4-0.6-2.5-0.6H711.9z
		 M718.2,135.3c1.2,0,2.1-0.3,2.7-1c0.6-0.6,1-1.5,1-2.4c0-1.1-0.3-1.8-1-2.3c-0.6-0.5-1.5-0.7-2.6-0.7h-6.4v6.4H718.2z"/>
	<path class="st0" d="M727.6,139.4v-23.9h9.3c1.6,0,3.1,0.3,4.5,0.8c1.4,0.5,2.5,1.3,3.5,2.3s1.7,2.2,2.3,3.7
		c0.6,1.4,0.8,3.1,0.8,4.9c0,1.8-0.2,3.5-0.7,5c-0.5,1.5-1.2,2.8-2.1,3.9c-0.9,1.1-2,1.9-3.3,2.5c-1.3,0.6-2.7,0.9-4.2,0.9H727.6z
		 M736.6,135.3c2.2,0,3.8-0.7,4.8-2c1-1.4,1.5-3.4,1.5-6.1c0-1.3-0.1-2.5-0.4-3.5c-0.2-1-0.6-1.7-1.2-2.4c-0.5-0.6-1.2-1.1-2.1-1.3
		c-0.8-0.3-1.9-0.4-3.1-0.4h-3.7v15.7H736.6z"/>
</g>
<line class="st1" x1="937.1" y1="275.3" x2="947" y2="167.3"/>
<polygon class="st1" points="937.1,275.3 894.3,84 947,167.3 "/>
<polygon class="st1" points="773,453 937.1,504.3 947,396.3 "/>
<line class="st1" x1="947" y1="396.3" x2="937.1" y2="504.3"/>
<line class="st1" x1="533" y1="224" x2="697.1" y2="275.3"/>
<path class="st1" d="M654.3,84L533,224L654.3,84z"/>
<line class="st1" x1="697.1" y1="275.3" x2="654.3" y2="84"/>
<line class="st1" x1="707" y1="396.3" x2="533" y2="453"/>
<path class="st1" d="M654.3,313L533,453L654.3,313z"/>
<line class="st1" x1="654.3" y1="313" x2="707" y2="396.3"/>
<polygon class="st2" points="64,363 397,467 417,248 "/>
<path class="st2" d="M310,79L64,363L310,79z"/>
<polygon class="st2" points="397,467 310,79 417,248 "/>
<g>
	<path class="st3" d="M46.3,384.4l-2.5-8.2H29.1l-2.8,8.2h-8.8l14.2-39.8h9.7l14,39.8H46.3z M36.4,353.5L36.4,353.5l-5.2,15.8h10.1
		L36.4,353.5z"/>
</g>
<g>
	<path class="st3" d="M407.7,502.4v-39.8h19.6c3.9,0,6.9,1,8.9,2.9c2,1.9,3.1,4.6,3.1,7.9c0,1.7-0.5,3.3-1.4,4.6
		c-0.9,1.3-2.1,2.3-3.5,2.9c0.8,0.3,1.6,0.7,2.4,1.2c0.7,0.5,1.4,1.1,1.9,1.9c0.5,0.8,1,1.7,1.3,2.8c0.3,1.1,0.5,2.3,0.5,3.8
		c0,3.6-1.2,6.5-3.7,8.7c-2.4,2.1-6.2,3.2-11.2,3.2H407.7z M415.7,469.5v8.6h10.5c3.4,0,5-1.4,5-4.3c0-1.5-0.4-2.6-1.3-3.3
		c-0.9-0.7-2.3-1-4.2-1H415.7z M426.3,495.6c1.9,0,3.4-0.5,4.5-1.6s1.6-2.4,1.6-4.1c0-1.8-0.5-3-1.6-3.8c-1.1-0.8-2.5-1.2-4.4-1.2
		h-10.7v10.7H426.3z"/>
</g>
<g>
	<path class="st3" d="M465.8,249.7c-0.4,2.3-1.1,4.3-2.1,6.2c-1,1.8-2.2,3.4-3.6,4.7c-1.5,1.3-3.1,2.3-5.1,3.1
		c-1.9,0.7-4,1.1-6.4,1.1c-2.6,0-5-0.4-7.3-1.3c-2.3-0.9-4.2-2.2-5.8-4c-1.6-1.8-2.9-3.9-3.9-6.5c-0.9-2.6-1.4-5.6-1.4-9
		c0-3.4,0.4-6.4,1.3-9.1c0.9-2.7,2.1-5,3.7-6.8c1.6-1.9,3.5-3.3,5.9-4.3c2.3-1,4.9-1.5,7.7-1.5c2.5,0,4.7,0.4,6.8,1.1
		c2,0.7,3.8,1.8,5.2,3.1c1.5,1.3,2.6,2.8,3.5,4.6c0.9,1.8,1.4,3.6,1.6,5.6h-8.3c-0.6-2.3-1.6-4.1-3.2-5.3c-1.6-1.3-3.4-1.9-5.4-1.9
		c-3.5,0-6,1.3-7.7,3.8c-1.6,2.5-2.5,5.9-2.5,10.3c0,4.4,0.8,7.9,2.4,10.4s4,3.7,7.3,3.7c2.5,0,4.5-0.7,6-2c1.5-1.3,2.5-3.3,3.1-5.8
		H465.8z"/>
</g>
<g>
	<g>
		<path class="st3" d="M45,52.4L31.5,12.6h8.9l8.7,28l8.6-28h8.6L52.8,52.4H45z"/>
		<path class="st3" d="M70.7,39.7c0.1,2.2,0.8,4,1.9,5.3c1.2,1.3,2.7,2,4.6,2c1.3,0,2.4-0.3,3.4-0.9c1-0.6,1.6-1.4,1.9-2.4h8
			c-0.9,3-2.5,5.4-4.8,7c-2.3,1.6-5,2.5-8.2,2.5c-9.8,0-14.8-5.4-14.8-16.1c0-2.3,0.3-4.3,1-6.2c0.6-1.8,1.6-3.4,2.8-4.7
			c1.2-1.3,2.7-2.3,4.5-3c1.8-0.7,3.8-1,6.1-1c4.6,0,8,1.5,10.3,4.4c2.3,2.9,3.5,7.3,3.5,13.2H70.7z M83,34.8c0-1.1-0.2-2-0.6-2.9
			c-0.3-0.8-0.8-1.5-1.4-2c-0.6-0.5-1.2-0.9-1.9-1.2c-0.7-0.3-1.5-0.4-2.2-0.4c-1.6,0-2.9,0.6-4,1.7c-1.1,1.1-1.8,2.7-2,4.8H83z"/>
		<path class="st3" d="M93.4,52.4V22.9h7.3v3.5c0.6-1,1.3-1.8,2-2.3c0.7-0.6,1.4-1,2.2-1.3c0.7-0.3,1.5-0.5,2.3-0.6
			c0.8-0.1,1.5-0.1,2.3-0.1h1v8c-0.7-0.1-1.4-0.2-2.2-0.2c-4.8,0-7.1,2.4-7.1,7.1v15.4H93.4z"/>
		<path class="st3" d="M129,33h7.3v8.4c0,1.6-0.2,3.1-0.7,4.5c-0.5,1.4-1.2,2.7-2.2,3.8c-1,1.1-2.2,2-3.7,2.6c-1.5,0.6-3.3,1-5.4,1
			c-2.2,0-4-0.3-5.5-1c-1.5-0.6-2.8-1.5-3.8-2.6c-1-1.1-1.7-2.3-2.1-3.8c-0.4-1.4-0.7-3-0.7-4.6V14.9h7.7v8h16.3v5.5H120v12.1
			c0,1.9,0.3,3.3,1,4.4c0.7,1,1.8,1.5,3.5,1.5c1.6,0,2.7-0.5,3.4-1.5c0.7-1,1.1-2.4,1.1-4.3V33z"/>
		<path class="st3" d="M139.3,19.3v-7.3h7.8v7.3H139.3z M139.3,52.4V22.9h7.8v29.5H139.3z"/>
		<path class="st3" d="M177,41.7c-0.2,1.7-0.7,3.3-1.5,4.7c-0.8,1.4-1.8,2.6-3,3.6c-1.2,1-2.6,1.8-4.1,2.3c-1.5,0.6-3.2,0.8-5,0.8
			c-2,0-3.8-0.3-5.5-1c-1.7-0.7-3.1-1.7-4.3-3c-1.2-1.3-2.1-3-2.8-5c-0.7-2-1-4.3-1-6.9c0-2.6,0.3-4.9,1-6.8
			c0.7-1.9,1.6-3.5,2.8-4.7c1.2-1.2,2.6-2.1,4.4-2.7c1.7-0.6,3.6-0.9,5.7-0.9c1.9,0,3.7,0.3,5.3,0.8c1.6,0.5,3,1.3,4.1,2.3
			c1.2,1,2.1,2.2,2.8,3.6c0.7,1.4,1.1,3,1.2,4.7h-7.9c-0.2-1.5-0.8-2.7-1.8-3.6c-1-0.9-2.3-1.3-3.8-1.3c-0.8,0-1.6,0.1-2.3,0.4
			c-0.7,0.3-1.4,0.8-1.9,1.4c-0.5,0.7-1,1.5-1.3,2.6c-0.3,1.1-0.5,2.5-0.5,4.1c0,3.2,0.6,5.6,1.7,7.2c1.2,1.6,2.5,2.3,4,2.3
			c1.5,0,2.8-0.4,3.9-1.3s1.7-2.1,1.9-3.7H177z"/>
		<path class="st3" d="M186.1,39.7c0.1,2.2,0.8,4,1.9,5.3c1.2,1.3,2.7,2,4.6,2c1.3,0,2.4-0.3,3.4-0.9c1-0.6,1.6-1.4,1.9-2.4h8
			c-0.9,3-2.5,5.4-4.8,7c-2.3,1.6-5,2.5-8.2,2.5c-9.8,0-14.8-5.4-14.8-16.1c0-2.3,0.3-4.3,1-6.2c0.6-1.8,1.6-3.4,2.8-4.7
			c1.2-1.3,2.7-2.3,4.5-3c1.8-0.7,3.8-1,6.1-1c4.6,0,8,1.5,10.3,4.4c2.3,2.9,3.5,7.3,3.5,13.2H186.1z M198.4,34.8
			c0-1.1-0.2-2-0.6-2.9c-0.3-0.8-0.8-1.5-1.4-2c-0.6-0.5-1.2-0.9-1.9-1.2c-0.7-0.3-1.5-0.4-2.2-0.4c-1.6,0-2.9,0.6-4,1.7
			c-1.1,1.1-1.8,2.7-2,4.8H198.4z"/>
		<path class="st3" d="M226.6,31.8c-0.2-1.4-0.7-2.3-1.5-3c-0.8-0.6-2.1-0.9-3.8-0.9c-1.6,0-2.8,0.2-3.6,0.6c-0.8,0.4-1.2,1-1.2,2
			c0,0.8,0.4,1.4,1.2,1.9c0.8,0.5,2,0.9,3.6,1.4c2.6,0.7,4.7,1.3,6.5,1.8c1.8,0.5,3.2,1.1,4.2,1.8c1.1,0.7,1.8,1.5,2.3,2.6
			c0.5,1,0.7,2.4,0.7,4.1c0,2.6-1.1,4.8-3.3,6.6c-2.2,1.7-5.5,2.6-9.8,2.6c-2.1,0-4-0.2-5.8-0.7c-1.7-0.5-3.2-1.2-4.4-2.1
			c-1.2-0.9-2.2-2-2.8-3.2c-0.7-1.3-1-2.7-1-4.2h8c0,1.4,0.5,2.5,1.6,3.2c1.1,0.8,2.5,1.1,4.3,1.1c1.5,0,2.7-0.2,3.8-0.7
			c1.1-0.5,1.6-1.2,1.6-2.1c0-1.1-0.4-1.9-1.2-2.3c-0.8-0.5-2-0.9-3.6-1.3c-2.9-0.6-5.2-1.3-7-2c-1.8-0.7-3.1-1.5-4.1-2.3
			c-1-0.8-1.6-1.8-2-2.8c-0.3-1-0.5-2.1-0.5-3.4c0-1.1,0.2-2.2,0.7-3.2c0.5-1,1.2-1.9,2.2-2.6c1-0.8,2.3-1.4,3.9-1.8
			c1.6-0.5,3.6-0.7,5.9-0.7c4.2,0,7.3,0.9,9.3,2.6c2,1.7,3,4.1,3.2,7.1H226.6z"/>
	</g>
</g>
<g>
	<g>
		<path class="st0" d="M701.7,57.4V17.6h17.6c2,0,3.7,0.3,5.3,1c1.6,0.7,2.9,1.6,4,2.8c1.1,1.2,2,2.5,2.6,4.1c0.6,1.6,0.9,3.2,0.9,5
			c0,1.8-0.3,3.5-0.9,5c-0.6,1.5-1.5,2.9-2.6,4c-1.1,1.1-2.5,2-4,2.6c-1.6,0.6-3.3,0.9-5.3,0.9H710v14.5H701.7z M717.9,36.2
			c2.4,0,4.1-0.5,5.2-1.6c1.1-1.1,1.6-2.5,1.6-4.3c0-1.7-0.5-3.1-1.6-4.1c-1.1-1.1-2.8-1.6-5.2-1.6H710v11.7H717.9z"/>
		<path class="st0" d="M733.6,57.4V17.1h7.8v40.3H733.6z"/>
		<path class="st0" d="M762.9,57.4c-0.2-0.8-0.4-1.6-0.5-2.6c-0.9,1-2.1,1.9-3.7,2.5c-1.5,0.6-3.3,0.9-5.3,0.9
			c-3.4,0-5.9-0.8-7.5-2.3s-2.4-3.4-2.4-5.8c0-2.1,0.3-3.8,1-5.1c0.7-1.3,1.6-2.3,2.8-3c1.2-0.7,2.6-1.3,4.3-1.6
			c1.7-0.3,3.5-0.6,5.4-0.9c2-0.3,3.3-0.6,4-1.1c0.7-0.5,1-1.2,1-2.3c0-1-0.4-1.7-1.3-2.3c-0.9-0.5-2.1-0.8-3.6-0.8
			c-1.8,0-3.1,0.4-3.9,1.2c-0.8,0.8-1.3,1.9-1.5,3.2h-7.3c0-1.5,0.3-2.9,0.8-4.2c0.5-1.3,1.2-2.4,2.2-3.3c1-0.9,2.3-1.6,4-2.1
			c1.6-0.5,3.6-0.8,6-0.8c2.3,0,4.3,0.3,5.9,0.8c1.6,0.5,2.9,1.3,3.9,2.3c1,1,1.7,2.2,2.1,3.7c0.4,1.5,0.7,3.1,0.7,4.9v18.7H762.9z
			 M762.4,42.9c-0.4,0.4-1,0.7-1.7,1s-1.9,0.5-3.3,0.8c-2.2,0.4-3.8,1-4.6,1.7c-0.8,0.7-1.3,1.7-1.3,2.9c0,2.2,1.3,3.3,3.8,3.3
			c1,0,1.9-0.2,2.8-0.5c0.9-0.3,1.6-0.8,2.2-1.4c0.6-0.6,1.1-1.3,1.5-2c0.4-0.8,0.6-1.6,0.6-2.5L762.4,42.9z"/>
		<path class="st0" d="M792.2,57.4V39.5c0-2.3-0.4-3.8-1.1-4.6c-0.8-0.8-2.1-1.2-3.9-1.2c-4,0-6.1,2.3-6.1,6.8v16.9h-7.8V27.9h7.4
			v4.3c0.9-1.7,2.1-2.9,3.7-3.8c1.5-0.9,3.5-1.3,5.9-1.3c1.4,0,2.7,0.2,3.9,0.6c1.2,0.4,2.2,1,3.1,1.9c0.9,0.8,1.5,1.9,2,3.1
			c0.5,1.2,0.8,2.6,0.8,4.2v20.5H792.2z"/>
		<path class="st0" d="M810.3,44.7c0.1,2.2,0.8,4,1.9,5.3c1.2,1.3,2.7,2,4.7,2c1.3,0,2.4-0.3,3.4-0.9c1-0.6,1.6-1.4,1.9-2.4h8
			c-0.9,3-2.5,5.4-4.8,7c-2.3,1.6-5,2.5-8.2,2.5c-9.8,0-14.8-5.4-14.8-16.1c0-2.3,0.3-4.3,1-6.2c0.6-1.8,1.6-3.4,2.8-4.7
			c1.2-1.3,2.7-2.3,4.5-3c1.8-0.7,3.8-1,6.1-1c4.6,0,8,1.5,10.3,4.4c2.3,2.9,3.5,7.3,3.5,13.2H810.3z M822.6,39.8
			c0-1.1-0.2-2-0.6-2.9c-0.3-0.8-0.8-1.5-1.4-2c-0.6-0.5-1.2-0.9-1.9-1.2c-0.7-0.3-1.5-0.4-2.2-0.4c-1.6,0-2.9,0.6-4,1.7
			c-1.1,1.1-1.8,2.7-2,4.8H822.6z"/>
		<path class="st0" d="M850.8,36.8c-0.2-1.4-0.7-2.3-1.5-3c-0.8-0.6-2.1-0.9-3.8-0.9c-1.6,0-2.8,0.2-3.6,0.6c-0.8,0.4-1.2,1-1.2,2
			c0,0.8,0.4,1.4,1.2,1.9c0.8,0.5,2,0.9,3.6,1.4c2.6,0.7,4.7,1.3,6.5,1.8c1.8,0.5,3.2,1.1,4.2,1.8c1.1,0.7,1.8,1.5,2.3,2.6
			c0.5,1,0.7,2.4,0.7,4.1c0,2.6-1.1,4.8-3.3,6.6c-2.2,1.7-5.5,2.6-9.8,2.6c-2.1,0-4-0.2-5.8-0.7c-1.7-0.5-3.2-1.2-4.4-2.1
			c-1.2-0.9-2.2-2-2.8-3.2c-0.7-1.3-1-2.7-1-4.2h8c0,1.4,0.5,2.5,1.6,3.2c1.1,0.8,2.5,1.1,4.3,1.1c1.5,0,2.7-0.2,3.8-0.7
			c1.1-0.5,1.6-1.2,1.6-2.1c0-1.1-0.4-1.9-1.2-2.3c-0.8-0.5-2-0.9-3.6-1.3c-2.9-0.6-5.2-1.3-7-2c-1.8-0.7-3.1-1.5-4.1-2.3
			c-1-0.8-1.6-1.8-2-2.8c-0.3-1-0.5-2.1-0.5-3.4c0-1.1,0.2-2.2,0.7-3.2c0.5-1,1.2-1.9,2.2-2.6c1-0.8,2.3-1.4,3.9-1.8
			c1.6-0.5,3.6-0.7,5.9-0.7c4.2,0,7.3,0.9,9.3,2.6c2,1.7,3,4.1,3.2,7.1H850.8z"/>
	</g>
</g>
<g>
	<path class="st3" d="M305.7,71.4V31.6h15.4c2.7,0,5.2,0.4,7.4,1.3c2.3,0.9,4.2,2.2,5.8,3.9c1.6,1.7,2.9,3.7,3.8,6.1
		c0.9,2.4,1.4,5.1,1.4,8.2c0,3-0.4,5.8-1.2,8.3c-0.8,2.5-2,4.6-3.5,6.4c-1.5,1.8-3.3,3.2-5.5,4.1c-2.1,1-4.5,1.5-7,1.5H305.7z
		 M320.7,64.6c3.6,0,6.3-1.1,7.9-3.4c1.6-2.3,2.5-5.6,2.5-10.2c0-2.2-0.2-4.2-0.6-5.8c-0.4-1.6-1.1-2.9-2-3.9s-2.1-1.8-3.5-2.2
		c-1.4-0.5-3.1-0.7-5.1-0.7h-6.2v26.2H320.7z"/>
</g>
</svg>
