<?xml version="1.0" encoding="UTF-8" standalone="no"?>
<!-- Generator: Adobe Illustrator 21.0.2, SVG Export Plug-In . SVG Version: 6.00 Build 0)  -->

<svg
   xmlns:dc="http://purl.org/dc/elements/1.1/"
   xmlns:cc="http://creativecommons.org/ns#"
   xmlns:rdf="http://www.w3.org/1999/02/22-rdf-syntax-ns#"
   xmlns:svg="http://www.w3.org/2000/svg"
   xmlns="http://www.w3.org/2000/svg"
   xmlns:sodipodi="http://sodipodi.sourceforge.net/DTD/sodipodi-0.dtd"
   xmlns:inkscape="http://www.inkscape.org/namespaces/inkscape"
   version="1.1"
   id="Layer_1"
   x="0px"
   y="0px"
   viewBox="0 0 512 256"
   style="enable-background:new 0 0 512 256;"
   xml:space="preserve"
   sodipodi:docname="search-expanded-simplex.svg"
   inkscape:version="0.92.1 r"><metadata
     id="metadata7382"><rdf:RDF><cc:Work
         rdf:about=""><dc:format>image/svg+xml</dc:format><dc:type
           rdf:resource="http://purl.org/dc/dcmitype/StillImage" /><dc:title /></cc:Work></rdf:RDF></metadata><defs
     id="defs7380"><marker
       inkscape:isstock="true"
       style="overflow:visible"
       id="marker12000"
       refX="0"
       refY="0"
       orient="auto"
       inkscape:stockid="Arrow2Mend"><path
         transform="scale(-0.6)"
         d="M 8.7185878,4.0337352 -2.2072895,0.01601326 8.7185884,-4.0017078 c -1.7454984,2.3720609 -1.7354408,5.6174519 -6e-7,8.035443 z"
         style="fill:#8fbcbb;fill-opacity:1;fill-rule:evenodd;stroke:#8fbcbb;stroke-width:0.625;stroke-linejoin:round;stroke-opacity:1"
         id="path11998"
         inkscape:connector-curvature="0" /></marker><marker
       inkscape:stockid="Arrow2Mend"
       orient="auto"
       refY="0.0"
       refX="0.0"
       id="marker9073"
       style="overflow:visible;"
       inkscape:isstock="true"><path
         id="path9071"
         style="fill-rule:evenodd;stroke-width:0.625;stroke-linejoin:round;stroke:#d08770;stroke-opacity:1;fill:#d08770;fill-opacity:1"
         d="M 8.7185878,4.0337352 L -2.2072895,0.016013256 L 8.7185884,-4.0017078 C 6.9730900,-1.6296469 6.9831476,1.6157441 8.7185878,4.0337352 z "
         transform="scale(0.6) rotate(180) translate(0,0)" /></marker><marker
       inkscape:stockid="Arrow2Mend"
       orient="auto"
       refY="0.0"
       refX="0.0"
       id="Arrow2Mend"
       style="overflow:visible;"
       inkscape:isstock="true"><path
         id="path4853"
         style="fill-rule:evenodd;stroke-width:0.625;stroke-linejoin:round;stroke:#d08770;stroke-opacity:1;fill:#d08770;fill-opacity:1"
         d="M 8.7185878,4.0337352 L -2.2072895,0.016013256 L 8.7185884,-4.0017078 C 6.9730900,-1.6296469 6.9831476,1.6157441 8.7185878,4.0337352 z "
         transform="scale(0.6) rotate(180) translate(0,0)" /></marker><marker
       inkscape:stockid="Arrow2Lend"
       orient="auto"
       refY="0.0"
       refX="0.0"
       id="Arrow2Lend"
       style="overflow:visible;"
       inkscape:isstock="true"><path
         id="path4847"
         style="fill-rule:evenodd;stroke-width:0.625;stroke-linejoin:round;stroke:#d08770;stroke-opacity:1;fill:#d08770;fill-opacity:1"
         d="M 8.7185878,4.0337352 L -2.2072895,0.016013256 L 8.7185884,-4.0017078 C 6.9730900,-1.6296469 6.9831476,1.6157441 8.7185878,4.0337352 z "
         transform="scale(1.1) rotate(180) translate(1,0)" /></marker><marker
       inkscape:stockid="Arrow1Send"
       orient="auto"
       refY="0.0"
       refX="0.0"
       id="Arrow1Send"
       style="overflow:visible;"
       inkscape:isstock="true"><path
         id="path4841"
         d="M 0.0,0.0 L 5.0,-5.0 L -12.5,0.0 L 5.0,5.0 L 0.0,0.0 z "
         style="fill-rule:evenodd;stroke:#d08770;stroke-width:1pt;stroke-opacity:1;fill:#d08770;fill-opacity:1"
         transform="scale(0.2) rotate(180) translate(6,0)" /></marker><marker
       inkscape:stockid="Arrow1Lend"
       orient="auto"
       refY="0.0"
       refX="0.0"
       id="Arrow1Lend"
       style="overflow:visible;"
       inkscape:isstock="true"><path
         id="path4829"
         d="M 0.0,0.0 L 5.0,-5.0 L -12.5,0.0 L 5.0,5.0 L 0.0,0.0 z "
         style="fill-rule:evenodd;stroke:#d08770;stroke-width:1pt;stroke-opacity:1;fill:#d08770;fill-opacity:1"
         transform="scale(0.8) rotate(180) translate(12.5,0)" /></marker><marker
       inkscape:stockid="Arrow2Mend"
       orient="auto"
       refY="0"
       refX="0"
       id="Arrow2Mend-7"
       style="overflow:visible"
       inkscape:isstock="true"><path
         inkscape:connector-curvature="0"
         id="path4853-8"
         style="fill:#8fbcbb;fill-opacity:1;fill-rule:evenodd;stroke:#8fbcbb;stroke-width:0.625;stroke-linejoin:round;stroke-opacity:1"
         d="M 8.7185878,4.0337352 -2.2072895,0.01601326 8.7185884,-4.0017078 c -1.7454984,2.3720609 -1.7354408,5.6174519 -6e-7,8.035443 z"
         transform="scale(-0.6)" /></marker><marker
       inkscape:stockid="Arrow2Mend"
       orient="auto"
       refY="0"
       refX="0"
       id="marker9073-9"
       style="overflow:visible"
       inkscape:isstock="true"><path
         inkscape:connector-curvature="0"
         id="path9071-6"
         style="fill:#8fbcbb;fill-opacity:1;fill-rule:evenodd;stroke:#8fbcbb;stroke-width:0.625;stroke-linejoin:round;stroke-opacity:1"
         d="M 8.7185878,4.0337352 -2.2072895,0.01601326 8.7185884,-4.0017078 c -1.7454984,2.3720609 -1.7354408,5.6174519 -6e-7,8.035443 z"
         transform="scale(-0.6)" /></marker><marker
       inkscape:stockid="Arrow2Mend"
       orient="auto"
       refY="0"
       refX="0"
       id="marker9073-1"
       style="overflow:visible"
       inkscape:isstock="true"><path
         inkscape:connector-curvature="0"
         id="path9071-0"
         style="fill:#d08770;fill-opacity:1;fill-rule:evenodd;stroke:#d08770;stroke-width:0.625;stroke-linejoin:round;stroke-opacity:1"
         d="M 8.7185878,4.0337352 -2.2072895,0.01601326 8.7185884,-4.0017078 c -1.7454984,2.3720609 -1.7354408,5.6174519 -6e-7,8.035443 z"
         transform="scale(-0.6)" /></marker><marker
       inkscape:stockid="Arrow2Mend"
       orient="auto"
       refY="0"
       refX="0"
       id="marker9073-1-2"
       style="overflow:visible"
       inkscape:isstock="true"
       inkscape:collect="always"><path
         inkscape:connector-curvature="0"
         id="path9071-0-2"
         style="fill:#8fbcbb;fill-opacity:1;fill-rule:evenodd;stroke:#8fbcbb;stroke-width:0.625;stroke-linejoin:round;stroke-opacity:1"
         d="M 8.7185878,4.0337352 -2.2072895,0.01601326 8.7185884,-4.0017078 c -1.7454984,2.3720609 -1.7354408,5.6174519 -6e-7,8.035443 z"
         transform="scale(-0.6)" /></marker><marker
       inkscape:stockid="Arrow2Mend"
       orient="auto"
       refY="0"
       refX="0"
       id="marker9073-1-2-7"
       style="overflow:visible"
       inkscape:isstock="true"><path
         inkscape:connector-curvature="0"
         id="path9071-0-2-5"
         style="fill:#8fbcbb;fill-opacity:1;fill-rule:evenodd;stroke:#8fbcbb;stroke-width:0.625;stroke-linejoin:round;stroke-opacity:1"
         d="M 8.7185878,4.0337352 -2.2072895,0.01601326 8.7185884,-4.0017078 c -1.7454984,2.3720609 -1.7354408,5.6174519 -6e-7,8.035443 z"
         transform="scale(-0.6)" /></marker><marker
       inkscape:stockid="Arrow2Mend"
       orient="auto"
       refY="0"
       refX="0"
       id="marker9073-1-2-4"
       style="overflow:visible"
       inkscape:isstock="true"><path
         inkscape:connector-curvature="0"
         id="path9071-0-2-6"
         style="fill:#8fbcbb;fill-opacity:1;fill-rule:evenodd;stroke:#8fbcbb;stroke-width:0.625;stroke-linejoin:round;stroke-opacity:1"
         d="M 8.7185878,4.0337352 -2.2072895,0.01601326 8.7185884,-4.0017078 c -1.7454984,2.3720609 -1.7354408,5.6174519 -6e-7,8.035443 z"
         transform="scale(-0.6)" /></marker><marker
       inkscape:stockid="Arrow2Mend"
       orient="auto"
       refY="0"
       refX="0"
       id="marker9073-1-2-79"
       style="overflow:visible"
       inkscape:isstock="true"><path
         inkscape:connector-curvature="0"
         id="path9071-0-2-7"
         style="fill:#8fbcbb;fill-opacity:1;fill-rule:evenodd;stroke:#8fbcbb;stroke-width:0.625;stroke-linejoin:round;stroke-opacity:1"
         d="M 8.7185878,4.0337352 -2.2072895,0.01601326 8.7185884,-4.0017078 c -1.7454984,2.3720609 -1.7354408,5.6174519 -6e-7,8.035443 z"
         transform="scale(-0.6)" /></marker><marker
       inkscape:stockid="Arrow2Mend"
       orient="auto"
       refY="0"
       refX="0"
       id="marker9073-1-2-9"
       style="overflow:visible"
       inkscape:isstock="true"
       inkscape:collect="always"><path
         inkscape:connector-curvature="0"
         id="path9071-0-2-1"
         style="fill:#8fbcbb;fill-opacity:1;fill-rule:evenodd;stroke:#8fbcbb;stroke-width:0.625;stroke-linejoin:round;stroke-opacity:1"
         d="M 8.7185878,4.0337352 -2.2072895,0.01601326 8.7185884,-4.0017078 c -1.7454984,2.3720609 -1.7354408,5.6174519 -6e-7,8.035443 z"
         transform="scale(-0.6)" /></marker></defs><sodipodi:namedview
     pagecolor="#ffffff"
     bordercolor="#666666"
     borderopacity="1"
     objecttolerance="10"
     gridtolerance="10"
     guidetolerance="10"
     inkscape:pageopacity="0"
     inkscape:pageshadow="2"
     inkscape:window-width="1920"
     inkscape:window-height="1016"
     id="namedview7378"
     showgrid="false"
     inkscape:zoom="1.585466"
     inkscape:cx="186.00807"
     inkscape:cy="221.45096"
     inkscape:window-x="0"
     inkscape:window-y="34"
     inkscape:window-maximized="1"
     inkscape:current-layer="Layer_1" /><style
     type="text/css"
     id="style7281">
	.st0{fill:none;stroke:#88c0d0;stroke-width:4;stroke-linecap:round;stroke-linejoin:round;stroke-miterlimit:10;}
	.st1{fill:none;stroke:#8fbcbb;stroke-width:4;stroke-linecap:round;stroke-linejoin:round;stroke-miterlimit:10;}
	.st2{fill:none;stroke:#bf616a;stroke-width:4;stroke-linecap:round;stroke-linejoin:round;stroke-miterlimit:10;}
	.st3{fill:#ebcb8b;}
	.st4{fill:none;stroke:#d08770;stroke-width:4;stroke-linecap:round;stroke-linejoin:round;}
	.st5{fill:#d08770;}
	.st6{fill:none;stroke:#ebcb8b;stroke-width:4;stroke-linecap:round;stroke-linejoin:round;stroke-miterlimit:10;}
</style><line
     class="st0"
     x1="308.97855"
     y1="15.213349"
     x2="308.97855"
     y2="199.21336"
     id="line7283"
     style="fill:none;stroke:#88c0d0;stroke-width:4;stroke-linecap:round;stroke-linejoin:round;stroke-miterlimit:10" /><line
     class="st0"
     x1="154.97853"
     y1="126.21336"
     x2="390.97855"
     y2="126.21336"
     id="line7285"
     style="fill:none;stroke:#88c0d0;stroke-width:4;stroke-linecap:round;stroke-linejoin:round;stroke-miterlimit:10" /><rect
     x="7.7754545"
     y="11.411265"
     class="st0"
     width="83"
     height="52"
     id="rect7287"
     style="fill:none;stroke:#88c0d0;stroke-width:4;stroke-linecap:round;stroke-linejoin:round;stroke-miterlimit:10" /><polygon
     class="st1"
     points="110,132 86,63 163,49 "
     id="polygon7289"
     transform="translate(-29.224546,-14.588735)"
     style="fill:none;stroke:#8fbcbb;stroke-width:4;stroke-linecap:round;stroke-linejoin:round;stroke-miterlimit:10" /><polyline
     class="st2"
     points="224.5,151.7 305.7,63.5 386.8,63.5 411.5,120 411.5,171.1 321.5,187 224.5,187 224.5,151.7 "
     id="polyline7291"
     transform="translate(-57.021465,-30.786648)"
     style="fill:none;stroke:#bf616a;stroke-width:4;stroke-linecap:round;stroke-linejoin:round;stroke-miterlimit:10" /><line
     class="st6"
     x1="167.97853"
     y1="121.21336"
     x2="328.97855"
     y2="32.213348"
     id="line7349"
     style="fill:none;stroke:#ebcb8b;stroke-width:4;stroke-linecap:round;stroke-linejoin:round;stroke-miterlimit:10" /><line
     class="st6"
     x1="354.97855"
     y1="140.21336"
     x2="328.97855"
     y2="32.213348"
     id="line7351"
     style="fill:none;stroke:#ebcb8b;stroke-width:4;stroke-linecap:round;stroke-linejoin:round;stroke-miterlimit:10" /><g
     id="g7353" /><g
     id="g7355" /><g
     id="g7357" /><g
     id="g7359" /><g
     id="g7361" /><g
     id="g7363" /><g
     id="g7365" /><g
     id="g7367" /><g
     id="g7369" /><g
     id="g7371" /><g
     id="g7373" /><g
     id="g7375" /><path
     style="opacity:1;vector-effect:none;fill:none;fill-opacity:1;fill-rule:evenodd;stroke:#8fbcbb;stroke-width:4;stroke-linecap:round;stroke-linejoin:round;stroke-miterlimit:10;stroke-dasharray:none;stroke-dashoffset:0;stroke-opacity:1"
     d="m 167.47853,120.91335 97.00001,35.3"
     id="path10324"
     inkscape:connector-curvature="0"
     sodipodi:nodetypes="cc" /><g
     aria-label="Expanded polygon"
     style="font-style:normal;font-variant:normal;font-weight:normal;font-stretch:normal;font-size:24px;line-height:125%;font-family:Coolvetica;-inkscape-font-specification:Coolvetica;letter-spacing:0px;word-spacing:0px;fill:#8fbcbb;fill-opacity:1;stroke:none;stroke-width:1px;stroke-linecap:butt;stroke-linejoin:miter;stroke-opacity:1"
     id="text10347"><path
       d="m 108.14455,210.46933 v -15.936 h 11.712 v 2.784 h -8.472 v 3.408 h 7.8 v 2.808 h -7.8 v 4.104 h 8.856 v 2.832 z"
       style=""
       id="path14380" /><path
       d="m 128.1448,210.46933 -2.064,-3.552 -2.016,3.552 h -3.744 l 3.96,-6.024 -3.84,-5.784 h 3.768 l 1.992,3.432 2.016,-3.432 h 3.624 l -3.912,5.784 4.032,6.024 z"
       style=""
       id="path14382" /><path
       d="m 138.20643,208.11733 q 2.688,0 2.688,-3.648 0,-1.584 -0.744,-2.568 -0.744,-1.008 -1.92,-1.008 -1.128,0 -1.896,0.936 -0.744,0.936 -0.744,2.448 0,3.84 2.616,3.84 z m -5.568,7.944 v -17.4 h 3 l 0.024,1.44 q 1.08,-1.752 3.288,-1.752 1.104,0 2.04,0.432 0.96,0.432 1.632,1.248 0.672,0.816 1.056,1.992 0.384,1.176 0.384,2.664 0,1.344 -0.336,2.472 -0.312,1.104 -0.936,1.92 -0.624,0.816 -1.536,1.272 -0.888,0.432 -2.04,0.432 -2.184,0 -3.504,-1.848 v 7.128 z"
       style=""
       id="path14384" /><path
       d="m 152.2363,204.68533 q -0.24,0.24 -0.696,0.384 -0.456,0.144 -1.32,0.312 -1.344,0.264 -1.848,0.672 -0.504,0.408 -0.504,1.176 0,1.32 1.512,1.32 0.6,0 1.104,-0.192 0.528,-0.216 0.888,-0.552 0.384,-0.36 0.6,-0.816 0.24,-0.48 0.24,-1.008 z m 0.216,5.784 q -0.144,-0.456 -0.192,-1.056 -0.552,0.624 -1.464,1.008 -0.912,0.36 -2.112,0.36 -2.04,0 -3,-0.888 -0.936,-0.912 -0.936,-2.352 0,-1.272 0.408,-2.016 0.408,-0.768 1.128,-1.2 0.72,-0.432 1.704,-0.624 1.008,-0.216 2.184,-0.384 1.176,-0.168 1.584,-0.432 0.408,-0.288 0.408,-0.912 0,-0.576 -0.552,-0.888 -0.528,-0.336 -1.44,-0.336 -1.08,0 -1.56,0.48 -0.456,0.48 -0.576,1.272 h -2.904 q 0.024,-0.912 0.288,-1.68 0.288,-0.768 0.888,-1.32 0.624,-0.552 1.608,-0.84 0.984,-0.312 2.4,-0.312 1.392,0 2.352,0.312 0.984,0.312 1.56,0.912 0.6,0.576 0.864,1.464 0.264,0.864 0.264,1.968 v 7.464 z"
       style=""
       id="path14386" /><path
       d="m 164.15155,210.46933 v -7.152 q 0,-1.368 -0.456,-1.848 -0.456,-0.48 -1.56,-0.48 -2.424,0 -2.424,2.712 v 6.768 h -3.12 v -11.808 h 2.976 v 1.728 q 0.552,-1.008 1.464,-1.512 0.912,-0.528 2.352,-0.528 0.84,0 1.56,0.264 0.72,0.24 1.224,0.744 0.528,0.504 0.816,1.248 0.312,0.72 0.312,1.68 v 8.184 z"
       style=""
       id="path14388" /><path
       d="m 174.13668,208.23733 q 1.128,0 1.872,-0.936 0.768,-0.936 0.768,-2.448 0,-3.84 -2.616,-3.84 -2.688,0 -2.688,3.648 0,1.584 0.744,2.592 0.744,0.984 1.92,0.984 z m 2.592,2.232 -0.024,-1.44 q -1.08,1.752 -3.288,1.752 -1.128,0 -2.064,-0.432 -0.936,-0.432 -1.608,-1.248 -0.672,-0.816 -1.056,-1.992 -0.384,-1.176 -0.384,-2.664 0,-1.344 0.312,-2.448 0.336,-1.128 0.96,-1.944 0.624,-0.816 1.512,-1.248 0.912,-0.456 2.064,-0.456 2.184,0 3.504,1.848 v -5.856 h 3.072 v 16.128 z"
       style=""
       id="path14390" /><path
       d="m 188.74255,203.41333 q -0.024,-0.648 -0.24,-1.128 -0.192,-0.504 -0.528,-0.816 -0.336,-0.336 -0.768,-0.48 -0.432,-0.168 -0.888,-0.168 -0.936,0 -1.632,0.696 -0.672,0.672 -0.768,1.896 z m -4.92,1.968 q 0.072,1.344 0.768,2.136 0.72,0.792 1.872,0.792 0.768,0 1.344,-0.336 0.6,-0.36 0.768,-0.984 h 3.216 q -0.552,1.824 -1.92,2.808 -1.368,0.984 -3.264,0.984 -5.904,0 -5.904,-6.432 0,-1.368 0.384,-2.472 0.384,-1.104 1.104,-1.896 0.744,-0.792 1.8,-1.2 1.056,-0.432 2.424,-0.432 2.736,0 4.128,1.752 1.416,1.752 1.416,5.28 z"
       style=""
       id="path14392" /><path
       d="m 198.51168,208.23733 q 1.128,0 1.872,-0.936 0.768,-0.936 0.768,-2.448 0,-3.84 -2.616,-3.84 -2.688,0 -2.688,3.648 0,1.584 0.744,2.592 0.744,0.984 1.92,0.984 z m 2.592,2.232 -0.024,-1.44 q -1.08,1.752 -3.288,1.752 -1.128,0 -2.064,-0.432 -0.936,-0.432 -1.608,-1.248 -0.672,-0.816 -1.056,-1.992 -0.384,-1.176 -0.384,-2.664 0,-1.344 0.312,-2.448 0.336,-1.128 0.96,-1.944 0.624,-0.816 1.512,-1.248 0.912,-0.456 2.064,-0.456 2.184,0 3.504,1.848 v -5.856 h 3.072 v 16.128 z"
       style=""
       id="path14394" /><path
       d="m 216.8158,208.11733 q 2.688,0 2.688,-3.648 0,-1.584 -0.744,-2.568 -0.744,-1.008 -1.92,-1.008 -1.128,0 -1.896,0.936 -0.744,0.936 -0.744,2.448 0,3.84 2.616,3.84 z m -5.568,7.944 v -17.4 h 3 l 0.024,1.44 q 1.08,-1.752 3.288,-1.752 1.104,0 2.04,0.432 0.96,0.432 1.632,1.248 0.672,0.816 1.056,1.992 0.384,1.176 0.384,2.664 0,1.344 -0.336,2.472 -0.312,1.104 -0.936,1.92 -0.624,0.816 -1.536,1.272 -0.888,0.432 -2.04,0.432 -2.184,0 -3.504,-1.848 v 7.128 z"
       style=""
       id="path14396" /><path
       d="m 229.47768,208.16533 q 2.856,0 2.856,-3.6 0,-3.576 -2.856,-3.576 -2.856,0 -2.856,3.576 0,3.6 2.856,3.6 z m 0,2.616 q -1.44,0 -2.568,-0.456 -1.128,-0.456 -1.92,-1.272 -0.768,-0.816 -1.176,-1.968 -0.408,-1.152 -0.408,-2.52 0,-1.392 0.408,-2.544 0.432,-1.152 1.224,-1.968 0.792,-0.816 1.896,-1.248 1.128,-0.456 2.544,-0.456 1.392,0 2.496,0.456 1.104,0.432 1.872,1.248 0.792,0.792 1.2,1.944 0.432,1.152 0.432,2.568 0,1.416 -0.432,2.568 -0.408,1.128 -1.2,1.944 -0.768,0.816 -1.896,1.272 -1.104,0.432 -2.472,0.432 z"
       style=""
       id="path14398" /><path
       d="m 236.46655,210.46933 v -16.128 h 3.12 v 16.128 z"
       style=""
       id="path14400" /><path
       d="m 248.33793,208.90933 q -0.336,0.792 -1.224,1.248 -0.864,0.432 -1.968,0.432 -0.936,0 -1.728,-0.288 -0.792,-0.312 -1.368,-0.864 -0.576,-0.576 -0.912,-1.344 -0.312,-0.792 -0.312,-1.776 v -7.656 h 3.12 v 7.2 q 0,2.208 1.992,2.208 1.08,0 1.728,-0.624 0.672,-0.624 0.672,-1.584 v -7.2 h 3.12 v 12.12 q 0,1.248 -0.432,2.232 -0.408,0.984 -1.152,1.656 -0.72,0.672 -1.728,1.032 -0.984,0.36 -2.112,0.36 -2.616,0 -3.912,-1.32 -1.296,-1.32 -1.296,-3.624 h 2.904 q 0,1.056 0.6,1.656 0.624,0.6 1.848,0.6 0.432,0 0.816,-0.192 0.384,-0.168 0.672,-0.504 0.312,-0.312 0.48,-0.792 0.192,-0.48 0.192,-1.056 z"
       style=""
       id="path14402" /><path
       d="m 258.3493,208.11733 q 1.152,0 1.896,-0.864 0.768,-0.888 0.768,-2.4 0,-3.792 -2.664,-3.792 -2.664,0 -2.664,3.6 0,1.584 0.744,2.52 0.768,0.936 1.92,0.936 z m 2.568,0.768 q -0.336,0.792 -1.224,1.248 -0.864,0.432 -2.016,0.432 -1.464,0 -2.472,-0.504 -0.984,-0.528 -1.608,-1.368 -0.6,-0.84 -0.888,-1.944 -0.264,-1.104 -0.264,-2.256 0,-1.368 0.408,-2.496 0.408,-1.152 1.104,-1.944 0.696,-0.816 1.632,-1.248 0.936,-0.456 2.016,-0.456 2.208,0 3.312,1.776 v -1.464 h 3.12 v 11.928 q 0,1.344 -0.456,2.352 -0.456,1.032 -1.248,1.704 -0.792,0.696 -1.872,1.056 -1.08,0.36 -2.304,0.36 -1.224,0 -2.28,-0.36 -1.056,-0.336 -1.824,-0.984 -0.744,-0.624 -1.176,-1.536 -0.432,-0.912 -0.432,-2.064 h 2.904 q 0,1.08 0.696,1.656 0.72,0.6 1.896,0.6 1.248,0 2.112,-0.696 0.864,-0.672 0.864,-1.848 z"
       style=""
       id="path14404" /><path
       d="m 271.10268,208.16533 q 2.856,0 2.856,-3.6 0,-3.576 -2.856,-3.576 -2.856,0 -2.856,3.576 0,3.6 2.856,3.6 z m 0,2.616 q -1.44,0 -2.568,-0.456 -1.128,-0.456 -1.92,-1.272 -0.768,-0.816 -1.176,-1.968 -0.408,-1.152 -0.408,-2.52 0,-1.392 0.408,-2.544 0.432,-1.152 1.224,-1.968 0.792,-0.816 1.896,-1.248 1.128,-0.456 2.544,-0.456 1.392,0 2.496,0.456 1.104,0.432 1.872,1.248 0.792,0.792 1.2,1.944 0.432,1.152 0.432,2.568 0,1.416 -0.432,2.568 -0.408,1.128 -1.2,1.944 -0.768,0.816 -1.896,1.272 -1.104,0.432 -2.472,0.432 z"
       style=""
       id="path14406" /><path
       d="m 285.65155,210.46933 v -7.152 q 0,-1.368 -0.456,-1.848 -0.456,-0.48 -1.56,-0.48 -2.424,0 -2.424,2.712 v 6.768 h -3.12 v -11.808 h 2.976 v 1.728 q 0.552,-1.008 1.464,-1.512 0.912,-0.528 2.352,-0.528 0.84,0 1.56,0.264 0.72,0.24 1.224,0.744 0.528,0.504 0.816,1.248 0.312,0.72 0.312,1.68 v 8.184 z"
       style=""
       id="path14408" /></g><g
     aria-label="New closest edge
(exists on MD
boundary)"
     style="font-style:normal;font-variant:normal;font-weight:normal;font-stretch:normal;font-size:24px;line-height:125%;font-family:Coolvetica;-inkscape-font-specification:'Coolvetica, Normal';font-variant-ligatures:normal;font-variant-caps:normal;font-variant-numeric:normal;font-feature-settings:normal;text-align:center;letter-spacing:0px;word-spacing:0px;writing-mode:lr-tb;text-anchor:middle;opacity:1;vector-effect:none;fill:#d08770;fill-opacity:1;stroke:none;stroke-width:1;stroke-linecap:butt;stroke-linejoin:miter;stroke-miterlimit:4;stroke-dasharray:none;stroke-dashoffset:0;stroke-opacity:1"
     id="text10347-0"><path
       d="m 343.27638,186.621 -6.816,-10.704 v 10.704 h -3.096 v -15.936 h 3.528 l 6.336,10.248 v -10.248 h 3.12 v 15.936 z"
       style=""
       id="path14411" /><path
       d="m 355.27488,179.565 q -0.024,-0.648 -0.24,-1.128 -0.192,-0.504 -0.528,-0.816 -0.336,-0.336 -0.768,-0.48 -0.432,-0.168 -0.888,-0.168 -0.936,0 -1.632,0.696 -0.672,0.672 -0.768,1.896 z m -4.92,1.968 q 0.072,1.344 0.768,2.136 0.72,0.792 1.872,0.792 0.768,0 1.344,-0.336 0.6,-0.36 0.768,-0.984 h 3.216 q -0.552,1.824 -1.92,2.808 -1.368,0.984 -3.264,0.984 -5.904,0 -5.904,-6.432 0,-1.368 0.384,-2.472 0.384,-1.104 1.104,-1.896 0.744,-0.792 1.8,-1.2 1.056,-0.432 2.424,-0.432 2.736,0 4.128,1.752 1.416,1.752 1.416,5.28 z"
       style=""
       id="path14413" /><path
       d="m 368.446,186.621 -1.872,-6.864 -1.872,6.864 h -3.192 l -3.36,-11.808 h 3.288 l 1.92,7.584 1.632,-7.584 h 3.168 l 1.848,7.584 1.8,-7.584 h 3.216 l -3.384,11.808 z"
       style=""
       id="path14415" /><path
       d="m 392.30275,182.349 q -0.12,1.032 -0.6,1.872 -0.456,0.84 -1.176,1.44 -0.72,0.6 -1.656,0.936 -0.912,0.336 -1.992,0.336 -1.2,0 -2.208,-0.384 -0.984,-0.408 -1.704,-1.2 -0.72,-0.816 -1.128,-1.992 -0.384,-1.2 -0.384,-2.784 0,-1.584 0.384,-2.736 0.408,-1.152 1.128,-1.872 0.72,-0.744 1.728,-1.104 1.032,-0.36 2.28,-0.36 1.152,0 2.088,0.312 0.96,0.312 1.656,0.912 0.72,0.6 1.128,1.44 0.408,0.84 0.48,1.872 h -3.144 q -0.12,-0.912 -0.744,-1.416 -0.6,-0.528 -1.488,-0.528 -0.504,0 -0.936,0.168 -0.432,0.168 -0.768,0.576 -0.312,0.384 -0.504,1.056 -0.192,0.648 -0.192,1.608 0,1.944 0.696,2.88 0.696,0.936 1.608,0.936 0.912,0 1.56,-0.504 0.648,-0.504 0.744,-1.464 z"
       style=""
       id="path14417" /><path
       d="m 393.10825,186.621 v -16.128 h 3.12 v 16.128 z"
       style=""
       id="path14419" /><path
       d="m 403.27563,184.317 q 2.856,0 2.856,-3.6 0,-3.576 -2.856,-3.576 -2.856,0 -2.856,3.576 0,3.6 2.856,3.6 z m 0,2.616 q -1.44,0 -2.568,-0.456 -1.128,-0.456 -1.92,-1.272 -0.768,-0.816 -1.176,-1.968 -0.408,-1.152 -0.408,-2.52 0,-1.392 0.408,-2.544 0.432,-1.152 1.224,-1.968 0.792,-0.816 1.896,-1.248 1.128,-0.456 2.544,-0.456 1.392,0 2.496,0.456 1.104,0.432 1.872,1.248 0.792,0.792 1.2,1.944 0.432,1.152 0.432,2.568 0,1.416 -0.432,2.568 -0.408,1.128 -1.2,1.944 -0.768,0.816 -1.896,1.272 -1.104,0.432 -2.472,0.432 z"
       style=""
       id="path14421" /><path
       d="m 417.3685,178.389 q -0.12,-0.816 -0.624,-1.176 -0.48,-0.384 -1.488,-0.384 -0.96,0 -1.464,0.24 -0.48,0.216 -0.48,0.768 0,0.48 0.48,0.768 0.504,0.288 1.44,0.552 1.536,0.432 2.592,0.744 1.056,0.288 1.68,0.696 0.648,0.408 0.912,1.032 0.288,0.6 0.288,1.632 0,1.584 -1.32,2.64 -1.32,1.032 -3.912,1.032 -1.272,0 -2.304,-0.288 -1.032,-0.288 -1.776,-0.816 -0.72,-0.552 -1.128,-1.296 -0.384,-0.768 -0.408,-1.704 h 3.216 q 0,0.84 0.648,1.296 0.672,0.456 1.728,0.456 0.888,0 1.512,-0.264 0.648,-0.288 0.648,-0.864 0,-0.648 -0.48,-0.936 -0.456,-0.288 -1.416,-0.504 -1.728,-0.384 -2.784,-0.792 -1.056,-0.432 -1.656,-0.936 -0.576,-0.504 -0.792,-1.104 -0.192,-0.6 -0.192,-1.344 0,-0.672 0.264,-1.272 0.288,-0.6 0.888,-1.056 0.6,-0.456 1.56,-0.72 0.96,-0.288 2.352,-0.288 2.544,0 3.72,1.032 1.176,1.032 1.296,2.856 z"
       style=""
       id="path14423" /><path
       d="m 429.24363,179.565 q -0.024,-0.648 -0.24,-1.128 -0.192,-0.504 -0.528,-0.816 -0.336,-0.336 -0.768,-0.48 -0.432,-0.168 -0.888,-0.168 -0.936,0 -1.632,0.696 -0.672,0.672 -0.768,1.896 z m -4.92,1.968 q 0.072,1.344 0.768,2.136 0.72,0.792 1.872,0.792 0.768,0 1.344,-0.336 0.6,-0.36 0.768,-0.984 h 3.216 q -0.552,1.824 -1.92,2.808 -1.368,0.984 -3.264,0.984 -5.904,0 -5.904,-6.432 0,-1.368 0.384,-2.472 0.384,-1.104 1.104,-1.896 0.744,-0.792 1.8,-1.2 1.056,-0.432 2.424,-0.432 2.736,0 4.128,1.752 1.416,1.752 1.416,5.28 z"
       style=""
       id="path14425" /><path
       d="m 440.52475,178.389 q -0.12,-0.816 -0.624,-1.176 -0.48,-0.384 -1.488,-0.384 -0.96,0 -1.464,0.24 -0.48,0.216 -0.48,0.768 0,0.48 0.48,0.768 0.504,0.288 1.44,0.552 1.536,0.432 2.592,0.744 1.056,0.288 1.68,0.696 0.648,0.408 0.912,1.032 0.288,0.6 0.288,1.632 0,1.584 -1.32,2.64 -1.32,1.032 -3.912,1.032 -1.272,0 -2.304,-0.288 -1.032,-0.288 -1.776,-0.816 -0.72,-0.552 -1.128,-1.296 -0.384,-0.768 -0.408,-1.704 h 3.216 q 0,0.84 0.648,1.296 0.672,0.456 1.728,0.456 0.888,0 1.512,-0.264 0.648,-0.288 0.648,-0.864 0,-0.648 -0.48,-0.936 -0.456,-0.288 -1.416,-0.504 -1.728,-0.384 -2.784,-0.792 -1.056,-0.432 -1.656,-0.936 -0.576,-0.504 -0.792,-1.104 -0.192,-0.6 -0.192,-1.344 0,-0.672 0.264,-1.272 0.288,-0.6 0.888,-1.056 0.6,-0.456 1.56,-0.72 0.96,-0.288 2.352,-0.288 2.544,0 3.72,1.032 1.176,1.032 1.296,2.856 z"
       style=""
       id="path14427" /><path
       d="m 451.31988,178.845 h 2.904 v 3.36 q 0,0.936 -0.288,1.8 -0.264,0.84 -0.864,1.512 -0.576,0.648 -1.488,1.032 -0.888,0.384 -2.136,0.384 -1.296,0 -2.208,-0.384 -0.912,-0.384 -1.512,-1.032 -0.576,-0.648 -0.84,-1.512 -0.264,-0.864 -0.264,-1.824 v -10.56 h 3.072 v 3.192 h 6.528 v 2.208 h -6.528 v 4.848 q 0,1.128 0.408,1.752 0.432,0.6 1.392,0.6 0.936,0 1.368,-0.6 0.456,-0.6 0.456,-1.704 z"
       style=""
       id="path14429" /><path
       d="m 469.0405,179.565 q -0.024,-0.648 -0.24,-1.128 -0.192,-0.504 -0.528,-0.816 -0.336,-0.336 -0.768,-0.48 -0.432,-0.168 -0.888,-0.168 -0.936,0 -1.632,0.696 -0.672,0.672 -0.768,1.896 z m -4.92,1.968 q 0.072,1.344 0.768,2.136 0.72,0.792 1.872,0.792 0.768,0 1.344,-0.336 0.6,-0.36 0.768,-0.984 h 3.216 q -0.552,1.824 -1.92,2.808 -1.368,0.984 -3.264,0.984 -5.904,0 -5.904,-6.432 0,-1.368 0.384,-2.472 0.384,-1.104 1.104,-1.896 0.744,-0.792 1.8,-1.2 1.056,-0.432 2.424,-0.432 2.736,0 4.128,1.752 1.416,1.752 1.416,5.28 z"
       style=""
       id="path14431" /><path
       d="m 478.80963,184.389 q 1.128,0 1.872,-0.936 0.768,-0.936 0.768,-2.448 0,-3.84 -2.616,-3.84 -2.688,0 -2.688,3.648 0,1.584 0.744,2.592 0.744,0.984 1.92,0.984 z m 2.592,2.232 -0.024,-1.44 q -1.08,1.752 -3.288,1.752 -1.128,0 -2.064,-0.432 -0.936,-0.432 -1.608,-1.248 -0.672,-0.816 -1.056,-1.992 -0.384,-1.176 -0.384,-2.664 0,-1.344 0.312,-2.448 0.336,-1.128 0.96,-1.944 0.624,-0.816 1.512,-1.248 0.912,-0.456 2.064,-0.456 2.184,0 3.504,1.848 v -5.856 h 3.072 v 16.128 z"
       style=""
       id="path14433" /><path
       d="m 491.3035,184.269 q 1.152,0 1.896,-0.864 0.768,-0.888 0.768,-2.4 0,-3.792 -2.664,-3.792 -2.664,0 -2.664,3.6 0,1.584 0.744,2.52 0.768,0.936 1.92,0.936 z m 2.568,0.768 q -0.336,0.792 -1.224,1.248 -0.864,0.432 -2.016,0.432 -1.464,0 -2.472,-0.504 -0.984,-0.528 -1.608,-1.368 -0.6,-0.84 -0.888,-1.944 -0.264,-1.104 -0.264,-2.256 0,-1.368 0.408,-2.496 0.408,-1.152 1.104,-1.944 0.696,-0.816 1.632,-1.248 0.936,-0.456 2.016,-0.456 2.208,0 3.312,1.776 v -1.464 h 3.12 v 11.928 q 0,1.344 -0.456,2.352 -0.456,1.032 -1.248,1.704 -0.792,0.696 -1.872,1.056 -1.08,0.36 -2.304,0.36 -1.224,0 -2.28,-0.36 -1.056,-0.336 -1.824,-0.984 -0.744,-0.624 -1.176,-1.536 -0.432,-0.912 -0.432,-2.064 h 2.904 q 0,1.08 0.696,1.656 0.72,0.6 1.896,0.6 1.248,0 2.112,-0.696 0.864,-0.672 0.864,-1.848 z"
       style=""
       id="path14435" /><path
       d="m 506.02488,179.565 q -0.024,-0.648 -0.24,-1.128 -0.192,-0.504 -0.528,-0.816 -0.336,-0.336 -0.768,-0.48 -0.432,-0.168 -0.888,-0.168 -0.936,0 -1.632,0.696 -0.672,0.672 -0.768,1.896 z m -4.92,1.968 q 0.072,1.344 0.768,2.136 0.72,0.792 1.872,0.792 0.768,0 1.344,-0.336 0.6,-0.36 0.768,-0.984 h 3.216 q -0.552,1.824 -1.92,2.808 -1.368,0.984 -3.264,0.984 -5.904,0 -5.904,-6.432 0,-1.368 0.384,-2.472 0.384,-1.104 1.104,-1.896 0.744,-0.792 1.8,-1.2 1.056,-0.432 2.424,-0.432 2.736,0 4.128,1.752 1.416,1.752 1.416,5.28 z"
       style=""
       id="path14437" /><path
       d="m 358.86194,220.053 q -1.872,-2.256 -2.856,-5.016 -0.984,-2.76 -0.984,-5.64 0,-2.76 0.936,-5.376 0.936,-2.64 2.904,-4.872 h 2.28 q -1.464,2.448 -2.208,5.04 -0.72,2.568 -0.72,5.256 0,2.688 0.72,5.376 0.744,2.664 2.208,5.232 z"
       style=""
       id="path14439" /><path
       d="m 369.54832,209.565 q -0.024,-0.648 -0.24,-1.128 -0.192,-0.504 -0.528,-0.816 -0.336,-0.336 -0.768,-0.48 -0.432,-0.168 -0.888,-0.168 -0.936,0 -1.632,0.696 -0.672,0.672 -0.768,1.896 z m -4.92,1.968 q 0.072,1.344 0.768,2.136 0.72,0.792 1.872,0.792 0.768,0 1.344,-0.336 0.6,-0.36 0.768,-0.984 h 3.216 q -0.552,1.824 -1.92,2.808 -1.368,0.984 -3.264,0.984 -5.904,0 -5.904,-6.432 0,-1.368 0.384,-2.472 0.384,-1.104 1.104,-1.896 0.744,-0.792 1.8,-1.2 1.056,-0.432 2.424,-0.432 2.736,0 4.128,1.752 1.416,1.752 1.416,5.28 z"
       style=""
       id="path14441" /><path
       d="m 379.91932,216.621 -2.064,-3.552 -2.016,3.552 h -3.744 l 3.96,-6.024 -3.84,-5.784 h 3.768 l 1.992,3.432 2.016,-3.432 h 3.624 l -3.912,5.784 4.032,6.024 z"
       style=""
       id="path14443" /><path
       d="m 384.48494,216.621 v -11.808 h 3.12 v 11.808 z m 0,-13.224 v -2.904 h 3.12 v 2.904 z"
       style=""
       id="path14445" /><path
       d="m 396.01694,208.389 q -0.12,-0.816 -0.624,-1.176 -0.48,-0.384 -1.488,-0.384 -0.96,0 -1.464,0.24 -0.48,0.216 -0.48,0.768 0,0.48 0.48,0.768 0.504,0.288 1.44,0.552 1.536,0.432 2.592,0.744 1.056,0.288 1.68,0.696 0.648,0.408 0.912,1.032 0.288,0.6 0.288,1.632 0,1.584 -1.32,2.64 -1.32,1.032 -3.912,1.032 -1.272,0 -2.304,-0.288 -1.032,-0.288 -1.776,-0.816 -0.72,-0.552 -1.128,-1.296 -0.384,-0.768 -0.408,-1.704 h 3.216 q 0,0.84 0.648,1.296 0.672,0.456 1.728,0.456 0.888,0 1.512,-0.264 0.648,-0.288 0.648,-0.864 0,-0.648 -0.48,-0.936 -0.456,-0.288 -1.416,-0.504 -1.728,-0.384 -2.784,-0.792 -1.056,-0.432 -1.656,-0.936 -0.576,-0.504 -0.792,-1.104 -0.192,-0.6 -0.192,-1.344 0,-0.672 0.264,-1.272 0.288,-0.6 0.888,-1.056 0.6,-0.456 1.56,-0.72 0.96,-0.288 2.352,-0.288 2.544,0 3.72,1.032 1.176,1.032 1.296,2.856 z"
       style=""
       id="path14447" /><path
       d="m 406.81207,208.845 h 2.904 v 3.36 q 0,0.936 -0.288,1.8 -0.264,0.84 -0.864,1.512 -0.576,0.648 -1.488,1.032 -0.888,0.384 -2.136,0.384 -1.296,0 -2.208,-0.384 -0.912,-0.384 -1.512,-1.032 -0.576,-0.648 -0.84,-1.512 -0.264,-0.864 -0.264,-1.824 v -10.56 h 3.072 v 3.192 h 6.528 v 2.208 h -6.528 v 4.848 q 0,1.128 0.408,1.752 0.432,0.6 1.392,0.6 0.936,0 1.368,-0.6 0.456,-0.6 0.456,-1.704 z"
       style=""
       id="path14449" /><path
       d="m 417.95444,208.389 q -0.12,-0.816 -0.624,-1.176 -0.48,-0.384 -1.488,-0.384 -0.96,0 -1.464,0.24 -0.48,0.216 -0.48,0.768 0,0.48 0.48,0.768 0.504,0.288 1.44,0.552 1.536,0.432 2.592,0.744 1.056,0.288 1.68,0.696 0.648,0.408 0.912,1.032 0.288,0.6 0.288,1.632 0,1.584 -1.32,2.64 -1.32,1.032 -3.912,1.032 -1.272,0 -2.304,-0.288 -1.032,-0.288 -1.776,-0.816 -0.72,-0.552 -1.128,-1.296 -0.384,-0.768 -0.408,-1.704 h 3.216 q 0,0.84 0.648,1.296 0.672,0.456 1.728,0.456 0.888,0 1.512,-0.264 0.648,-0.288 0.648,-0.864 0,-0.648 -0.48,-0.936 -0.456,-0.288 -1.416,-0.504 -1.728,-0.384 -2.784,-0.792 -1.056,-0.432 -1.656,-0.936 -0.576,-0.504 -0.792,-1.104 -0.192,-0.6 -0.192,-1.344 0,-0.672 0.264,-1.272 0.288,-0.6 0.888,-1.056 0.6,-0.456 1.56,-0.72 0.96,-0.288 2.352,-0.288 2.544,0 3.72,1.032 1.176,1.032 1.296,2.856 z"
       style=""
       id="path14451" /><path
       d="m 433.76782,214.317 q 2.856,0 2.856,-3.6 0,-3.576 -2.856,-3.576 -2.856,0 -2.856,3.576 0,3.6 2.856,3.6 z m 0,2.616 q -1.44,0 -2.568,-0.456 -1.128,-0.456 -1.92,-1.272 -0.768,-0.816 -1.176,-1.968 -0.408,-1.152 -0.408,-2.52 0,-1.392 0.408,-2.544 0.432,-1.152 1.224,-1.968 0.792,-0.816 1.896,-1.248 1.128,-0.456 2.544,-0.456 1.392,0 2.496,0.456 1.104,0.432 1.872,1.248 0.792,0.792 1.2,1.944 0.432,1.152 0.432,2.568 0,1.416 -0.432,2.568 -0.408,1.128 -1.2,1.944 -0.768,0.816 -1.896,1.272 -1.104,0.432 -2.472,0.432 z"
       style=""
       id="path14453" /><path
       d="m 448.31669,216.621 v -7.152 q 0,-1.368 -0.456,-1.848 -0.456,-0.48 -1.56,-0.48 -2.424,0 -2.424,2.712 v 6.768 h -3.12 v -11.808 h 2.976 v 1.728 q 0.552,-1.008 1.464,-1.512 0.912,-0.528 2.352,-0.528 0.84,0 1.56,0.264 0.72,0.24 1.224,0.744 0.528,0.504 0.816,1.248 0.312,0.72 0.312,1.68 v 8.184 z"
       style=""
       id="path14455" /><path
       d="m 470.88007,216.621 v -10.92 l -2.976,10.92 h -3.312 l -2.952,-10.872 v 10.872 h -3.096 v -15.936 h 4.896 l 2.88,11.688 2.88,-11.688 h 4.8 v 15.936 z"
       style=""
       id="path14457" /><path
       d="m 481.09094,213.909 q 2.184,0 3.168,-1.344 0.984,-1.368 0.984,-4.08 0,-1.344 -0.24,-2.304 -0.24,-0.96 -0.792,-1.56 -0.528,-0.624 -1.368,-0.888 -0.84,-0.288 -2.04,-0.288 h -2.472 v 10.464 z m -6,2.712 v -15.936 h 6.168 q 1.608,0 2.976,0.552 1.368,0.528 2.328,1.536 0.984,1.008 1.536,2.448 0.552,1.44 0.552,3.264 0,1.824 -0.504,3.336 -0.48,1.488 -1.392,2.568 -0.912,1.056 -2.184,1.656 -1.272,0.576 -2.808,0.576 z"
       style=""
       id="path14459" /><path
       d="m 377.32525,244.389 q 1.176,0 1.92,-0.984 0.744,-1.008 0.744,-2.592 0,-3.648 -2.688,-3.648 -2.616,0 -2.616,3.84 0,1.512 0.744,2.448 0.768,0.936 1.896,0.936 z m -5.592,2.232 v -16.128 h 3.072 v 5.856 q 1.32,-1.848 3.504,-1.848 1.152,0 2.04,0.456 0.912,0.432 1.536,1.248 0.624,0.816 0.936,1.944 0.336,1.104 0.336,2.448 0,1.488 -0.384,2.664 -0.384,1.176 -1.056,1.992 -0.672,0.816 -1.632,1.248 -0.936,0.432 -2.04,0.432 -2.208,0 -3.288,-1.752 l -0.024,1.44 z"
       style=""
       id="path14461" /><path
       d="m 390.01,244.317 q 2.856,0 2.856,-3.6 0,-3.576 -2.856,-3.576 -2.856,0 -2.856,3.576 0,3.6 2.856,3.6 z m 0,2.616 q -1.44,0 -2.568,-0.456 -1.128,-0.456 -1.92,-1.272 -0.768,-0.816 -1.176,-1.968 -0.408,-1.152 -0.408,-2.52 0,-1.392 0.408,-2.544 0.432,-1.152 1.224,-1.968 0.792,-0.816 1.896,-1.248 1.128,-0.456 2.544,-0.456 1.392,0 2.496,0.456 1.104,0.432 1.872,1.248 0.792,0.792 1.2,1.944 0.432,1.152 0.432,2.568 0,1.416 -0.432,2.568 -0.408,1.128 -1.2,1.944 -0.768,0.816 -1.896,1.272 -1.104,0.432 -2.472,0.432 z"
       style=""
       id="path14463" /><path
       d="m 404.67888,246.621 v -1.656 q -1.2,1.968 -3.672,1.968 -0.888,0 -1.632,-0.312 -0.72,-0.312 -1.248,-0.888 -0.528,-0.576 -0.84,-1.368 -0.288,-0.792 -0.288,-1.776 v -7.776 h 3.12 v 7.296 q 0,2.208 1.992,2.208 1.2,0 1.8,-0.744 0.624,-0.768 0.624,-1.944 v -6.816 h 3.096 v 11.808 z"
       style=""
       id="path14465" /><path
       d="m 416.41825,246.621 v -7.152 q 0,-1.368 -0.456,-1.848 -0.456,-0.48 -1.56,-0.48 -2.424,0 -2.424,2.712 v 6.768 h -3.12 v -11.808 h 2.976 v 1.728 q 0.552,-1.008 1.464,-1.512 0.912,-0.528 2.352,-0.528 0.84,0 1.56,0.264 0.72,0.24 1.224,0.744 0.528,0.504 0.816,1.248 0.312,0.72 0.312,1.68 v 8.184 z"
       style=""
       id="path14467" /><path
       d="m 426.40338,244.389 q 1.128,0 1.872,-0.936 0.768,-0.936 0.768,-2.448 0,-3.84 -2.616,-3.84 -2.688,0 -2.688,3.648 0,1.584 0.744,2.592 0.744,0.984 1.92,0.984 z m 2.592,2.232 -0.024,-1.44 q -1.08,1.752 -3.288,1.752 -1.128,0 -2.064,-0.432 -0.936,-0.432 -1.608,-1.248 -0.672,-0.816 -1.056,-1.992 -0.384,-1.176 -0.384,-2.664 0,-1.344 0.312,-2.448 0.336,-1.128 0.96,-1.944 0.624,-0.816 1.512,-1.248 0.912,-0.456 2.064,-0.456 2.184,0 3.504,1.848 v -5.856 h 3.072 v 16.128 z"
       style=""
       id="path14469" /><path
       d="m 440.40925,240.837 q -0.24,0.24 -0.696,0.384 -0.456,0.144 -1.32,0.312 -1.344,0.264 -1.848,0.672 -0.504,0.408 -0.504,1.176 0,1.32 1.512,1.32 0.6,0 1.104,-0.192 0.528,-0.216 0.888,-0.552 0.384,-0.36 0.6,-0.816 0.24,-0.48 0.24,-1.008 z m 0.216,5.784 q -0.144,-0.456 -0.192,-1.056 -0.552,0.624 -1.464,1.008 -0.912,0.36 -2.112,0.36 -2.04,0 -3,-0.888 -0.936,-0.912 -0.936,-2.352 0,-1.272 0.408,-2.016 0.408,-0.768 1.128,-1.2 0.72,-0.432 1.704,-0.624 1.008,-0.216 2.184,-0.384 1.176,-0.168 1.584,-0.432 0.408,-0.288 0.408,-0.912 0,-0.576 -0.552,-0.888 -0.528,-0.336 -1.44,-0.336 -1.08,0 -1.56,0.48 -0.456,0.48 -0.576,1.272 h -2.904 q 0.024,-0.912 0.288,-1.68 0.288,-0.768 0.888,-1.32 0.624,-0.552 1.608,-0.84 0.984,-0.312 2.4,-0.312 1.392,0 2.352,0.312 0.984,0.312 1.56,0.912 0.6,0.576 0.864,1.464 0.264,0.864 0.264,1.968 v 7.464 z"
       style=""
       id="path14471" /><path
       d="m 444.7645,246.621 v -11.808 h 2.928 v 1.416 q 0.384,-0.6 0.792,-0.936 0.432,-0.336 0.864,-0.504 0.456,-0.192 0.912,-0.24 0.456,-0.048 0.936,-0.048 h 0.408 v 3.192 q -0.432,-0.072 -0.864,-0.072 -2.856,0 -2.856,2.856 v 6.144 z"
       style=""
       id="path14473" /><path
       d="m 459.82338,245.061 q -0.336,0.792 -1.224,1.248 -0.864,0.432 -1.968,0.432 -0.936,0 -1.728,-0.288 -0.792,-0.312 -1.368,-0.864 -0.576,-0.576 -0.912,-1.344 -0.312,-0.792 -0.312,-1.776 v -7.656 h 3.12 v 7.2 q 0,2.208 1.992,2.208 1.08,0 1.728,-0.624 0.672,-0.624 0.672,-1.584 v -7.2 h 3.12 v 12.12 q 0,1.248 -0.432,2.232 -0.408,0.984 -1.152,1.656 -0.72,0.672 -1.728,1.032 -0.984,0.36 -2.112,0.36 -2.616,0 -3.912,-1.32 -1.296,-1.32 -1.296,-3.624 h 2.904 q 0,1.056 0.6,1.656 0.624,0.6 1.848,0.6 0.432,0 0.816,-0.192 0.384,-0.168 0.672,-0.504 0.312,-0.312 0.48,-0.792 0.192,-0.48 0.192,-1.056 z"
       style=""
       id="path14475" /><path
       d="m 463.73875,250.053 q 1.464,-2.568 2.184,-5.232 0.744,-2.688 0.744,-5.376 0,-2.688 -0.744,-5.256 -0.72,-2.592 -2.184,-5.04 h 2.28 q 1.968,2.232 2.904,4.872 0.936,2.616 0.936,5.376 0,2.88 -0.984,5.64 -0.984,2.76 -2.856,5.016 z"
       style=""
       id="path14477" /></g><path
     style="fill:none;fill-rule:evenodd;stroke:#d08770;stroke-width:4;stroke-linecap:round;stroke-linejoin:round;stroke-opacity:1;font-variant-east_asian:normal;opacity:1;vector-effect:none;fill-opacity:1;stroke-miterlimit:10;stroke-dasharray:none;stroke-dashoffset:0"
     d="m 354.97855,140.21336 -90.50001,15.99999"
     id="path10400"
     inkscape:connector-curvature="0" /><path
     style="opacity:1;vector-effect:none;fill:none;fill-opacity:1;fill-rule:evenodd;stroke:#d08770;stroke-width:2;stroke-linecap:round;stroke-linejoin:round;stroke-miterlimit:4;stroke-dasharray:none;stroke-dashoffset:0;stroke-opacity:1;marker-end:url(#marker9073-1)"
     d="M 353.66572,166.30843 329.698,149.12104"
     id="path9055"
     inkscape:connector-curvature="0"
     sodipodi:nodetypes="cc" /><path
     style="opacity:1;vector-effect:none;fill:none;fill-opacity:1;fill-rule:evenodd;stroke:#8fbcbb;stroke-width:2;stroke-linecap:round;stroke-linejoin:round;stroke-miterlimit:4;stroke-dasharray:none;stroke-dashoffset:0;stroke-opacity:1;marker-end:url(#marker9073-1-2)"
     d="m 252.10918,192.19173 -26.806,-46.5163"
     id="path9055-9"
     inkscape:connector-curvature="0"
     sodipodi:nodetypes="cc" /><path
     style="opacity:1;vector-effect:none;fill:none;fill-opacity:1;fill-rule:evenodd;stroke:#8fbcbb;stroke-width:2;stroke-linecap:round;stroke-linejoin:round;stroke-miterlimit:4;stroke-dasharray:none;stroke-dashoffset:0;stroke-opacity:1;marker-end:url(#marker9073-1-2-9)"
     d="m 252.10918,192.19173 32.51643,-38.42144"
     id="path9055-9-7"
     inkscape:connector-curvature="0"
     sodipodi:nodetypes="cc" /></svg>