<?xml version="1.0" encoding="utf-8"?>
<!-- Generator: Adobe Illustrator 21.0.2, SVG Export Plug-In . SVG Version: 6.00 Build 0)  -->
<svg version="1.1" id="Layer_1" xmlns="http://www.w3.org/2000/svg" xmlns:xlink="http://www.w3.org/1999/xlink" x="0px" y="0px"
	 viewBox="0 0 1024 512" style="enable-background:new 0 0 1024 512;" xml:space="preserve">
<style type="text/css">
	.st0{fill:#88c0d0;}
	.st1{opacity:0.75;fill:#ebcb8b;}
	.st2{fill:none;stroke:#bf616a;stroke-width:4;stroke-linecap:round;stroke-linejoin:round;stroke-miterlimit:10;}
	.st3{fill:none;stroke:#88c0d0;stroke-width:4;stroke-linecap:round;stroke-miterlimit:10;}
	.st4{fill:#eceff4;}
	.st5{fill:none;stroke:#eceff4;stroke-width:4;stroke-linecap:round;stroke-miterlimit:10;}
</style>
<g>
	<g>
		<path class="st0" d="M256.3,384.4l-2.5-8.2h-14.7l-2.8,8.2h-8.8l14.2-39.8h9.7l14,39.8H256.3z M246.4,353.5L246.4,353.5l-5.2,15.8
			h10.1L246.4,353.5z"/>
	</g>
</g>
<polyline class="st1" points="520,79 607,467 274,363 "/>
<polygon class="st2" points="274,363 607,467 627,248 "/>
<g>
	<g>
		<line class="st3" x1="463" y1="279" x2="605.1" y2="298.7"/>
		<g>
			<path class="st0" d="M629,302c-11.8,2.6-26.8,7.8-36.5,14.2l9.4-17.9l-4.2-19.8C605.4,287.2,618.3,296.3,629,302z"/>
		</g>
	</g>
</g>
<path class="st2" d="M520,79L274,363L520,79z"/>
<polygon class="st2" points="607,467 520,79 627,248 "/>
<g>
	<g>
		<path class="st0" d="M635.1,318c-0.9-0.2-1.7-0.5-2.4-0.8c-0.6-0.4-1.1-0.8-1.5-1.3s-0.7-1.2-0.8-2c-0.2-0.8-0.3-1.7-0.3-2.7v-3.7
			h5v4.9h-2.8c0,1.2,0.3,2,0.7,2.6s1.1,1,2.1,1.2V318z M641.7,318c-0.9-0.2-1.7-0.5-2.4-0.8c-0.6-0.4-1.1-0.8-1.5-1.3
			c-0.4-0.5-0.7-1.2-0.8-2c-0.2-0.8-0.3-1.7-0.3-2.7v-3.7h5v4.9h-2.8c0,1.2,0.3,2,0.7,2.6c0.5,0.6,1.1,1,2.1,1.2V318z"/>
		<path class="st0" d="M643.4,332.4v-23.9h5v23.9H643.4z"/>
		<path class="st0" d="M661.4,332.4v-10.7c0-1.4-0.2-2.3-0.7-2.8s-1.2-0.7-2.3-0.7c-2.4,0-3.6,1.4-3.6,4.1v10.2h-4.7v-17.7h4.5v2.6
			c0.6-1,1.3-1.8,2.2-2.3c0.9-0.5,2.1-0.8,3.5-0.8c0.8,0,1.6,0.1,2.3,0.4c0.7,0.3,1.3,0.6,1.9,1.1c0.5,0.5,0.9,1.1,1.2,1.9
			c0.3,0.7,0.5,1.6,0.5,2.5v12.3H661.4z"/>
		<path class="st0" d="M678.7,320c-0.1-0.8-0.4-1.4-0.9-1.8s-1.2-0.6-2.3-0.6c-1,0-1.7,0.1-2.2,0.3s-0.7,0.6-0.7,1.2
			c0,0.5,0.2,0.9,0.7,1.2c0.5,0.3,1.2,0.6,2.1,0.8c1.5,0.4,2.8,0.8,3.9,1.1c1.1,0.3,1.9,0.7,2.5,1.1c0.6,0.4,1.1,0.9,1.4,1.5
			c0.3,0.6,0.4,1.4,0.4,2.5c0,1.6-0.7,2.9-2,3.9c-1.3,1-3.3,1.6-5.9,1.6c-1.3,0-2.4-0.1-3.5-0.4c-1-0.3-1.9-0.7-2.6-1.2
			s-1.3-1.2-1.7-1.9c-0.4-0.8-0.6-1.6-0.6-2.5h4.8c0,0.8,0.3,1.5,1,1.9c0.7,0.5,1.5,0.7,2.6,0.7c0.9,0,1.6-0.1,2.3-0.4
			c0.6-0.3,1-0.7,1-1.3c0-0.6-0.2-1.1-0.7-1.4c-0.5-0.3-1.2-0.5-2.1-0.8c-1.7-0.4-3.1-0.8-4.2-1.2c-1.1-0.4-1.9-0.9-2.5-1.4
			c-0.6-0.5-1-1.1-1.2-1.7c-0.2-0.6-0.3-1.3-0.3-2c0-0.7,0.1-1.3,0.4-1.9c0.3-0.6,0.7-1.1,1.3-1.6c0.6-0.5,1.4-0.8,2.3-1.1
			c1-0.3,2.1-0.4,3.5-0.4c2.5,0,4.4,0.5,5.6,1.5s1.8,2.5,1.9,4.3H678.7z"/>
		<path class="st0" d="M684.9,312.6v-4.4h4.7v4.4H684.9z M684.9,332.4v-17.7h4.7v17.7H684.9z"/>
		<path class="st0" d="M703.9,332.4l0-2.2c-1.1,1.8-2.7,2.6-4.9,2.6c-1.1,0-2.2-0.2-3.1-0.6c-0.9-0.4-1.7-1.1-2.4-1.9
			s-1.2-1.8-1.6-3c-0.4-1.2-0.6-2.5-0.6-4c0-1.3,0.2-2.6,0.5-3.7c0.3-1.1,0.8-2.1,1.4-2.9c0.6-0.8,1.4-1.4,2.3-1.9
			c0.9-0.4,1.9-0.7,3.1-0.7c2.2,0,3.9,0.9,5.3,2.8v-8.8h4.6v24.2H703.9z M700,329c1.1,0,2.1-0.5,2.8-1.4s1.1-2.2,1.1-3.7
			c0-3.8-1.3-5.8-3.9-5.8c-2.7,0-4,1.8-4,5.5c0,1.6,0.4,2.9,1.1,3.9S698.8,329,700,329z"/>
		<path class="st0" d="M714.5,324.8c0.1,1.3,0.5,2.4,1.2,3.2c0.7,0.8,1.6,1.2,2.8,1.2c0.8,0,1.4-0.2,2-0.5s1-0.8,1.1-1.5h4.8
			c-0.6,1.8-1.5,3.2-2.9,4.2s-3,1.5-4.9,1.5c-5.9,0-8.9-3.2-8.9-9.6c0-1.4,0.2-2.6,0.6-3.7c0.4-1.1,0.9-2.1,1.7-2.8
			c0.7-0.8,1.6-1.4,2.7-1.8s2.3-0.6,3.6-0.6c2.7,0,4.8,0.9,6.2,2.6c1.4,1.8,2.1,4.4,2.1,7.9H714.5z M721.9,321.8
			c0-0.6-0.1-1.2-0.3-1.7c-0.2-0.5-0.5-0.9-0.8-1.2s-0.7-0.6-1.2-0.7s-0.9-0.2-1.3-0.2c-0.9,0-1.7,0.3-2.4,1
			c-0.7,0.7-1.1,1.6-1.2,2.9H721.9z"/>
		<path class="st0" d="M728.1,316.2c0.9-0.2,1.6-0.6,2.1-1.2s0.7-1.4,0.7-2.6h-2.8v-4.9h5v3.7c0,1-0.1,1.9-0.3,2.7
			c-0.2,0.8-0.4,1.4-0.8,2s-0.9,1-1.5,1.3c-0.6,0.4-1.4,0.6-2.4,0.8V316.2z M734.7,316.2c0.9-0.2,1.6-0.6,2.1-1.2
			c0.5-0.6,0.7-1.4,0.7-2.6h-2.8v-4.9h5v3.7c0,1-0.1,1.9-0.3,2.7c-0.2,0.8-0.4,1.4-0.8,2c-0.4,0.5-0.9,1-1.5,1.3
			c-0.6,0.4-1.4,0.6-2.4,0.8V316.2z"/>
	</g>
</g>
<g>
	<path class="st4" d="M213.1,223c-0.9-0.2-1.7-0.5-2.4-0.8c-0.6-0.4-1.1-0.8-1.5-1.4c-0.4-0.5-0.7-1.2-0.8-2
		c-0.2-0.8-0.3-1.7-0.3-2.7v-3.7h5v4.9h-2.8c0,1.2,0.3,2,0.7,2.6c0.5,0.6,1.1,1,2.1,1.2V223z M219.7,223c-0.9-0.2-1.7-0.5-2.4-0.8
		c-0.6-0.4-1.1-0.8-1.5-1.4c-0.4-0.5-0.7-1.2-0.8-2c-0.2-0.8-0.3-1.7-0.3-2.7v-3.7h5v4.9h-2.8c0,1.2,0.3,2,0.7,2.6
		c0.5,0.6,1.1,1,2.1,1.2V223z"/>
	<path class="st4" d="M232.6,238.2c-3.7,0-6.5-1.1-8.5-3.2c-2-2.2-3-5.3-3-9.3c0-2,0.3-3.8,0.8-5.4s1.2-3,2.2-4.1
		c1-1.1,2.2-2,3.6-2.6c1.4-0.6,3-0.9,4.9-0.9c1.8,0,3.4,0.3,4.9,0.9c1.4,0.6,2.6,1.4,3.6,2.6c1,1.1,1.7,2.5,2.2,4.1
		c0.5,1.6,0.8,3.5,0.8,5.5c0,4.1-1,7.2-2.9,9.3C239.1,237.2,236.3,238.2,232.6,238.2z M232.6,233.9c0.9,0,1.7-0.2,2.5-0.5
		c0.8-0.3,1.5-0.8,2.1-1.5c0.6-0.7,1-1.5,1.4-2.5c0.3-1,0.5-2.3,0.5-3.7c0-2.8-0.6-5-1.7-6.4c-1.1-1.5-2.7-2.2-4.8-2.2
		c-2.1,0-3.7,0.7-4.9,2.2c-1.1,1.5-1.7,3.6-1.7,6.4c0,2.8,0.6,4.9,1.7,6.2C228.9,233.3,230.5,233.9,232.6,233.9z"/>
	<path class="st4" d="M257,237.4v-2.5c-1.2,2-3,3-5.5,3c-0.9,0-1.7-0.2-2.4-0.5c-0.7-0.3-1.4-0.8-1.9-1.3c-0.5-0.6-0.9-1.3-1.2-2.1
		c-0.3-0.8-0.5-1.7-0.5-2.7v-11.7h4.7v10.9c0,2.2,1,3.3,3,3.3c1.2,0,2.1-0.4,2.7-1.1c0.6-0.8,0.9-1.7,0.9-2.9v-10.2h4.6v17.7H257z"
		/>
	<path class="st4" d="M273.3,225.7h4.4v5c0,0.9-0.1,1.8-0.4,2.7c-0.3,0.9-0.7,1.6-1.3,2.3c-0.6,0.7-1.3,1.2-2.2,1.6
		c-0.9,0.4-2,0.6-3.2,0.6c-1.3,0-2.4-0.2-3.3-0.6c-0.9-0.4-1.7-0.9-2.3-1.5c-0.6-0.6-1-1.4-1.3-2.3c-0.3-0.9-0.4-1.8-0.4-2.7v-15.8
		h4.6v4.8h9.8v3.3h-9.8v7.3c0,1.1,0.2,2,0.6,2.6c0.4,0.6,1.1,0.9,2.1,0.9c0.9,0,1.6-0.3,2.1-0.9c0.4-0.6,0.7-1.5,0.7-2.6V225.7z"/>
	<path class="st4" d="M290,225c-0.1-0.8-0.4-1.4-0.9-1.8c-0.5-0.4-1.2-0.6-2.3-0.6c-1,0-1.7,0.1-2.2,0.3c-0.5,0.2-0.7,0.6-0.7,1.2
		c0,0.5,0.2,0.9,0.7,1.2c0.5,0.3,1.2,0.6,2.1,0.8c1.5,0.4,2.8,0.8,3.9,1.1c1.1,0.3,1.9,0.7,2.5,1.1c0.6,0.4,1.1,0.9,1.4,1.5
		c0.3,0.6,0.4,1.4,0.4,2.5c0,1.6-0.7,2.9-2,3.9c-1.3,1-3.3,1.6-5.9,1.6c-1.3,0-2.4-0.1-3.5-0.4c-1-0.3-1.9-0.7-2.6-1.2
		c-0.7-0.5-1.3-1.2-1.7-1.9s-0.6-1.6-0.6-2.5h4.8c0,0.8,0.3,1.5,1,1.9c0.7,0.5,1.5,0.7,2.6,0.7c0.9,0,1.6-0.1,2.3-0.4
		c0.6-0.3,1-0.7,1-1.3c0-0.6-0.2-1.1-0.7-1.4c-0.5-0.3-1.2-0.5-2.1-0.8c-1.7-0.4-3.1-0.8-4.2-1.2c-1.1-0.4-1.9-0.9-2.5-1.4
		c-0.6-0.5-1-1.1-1.2-1.7c-0.2-0.6-0.3-1.3-0.3-2c0-0.7,0.1-1.3,0.4-1.9c0.3-0.6,0.7-1.1,1.3-1.6c0.6-0.5,1.4-0.8,2.3-1.1
		c1-0.3,2.1-0.4,3.5-0.4c2.5,0,4.4,0.5,5.6,1.5c1.2,1,1.8,2.5,1.9,4.3H290z"/>
	<path class="st4" d="M296.3,217.6v-4.4h4.7v4.4H296.3z M296.3,237.4v-17.7h4.7v17.7H296.3z"/>
	<path class="st4" d="M315.2,237.4l0-2.2c-1.1,1.8-2.7,2.6-4.9,2.6c-1.1,0-2.2-0.2-3.1-0.6c-0.9-0.4-1.7-1.1-2.4-1.9s-1.2-1.8-1.6-3
		c-0.4-1.2-0.6-2.5-0.6-4c0-1.3,0.2-2.6,0.5-3.7c0.3-1.1,0.8-2.1,1.4-2.9c0.6-0.8,1.4-1.4,2.3-1.9c0.9-0.4,1.9-0.7,3.1-0.7
		c2.2,0,3.9,0.9,5.3,2.8v-8.8h4.6v24.2H315.2z M311.3,234c1.1,0,2.1-0.5,2.8-1.4s1.1-2.2,1.1-3.7c0-3.8-1.3-5.8-3.9-5.8
		c-2.7,0-4,1.8-4,5.5c0,1.6,0.4,2.9,1.1,3.9C309.2,233.5,310.2,234,311.3,234z"/>
	<path class="st4" d="M325.9,229.8c0.1,1.3,0.5,2.4,1.2,3.2c0.7,0.8,1.6,1.2,2.8,1.2c0.8,0,1.4-0.2,2-0.5c0.6-0.3,1-0.8,1.1-1.5h4.8
		c-0.6,1.8-1.5,3.2-2.9,4.2c-1.4,1-3,1.5-4.9,1.5c-5.9,0-8.9-3.2-8.9-9.6c0-1.4,0.2-2.6,0.6-3.7c0.4-1.1,0.9-2.1,1.7-2.8
		c0.7-0.8,1.6-1.4,2.7-1.8c1.1-0.4,2.3-0.6,3.6-0.6c2.7,0,4.8,0.9,6.2,2.6c1.4,1.8,2.1,4.4,2.1,7.9H325.9z M333.3,226.8
		c0-0.6-0.1-1.2-0.3-1.7c-0.2-0.5-0.5-0.9-0.8-1.2c-0.3-0.3-0.7-0.6-1.2-0.7s-0.9-0.2-1.3-0.2c-0.9,0-1.7,0.3-2.4,1
		c-0.7,0.7-1.1,1.6-1.2,2.9H333.3z"/>
	<path class="st4" d="M339.4,221.2c0.9-0.2,1.6-0.6,2.1-1.2c0.5-0.6,0.7-1.4,0.7-2.6h-2.8v-4.9h5v3.7c0,1-0.1,1.9-0.3,2.7
		c-0.2,0.8-0.4,1.4-0.8,2c-0.4,0.5-0.9,1-1.5,1.4c-0.6,0.4-1.4,0.6-2.4,0.8V221.2z M346.1,221.2c0.9-0.2,1.6-0.6,2.1-1.2
		c0.5-0.6,0.7-1.4,0.7-2.6h-2.8v-4.9h5v3.7c0,1-0.1,1.9-0.3,2.7c-0.2,0.8-0.4,1.4-0.8,2c-0.4,0.5-0.9,1-1.5,1.4
		c-0.6,0.4-1.4,0.6-2.4,0.8V221.2z"/>
</g>
<g>
	<g>
		<path class="st0" d="M617.7,502.4v-39.8h19.6c3.9,0,6.9,1,8.9,2.9c2,1.9,3.1,4.6,3.1,7.9c0,1.7-0.5,3.3-1.4,4.6
			c-0.9,1.3-2.1,2.3-3.5,2.9c0.8,0.3,1.6,0.7,2.4,1.2c0.7,0.5,1.4,1.1,1.9,1.9c0.5,0.8,1,1.7,1.3,2.8c0.3,1.1,0.5,2.3,0.5,3.8
			c0,3.6-1.2,6.5-3.7,8.7c-2.4,2.1-6.2,3.2-11.2,3.2H617.7z M625.7,469.5v8.6h10.5c3.4,0,5-1.4,5-4.3c0-1.5-0.4-2.6-1.3-3.3
			c-0.9-0.7-2.3-1-4.2-1H625.7z M636.3,495.6c1.9,0,3.4-0.5,4.5-1.6s1.6-2.4,1.6-4.1c0-1.8-0.5-3-1.6-3.8c-1.1-0.8-2.5-1.2-4.4-1.2
			h-10.7v10.7H636.3z"/>
	</g>
</g>
<g>
	<g>
		<path class="st0" d="M515.7,71.4V31.6h15.4c2.7,0,5.2,0.4,7.4,1.3c2.3,0.9,4.2,2.2,5.8,3.9c1.6,1.7,2.9,3.7,3.8,6.1
			s1.4,5.1,1.4,8.2c0,3-0.4,5.8-1.2,8.3c-0.8,2.5-2,4.6-3.5,6.4c-1.5,1.8-3.3,3.2-5.5,4.1c-2.1,1-4.5,1.5-7,1.5H515.7z M530.7,64.6
			c3.6,0,6.3-1.1,7.9-3.4c1.6-2.3,2.5-5.6,2.5-10.2c0-2.2-0.2-4.2-0.6-5.8c-0.4-1.6-1-2.9-1.9-3.9c-0.9-1-2.1-1.8-3.5-2.2
			c-1.4-0.5-3.1-0.7-5.1-0.7h-6.2v26.2H530.7z"/>
	</g>
</g>
<g>
	<g>
		<line class="st5" x1="463" y1="279" x2="320.9" y2="259.3"/>
		<g>
			<path class="st4" d="M297,256c11.8-2.6,26.8-7.8,36.5-14.2l-9.4,17.9l4.2,19.8C320.6,270.8,307.7,261.7,297,256z"/>
		</g>
	</g>
</g>
</svg>
