<?xml version="1.0" encoding="utf-8"?>
<!-- Generator: Adobe Illustrator 21.0.2, SVG Export Plug-In . SVG Version: 6.00 Build 0)  -->
<svg version="1.1" id="Layer_1" xmlns="http://www.w3.org/2000/svg" xmlns:xlink="http://www.w3.org/1999/xlink" x="0px" y="0px"
	 viewBox="0 0 1024 512" style="enable-background:new 0 0 1024 512;" xml:space="preserve">
<style type="text/css">
	.st0{fill:none;stroke:#88c0d0;stroke-width:4;stroke-linecap:round;stroke-linejoin:round;}
	.st1{fill:#88c0d0;}
	.st2{fill:none;stroke:#bf616a;stroke-width:4;stroke-linecap:round;stroke-linejoin:round;stroke-miterlimit:10;}
	.st3{fill:none;stroke:#8fbcbb;stroke-width:4;stroke-linecap:round;stroke-linejoin:round;}
	.st4{fill:#8fbcbb;}
</style>
<g>
	<g>
		<line class="st0" x1="274" y1="363" x2="164.9" y2="313.1"/>
		<g>
			<path class="st1" d="M143,303c12.1,0.9,27.9,0.2,39-3.1l-14.2,14.4l-1.7,20.2C161.4,324,151.6,311.6,143,303z"/>
		</g>
	</g>
</g>
<line class="st2" x1="627" y1="248" x2="274" y2="363"/>
<g>
	<g>
		<path class="st1" d="M256.3,414.4l-2.5-8.2h-14.7l-2.8,8.2h-8.8l14.2-39.8h9.7l14,39.8H256.3z M246.4,383.5L246.4,383.5l-5.2,15.8
			h10.1L246.4,383.5z"/>
	</g>
</g>
<line class="st2" x1="607" y1="467" x2="627" y2="248"/>
<path class="st2" d="M520,79"/>
<polygon class="st2" points="607,467 520,79 627,248 "/>
<g>
	<g>
		<path class="st1" d="M198.9,288.4v-1.1c0.8-0.2,1.4-0.3,1.7-0.5s0.7-0.4,0.9-0.8s0.3-0.8,0.3-1.3c0-0.5-0.1-1.1-0.2-1.7
			s-0.3-1.3-0.5-2.1l-0.9-3h-10.9l-0.8,2.3c-0.4,1.2-0.7,2-0.8,2.6s-0.2,1.1-0.2,1.6c0,0.9,0.2,1.6,0.7,2.1s1.2,0.7,2.2,0.9v1.1h-10
			v-1.1c0.9-0.1,1.6-0.6,2.3-1.5s1.3-2.1,1.9-3.8l9.8-25.9h3.7l8,26.1c0.4,1.2,0.7,2.1,1,2.8s0.6,1.1,1,1.5s1,0.6,1.7,0.8v1.1H198.9
			z M189.9,275.7h9.8l-4.5-15.1L189.9,275.7z"/>
		<path class="st1" d="M213,288.4v-1.1c1-0.3,1.6-0.5,1.9-0.8s0.5-0.7,0.6-1.3s0.2-1.4,0.2-2.6v-20.3c0-1.1,0-1.9-0.1-2.4
			s-0.2-0.9-0.4-1.1s-0.4-0.5-0.7-0.7s-0.8-0.3-1.5-0.6v-1.1h12.8c2.5,0,4.5,0.3,6,0.8s2.6,1.3,3.4,2.4s1.1,2.4,1.1,4
			c0,1.4-0.3,2.5-0.8,3.5s-1.2,1.8-2.1,2.5s-1.9,1.3-3.3,1.8v0.2c2.1,0.6,3.7,1.6,4.8,3s1.6,2.9,1.6,4.8c0,2.1-0.5,3.9-1.4,5.2
			s-2.3,2.3-4,2.9s-3.8,0.9-6.2,0.9H213z M224.3,270.7c2.4,0,4.2-0.6,5.4-1.7s1.9-2.8,1.9-5c0-1.1-0.2-2-0.5-2.7s-0.8-1.3-1.5-1.7
			s-1.3-0.7-2.2-0.9s-1.8-0.3-2.7-0.3c-0.6,0-1.4,0-2.3,0s-1.7,0.1-2.2,0.1v12.1H224.3z M220.2,286.2c1.1,0.1,2.4,0.2,3.8,0.2
			c2,0,3.6-0.3,4.8-0.8s2-1.3,2.5-2.3s0.8-2.3,0.8-3.8s-0.3-2.8-0.8-3.8s-1.4-1.7-2.6-2.2s-2.8-0.7-4.8-0.7h-3.6V286.2z"/>
		<path class="st1" d="M259.7,274.7l7.5,7.4l-3.1,3.1l-7.4-7.5l-7.4,7.5l-3.1-3.1l7.5-7.4l-7.5-7.4l3.1-3.1l7.4,7.5l7.4-7.5l3.1,3.1
			L259.7,274.7z"/>
		<path class="st1" d="M292.5,288.4v-1.1c0.8-0.2,1.4-0.3,1.7-0.5s0.7-0.4,0.9-0.8s0.3-0.8,0.3-1.3c0-0.5-0.1-1.1-0.2-1.7
			s-0.3-1.3-0.5-2.1l-0.9-3h-10.9l-0.8,2.3c-0.4,1.2-0.7,2-0.8,2.6s-0.2,1.1-0.2,1.6c0,0.9,0.2,1.6,0.7,2.1s1.2,0.7,2.2,0.9v1.1h-10
			v-1.1c0.9-0.1,1.6-0.6,2.3-1.5s1.3-2.1,1.9-3.8l9.8-25.9h3.7l8,26.1c0.4,1.2,0.7,2.1,1,2.8s0.6,1.1,1,1.5s1,0.6,1.7,0.8v1.1H292.5
			z M283.5,275.7h9.8l-4.5-15.1L283.5,275.7z"/>
		<path class="st1" d="M306.5,288.4v-1.1c0.7-0.2,1.2-0.4,1.5-0.5s0.6-0.4,0.7-0.7s0.3-0.6,0.4-1.1s0.1-1.3,0.1-2.4v-20.3
			c0-1.1,0-1.9-0.1-2.4s-0.2-0.9-0.4-1.1s-0.4-0.5-0.7-0.6s-0.8-0.3-1.5-0.6v-1.1h10.3c3,0,5.4,0.3,7.3,1s3.5,1.6,4.8,2.9
			s2.3,2.8,2.9,4.7s1,4.1,1,6.7c0,2.6-0.3,5-0.9,7s-1.5,3.7-2.6,5.1c-1,1.2-2.2,2.2-3.7,2.9c-1.2,0.6-2.6,1.1-4.2,1.3
			s-3.7,0.4-6.3,0.4H306.5z M313.7,286.2c0.6,0.1,1.5,0.1,2.8,0.1c1.3,0,2.5-0.1,3.5-0.3s2-0.6,2.8-1s1.6-1.1,2.3-2s1.2-1.8,1.6-2.9
			s0.7-2.3,0.9-3.6s0.3-2.8,0.3-4.4c0-3.2-0.5-5.8-1.4-7.8s-2.2-3.5-3.9-4.5s-3.7-1.4-6-1.4c-1.1,0-2.1,0-3,0.1V286.2z"/>
	</g>
</g>
<g>
	<g>
		<path class="st1" d="M617.7,502.4v-39.8h19.6c3.9,0,6.9,1,8.9,2.9c2,1.9,3.1,4.6,3.1,7.9c0,1.7-0.5,3.3-1.4,4.6
			c-0.9,1.3-2.1,2.3-3.5,2.9c0.8,0.3,1.6,0.7,2.4,1.2c0.7,0.5,1.4,1.1,1.9,1.9c0.5,0.8,1,1.7,1.3,2.8c0.3,1.1,0.5,2.3,0.5,3.8
			c0,3.6-1.2,6.5-3.7,8.7c-2.4,2.1-6.2,3.2-11.2,3.2H617.7z M625.7,469.5v8.6h10.5c3.4,0,5-1.4,5-4.3c0-1.5-0.4-2.6-1.3-3.3
			c-0.9-0.7-2.3-1-4.2-1H625.7z M636.3,495.6c1.9,0,3.4-0.5,4.5-1.6s1.6-2.4,1.6-4.1c0-1.8-0.5-3-1.6-3.8c-1.1-0.8-2.5-1.2-4.4-1.2
			h-10.7v10.7H636.3z"/>
	</g>
</g>
<g>
	<g>
		<polyline class="st3" points="504.2,97.2 274,363 581.8,459.1 		"/>
		<g>
			<path class="st4" d="M520,79c-10.6,5.8-25.3,11.8-36.8,13.4l18.9,7.3l9.9,17.7C512,105.7,515.7,90.3,520,79z"/>
		</g>
		<g>
			<path class="st4" d="M604.8,466.3c-12.1,0.6-27.7,3.3-38.3,8l12.2-16.1l-0.9-20.2C583.9,447.8,595.2,458.9,604.8,466.3z"/>
		</g>
	</g>
</g>
<g>
	<g>
		<path class="st1" d="M515.7,71.4V31.6h15.4c2.7,0,5.2,0.4,7.4,1.3c2.3,0.9,4.2,2.2,5.8,3.9c1.6,1.7,2.9,3.7,3.8,6.1
			s1.4,5.1,1.4,8.2c0,3-0.4,5.8-1.2,8.3c-0.8,2.5-2,4.6-3.5,6.4c-1.5,1.8-3.3,3.2-5.5,4.1c-2.1,1-4.5,1.5-7,1.5H515.7z M530.7,64.6
			c3.6,0,6.3-1.1,7.9-3.4c1.6-2.3,2.5-5.6,2.5-10.2c0-2.2-0.2-4.2-0.6-5.8c-0.4-1.6-1-2.9-1.9-3.9c-0.9-1-2.1-1.8-3.5-2.2
			c-1.4-0.5-3.1-0.7-5.1-0.7h-6.2v26.2H530.7z"/>
	</g>
</g>
<g>
	<g>
		<path class="st0" d="M429.9,411.7c31.7-42.2,35.1-121.5-17.7-171.3"/>
		<g>
			<path class="st1" d="M393.2,225.4c11.5,3.8,27,7.1,38.6,6.6l-17.3,10.5l-6.6,19.1C405.9,250.2,399.4,235.8,393.2,225.4z"/>
		</g>
	</g>
</g>
<g>
</g>
<g>
</g>
<g>
</g>
<g>
</g>
<g>
</g>
<g>
</g>
<g>
</g>
<g>
</g>
<g>
</g>
<g>
</g>
<g>
</g>
<g>
</g>
</svg>
