<svg style="position: absolute; width: 0; height: 0; overflow: hidden;" version="1.1" xmlns="http://www.w3.org/2000/svg" xmlns:xlink="http://www.w3.org/1999/xlink">
<defs>
<symbol id="ca" viewBox="0 0 43 32">
<title>ca</title>
<path fill="#fff" style="fill: var(--color1, #fff)" d="M10.012 0h22.642v32h-22.642z"></path>
<path fill="#bf0a30" style="fill: var(--color2, #bf0a30)" d="M-1.309 0h11.321v32h-11.321zM32.654 0h11.321v32h-11.321zM13.398 15.463l-0.879 0.3 4.091 3.59c0.309 0.923-0.108 1.195-0.373 1.679l4.441-0.564-0.116 4.47 0.92-0.026-0.201-4.432 4.446 0.527c-0.275-0.581-0.52-0.89-0.265-1.819l4.088-3.402-0.715-0.259c-0.585-0.451 0.253-2.174 0.379-3.261 0 0-2.387 0.821-2.544 0.391l-0.608-1.168-2.172 2.386c-0.237 0.057-0.338-0.037-0.394-0.238l1.003-4.985-1.589 0.894c-0.133 0.057-0.266 0.008-0.354-0.147l-1.528-3.066-1.576 3.184c-0.119 0.114-0.238 0.127-0.336 0.050l-1.513-0.849 0.908 4.946c-0.072 0.196-0.245 0.252-0.449 0.145l-2.076-2.359c-0.272 0.435-0.456 1.146-0.815 1.305-0.359 0.149-1.561-0.301-2.367-0.477 0.275 0.993 1.136 2.644 0.591 3.185z"></path>
</symbol>
<symbol id="itchio" viewBox="0 0 32 32">
<title>itchio</title>
<path d="M4.158 1.718l-4.158 4.881v1.392c0 1.772 1.627 3.308 3.092 3.308 1.772 0 3.236-1.482 3.236-3.254 0 1.772 1.428 3.254 3.182 3.254s3.146-1.482 3.146-3.254c0 1.772 1.519 3.254 3.272 3.254 1.772 0 3.236-1.482 3.236-3.254 0 1.772 1.428 3.254 3.2 3.254s3.128-1.482 3.128-3.254c0 1.772 1.519 3.254 3.29 3.254s3.218-1.482 3.218-3.254v-1.446l-4.52-4.881c-7.883-0.018-23.322 0-23.322 0z"></path>
<path d="M6.328 10.486c-0.163 0.307-0.398 0.56-0.651 0.795-0.669 0.669-1.591 1.067-2.585 1.067-0.253 0-0.922-0.145-0.922-0.145v18.079h27.842v-18.169c-0.416 0.163-0.759 0.253-1.229 0.253-1.012 0-1.934-0.416-2.585-1.067-0.235-0.235-0.452-0.506-0.615-0.814-0.163 0.307-0.38 0.579-0.615 0.814-0.669 0.669-1.573 1.067-2.585 1.067s-1.934-0.416-2.585-1.067c-0.235-0.235-0.452-0.506-0.615-0.814-0.163 0.307-0.38 0.579-0.615 0.814-0.669 0.669-1.591 1.067-2.585 1.067s-1.934-0.416-2.585-1.067c-0.235-0.235-0.452-0.506-0.615-0.814-0.163 0.307-0.38 0.579-0.615 0.814-0.669 0.669-1.573 1.067-2.585 1.067s-1.934-0.416-2.585-1.067c-0.307-0.253-0.506-0.506-0.669-0.814v0zM10.341 13.831c1.211 0 2.079 0.777 2.386 1.971h6.707c0.307-1.193 1.157-1.971 2.386-1.971 1.934 0 4.050 1.989 4.719 4.393l1.591 5.785c0.669 2.423-0.38 4.393-2.314 4.393-1.699 0-3.543-1.519-4.411-3.543h-10.649c-0.868 2.007-2.712 3.544-4.411 3.544-1.934 0-2.965-1.989-2.314-4.393l1.591-5.785c0.669-2.405 2.784-4.393 4.719-4.393z"></path>
<path d="M13.686 18.947l-2.26 2.423h2.242v2.513h4.447v-2.513h2.386l-2.26-2.423-2.278-2.423-2.278 2.423z"></path>
</symbol>
<symbol id="rss" viewBox="0 0 28 32">
<title>rss</title>
<path d="M8.005 25.997c0 2.211-1.792 4.003-4.003 4.003s-4.003-1.792-4.003-4.003 1.792-4.003 4.003-4.003 4.003 1.792 4.003 4.003zM18.984 28.951c-0.522-9.662-8.262-17.412-17.934-17.934-0.571-0.031-1.049 0.428-1.049 1v3.004c0 0.526 0.406 0.967 0.93 1.001 6.989 0.455 12.592 6.044 13.048 13.048 0.034 0.525 0.475 0.93 1.001 0.93h3.004c0.572 0 1.031-0.478 1-1.049zM27.999 28.969c-0.525-14.614-12.283-26.441-26.968-26.968-0.564-0.020-1.031 0.436-1.031 1v3.004c0 0.539 0.427 0.978 0.966 1 11.949 0.49 21.539 10.082 22.029 22.029 0.022 0.539 0.461 0.966 1 0.966h3.004c0.565-0 1.021-0.467 1-1.032z"></path>
</symbol>
<symbol id="github" viewBox="0 0 32 32">
<title>github</title>
<path d="M10.369 24.837c0 0.125-0.144 0.225-0.325 0.225-0.206 0.019-0.35-0.081-0.35-0.225 0-0.125 0.144-0.225 0.325-0.225 0.188-0.019 0.35 0.081 0.35 0.225zM8.425 24.556c-0.044 0.125 0.081 0.269 0.269 0.306 0.162 0.063 0.35 0 0.387-0.125s-0.081-0.269-0.269-0.325c-0.162-0.044-0.344 0.019-0.387 0.144zM11.188 24.45c-0.181 0.044-0.306 0.163-0.287 0.306 0.019 0.125 0.181 0.206 0.369 0.163 0.181-0.044 0.306-0.163 0.287-0.288-0.019-0.119-0.188-0.2-0.369-0.181zM15.3 0.5c-8.669 0-15.3 6.581-15.3 15.25 0 6.931 4.362 12.863 10.594 14.95 0.8 0.144 1.081-0.35 1.081-0.756 0-0.387-0.019-2.525-0.019-3.837 0 0-4.375 0.938-5.294-1.863 0 0-0.713-1.819-1.737-2.288 0 0-1.431-0.981 0.1-0.962 0 0 1.556 0.125 2.412 1.613 1.369 2.413 3.662 1.719 4.556 1.306 0.144-1 0.55-1.694 1-2.106-3.494-0.387-7.019-0.894-7.019-6.906 0-1.719 0.475-2.581 1.475-3.681-0.162-0.406-0.694-2.081 0.162-4.244 1.306-0.406 4.313 1.688 4.313 1.688 1.25-0.35 2.594-0.531 3.925-0.531s2.675 0.181 3.925 0.531c0 0 3.006-2.1 4.313-1.688 0.856 2.169 0.325 3.838 0.163 4.244 1 1.106 1.613 1.969 1.613 3.681 0 6.031-3.681 6.512-7.175 6.906 0.575 0.494 1.063 1.431 1.063 2.9 0 2.106-0.019 4.712-0.019 5.225 0 0.406 0.288 0.9 1.081 0.756 6.25-2.075 10.488-8.006 10.488-14.938 0-8.669-7.031-15.25-15.7-15.25zM6.075 22.056c-0.081 0.063-0.063 0.206 0.044 0.325 0.1 0.1 0.244 0.144 0.325 0.063 0.081-0.063 0.063-0.206-0.044-0.325-0.1-0.1-0.244-0.144-0.325-0.063zM5.4 21.55c-0.044 0.081 0.019 0.181 0.144 0.244 0.1 0.063 0.225 0.044 0.269-0.044 0.044-0.081-0.019-0.181-0.144-0.244-0.125-0.038-0.225-0.019-0.269 0.044zM7.425 23.775c-0.1 0.081-0.063 0.269 0.081 0.387 0.144 0.144 0.325 0.163 0.406 0.063 0.081-0.081 0.044-0.269-0.081-0.387-0.138-0.144-0.325-0.163-0.406-0.063zM6.713 22.856c-0.1 0.063-0.1 0.225 0 0.369s0.269 0.206 0.35 0.144c0.1-0.081 0.1-0.244 0-0.387-0.088-0.144-0.25-0.206-0.35-0.125z"></path>
</symbol>
</defs>
</svg>
