<?xml version="1.0" encoding="utf-8"?>
<!-- Generator: Adobe Illustrator 21.0.2, SVG Export Plug-In . SVG Version: 6.00 Build 0)  -->
<svg version="1.1" id="Layer_1" xmlns="http://www.w3.org/2000/svg" xmlns:xlink="http://www.w3.org/1999/xlink" x="0px" y="0px"
	 viewBox="0 0 512 256" style="enable-background:new 0 0 512 256;" xml:space="preserve">
<style type="text/css">
	.st0{fill:none;stroke:#88c0d0;stroke-width:4;stroke-linecap:round;stroke-linejoin:round;stroke-miterlimit:10;}
	.st1{fill:none;stroke:#8fbcbb;stroke-width:4;stroke-linecap:round;stroke-linejoin:round;stroke-miterlimit:10;}
	.st2{fill:none;stroke:#bf616a;stroke-width:4;stroke-linecap:round;stroke-linejoin:round;stroke-miterlimit:10;}
	.st3{fill:#ebcb8b;}
	.st4{fill:none;stroke:#d08770;stroke-width:4;stroke-linecap:round;stroke-linejoin:round;}
	.st5{fill:#d08770;}
</style>
<line class="st0" x1="387" y1="51" x2="387" y2="235"/>
<line class="st0" x1="233" y1="162" x2="469" y2="162"/>
<rect x="58" y="31" class="st0" width="83" height="52"/>
<polygon class="st1" points="107,68 184,54 131,137 "/>
<polyline class="st2" points="245.5,156.7 326.7,68.5 407.8,68.5 432.5,125 432.5,176.1 342.5,192 245.5,192 245.5,156.7 "/>
<g>
	<line class="st3" x1="75.5" y1="142.5" x2="156.5" y2="186.5"/>
	<g>
		<line class="st4" x1="75.5" y1="142.5" x2="135.3" y2="175"/>
		<g>
			<path class="st5" d="M156.5,186.5c-12-1.7-27.8-2.1-39.1,0.4l15.1-13.4l3-20C139.6,164.3,148.5,177.4,156.5,186.5z"/>
		</g>
	</g>
</g>
<g>
	<path class="st5" d="M71.3,210.1v-15.9h6.2c1.1,0,2.1,0.2,3,0.5c0.9,0.4,1.7,0.9,2.3,1.5s1.2,1.5,1.5,2.4c0.4,1,0.6,2,0.6,3.3
		s-0.2,2.3-0.5,3.3c-0.3,1-0.8,1.9-1.4,2.6s-1.3,1.3-2.2,1.7c-0.8,0.4-1.8,0.6-2.8,0.6H71.3z M77.3,207.4c1.5,0,2.5-0.5,3.2-1.4
		c0.7-0.9,1-2.3,1-4.1c0-0.9-0.1-1.7-0.2-2.3c-0.2-0.6-0.4-1.2-0.8-1.6s-0.8-0.7-1.4-0.9c-0.6-0.2-1.2-0.3-2-0.3h-2.5v10.5H77.3z"/>
	<path class="st5" d="M85.9,196.9V194h3.1v2.9H85.9z M85.9,210.1v-11.8h3.1v11.8H85.9z"/>
	<path class="st5" d="M90.4,210.1v-11.8h2.9v1.4c0.3-0.4,0.5-0.7,0.8-0.9c0.3-0.2,0.6-0.4,0.9-0.5c0.3-0.1,0.6-0.2,0.9-0.2
		c0.3,0,0.6,0,0.9,0h0.4v3.2c-0.3,0-0.6-0.1-0.9-0.1c-1.9,0-2.9,1-2.9,2.9v6.1H90.4z"/>
	<path class="st5" d="M100.2,205c0,0.9,0.3,1.6,0.8,2.1c0.5,0.5,1.1,0.8,1.9,0.8c0.5,0,1-0.1,1.4-0.3c0.4-0.2,0.6-0.6,0.8-1h3.2
		c-0.4,1.2-1,2.2-1.9,2.8c-0.9,0.7-2,1-3.3,1c-3.9,0-5.9-2.1-5.9-6.4c0-0.9,0.1-1.7,0.4-2.5c0.3-0.7,0.6-1.4,1.1-1.9
		c0.5-0.5,1.1-0.9,1.8-1.2c0.7-0.3,1.5-0.4,2.4-0.4c1.8,0,3.2,0.6,4.1,1.8s1.4,2.9,1.4,5.3H100.2z M105.1,203.1
		c0-0.4-0.1-0.8-0.2-1.1c-0.1-0.3-0.3-0.6-0.5-0.8s-0.5-0.4-0.8-0.5c-0.3-0.1-0.6-0.2-0.9-0.2c-0.6,0-1.2,0.2-1.6,0.7
		s-0.7,1.1-0.8,1.9H105.1z"/>
	<path class="st5" d="M119.9,205.9c-0.1,0.7-0.3,1.3-0.6,1.9c-0.3,0.6-0.7,1-1.2,1.4c-0.5,0.4-1,0.7-1.6,0.9c-0.6,0.2-1.3,0.3-2,0.3
		c-0.8,0-1.5-0.1-2.2-0.4c-0.7-0.3-1.2-0.7-1.7-1.2s-0.9-1.2-1.1-2c-0.3-0.8-0.4-1.7-0.4-2.8s0.1-2,0.4-2.7c0.3-0.8,0.6-1.4,1.1-1.9
		s1.1-0.9,1.7-1.1c0.7-0.2,1.4-0.4,2.3-0.4c0.8,0,1.5,0.1,2.1,0.3c0.6,0.2,1.2,0.5,1.7,0.9c0.5,0.4,0.8,0.9,1.1,1.4
		c0.3,0.6,0.4,1.2,0.5,1.9h-3.1c-0.1-0.6-0.3-1.1-0.7-1.4c-0.4-0.3-0.9-0.5-1.5-0.5c-0.3,0-0.6,0.1-0.9,0.2
		c-0.3,0.1-0.5,0.3-0.8,0.6c-0.2,0.3-0.4,0.6-0.5,1.1c-0.1,0.4-0.2,1-0.2,1.6c0,1.3,0.2,2.3,0.7,2.9c0.5,0.6,1,0.9,1.6,0.9
		c0.6,0,1.1-0.2,1.6-0.5c0.4-0.3,0.7-0.8,0.7-1.5H119.9z"/>
	<path class="st5" d="M127.4,202.4h2.9v3.4c0,0.6-0.1,1.2-0.3,1.8c-0.2,0.6-0.5,1.1-0.9,1.5c-0.4,0.4-0.9,0.8-1.5,1
		c-0.6,0.3-1.3,0.4-2.1,0.4c-0.9,0-1.6-0.1-2.2-0.4c-0.6-0.3-1.1-0.6-1.5-1c-0.4-0.4-0.7-0.9-0.9-1.5c-0.2-0.6-0.3-1.2-0.3-1.8
		v-10.6h3.1v3.2h6.5v2.2h-6.5v4.8c0,0.8,0.1,1.3,0.4,1.7c0.3,0.4,0.7,0.6,1.4,0.6c0.6,0,1.1-0.2,1.4-0.6c0.3-0.4,0.4-1,0.4-1.7
		V202.4z"/>
	<path class="st5" d="M131.5,196.9V194h3.1v2.9H131.5z M131.5,210.1v-11.8h3.1v11.8H131.5z"/>
	<path class="st5" d="M141.7,210.4c-1,0-1.8-0.2-2.6-0.5s-1.4-0.7-1.9-1.3c-0.5-0.5-0.9-1.2-1.2-2c-0.3-0.8-0.4-1.6-0.4-2.5
		c0-0.9,0.1-1.8,0.4-2.5c0.3-0.8,0.7-1.4,1.2-2c0.5-0.5,1.2-1,1.9-1.3s1.6-0.4,2.5-0.4c0.9,0,1.8,0.1,2.5,0.4
		c0.7,0.3,1.4,0.7,1.9,1.2c0.5,0.5,0.9,1.2,1.2,2c0.3,0.8,0.4,1.6,0.4,2.6c0,0.9-0.1,1.8-0.4,2.6c-0.3,0.8-0.7,1.4-1.2,2
		c-0.5,0.5-1.2,1-1.9,1.3S142.6,210.4,141.7,210.4z M141.7,207.8c1.9,0,2.9-1.2,2.9-3.6c0-2.4-1-3.6-2.9-3.6c-1.9,0-2.9,1.2-2.9,3.6
		C138.9,206.6,139.8,207.8,141.7,207.8z"/>
	<path class="st5" d="M156.3,210.1V203c0-0.9-0.2-1.5-0.5-1.8c-0.3-0.3-0.8-0.5-1.6-0.5c-1.6,0-2.4,0.9-2.4,2.7v6.8h-3.1v-11.8h3
		v1.7c0.4-0.7,0.9-1.2,1.5-1.5c0.6-0.3,1.4-0.5,2.4-0.5c0.6,0,1.1,0.1,1.6,0.3s0.9,0.4,1.2,0.8c0.3,0.3,0.6,0.7,0.8,1.2
		s0.3,1.1,0.3,1.7v8.2H156.3z"/>
</g>
<circle class="st3" cx="433" cy="176" r="6"/>
<g>
	<path class="st3" d="M418.4,206.9c-0.1-0.8-0.4-1.4-0.9-1.8c-0.5-0.4-1.3-0.6-2.3-0.6c-1.9,0-2.8,0.6-2.8,1.9
		c0,0.5,0.2,0.9,0.6,1.2c0.4,0.3,1,0.6,1.9,0.8c1,0.2,1.9,0.5,2.7,0.7c0.8,0.2,1.4,0.4,2.1,0.7c0.4,0.1,0.7,0.3,1,0.5
		c0.3,0.2,0.6,0.5,0.8,0.8c0.2,0.3,0.4,0.7,0.5,1.2c0.1,0.4,0.2,1,0.2,1.6c0,0.8-0.2,1.4-0.5,2c-0.3,0.6-0.8,1.1-1.3,1.5
		c-0.5,0.4-1.2,0.7-1.9,0.9c-0.7,0.2-1.5,0.3-2.3,0.3c-2.3,0-4.1-0.4-5.2-1.3s-1.8-2.2-1.8-4h3.2c0,0.8,0.3,1.5,1,1.9
		s1.5,0.7,2.4,0.7c1.1,0,1.9-0.2,2.4-0.6s0.8-0.9,0.8-1.6c0-0.3,0-0.5-0.1-0.7c-0.1-0.2-0.2-0.4-0.4-0.6c-0.2-0.2-0.4-0.3-0.8-0.5
		c-0.3-0.1-0.7-0.3-1.2-0.4c-1.2-0.3-2.3-0.5-3.2-0.8c-0.9-0.3-1.6-0.6-2.2-1c-0.6-0.4-1-0.9-1.3-1.4c-0.3-0.6-0.4-1.3-0.4-2.1
		c0-0.7,0.1-1.3,0.4-1.8c0.2-0.6,0.6-1.1,1.1-1.5s1.1-0.8,1.8-1c0.7-0.2,1.6-0.4,2.6-0.4c1,0,1.8,0.1,2.6,0.4s1.4,0.6,2,1.1
		c0.6,0.5,1,1,1.3,1.7c0.3,0.6,0.5,1.4,0.5,2.1H418.4z"/>
	<path class="st3" d="M422.9,204.9V202h3.1v2.9H422.9z M422.9,218.1v-11.8h3.1v11.8H422.9z"/>
	<path class="st3" d="M441.2,218.1V211c0-0.7-0.2-1.3-0.5-1.8c-0.3-0.4-0.8-0.7-1.3-0.7c-0.6,0-1.1,0.2-1.4,0.7
		c-0.4,0.5-0.6,1.1-0.6,1.8v7.1h-3.1V211c0-0.5,0-0.9-0.1-1.2c-0.1-0.3-0.2-0.5-0.3-0.7s-0.3-0.3-0.6-0.4s-0.5-0.1-0.9-0.1
		c-1.3,0-1.9,0.8-1.9,2.3v7.2h-3.1v-11.8h2.9v1.7c0.4-0.8,0.9-1.3,1.4-1.6c0.6-0.3,1.2-0.4,2-0.4c0.4,0,0.8,0,1.1,0.1
		c0.3,0.1,0.6,0.2,0.8,0.3c0.2,0.2,0.5,0.3,0.7,0.6c0.2,0.2,0.4,0.5,0.7,0.9c0.3-0.7,0.7-1.1,1.3-1.4c0.5-0.3,1.2-0.4,1.9-0.4
		c0.6,0,1.1,0.1,1.6,0.3c0.5,0.2,0.9,0.5,1.3,0.8c0.4,0.4,0.6,0.8,0.8,1.3c0.2,0.5,0.3,1,0.3,1.5v8.2H441.2z"/>
	<path class="st3" d="M445.5,223.7v-17.4h3l0,1.4c0.7-1.2,1.8-1.8,3.3-1.8c0.7,0,1.4,0.1,2.1,0.4c0.6,0.3,1.2,0.7,1.6,1.2
		c0.4,0.5,0.8,1.2,1.1,2c0.3,0.8,0.4,1.7,0.4,2.7c0,0.9-0.1,1.7-0.3,2.5c-0.2,0.7-0.5,1.4-0.9,1.9s-0.9,1-1.5,1.3s-1.3,0.4-2.1,0.4
		c-1.5,0-2.6-0.6-3.5-1.8v7.1H445.5z M451,215.8c1.8,0,2.7-1.2,2.7-3.6c0-1.1-0.2-1.9-0.7-2.6s-1.1-1-1.9-1c-0.8,0-1.4,0.3-1.9,0.9
		s-0.8,1.4-0.8,2.4C448.4,214.5,449.3,215.8,451,215.8z"/>
	<path class="st3" d="M457.9,218.1V202h3.1v16.1H457.9z"/>
	<path class="st3" d="M465.1,213c0,0.9,0.3,1.6,0.8,2.1c0.5,0.5,1.1,0.8,1.9,0.8c0.5,0,1-0.1,1.4-0.3s0.6-0.6,0.8-1h3.2
		c-0.4,1.2-1,2.2-1.9,2.8s-2,1-3.3,1c-3.9,0-5.9-2.1-5.9-6.4c0-0.9,0.1-1.7,0.4-2.5c0.3-0.7,0.6-1.4,1.1-1.9
		c0.5-0.5,1.1-0.9,1.8-1.2c0.7-0.3,1.5-0.4,2.4-0.4c1.8,0,3.2,0.6,4.1,1.8c0.9,1.2,1.4,2.9,1.4,5.3H465.1z M470,211.1
		c0-0.4-0.1-0.8-0.2-1.1c-0.1-0.3-0.3-0.6-0.5-0.8c-0.2-0.2-0.5-0.4-0.8-0.5c-0.3-0.1-0.6-0.2-0.9-0.2c-0.6,0-1.2,0.2-1.6,0.7
		s-0.7,1.1-0.8,1.9H470z"/>
	<path class="st3" d="M480.4,218.1l-2.1-3.6l-2,3.6h-3.7l4-6l-3.8-5.8h3.8l2,3.4l2-3.4h3.6l-3.9,5.8l4,6H480.4z"/>
</g>
<g>
</g>
<g>
</g>
<g>
</g>
<g>
</g>
<g>
</g>
<g>
</g>
<g>
</g>
<g>
</g>
<g>
</g>
<g>
</g>
<g>
</g>
<g>
</g>
</svg>
